<svg width="24" height="24" viewBox="0 0 24 24" fill="none" xmlns="http://www.w3.org/2000/svg">
<path fill-rule="evenodd" clip-rule="evenodd" d="M21.5241 9.75286C20.885 5.81946 17.5441 2.89322 13.5608 2.77803C13.3714 2.77061 13.1868 2.83879 13.0477 2.96757C12.9086 3.09634 12.8265 3.27513 12.8193 3.46453V3.46453V3.5286L13.2678 10.238C13.2973 10.6896 13.6856 11.033 14.1374 11.0069L20.8651 10.5584C21.0547 10.5443 21.2308 10.4553 21.3545 10.311C21.4782 10.1666 21.5393 9.97895 21.5241 9.78947V9.75286Z" stroke="#FAFAFA" stroke-width="1.5" stroke-linecap="round" stroke-linejoin="round"/>
<path d="M8.90151 6.76888C9.32947 6.66988 9.76741 6.88885 9.94499 7.29061C9.9915 7.38511 10.0195 7.48765 10.0274 7.59267C10.1189 8.89245 10.3111 11.7391 10.421 13.2769C10.4397 13.5539 10.5681 13.812 10.7777 13.9941C10.9872 14.1762 11.2608 14.2673 11.5377 14.2471V14.2471L17.1853 13.8993C17.4374 13.8842 17.6846 13.9739 17.8683 14.1472C18.052 14.3205 18.156 14.5621 18.1555 14.8146V14.8146C17.9266 18.225 15.4764 21.0761 12.1392 21.8151C8.80201 22.5541 5.37718 21.0041 3.72988 18.0092C3.23813 17.1472 2.92672 16.1943 2.81455 15.2082C2.7666 14.9056 2.74821 14.5991 2.75963 14.2929C2.76935 10.6509 5.32714 7.51284 8.89236 6.76888" stroke="#FAFAFA" stroke-width="1.5" stroke-linecap="round" stroke-linejoin="round"/>
</svg>
