<svg width="182" height="20" viewBox="0 0 182 20" fill="none" xmlns="http://www.w3.org/2000/svg">
<path d="M9.8127 7H11.2672C10.8354 4.75 8.94907 3.20455 6.49452 3.20455C3.51157 3.20455 1.40361 5.5 1.40361 9.18182C1.40361 12.8636 3.49452 15.1591 6.58543 15.1591C9.35816 15.1591 11.3354 13.3125 11.3354 10.4318V9.18182H6.90361V10.4318H9.97179C9.93202 12.5227 8.55702 13.8409 6.58543 13.8409C4.42634 13.8409 2.76725 12.2045 2.76725 9.18182C2.76725 6.15909 4.42634 4.52273 6.49452 4.52273C8.17634 4.52273 9.31838 5.47159 9.8127 7ZM14.047 15H15.3879V9.47727C15.3879 8.29545 16.3197 7.43182 17.5924 7.43182C17.9504 7.43182 18.3197 7.5 18.4106 7.52273V6.15909C18.2572 6.14773 17.9049 6.13636 17.7061 6.13636C16.6606 6.13636 15.7515 6.72727 15.4333 7.59091H15.3424V6.27273H14.047V15ZM23.8736 15.1818C25.6463 15.1818 26.9417 14.2955 27.3508 12.9773L26.0554 12.6136C25.7145 13.5227 24.9247 13.9773 23.8736 13.9773C22.2997 13.9773 21.2145 12.9602 21.152 11.0909H27.4872V10.5227C27.4872 7.27273 25.5554 6.15909 23.7372 6.15909C21.3736 6.15909 19.8054 8.02273 19.8054 10.7045C19.8054 13.3864 21.3508 15.1818 23.8736 15.1818ZM21.152 9.93182C21.2429 8.57386 22.2031 7.36364 23.7372 7.36364C25.1917 7.36364 26.1236 8.45455 26.1236 9.93182H21.152ZM32.5751 15.2045C34.0979 15.2045 34.8933 14.3864 35.1661 13.8182H35.2342V15H36.5751V9.25C36.5751 6.47727 34.4615 6.15909 33.3479 6.15909C32.0297 6.15909 30.5297 6.61364 29.8479 8.20455L31.1206 8.65909C31.4161 8.02273 32.1149 7.34091 33.3933 7.34091C34.6263 7.34091 35.2342 7.99432 35.2342 9.11364V9.15909C35.2342 9.80682 34.5751 9.75 32.9842 9.95455C31.3649 10.1648 29.5979 10.5227 29.5979 12.5227C29.5979 14.2273 30.9161 15.2045 32.5751 15.2045ZM32.7797 14C31.7115 14 30.9388 13.5227 30.9388 12.5909C30.9388 11.5682 31.8706 11.25 32.9161 11.1136C33.4842 11.0455 35.007 10.8864 35.2342 10.6136V11.8409C35.2342 12.9318 34.3706 14 32.7797 14ZM43.298 6.27273H41.4344V4.18182H40.0935V6.27273H38.7753V7.40909H40.0935V12.8636C40.0935 14.3864 41.3208 15.1136 42.4571 15.1136C42.9571 15.1136 43.2753 15.0227 43.4571 14.9545L43.1844 13.75C43.0708 13.7727 42.889 13.8182 42.5935 13.8182C42.0026 13.8182 41.4344 13.6364 41.4344 12.5V7.40909H43.298V6.27273ZM55.4115 3.36364V11.6818C55.4115 13.1307 54.7183 13.9091 53.5024 13.9091C52.3944 13.9091 51.5933 13.2614 51.5933 12.2727H50.2069C50.2069 14.0625 51.5933 15.1591 53.5024 15.1591C55.5251 15.1591 56.8205 13.9148 56.8205 11.6818V3.36364H55.4115ZM63.488 15.1818C65.8517 15.1818 67.4426 13.3864 67.4426 10.6818C67.4426 7.95455 65.8517 6.15909 63.488 6.15909C61.1244 6.15909 59.5335 7.95455 59.5335 10.6818C59.5335 13.3864 61.1244 15.1818 63.488 15.1818ZM63.488 13.9773C61.6926 13.9773 60.8744 12.4318 60.8744 10.6818C60.8744 8.93182 61.6926 7.36364 63.488 7.36364C65.2835 7.36364 66.1017 8.93182 66.1017 10.6818C66.1017 12.4318 65.2835 13.9773 63.488 13.9773ZM70.1513 15H71.4467V13.6591H71.6058C71.9013 14.1364 72.4695 15.1818 74.1513 15.1818C76.3331 15.1818 77.8558 13.4318 77.8558 10.6591C77.8558 7.90909 76.3331 6.15909 74.1286 6.15909C72.424 6.15909 71.9013 7.20455 71.6058 7.65909H71.4922V3.36364H70.1513V15ZM71.4695 10.6364C71.4695 8.68182 72.3331 7.36364 73.9695 7.36364C75.674 7.36364 76.5149 8.79545 76.5149 10.6364C76.5149 12.5 75.6513 13.9773 73.9695 13.9773C72.3558 13.9773 71.4695 12.6136 71.4695 10.6364ZM82.387 13.4091H80.9324L80.8642 14.0455C80.6995 15.5852 80.3756 17.1193 80.2279 17.8409H81.2506C81.5233 17.0682 82.1029 15.3182 82.2961 14.0227L82.387 13.4091ZM90.9904 15L92.1609 11.7045H96.8654L98.0359 15H99.5132L95.2404 3.36364H93.7859L89.5132 15H90.9904ZM92.6041 10.4545L94.4677 5.20455H94.5586L96.4222 10.4545H92.6041ZM102.965 9.75C102.965 8.22727 103.908 7.36364 105.192 7.36364C106.436 7.36364 107.192 8.17614 107.192 9.54545V15H108.533V9.45455C108.533 7.22727 107.345 6.15909 105.578 6.15909C104.26 6.15909 103.442 6.75 103.033 7.63636H102.919V6.27273H101.624V15H102.965V9.75ZM114.986 18.4545C117.077 18.4545 118.759 17.5 118.759 15.25V6.27273H117.463V7.65909H117.327C117.031 7.20455 116.486 6.15909 114.781 6.15909C112.577 6.15909 111.054 7.90909 111.054 10.5909C111.054 13.3182 112.645 14.8636 114.759 14.8636C116.463 14.8636 117.009 13.8636 117.304 13.3864H117.418V15.1591C117.418 16.6136 116.395 17.2727 114.986 17.2727C113.401 17.2727 112.844 16.4375 112.486 15.9545L111.418 16.7045C111.963 17.6193 113.037 18.4545 114.986 18.4545ZM114.94 13.6591C113.259 13.6591 112.395 12.3864 112.395 10.5682C112.395 8.79545 113.236 7.36364 114.94 7.36364C116.577 7.36364 117.44 8.68182 117.44 10.5682C117.44 12.5 116.554 13.6591 114.94 13.6591ZM125.352 15.1818C127.125 15.1818 128.42 14.2955 128.83 12.9773L127.534 12.6136C127.193 13.5227 126.403 13.9773 125.352 13.9773C123.778 13.9773 122.693 12.9602 122.631 11.0909H128.966V10.5227C128.966 7.27273 127.034 6.15909 125.216 6.15909C122.852 6.15909 121.284 8.02273 121.284 10.7045C121.284 13.3864 122.83 15.1818 125.352 15.1818ZM122.631 9.93182C122.722 8.57386 123.682 7.36364 125.216 7.36364C126.67 7.36364 127.602 8.45455 127.602 9.93182H122.631ZM132.827 3.36364H131.486V15H132.827V3.36364ZM138.331 15.2045C139.853 15.2045 140.649 14.3864 140.922 13.8182H140.99V15H142.331V9.25C142.331 6.47727 140.217 6.15909 139.103 6.15909C137.785 6.15909 136.285 6.61364 135.603 8.20455L136.876 8.65909C137.172 8.02273 137.871 7.34091 139.149 7.34091C140.382 7.34091 140.99 7.99432 140.99 9.11364V9.15909C140.99 9.80682 140.331 9.75 138.74 9.95455C137.121 10.1648 135.353 10.5227 135.353 12.5227C135.353 14.2273 136.672 15.2045 138.331 15.2045ZM138.535 14C137.467 14 136.694 13.5227 136.694 12.5909C136.694 11.5682 137.626 11.25 138.672 11.1136C139.24 11.0455 140.763 10.8864 140.99 10.6136V11.8409C140.99 12.9318 140.126 14 138.535 14Z" fill="#666666"/>
<path d="M172 20C177.523 20 182 15.5228 182 10C182 4.47715 177.523 0 172 0C166.477 0 162 4.47715 162 10C162 15.5228 166.477 20 172 20Z" fill="#FFCC4D"/>
<path d="M167.842 13.1228C167.867 13.2223 168.491 15.5556 172.001 15.5556C175.511 15.5556 176.134 13.2223 176.159 13.1228C176.19 13.0023 176.135 12.8773 176.027 12.8151C175.919 12.7534 175.784 12.7717 175.694 12.8578C175.684 12.8684 174.609 13.8889 172.001 13.8889C169.393 13.8889 168.317 12.8684 168.307 12.8584C168.254 12.8056 168.183 12.7778 168.112 12.7778C168.065 12.7778 168.018 12.7895 167.975 12.8134C167.866 12.8756 167.812 13.0017 167.842 13.1228Z" fill="#664500"/>
<path d="M168.666 9.44443C169.433 9.44443 170.055 8.57387 170.055 7.49999C170.055 6.4261 169.433 5.55554 168.666 5.55554C167.899 5.55554 167.277 6.4261 167.277 7.49999C167.277 8.57387 167.899 9.44443 168.666 9.44443Z" fill="#664500"/>
<path d="M175.334 9.44443C176.101 9.44443 176.723 8.57387 176.723 7.49999C176.723 6.4261 176.101 5.55554 175.334 5.55554C174.567 5.55554 173.945 6.4261 173.945 7.49999C173.945 8.57387 174.567 9.44443 175.334 9.44443Z" fill="#664500"/>
</svg>
