<svg width="336" height="143" viewBox="0 0 336 143" fill="none" xmlns="http://www.w3.org/2000/svg">
<rect width="335" height="143" rx="8" fill="url(#paint0_linear)"/>
<path d="M336 56C336 83.6142 313.614 106 286 106C258.386 106 236 83.6142 236 56C236 28.3858 258.386 6 286 6C313.614 6 336 28.3858 336 56ZM258.61 56C258.61 71.1271 270.873 83.3901 286 83.3901C301.127 83.3901 313.39 71.1271 313.39 56C313.39 40.8729 301.127 28.6099 286 28.6099C270.873 28.6099 258.61 40.8729 258.61 56Z" fill="#F0F0F0" fill-opacity="0.16"/>
<path d="M15.1261 75H16.1829V71.5909H18.092C18.1687 71.5909 18.2412 71.5909 18.3136 71.5866L20.1545 75H21.3818L19.4088 71.3949C20.521 71.0156 21.0409 70.108 21.0409 68.9489C21.0409 67.4062 20.1204 66.2727 18.075 66.2727H15.1261V75ZM16.1829 70.6364V67.2102H18.0409C19.4557 67.2102 20.0011 67.9006 20.0011 68.9489C20.0011 69.9972 19.4557 70.6364 18.0579 70.6364H16.1829ZM24.2187 66.2727H23.1619V75H24.2187V66.2727ZM27.0556 75L27.9335 72.5284H31.4619L32.3397 75H33.4477L30.2431 66.2727H29.1522L25.9477 75H27.0556ZM28.2659 71.5909L29.6636 67.6534H29.7318L31.1295 71.5909H28.2659ZM42.0875 66.2727H41.0477V73.142H40.9625L36.1898 66.2727H35.1671V75H36.2239V68.1477H36.3091L41.0648 75H42.0875V66.2727ZM44.9202 75L45.798 72.5284H49.3264L50.2043 75H51.3122L48.1077 66.2727H47.0168L43.8122 75H44.9202ZM46.1304 71.5909L47.5281 67.6534H47.5963L48.994 71.5909H46.1304ZM51.5348 67.2102H54.2791V75H55.3359V67.2102H58.0802V66.2727H51.5348V67.2102ZM71.1699 70.6364C71.1699 67.875 69.5506 66.1534 67.3176 66.1534C65.0847 66.1534 63.4654 67.875 63.4654 70.6364C63.4654 73.3977 65.0847 75.1193 67.3176 75.1193C69.5506 75.1193 71.1699 73.3977 71.1699 70.6364ZM70.1472 70.6364C70.1472 72.9034 68.9029 74.1307 67.3176 74.1307C65.7324 74.1307 64.4881 72.9034 64.4881 70.6364C64.4881 68.3693 65.7324 67.142 67.3176 67.142C68.9029 67.142 70.1472 68.3693 70.1472 70.6364ZM73.3069 75H78.4205V74.0625H74.3637V66.2727H73.3069V75ZM86.1442 66.2727V71.9659C86.1442 73.2443 85.2663 74.1648 83.8089 74.1648C82.3516 74.1648 81.4737 73.2443 81.4737 71.9659V66.2727H80.4169V72.0511C80.4169 73.8409 81.755 75.1534 83.8089 75.1534C85.8629 75.1534 87.201 73.8409 87.201 72.0511V66.2727H86.1442ZM91.2567 75H92.3476L94.2737 68.0455H94.3419L96.268 75H97.3589L99.7453 66.2727H98.6714L96.8476 73.3807H96.7623L94.9044 66.2727H93.7112L91.8532 73.3807H91.768L89.9442 66.2727H88.8703L91.2567 75ZM101.1 75L101.978 72.5284H105.507L106.384 75H107.492L104.288 66.2727H103.197L99.9924 75H101.1ZM102.311 71.5909L103.708 67.6534H103.776L105.174 71.5909H102.311ZM107.715 67.2102H110.459V75H111.516V67.2102H114.26V66.2727H107.715V67.2102ZM123.252 70.6364C123.252 67.875 121.632 66.1534 119.4 66.1534C117.167 66.1534 115.547 67.875 115.547 70.6364C115.547 73.3977 117.167 75.1193 119.4 75.1193C121.632 75.1193 123.252 73.3977 123.252 70.6364ZM122.229 70.6364C122.229 72.9034 120.985 74.1307 119.4 74.1307C117.814 74.1307 116.57 72.9034 116.57 70.6364C116.57 68.3693 117.814 67.142 119.4 67.142C120.985 67.142 122.229 68.3693 122.229 70.6364ZM130.162 68.4545H131.184C131.137 67.1378 129.923 66.1534 128.235 66.1534C126.565 66.1534 125.252 67.125 125.252 68.5909C125.252 69.767 126.105 70.4659 127.468 70.858L128.542 71.1648C129.463 71.4205 130.281 71.7443 130.281 72.6136C130.281 73.5682 129.36 74.1989 128.15 74.1989C127.11 74.1989 126.19 73.7386 126.105 72.75H125.014C125.116 74.1818 126.275 75.1534 128.15 75.1534C130.162 75.1534 131.304 74.0455 131.304 72.6307C131.304 70.9943 129.752 70.4659 128.849 70.2273L127.963 69.9886C127.315 69.8182 126.275 69.4773 126.275 68.5398C126.275 67.7045 127.042 67.0909 128.201 67.0909C129.258 67.0909 130.059 67.5938 130.162 68.4545ZM134.458 66.2727H133.401V75H134.458V66.2727ZM143.857 66.2727H142.818V73.142H142.732L137.96 66.2727H136.937V75H137.994V68.1477H138.079L142.835 75H143.857V66.2727ZM150.425 75L151.303 72.5284H154.831L155.709 75H156.817L153.612 66.2727H152.522L149.317 75H150.425ZM151.635 71.5909L153.033 67.6534H153.101L154.499 71.5909H151.635ZM158.536 75H161.69C163.752 75 164.605 73.9943 164.605 72.6818C164.605 71.3011 163.65 70.5511 162.849 70.5V70.4148C163.599 70.2102 164.264 69.7159 164.264 68.5909C164.264 67.3125 163.411 66.2727 161.588 66.2727H158.536V75ZM159.593 74.0625V71.0284H161.741C162.883 71.0284 163.599 71.7955 163.599 72.6818C163.599 73.4489 163.071 74.0625 161.69 74.0625H159.593ZM159.593 70.108V67.2102H161.588C162.747 67.2102 163.258 67.8239 163.258 68.5909C163.258 69.5114 162.508 70.108 161.553 70.108H159.593ZM166.701 75H169.855C171.917 75 172.769 73.9943 172.769 72.6818C172.769 71.3011 171.815 70.5511 171.014 70.5V70.4148C171.764 70.2102 172.428 69.7159 172.428 68.5909C172.428 67.3125 171.576 66.2727 169.752 66.2727H166.701V75ZM167.758 74.0625V71.0284H169.906C171.048 71.0284 171.764 71.7955 171.764 72.6818C171.764 73.4489 171.235 74.0625 169.855 74.0625H167.758ZM167.758 70.108V67.2102H169.752C170.911 67.2102 171.423 67.8239 171.423 68.5909C171.423 69.5114 170.673 70.108 169.718 70.108H167.758ZM175.224 75L176.102 72.5284H179.63L180.508 75H181.616L178.411 66.2727H177.32L174.116 75H175.224ZM176.434 71.5909L177.832 67.6534H177.9L179.298 71.5909H176.434ZM188.108 68.4545H189.131C189.084 67.1378 187.869 66.1534 186.182 66.1534C184.511 66.1534 183.199 67.125 183.199 68.5909C183.199 69.767 184.051 70.4659 185.415 70.858L186.489 71.1648C187.409 71.4205 188.227 71.7443 188.227 72.6136C188.227 73.5682 187.307 74.1989 186.097 74.1989C185.057 74.1989 184.136 73.7386 184.051 72.75H182.96C183.062 74.1818 184.222 75.1534 186.097 75.1534C188.108 75.1534 189.25 74.0455 189.25 72.6307C189.25 70.9943 187.699 70.4659 186.795 70.2273L185.909 69.9886C185.261 69.8182 184.222 69.4773 184.222 68.5398C184.222 67.7045 184.989 67.0909 186.148 67.0909C187.204 67.0909 188.006 67.5938 188.108 68.4545Z" fill="white"/>
<path d="M15.8596 120L16.7375 117.528H20.2659L21.1437 120H22.2517L19.0471 111.273H17.9562L14.7517 120H15.8596ZM17.0698 116.591L18.4676 112.653H18.5358L19.9335 116.591H17.0698ZM26.4938 120.136C27.9426 120.136 28.8972 119.25 29.0676 118.091H28.0619C27.8744 118.807 27.2779 119.233 26.4938 119.233C25.3006 119.233 24.5335 118.244 24.5335 116.727C24.5335 115.244 25.3176 114.273 26.4938 114.273C27.3801 114.273 27.9085 114.818 28.0619 115.415H29.0676C28.8972 114.188 27.8574 113.369 26.4767 113.369C24.704 113.369 23.5279 114.767 23.5279 116.761C23.5279 118.722 24.6529 120.136 26.4938 120.136ZM33.5569 120.136C35.0058 120.136 35.9603 119.25 36.1308 118.091H35.1251C34.9376 118.807 34.341 119.233 33.5569 119.233C32.3637 119.233 31.5967 118.244 31.5967 116.727C31.5967 115.244 32.3808 114.273 33.5569 114.273C34.4433 114.273 34.9717 114.818 35.1251 115.415H36.1308C35.9603 114.188 34.9205 113.369 33.5398 113.369C31.7671 113.369 30.591 114.767 30.591 116.761C30.591 118.722 31.716 120.136 33.5569 120.136ZM40.7052 120.136C42.0348 120.136 43.0064 119.472 43.3132 118.483L42.3416 118.21C42.0859 118.892 41.4936 119.233 40.7052 119.233C39.5248 119.233 38.7109 118.47 38.664 117.068H43.4155V116.642C43.4155 114.205 41.9666 113.369 40.603 113.369C38.8302 113.369 37.6541 114.767 37.6541 116.778C37.6541 118.79 38.8132 120.136 40.7052 120.136ZM38.664 116.199C38.7322 115.18 39.4524 114.273 40.603 114.273C41.6939 114.273 42.3927 115.091 42.3927 116.199H38.664ZM49.9417 114.92C49.6263 113.991 48.9189 113.369 47.6235 113.369C46.2428 113.369 45.2201 114.153 45.2201 115.261C45.2201 116.165 45.757 116.77 46.9587 117.051L48.0496 117.307C48.7101 117.46 49.0212 117.776 49.0212 118.227C49.0212 118.79 48.4246 119.25 47.4871 119.25C46.6647 119.25 46.149 118.896 45.9701 118.193L45.0155 118.432C45.2499 119.544 46.1661 120.136 47.5042 120.136C49.0255 120.136 50.061 119.305 50.061 118.176C50.061 117.264 49.49 116.689 48.3223 116.403L47.3508 116.165C46.5752 115.973 46.2258 115.713 46.2258 115.21C46.2258 114.648 46.8223 114.239 47.6235 114.239C48.5013 114.239 48.8635 114.724 49.0383 115.176L49.9417 114.92ZM56.5712 114.92C56.2559 113.991 55.5485 113.369 54.253 113.369C52.8723 113.369 51.8496 114.153 51.8496 115.261C51.8496 116.165 52.3865 116.77 53.5882 117.051L54.6791 117.307C55.3397 117.46 55.6507 117.776 55.6507 118.227C55.6507 118.79 55.0541 119.25 54.1166 119.25C53.2942 119.25 52.7786 118.896 52.5996 118.193L51.6451 118.432C51.8794 119.544 52.7956 120.136 54.1337 120.136C55.655 120.136 56.6905 119.305 56.6905 118.176C56.6905 117.264 56.1195 116.689 54.9519 116.403L53.9803 116.165C53.2047 115.973 52.8553 115.713 52.8553 115.21C52.8553 114.648 53.4519 114.239 54.253 114.239C55.1309 114.239 55.4931 114.724 55.6678 115.176L56.5712 114.92ZM62.4357 120H65.5891C67.6516 120 68.5039 118.994 68.5039 117.682C68.5039 116.301 67.5494 115.551 66.7482 115.5V115.415C67.4982 115.21 68.163 114.716 68.163 113.591C68.163 112.312 67.3107 111.273 65.4869 111.273H62.4357V120ZM63.4925 119.062V116.028H65.6403C66.7823 116.028 67.4982 116.795 67.4982 117.682C67.4982 118.449 66.9698 119.062 65.5891 119.062H63.4925ZM63.4925 115.108V112.21H65.4869C66.646 112.21 67.1573 112.824 67.1573 113.591C67.1573 114.511 66.4073 115.108 65.4528 115.108H63.4925ZM72.3902 120.153C73.5322 120.153 74.1288 119.54 74.3334 119.114H74.3845V120H75.3902V115.688C75.3902 113.608 73.805 113.369 72.9697 113.369C71.9811 113.369 70.8561 113.71 70.3447 114.903L71.2993 115.244C71.5209 114.767 72.045 114.256 73.0038 114.256C73.9285 114.256 74.3845 114.746 74.3845 115.585V115.619C74.3845 116.105 73.8902 116.062 72.697 116.216C71.4825 116.374 70.1572 116.642 70.1572 118.142C70.1572 119.42 71.1459 120.153 72.3902 120.153ZM72.5436 119.25C71.7425 119.25 71.1629 118.892 71.1629 118.193C71.1629 117.426 71.8618 117.188 72.6459 117.085C73.072 117.034 74.214 116.915 74.3845 116.71V117.631C74.3845 118.449 73.7368 119.25 72.5436 119.25ZM78.5915 116.062C78.5915 114.92 79.2988 114.273 80.2619 114.273C81.1951 114.273 81.7619 114.882 81.7619 115.909V120H82.7676V115.841C82.7676 114.17 81.877 113.369 80.5517 113.369C79.563 113.369 78.9494 113.812 78.6426 114.477H78.5574V113.455H77.5858V120H78.5915V116.062ZM84.9653 120H85.971V117.55L86.6741 116.898L89.1244 120H90.4028L87.4326 116.25L90.1983 113.455H88.9539L86.0903 116.369H85.971V111.273H84.9653V120ZM95.724 120H96.7808V116.812H98.6899C100.723 116.812 101.639 115.577 101.639 114.034C101.639 112.491 100.723 111.273 98.6729 111.273H95.724V120ZM96.7808 115.875V112.21H98.6388C100.058 112.21 100.599 112.986 100.599 114.034C100.599 115.082 100.058 115.875 98.6558 115.875H96.7808ZM104.571 111.273H103.565V120H104.571V111.273ZM109.432 120.136C110.88 120.136 111.835 119.25 112.005 118.091H111C110.812 118.807 110.216 119.233 109.432 119.233C108.238 119.233 107.471 118.244 107.471 116.727C107.471 115.244 108.255 114.273 109.432 114.273C110.318 114.273 110.846 114.818 111 115.415H112.005C111.835 114.188 110.795 113.369 109.415 113.369C107.642 113.369 106.466 114.767 106.466 116.761C106.466 118.722 107.591 120.136 109.432 120.136Z" fill="white"/>
<path d="M244.993 120.119C246.919 120.119 248.027 118.487 248.027 115.636C248.027 112.807 246.902 111.153 244.993 111.153C243.084 111.153 241.959 112.807 241.959 115.636C241.959 118.487 243.067 120.119 244.993 120.119ZM244.993 119.182C243.723 119.182 242.982 117.908 242.982 115.636C242.982 113.369 243.732 112.074 244.993 112.074C246.255 112.074 247.005 113.369 247.005 115.636C247.005 117.908 246.263 119.182 244.993 119.182ZM253.075 111.273H252.018L249.836 112.722V113.795L251.967 112.381H252.018V120H253.075V111.273ZM258.791 120.119C260.718 120.119 261.825 118.487 261.825 115.636C261.825 112.807 260.7 111.153 258.791 111.153C256.882 111.153 255.757 112.807 255.757 115.636C255.757 118.487 256.865 120.119 258.791 120.119ZM258.791 119.182C257.522 119.182 256.78 117.908 256.78 115.636C256.78 113.369 257.53 112.074 258.791 112.074C260.053 112.074 260.803 113.369 260.803 115.636C260.803 117.908 260.061 119.182 258.791 119.182ZM266.651 120.119C268.578 120.119 269.685 118.487 269.685 115.636C269.685 112.807 268.56 111.153 266.651 111.153C264.742 111.153 263.617 112.807 263.617 115.636C263.617 118.487 264.725 120.119 266.651 120.119ZM266.651 119.182C265.382 119.182 264.64 117.908 264.64 115.636C264.64 113.369 265.39 112.074 266.651 112.074C267.913 112.074 268.663 113.369 268.663 115.636C268.663 117.908 267.921 119.182 266.651 119.182ZM274.392 120.119C276.054 120.119 277.273 118.892 277.273 117.222C277.273 115.53 276.097 114.29 274.494 114.29C273.906 114.29 273.335 114.499 272.977 114.784H272.926L273.233 112.21H276.881V111.273H272.347L271.818 115.568L272.807 115.688C273.169 115.428 273.787 115.24 274.324 115.244C275.436 115.253 276.25 116.097 276.25 117.239C276.25 118.359 275.466 119.182 274.392 119.182C273.497 119.182 272.786 118.607 272.705 117.818H271.682C271.746 119.148 272.892 120.119 274.392 120.119ZM282.274 120.119C283.966 120.119 285.223 119.058 285.223 117.631C285.223 116.523 284.567 115.717 283.468 115.534V115.466C284.35 115.197 284.899 114.473 284.899 113.489C284.899 112.253 283.924 111.153 282.309 111.153C280.8 111.153 279.547 112.082 279.496 113.455H280.519C280.557 112.585 281.384 112.074 282.292 112.074C283.255 112.074 283.877 112.658 283.877 113.54C283.877 114.46 283.157 115.057 282.121 115.057H281.422V115.994H282.121C283.446 115.994 284.184 116.668 284.184 117.631C284.184 118.555 283.378 119.182 282.257 119.182C281.247 119.182 280.446 118.662 280.382 117.818H279.309C279.372 119.19 280.583 120.119 282.274 120.119ZM290.224 120.119C291.988 120.141 293.139 118.811 293.139 117.188C293.139 115.5 291.89 114.29 290.394 114.29C289.495 114.29 288.724 114.729 288.247 115.449H288.178C288.183 113.322 289.009 112.091 290.36 112.091C291.281 112.091 291.835 112.67 292.031 113.455H293.071C292.857 112.099 291.826 111.153 290.36 111.153C288.396 111.153 287.19 112.892 287.19 115.977C287.19 119.203 288.792 120.102 290.224 120.119ZM290.224 119.182C289.129 119.182 288.328 118.249 288.332 117.205C288.336 116.161 289.176 115.227 290.258 115.227C291.328 115.227 292.116 116.105 292.116 117.188C292.116 118.295 291.294 119.182 290.224 119.182ZM297.953 111.153C296.18 111.132 295.038 112.466 295.038 114.068C295.038 115.756 296.282 116.966 297.782 116.966C298.686 116.966 299.453 116.523 299.93 115.807H299.998C299.998 117.955 299.163 119.182 297.817 119.182C296.896 119.182 296.334 118.602 296.146 117.801H295.106C295.311 119.182 296.351 120.119 297.817 120.119C299.777 120.119 300.987 118.381 300.987 115.278C300.987 112.074 299.385 111.17 297.953 111.153ZM297.953 112.091C299.044 112.091 299.845 113.028 299.845 114.051C299.845 115.091 298.993 116.028 297.919 116.028C296.845 116.028 296.061 115.159 296.061 114.068C296.061 112.977 296.879 112.091 297.953 112.091ZM306.091 111.273H305.034L302.852 112.722V113.795L304.983 112.381H305.034V120H306.091V111.273ZM308.756 118.21H312.864V120H313.87V118.21H315.063V117.273H313.87V111.273H312.592L308.756 117.341V118.21ZM312.864 117.273H309.898V117.205L312.796 112.619H312.864V117.273Z" fill="white"/>
<defs>
<linearGradient id="paint0_linear" x1="167.5" y1="0" x2="167.5" y2="143" gradientUnits="userSpaceOnUse">
<stop stop-color="#0768F6"/>
<stop offset="1" stop-color="#5F53F2"/>
</linearGradient>
</defs>
</svg>
