<svg width="161" height="135" viewBox="0 0 161 135" fill="none" xmlns="http://www.w3.org/2000/svg">
<path d="M84.3482 134.39C126.682 134.39 161 133.114 161 131.541C161 129.967 126.682 128.692 84.3482 128.692C42.0145 128.692 7.69629 129.967 7.69629 131.541C7.69629 133.114 42.0145 134.39 84.3482 134.39Z" fill="#0768F6"/>
<path opacity="0.8" d="M84.3482 134.39C126.682 134.39 161 133.114 161 131.541C161 129.967 126.682 128.692 84.3482 128.692C42.0145 128.692 7.69629 129.967 7.69629 131.541C7.69629 133.114 42.0145 134.39 84.3482 134.39Z" fill="white"/>
<path d="M121.189 24.4473C121.038 24.4473 120.894 24.5071 120.787 24.6137C120.681 24.7203 120.621 24.8648 120.621 25.0156V27.929H110.236V25.0156C110.236 24.8648 110.176 24.7203 110.07 24.6137C109.963 24.5071 109.819 24.4473 109.668 24.4473C109.517 24.4473 109.373 24.5071 109.266 24.6137C109.159 24.7203 109.1 24.8648 109.1 25.0156V98.4016C109.1 98.5523 109.159 98.6969 109.266 98.8035C109.373 98.91 109.517 98.9699 109.668 98.9699C109.819 98.9699 109.963 98.91 110.07 98.8035C110.176 98.6969 110.236 98.5523 110.236 98.4016V81.9854H120.621V98.4016C120.621 98.5523 120.681 98.6969 120.787 98.8035C120.894 98.91 121.038 98.9699 121.189 98.9699C121.34 98.9699 121.484 98.91 121.591 98.8035C121.698 98.6969 121.757 98.5523 121.757 98.4016V25.0042C121.754 24.8555 121.693 24.7138 121.587 24.6097C121.481 24.5055 121.338 24.4472 121.189 24.4473ZM120.621 80.8602H110.236V77.1776H120.621V80.8602ZM120.621 76.0372H110.236V72.3585H120.621V76.0372ZM120.621 71.2181H110.236V67.5507H120.621V71.2181ZM120.621 66.4027H110.236V62.7505H120.621V66.4027ZM120.621 61.5911H110.236V57.9806H120.621V61.5911ZM120.621 56.7947H110.236V53.1614H120.621V56.7947ZM120.621 52.021H110.236V48.3536H120.621V52.021ZM120.621 47.2019H110.236V43.5345H120.621V47.2019ZM120.621 42.3941H110.236V38.7153H120.621V42.3941ZM120.621 37.5749H110.236V33.8886H120.621V37.5749ZM120.621 32.752H110.236V29.0656H120.621V32.752Z" fill="white"/>
<path d="M22.8215 83.6104C22.8215 83.6104 31.327 71.9679 27.1785 69.2136C22.8632 66.3683 20.8363 74.9875 19.9232 79.2194C17.9759 88.2515 18.5252 90.1686 19.8323 88.1833L22.8215 83.6104Z" fill="#0768F6"/>
<path opacity="0.5" d="M22.8215 83.6104C22.8215 83.6104 31.327 71.9679 27.1785 69.2136C22.8632 66.3683 20.8363 74.9875 19.9232 79.2194C17.9759 88.2515 18.5252 90.1686 19.8323 88.1833L22.8215 83.6104Z" fill="white"/>
<path d="M26.0116 90.7712C26.0116 90.7712 37.8359 82.5195 34.8012 78.5869C31.6453 74.4914 26.9284 81.9967 24.6893 85.6944C19.9119 93.6051 19.8134 95.5979 21.6925 94.1431L26.0116 90.7712Z" fill="#0768F6"/>
<path opacity="0.5" d="M26.0116 90.7712C26.0116 90.7712 37.8359 82.5195 34.8012 78.5869C31.6453 74.4914 26.9284 81.9967 24.6893 85.6944C19.9119 93.6051 19.8134 95.5979 21.6925 94.1431L26.0116 90.7712Z" fill="white"/>
<path d="M26.2684 100.341C26.2684 100.341 36.4977 95.7456 34.7511 92.2979C32.9326 88.7101 28.2385 93.7565 25.9918 96.2646C21.1916 101.622 20.8279 103.13 22.4759 102.292L26.2684 100.341Z" fill="#0768F6"/>
<path opacity="0.5" d="M26.2684 100.341C26.2684 100.341 36.4977 95.7456 34.7511 92.2979C32.9326 88.7101 28.2385 93.7565 25.9918 96.2646C21.1916 101.622 20.8279 103.13 22.4759 102.292L26.2684 100.341Z" fill="white"/>
<path d="M26.8748 109.953C26.8748 109.953 37.1041 105.358 35.3614 101.91C33.539 98.326 28.8487 103.369 26.5982 105.881C21.8018 111.238 21.4343 112.746 23.0862 111.904L26.8748 109.953Z" fill="#0768F6"/>
<path opacity="0.5" d="M26.8748 109.953C26.8748 109.953 37.1041 105.358 35.3614 101.91C33.539 98.326 28.8487 103.369 26.5982 105.881C21.8018 111.238 21.4343 112.746 23.0862 111.904L26.8748 109.953Z" fill="white"/>
<path d="M14.876 88.4755C14.876 88.4755 3.63127 79.4472 0.710225 83.4631C-2.32069 87.6306 6.18861 90.0667 10.3751 91.173C19.3087 93.5334 21.2485 93.0674 19.3238 91.6731L14.876 88.4755Z" fill="#0768F6"/>
<path opacity="0.5" d="M14.876 88.4755C14.876 88.4755 3.63127 79.4472 0.710225 83.4631C-2.32069 87.6306 6.18861 90.0667 10.3751 91.173C19.3087 93.5334 21.2485 93.0674 19.3238 91.6731L14.876 88.4755Z" fill="white"/>
<path d="M15.2096 96.0183C15.2096 96.0183 2.39641 89.4033 0.331604 93.9231C-1.81656 98.6248 7.01098 99.3068 11.3187 99.5569C20.544 100.095 22.355 99.2538 20.1917 98.2687L15.2096 96.0183Z" fill="#0768F6"/>
<path opacity="0.5" d="M15.2096 96.0183C15.2096 96.0183 2.39641 89.4033 0.331604 93.9231C-1.81656 98.6248 7.01098 99.3068 11.3187 99.5569C20.544 100.095 22.355 99.2538 20.1917 98.2687L15.2096 96.0183Z" fill="white"/>
<path d="M16.7594 104.475C16.7594 104.475 5.7723 99.171 4.13182 103.047C2.42314 107.074 9.90193 107.445 13.5655 107.555C21.3777 107.798 22.8894 107.04 21.0368 106.282L16.7594 104.475Z" fill="#0768F6"/>
<path opacity="0.5" d="M16.7594 104.475C16.7594 104.475 5.7723 99.171 4.13182 103.047C2.42314 107.074 9.90193 107.445 13.5655 107.555C21.3777 107.798 22.8894 107.04 21.0368 106.282L16.7594 104.475Z" fill="white"/>
<path d="M17.2973 111.306C17.2973 111.306 6.93153 104.865 4.88945 108.544C2.76402 112.366 10.1632 113.53 13.7928 114.03C21.5368 115.098 23.1166 114.511 21.3701 113.537L17.2973 111.306Z" fill="#0768F6"/>
<path opacity="0.5" d="M17.2973 111.306C17.2973 111.306 6.93153 104.865 4.88945 108.544C2.76402 112.366 10.1632 113.53 13.7928 114.03C21.5368 115.098 23.1166 114.511 21.3701 113.537L17.2973 111.306Z" fill="white"/>
<path d="M16.3159 77.0374C16.3159 77.0374 14.3685 60.1287 7.98087 61.8563C1.34695 63.6597 6.9011 72.2145 9.71985 76.3517C15.7097 85.1565 17.9147 86.1264 17.4411 83.3758L16.3159 77.0374Z" fill="#0768F6"/>
<path opacity="0.5" d="M16.3159 77.0374C16.3159 77.0374 14.3685 60.1287 7.98087 61.8563C1.34695 63.6597 6.9011 72.2145 9.71985 76.3517C15.7097 85.1565 17.9147 86.1264 17.4411 83.3758L16.3159 77.0374Z" fill="white"/>
<path d="M9.28809 68.0171C9.28809 68.0171 19.0097 86.2329 20.5176 94.6891C22.2528 104.403 22.5332 115.254 21.336 123.756" stroke="#0768F6" stroke-width="0.436122" stroke-linecap="round" stroke-linejoin="round"/>
<path d="M18.9829 89.0628L23.7452 74.4766" stroke="#0768F6" stroke-width="0.436122" stroke-linecap="round" stroke-linejoin="round"/>
<path d="M20.5176 94.6897L29.4815 83.4185" stroke="#0768F6" stroke-width="0.436122" stroke-linecap="round" stroke-linejoin="round"/>
<path d="M19.9452 92.6394L6.96533 87.1875" stroke="#0768F6" stroke-width="0.436122" stroke-linecap="round" stroke-linejoin="round"/>
<path d="M21.6426 102.323L31.4021 94.8442" stroke="#0768F6" stroke-width="0.436122" stroke-linecap="round" stroke-linejoin="round"/>
<path d="M21.1235 99.1138L10.9282 96.9922" stroke="#0768F6" stroke-width="0.436122" stroke-linecap="round" stroke-linejoin="round"/>
<path d="M21.6123 106.922L13.7168 105.671" stroke="#0768F6" stroke-width="0.436122" stroke-linecap="round" stroke-linejoin="round"/>
<path d="M22.2788 111.976L27.5905 107.217" stroke="#0768F6" stroke-width="0.436122" stroke-linecap="round" stroke-linejoin="round"/>
<path d="M22.1739 114.117L13.1001 111.836" stroke="#0768F6" stroke-width="0.436122" stroke-linecap="round" stroke-linejoin="round"/>
<path d="M15.4517 116.894H26.1773V119.114H25.2415L23.3055 131.226H18.3235L16.3875 119.114H15.4517V116.894Z" fill="#0768F6"/>
<path opacity="0.5" d="M15.4517 116.894H26.1773V119.114H25.2415L23.3055 131.226H18.3235L16.3875 119.114H15.4517V116.894Z" fill="white"/>
<path d="M33.1155 2.51912C32.6505 2.10362 32.0826 1.82018 31.471 1.69826C30.8594 1.57634 30.2264 1.62038 29.6375 1.8258C27.5538 2.51912 25.5572 5.5311 26.061 8.08085C26.4134 9.84636 28.0501 12.4492 28.5464 13.4418C29.0427 14.4344 28.3456 16.1128 26.7695 19.5983C25.1934 23.0839 24.5835 26.3535 29.1526 29.2329C33.7217 32.1122 38.8932 27.5431 41.5452 24.2659C44.1973 20.9888 39.5562 13.4418 39.1584 10.248C38.7606 7.05413 38.0786 0.931682 33.1155 2.51912Z" fill="#263238"/>
<path d="M43.8555 24.4854C42.7186 25.6228 41.3449 26.4957 39.8322 27.0419C38.3195 27.588 36.705 27.794 35.1037 27.6451L34.0088 32.2104L36.0925 42.633L49.6976 35.5823L46.6174 27.6261L43.8555 24.4854Z" fill="#0768F6" stroke="#263238" stroke-width="0.348349" stroke-linecap="round" stroke-linejoin="round"/>
<path opacity="0.3" d="M43.8555 24.4854C42.7186 25.6228 41.3449 26.4957 39.8322 27.0419C38.3195 27.588 36.705 27.794 35.1037 27.6451L34.0088 32.2104L36.0925 42.633L49.6976 35.5823L46.6174 27.6261L43.8555 24.4854Z" fill="#263238"/>
<path d="M43.8562 24.4855L41.7724 10.6797L35.597 11.9451L32.5168 13.9303C32.5168 13.9303 28.8418 16.8135 28.8418 17.109C28.8418 17.4045 35.059 27.8081 35.059 27.8081C36.6765 27.9039 38.296 27.6574 39.8119 27.0849C41.3277 26.5124 42.7058 25.6266 43.8562 24.4855Z" fill="white"/>
<path d="M43.8562 24.4855L41.7724 10.6797L35.597 11.9451L32.5168 13.9303C32.5168 13.9303 28.8418 16.8135 28.8418 17.109C28.8418 17.4045 35.059 27.8081 35.059 27.8081C36.6765 27.9039 38.296 27.6574 39.8119 27.0849C41.3277 26.5124 42.7058 25.6266 43.8562 24.4855Z" stroke="#263238" stroke-width="0.348349" stroke-linecap="round" stroke-linejoin="round"/>
<path opacity="0.5" d="M35.5704 23.8941C35.5704 23.8941 39.9236 20.6662 39.522 21.6209C39.1204 22.5757 36.1122 24.9587 35.3052 25.0307C34.4982 25.1027 35.5704 23.8941 35.5704 23.8941Z" fill="#0768F6"/>
<path d="M35.7031 17.7642L35.8736 17.9423L36.9344 19.0637L37.2072 23.3714L38.5067 23.1668L37.48 19.1319L39.1243 22.5493L40.492 21.1816L37.552 18.5144L37.48 16.3965L35.9759 15.6426" fill="#263238"/>
<path d="M33.3129 12.6494C33.3129 12.6494 32.021 13.2442 32.021 14.4339C32.021 15.6235 33.419 18.4536 34.2942 19.0484C35.1694 19.6433 36.6697 16.9192 36.6697 16.9192C36.6697 16.9192 38.9428 18.0104 39.549 17.0177C40.1552 16.0251 38.1586 12.7479 36.8705 11.8538C35.5823 10.9597 33.3129 12.6494 33.3129 12.6494Z" fill="white" stroke="#263238" stroke-width="0.348349" stroke-linecap="round" stroke-linejoin="round"/>
<path d="M32.2217 11.4562C32.5769 12.3638 32.8755 13.2925 33.1158 14.2371C33.3128 15.2297 35.9952 16.9194 36.2907 17.018C36.5862 17.1165 36.787 13.8393 36.787 13.8393L35.9952 9.96729L32.2217 11.4562Z" fill="white"/>
<g style="mix-blend-mode:multiply" opacity="0.5">
<path d="M36.0775 10.38C35.9108 10.3333 35.7412 10.2978 35.5698 10.2739L32.8306 11.24L32.4707 12.1796C32.6526 12.6873 32.8837 13.3693 33.0238 13.9224C33.4729 14.2845 34.0155 14.5117 34.5886 14.5778C35.4107 14.6347 36.1343 13.9982 36.6458 13.2177L36.0775 10.38Z" fill="#0768F6"/>
</g>
<path d="M32.2217 11.4562C32.5769 12.3638 32.8755 13.2925 33.1158 14.2371C33.3128 15.2297 35.9952 16.9194 36.2907 17.018C36.5862 17.1165 36.787 13.8393 36.787 13.8393L35.9952 9.96729L32.2217 11.4562Z" stroke="#263238" stroke-width="0.348349" stroke-linecap="round" stroke-linejoin="round"/>
<path d="M30.4323 9.7668C30.4323 9.7668 29.3374 8.87647 29.3374 9.7668C29.3374 10.6571 30.3338 11.1572 31.1256 11.1572" fill="white"/>
<path d="M30.4323 9.7668C30.4323 9.7668 29.3374 8.87647 29.3374 9.7668C29.3374 10.6571 30.3338 11.1572 31.1256 11.1572" stroke="#263238" stroke-width="0.348349" stroke-linecap="round" stroke-linejoin="round"/>
<path d="M36.2896 6.88715C36.2896 6.88715 36.9867 5.79602 37.1837 6.98945C37.2744 7.76637 37.0613 8.54829 36.5889 9.17171L36.2896 6.88715Z" fill="white" stroke="#263238" stroke-width="0.348349" stroke-linecap="round" stroke-linejoin="round"/>
<g opacity="0.5">
<path d="M30.4323 9.7668C30.4323 9.7668 29.3374 8.87647 29.3374 9.7668C29.3374 10.6571 30.3338 11.1572 31.1256 11.1572" fill="#0768F6"/>
<path d="M30.4323 9.7668C30.4323 9.7668 29.3374 8.87647 29.3374 9.7668C29.3374 10.6571 30.3338 11.1572 31.1256 11.1572" stroke="#263238" stroke-width="0.348349" stroke-linecap="round" stroke-linejoin="round"/>
</g>
<path opacity="0.5" d="M36.2896 6.88715C36.2896 6.88715 36.9867 5.79602 37.1837 6.98945C37.2744 7.76637 37.0613 8.54829 36.5889 9.17171L36.2896 6.88715Z" fill="#0768F6" stroke="#263238" stroke-width="0.348349" stroke-linecap="round" stroke-linejoin="round"/>
<path d="M29.2017 6.89488C29.2017 6.89488 30.0541 10.4448 31.884 12.199C33.7139 13.9531 35.6727 13.9683 36.3508 10.8426C36.9078 8.26637 35.5249 4.83007 35.5249 4.83007C35.5249 4.83007 31.0619 1.15508 29.2017 6.89488Z" fill="white"/>
<g style="mix-blend-mode:multiply" opacity="0.5">
<path d="M32.3799 3.67469L33.0732 5.41747C33.0732 5.41747 34.1643 5.175 34.7781 6.49345C35.3919 7.81189 36.0094 9.7441 35.6571 11.2406C35.3199 12.6651 34.5205 13.1349 33.2892 13.169C34.6303 13.7411 35.8465 13.169 36.3504 10.8352C36.9073 8.25895 35.5245 4.82265 35.5245 4.82265C35.5245 4.82265 34.0128 3.58377 32.3799 3.67469Z" fill="#0768F6"/>
</g>
<path d="M29.2017 6.89488C29.2017 6.89488 30.0541 10.4448 31.884 12.199C33.7139 13.9531 35.6727 13.9683 36.3508 10.8426C36.9078 8.26636 35.5249 4.83007 35.5249 4.83007C35.5249 4.83007 31.0619 1.15508 29.2017 6.89488Z" stroke="#263238" stroke-width="0.348349" stroke-linecap="round" stroke-linejoin="round"/>
<path d="M32.5889 8.7702C32.695 8.97099 32.6761 9.18695 32.5472 9.25514C32.4184 9.32334 32.229 9.21347 32.1267 9.01267C32.0244 8.81187 32.0396 8.5997 32.1684 8.53151C32.2972 8.46331 32.4866 8.57319 32.5889 8.7702Z" fill="#263238"/>
<path d="M34.5664 8.15681C34.6421 8.36898 34.5929 8.58114 34.4565 8.6266C34.3201 8.67207 34.1458 8.54325 34.0776 8.33109C34.0094 8.11893 34.0511 7.90676 34.1875 7.8613C34.3239 7.81584 34.4906 7.95223 34.5664 8.15681Z" fill="#263238"/>
<path d="M34.7026 7.01989C34.5478 6.9159 34.3632 6.86552 34.1771 6.87647C33.991 6.88742 33.8136 6.95909 33.6721 7.08051C33.1265 7.50483 34.157 9.63026 34.157 9.63026C34.157 9.63026 34.1759 10.3009 33.3159 9.99018" stroke="#263238" stroke-width="0.174174" stroke-linecap="round" stroke-linejoin="round"/>
<path d="M34.7025 10.6797C34.6435 10.8192 34.5528 10.9431 34.4377 11.0416C34.3226 11.1401 34.1862 11.2105 34.0393 11.2472C33.8923 11.284 33.7388 11.2861 33.5909 11.2533C33.443 11.2206 33.3047 11.1539 33.187 11.0586" stroke="#263238" stroke-width="0.174174" stroke-linecap="round" stroke-linejoin="round"/>
<path d="M32.3947 7.58468C32.3947 7.58468 31.4248 6.67162 31.0005 8.43334" stroke="#263238" stroke-width="0.174174" stroke-linecap="round" stroke-linejoin="round"/>
<path d="M35.5816 3.7043C34.517 2.77987 33.657 2.79124 33.2819 2.91247C32.9309 2.6934 32.5316 2.56335 32.1188 2.53361C29.1409 2.1358 28.7431 4.42793 28.7431 6.6064C28.7431 8.78487 26.8488 11.3725 28.1483 11.6718C28.504 11.7571 28.8783 11.7143 29.2054 11.5507C29.5325 11.3871 29.7914 11.1134 29.9366 10.7777C29.9366 10.7777 31.327 8.50451 31.327 6.90192C31.327 5.29932 33.0584 5.45086 33.0584 5.45086C33.1332 5.34051 33.2309 5.24763 33.3449 5.17858C33.4589 5.10954 33.5865 5.06596 33.7189 5.05085C33.8514 5.03573 33.9855 5.04944 34.1121 5.09102C34.2388 5.1326 34.3549 5.20107 34.4526 5.29174C35.2407 5.96612 35.3316 6.75795 35.9681 6.96253C36.6046 7.16712 37.6692 6.14419 37.6692 6.14419C37.0627 5.25848 36.3629 4.44049 35.5816 3.7043Z" fill="#263238"/>
<path d="M33.1414 4.30018C33.1414 4.30018 31.9442 3.33787 30.8682 4.41763C29.7922 5.4974 29.9097 7.53948 29.5498 8.86171C29.1899 10.184 28.2275 10.4226 28.2275 10.4226" stroke="white" stroke-width="0.174174" stroke-linecap="round" stroke-linejoin="round"/>
<path d="M32.304 3.94009C32.304 3.94009 31.012 2.65952 29.3867 4.28106C28.1478 5.52374 28.701 6.3383 28.4585 8.38038" stroke="white" stroke-width="0.174174" stroke-linecap="round" stroke-linejoin="round"/>
<path d="M33.7437 3.69765C33.7437 3.69765 36.0168 2.61788 36.9867 5.37981" stroke="white" stroke-width="0.174174" stroke-linecap="round" stroke-linejoin="round"/>
<path d="M28.8416 17.1172L25.4053 30.9457L35.4831 33.8024L35.9794 32.0141L29.3606 28.9605L31.6073 21.0043C31.6073 21.0043 31.3118 19.5154 29.713 17.8295" fill="white"/>
<g style="mix-blend-mode:multiply" opacity="0.5">
<path d="M35.9942 32.0249L29.3755 28.9712L31.6221 21.0151C31.4462 20.3546 31.1606 19.7283 30.7773 19.1624L30.5613 18.9995V21.1969C30.5613 22.6025 28.8034 27.0845 28.1858 28.1377C27.5683 29.191 26.606 30.5094 26.606 30.5094L28.5382 29.6304L35.8616 32.5629L35.9942 32.0249Z" fill="#0768F6"/>
</g>
<path d="M28.8416 17.1172L25.4053 30.9457L35.4831 33.8024L35.9794 32.0141L29.3606 28.9605L31.6073 21.0043C31.6073 21.0043 31.3118 19.5154 29.713 17.8295" stroke="#263238" stroke-width="0.348349" stroke-linecap="round" stroke-linejoin="round"/>
<path d="M57.1765 21.2693L49.5462 19.6667L41.7529 10.6611L42.9047 17.905L47.6859 22.459L57.294 22.8985L57.1765 21.2693Z" fill="white"/>
<g style="mix-blend-mode:multiply" opacity="0.5">
<path d="M41.7529 10.6611L42.6811 16.4426L43.2722 18.2498L43.3479 18.318C43.5715 18.0869 44.8331 16.776 45.1551 16.776C45.4772 16.776 49.1105 19.9395 48.5839 20.1858L48.0534 20.4472L57.1045 21.9399L57.1689 21.2466L49.5537 19.6478L41.7529 10.6611Z" fill="#0768F6"/>
</g>
<path d="M57.1765 21.2693L49.5462 19.6667L41.7529 10.6611L42.9047 17.905L47.6859 22.459L57.294 22.8985L57.1765 21.2693Z" stroke="#263238" stroke-width="0.348349" stroke-linecap="round" stroke-linejoin="round"/>
<path d="M128.407 97.9471L31.2401 83.7094C30.9312 83.6635 30.6531 83.4969 30.467 83.2461C30.2809 82.9954 30.2019 82.681 30.2475 82.372L38.34 27.1677C38.3623 27.0149 38.4144 26.868 38.4935 26.7353C38.5726 26.6027 38.6771 26.487 38.801 26.3948C38.9248 26.3026 39.0657 26.2357 39.2154 26.198C39.3652 26.1603 39.5209 26.1525 39.6736 26.175L41.5149 26.444C41.7481 26.479 41.9865 26.4428 42.1988 26.34C42.411 26.2373 42.5873 26.0728 42.7045 25.8682L45.1482 21.6438C45.2224 21.5112 45.323 21.3952 45.4437 21.3028C46.0158 20.8892 46.7267 20.7152 47.4252 20.8179L71.9188 24.4095C72.4682 24.4884 72.9801 24.7345 73.385 25.1142C73.493 25.2224 73.578 25.3513 73.635 25.4931L75.8135 30.8881C75.8899 31.0789 76.0152 31.2463 76.1768 31.3733C76.3385 31.5003 76.5307 31.5826 76.7341 31.6118L136.841 40.4241C137.15 40.4691 137.428 40.6348 137.615 40.8849C137.802 41.1349 137.882 41.4488 137.837 41.7577L129.745 96.9583C129.698 97.2665 129.531 97.5436 129.28 97.729C129.03 97.9143 128.716 97.9928 128.407 97.9471Z" fill="#263238" stroke="#263238" stroke-width="0.348349" stroke-miterlimit="10"/>
<path d="M129.441 97.6785H33.1297C32.8501 97.6785 32.5732 97.6235 32.3149 97.5164C32.0566 97.4094 31.8218 97.2526 31.6241 97.0549C31.4264 96.8572 31.2696 96.6225 31.1626 96.3641C31.0556 96.1058 31.0005 95.8289 31.0005 95.5493V41.6596C31.0005 41.0949 31.2248 40.5533 31.6241 40.154C32.0234 39.7547 32.565 39.5304 33.1297 39.5304H33.3911C33.8174 39.5296 34.2337 39.4015 34.5867 39.1625C34.9398 38.9236 35.2134 38.5847 35.3726 38.1892L36.8388 34.5029C37.0027 34.0774 37.3023 33.7179 37.6912 33.4799C38.109 33.2333 38.5851 33.1025 39.0703 33.1011H63.8253C64.158 33.1007 64.488 33.1611 64.799 33.2791C65.2311 33.4533 65.5916 33.7684 65.8219 34.1733L68.3414 38.4658C68.5291 38.7864 68.7975 39.0523 69.1199 39.2371C69.4422 39.4219 69.8073 39.5191 70.1789 39.519H129.441C130.006 39.519 130.547 39.7434 130.946 40.1427C131.346 40.542 131.57 41.0836 131.57 41.6483V95.5493C131.57 95.8289 131.515 96.1058 131.408 96.3641C131.301 96.6225 131.144 96.8572 130.946 97.0549C130.749 97.2526 130.514 97.4094 130.256 97.5164C129.997 97.6235 129.72 97.6785 129.441 97.6785Z" fill="#0768F6"/>
<path opacity="0.1" d="M129.441 97.6785H33.1297C32.8501 97.6785 32.5732 97.6235 32.3149 97.5164C32.0566 97.4094 31.8218 97.2526 31.6241 97.0549C31.4264 96.8572 31.2696 96.6225 31.1626 96.3641C31.0556 96.1058 31.0005 95.8289 31.0005 95.5493V41.6596C31.0005 41.0949 31.2248 40.5533 31.6241 40.154C32.0234 39.7547 32.565 39.5304 33.1297 39.5304H33.3911C33.8174 39.5296 34.2337 39.4015 34.5867 39.1625C34.9398 38.9236 35.2134 38.5847 35.3726 38.1892L36.8388 34.5029C37.0027 34.0774 37.3023 33.7179 37.6912 33.4799C38.109 33.2333 38.5851 33.1025 39.0703 33.1011H63.8253C64.158 33.1007 64.488 33.1611 64.799 33.2791C65.2311 33.4533 65.5916 33.7684 65.8219 34.1733L68.3414 38.4658C68.5291 38.7864 68.7975 39.0523 69.1199 39.2371C69.4422 39.4219 69.8073 39.5191 70.1789 39.519H129.441C130.006 39.519 130.547 39.7434 130.946 40.1427C131.346 40.542 131.57 41.0836 131.57 41.6483V95.5493C131.57 95.8289 131.515 96.1058 131.408 96.3641C131.301 96.6225 131.144 96.8572 130.946 97.0549C130.749 97.2526 130.514 97.4094 130.256 97.5164C129.997 97.6235 129.72 97.6785 129.441 97.6785Z" fill="#263238"/>
<path d="M129.441 97.6785H33.1297C32.8501 97.6785 32.5732 97.6235 32.3149 97.5165C32.0566 97.4094 31.8218 97.2526 31.6241 97.0549C31.4264 96.8572 31.2696 96.6225 31.1626 96.3641C31.0556 96.1058 31.0005 95.8289 31.0005 95.5493V41.6596C31.0005 41.0949 31.2248 40.5533 31.6241 40.154C32.0234 39.7547 32.565 39.5304 33.1297 39.5304H33.3911C33.8174 39.5296 34.2337 39.4015 34.5867 39.1625C34.9398 38.9236 35.2134 38.5847 35.3726 38.1892L36.8388 34.5029C37.0027 34.0774 37.3023 33.7179 37.6912 33.4799C38.109 33.2333 38.5851 33.1025 39.0703 33.1011H63.8253C64.158 33.1007 64.488 33.1611 64.799 33.2791C65.2311 33.4533 65.5916 33.7684 65.8219 34.1733L68.3414 38.4658C68.5291 38.7864 68.7975 39.0523 69.1199 39.2371C69.4422 39.4219 69.8073 39.5191 70.1789 39.519H129.441C130.006 39.519 130.547 39.7434 130.946 40.1427C131.346 40.542 131.57 41.0836 131.57 41.6483V95.5493C131.57 95.8289 131.515 96.1058 131.408 96.3641C131.301 96.6225 131.144 96.8572 130.946 97.0549C130.749 97.2526 130.514 97.4094 130.256 97.5165C129.997 97.6235 129.72 97.6785 129.441 97.6785V97.6785Z" stroke="#263238" stroke-width="0.348349" stroke-miterlimit="10"/>
<path d="M58.2154 39.3489H42.8032C42.4354 39.3489 42.0827 39.2028 41.8226 38.9427C41.5626 38.6827 41.4165 38.33 41.4165 37.9622C41.416 37.7798 41.4515 37.5991 41.521 37.4304C41.5904 37.2617 41.6925 37.1084 41.8213 36.9793C41.9501 36.8501 42.1031 36.7476 42.2716 36.6777C42.4401 36.6078 42.6207 36.5718 42.8032 36.5718H58.2154C58.5841 36.5718 58.9378 36.7183 59.1985 36.979C59.4593 37.2398 59.6058 37.5934 59.6058 37.9622C59.6058 38.1446 59.5698 38.3253 59.4999 38.4937C59.43 38.6622 59.3275 38.8152 59.1983 38.9441C59.0692 39.0729 58.9158 39.1749 58.7472 39.2444C58.5785 39.3139 58.3978 39.3494 58.2154 39.3489Z" fill="white"/>
<path d="M129.441 107.082H33.1297C32.565 107.082 32.0234 106.858 31.6241 106.458C31.2248 106.059 31.0005 105.517 31.0005 104.953V51.0631C31.0005 50.4984 31.2248 49.9568 31.6241 49.5575C32.0234 49.1582 32.565 48.9338 33.1297 48.9338H33.3911C33.8175 48.9335 34.2341 48.8056 34.5872 48.5666C34.9403 48.3276 35.2138 47.9884 35.3726 47.5927L36.8388 43.9101C37.0017 43.484 37.3015 43.1242 37.6912 42.8872C38.1084 42.6389 38.5849 42.508 39.0703 42.5083H63.8253C64.158 42.508 64.488 42.5683 64.799 42.6864C65.2321 42.8607 65.5929 43.1774 65.8219 43.5843L68.3414 47.8806C68.5291 48.2012 68.7975 48.4671 69.1199 48.6519C69.4422 48.8367 69.8073 48.9339 70.1789 48.9338H129.441C130.006 48.9338 130.547 49.1582 130.946 49.5575C131.346 49.9568 131.57 50.4984 131.57 51.0631V104.953C131.57 105.517 131.346 106.059 130.946 106.458C130.547 106.858 130.006 107.082 129.441 107.082Z" fill="#263238" stroke="#263238" stroke-width="0.348349" stroke-miterlimit="10"/>
<path d="M65.5989 28.2367L50.3079 26.3424C49.9427 26.296 49.6106 26.1071 49.3842 25.8168C49.1578 25.5265 49.0554 25.1584 49.0993 24.7929C49.1457 24.4272 49.3353 24.0948 49.6266 23.8689C49.9179 23.643 50.2869 23.542 50.6527 23.5881L65.9399 25.4824C66.3055 25.5278 66.6382 25.7166 66.8648 26.0071C67.0914 26.2976 67.1934 26.6662 67.1484 27.032C67.126 27.2129 67.068 27.3876 66.9779 27.5461C66.8879 27.7046 66.7674 27.8438 66.6235 27.9557C66.4796 28.0676 66.315 28.15 66.1392 28.1982C65.9634 28.2465 65.7798 28.2596 65.5989 28.2367Z" fill="#0768F6"/>
<path opacity="0.5" d="M65.5989 28.2367L50.3079 26.3424C49.9427 26.296 49.6106 26.1071 49.3842 25.8168C49.1578 25.5265 49.0554 25.1584 49.0993 24.7929C49.1457 24.4272 49.3353 24.0948 49.6266 23.8689C49.9179 23.643 50.2869 23.542 50.6527 23.5881L65.9399 25.4824C66.3055 25.5278 66.6382 25.7166 66.8648 26.0071C67.0914 26.2976 67.1934 26.6662 67.1484 27.032C67.126 27.2129 67.068 27.3876 66.9779 27.5461C66.8879 27.7046 66.7674 27.8438 66.6235 27.9557C66.4796 28.0676 66.315 28.15 66.1392 28.1982C65.9634 28.2465 65.7798 28.2596 65.5989 28.2367Z" fill="white"/>
<path d="M58.2154 48.756H42.8032C42.6207 48.756 42.4401 48.72 42.2716 48.65C42.1031 48.5801 41.9501 48.4776 41.8213 48.3485C41.6925 48.2193 41.5904 48.066 41.521 47.8973C41.4515 47.7287 41.416 47.5479 41.4165 47.3655C41.4165 46.9974 41.5625 46.6443 41.8224 46.3837C42.0824 46.123 42.435 45.9761 42.8032 45.9751H58.2154C58.5841 45.9751 58.9378 46.1216 59.1985 46.3823C59.4593 46.6431 59.6058 46.9968 59.6058 47.3655C59.6058 47.7343 59.4593 48.088 59.1985 48.3487C58.9378 48.6095 58.5841 48.756 58.2154 48.756Z" fill="#0768F6"/>
<path opacity="0.5" d="M58.2154 48.756H42.8032C42.6207 48.756 42.4401 48.72 42.2716 48.65C42.1031 48.5801 41.9501 48.4776 41.8213 48.3485C41.6925 48.2193 41.5904 48.066 41.521 47.8973C41.4515 47.7287 41.416 47.5479 41.4165 47.3655C41.4165 46.9974 41.5625 46.6443 41.8224 46.3837C42.0824 46.123 42.435 45.9761 42.8032 45.9751H58.2154C58.5841 45.9751 58.9378 46.1216 59.1985 46.3823C59.4593 46.6431 59.6058 46.9968 59.6058 47.3655C59.6058 47.7343 59.4593 48.088 59.1985 48.3487C58.9378 48.6095 58.5841 48.756 58.2154 48.756Z" fill="white"/>
<path d="M132.59 65.1416H29.9781C28.8754 65.1416 27.9814 66.0355 27.9814 67.1382V129.23C27.9814 130.333 28.8754 131.227 29.9781 131.227H132.59C133.692 131.227 134.586 130.333 134.586 129.23V67.1382C134.586 66.0355 133.692 65.1416 132.59 65.1416Z" fill="white"/>
<g style="mix-blend-mode:multiply">
<path d="M134.586 82.9292C122.769 93.9734 109.343 103.158 94.7675 110.17C73.229 120.471 48.6104 127.571 34.2666 131.227H132.586C132.848 131.227 133.108 131.176 133.351 131.076C133.594 130.976 133.814 130.829 134 130.643C134.186 130.458 134.333 130.238 134.434 129.995C134.534 129.753 134.586 129.493 134.586 129.23V82.9292Z" fill="#0768F6"/>
</g>
<path opacity="0.2" d="M134.586 82.9292C122.769 93.9734 109.343 103.158 94.7675 110.17C73.229 120.471 48.6104 127.571 34.2666 131.227H132.586C132.848 131.227 133.108 131.176 133.351 131.076C133.594 130.976 133.814 130.829 134 130.643C134.186 130.458 134.333 130.238 134.434 129.995C134.534 129.753 134.586 129.493 134.586 129.23V82.9292Z" fill="white"/>
<path d="M132.59 65.1416H29.9781C28.8754 65.1416 27.9814 66.0355 27.9814 67.1382V129.23C27.9814 130.333 28.8754 131.227 29.9781 131.227H132.59C133.692 131.227 134.586 130.333 134.586 129.23V67.1382C134.586 66.0355 133.692 65.1416 132.59 65.1416Z" stroke="#263238" stroke-width="0.348349" stroke-miterlimit="10"/>
<path d="M29.5234 70.946V68.294C29.5244 67.7641 29.7356 67.2563 30.1107 66.8819C30.4857 66.5076 30.994 66.2974 31.5238 66.2974H35.8618" stroke="#263238" stroke-width="0.348349" stroke-miterlimit="10"/>
<path d="M29.5234 111.223V74.1772" stroke="#263238" stroke-width="0.348349" stroke-miterlimit="10"/>
<path d="M133.041 123.862V128.056C133.041 128.319 132.99 128.579 132.89 128.822C132.79 129.064 132.643 129.285 132.457 129.471C132.272 129.656 132.052 129.804 131.809 129.904C131.567 130.005 131.307 130.057 131.044 130.057H127.547" stroke="#263238" stroke-width="0.348349" stroke-miterlimit="10"/>
<path d="M133.041 70.0137V120.744" stroke="#263238" stroke-width="0.348349" stroke-miterlimit="10"/>
<path d="M97.1313 89.3057H65.4318C64.8605 89.3057 64.3975 89.7687 64.3975 90.34V106.514C64.3975 107.085 64.8605 107.548 65.4318 107.548H97.1313C97.7026 107.548 98.1657 107.085 98.1657 106.514V90.34C98.1657 89.7687 97.7026 89.3057 97.1313 89.3057Z" fill="#263238" stroke="#263238" stroke-width="0.348349" stroke-miterlimit="10"/>
<path d="M97.1313 89.3057H65.4318C64.8605 89.3057 64.3975 89.7687 64.3975 90.34V93.8179C64.3975 94.3892 64.8605 94.8522 65.4318 94.8522H97.1313C97.7026 94.8522 98.1657 94.3892 98.1657 93.8179V90.34C98.1657 89.7687 97.7026 89.3057 97.1313 89.3057Z" fill="white" stroke="#263238" stroke-width="0.348349" stroke-miterlimit="10"/>
<path d="M35.4824 33.8018L36.1757 35.0938L37.6495 36.1546C37.7422 36.2227 37.8532 36.2612 37.9681 36.2653C38.0829 36.2693 38.1964 36.2387 38.2936 36.1773L38.4224 36.094C38.5161 36.0371 38.5859 35.948 38.6186 35.8434C38.6514 35.7388 38.6449 35.6259 38.6005 35.5257L37.7632 33.601L38.3277 34.0405C38.4173 34.1096 38.5303 34.1411 38.6427 34.1284C38.7551 34.1157 38.8582 34.0597 38.9301 33.9723C38.9925 33.8944 39.0265 33.7975 39.0265 33.6977C39.0265 33.5978 38.9925 33.5009 38.9301 33.423L37.6154 31.7598L35.9712 32.0136L35.4824 33.8018Z" fill="white" stroke="#263238" stroke-width="0.348349" stroke-miterlimit="10"/>
<path d="M38.4376 36.0947L37.1191 34.3633" stroke="#263238" stroke-width="0.174174" stroke-linecap="round" stroke-linejoin="round"/>
<path d="M37.6652 36.1547L36.6309 34.7832" stroke="#263238" stroke-width="0.174174" stroke-linecap="round" stroke-linejoin="round"/>
<path d="M57.1768 21.269L59.2378 21.3903L61.7459 22.9929C61.7459 22.9929 61.886 23.4816 61.5375 23.5498C61.1889 23.618 59.306 22.9247 59.306 22.9247L57.2942 22.8982L57.1768 21.269Z" fill="white" stroke="#263238" stroke-width="0.348349" stroke-miterlimit="10"/>
<path d="M57.2827 22.6444L59.446 23.6219C59.446 23.6219 59.7946 23.1331 59.3059 22.9248L58.5936 22.436" fill="white"/>
<path d="M57.2827 22.6444L59.446 23.6219C59.446 23.6219 59.7946 23.1331 59.3059 22.9248L58.5936 22.436" stroke="#263238" stroke-width="0.348349" stroke-linejoin="round"/>
<path d="M133.711 59.59L132.817 56.9152L131.813 55.5399C131.796 55.5148 131.772 55.4959 131.744 55.486C131.715 55.4762 131.684 55.476 131.656 55.4855C131.627 55.495 131.603 55.5137 131.586 55.5386C131.569 55.5635 131.561 55.5933 131.563 55.6232V59.5862L132.32 60.5826L133.711 59.59Z" fill="white"/>
<path d="M148.281 71.2859L140.78 71.5511C140.503 71.5608 140.229 71.4915 139.99 71.3512C139.751 71.211 139.557 71.0057 139.431 70.7593L133.71 59.5903C133.71 59.5903 132.422 60.2874 132.323 60.583C132.225 60.8785 136.559 71.7481 137.889 75.0859C138.001 75.3661 138.197 75.6047 138.45 75.7689C138.703 75.9331 139.001 76.0148 139.302 76.0027L147.686 75.6466" fill="white"/>
<path d="M148.281 71.2859L140.78 71.5511C140.503 71.5608 140.229 71.4915 139.99 71.3512C139.751 71.211 139.557 71.0057 139.431 70.7593L133.71 59.5903C133.71 59.5903 132.422 60.2874 132.323 60.583C132.225 60.8785 136.559 71.7481 137.889 75.0859C138.001 75.3661 138.197 75.6047 138.45 75.7689C138.703 75.9331 139.001 76.0148 139.302 76.0027L147.686 75.6466" stroke="#263238" stroke-width="0.348349" stroke-miterlimit="10"/>
<path d="M134.26 60.9805L133.086 61.4654" stroke="#263238" stroke-width="0.261262" stroke-miterlimit="10"/>
<g opacity="0.5">
<g opacity="0.5">
<path d="M148.281 71.2859L140.78 71.5511C140.503 71.5608 140.229 71.4915 139.99 71.3512C139.751 71.211 139.557 71.0057 139.431 70.7593L133.71 59.5903C133.71 59.5903 132.422 60.2874 132.323 60.583C132.225 60.8785 136.559 71.7481 137.889 75.0859C138.001 75.3661 138.197 75.6047 138.45 75.7689C138.703 75.9331 139.001 76.0148 139.302 76.0027L147.686 75.6466" fill="#0768F6"/>
<path d="M148.281 71.2859L140.78 71.5511C140.503 71.5608 140.229 71.4915 139.99 71.3512C139.751 71.211 139.557 71.0057 139.431 70.7593L133.71 59.5903C133.71 59.5903 132.422 60.2874 132.323 60.583C132.225 60.8785 136.559 71.7481 137.889 75.0859C138.001 75.3661 138.197 75.6047 138.45 75.7689C138.703 75.9331 139.001 76.0148 139.302 76.0027L147.686 75.6466" stroke="#263238" stroke-width="0.348349" stroke-miterlimit="10"/>
</g>
<path opacity="0.5" d="M134.259 60.98L133.085 61.4649" stroke="#263238" stroke-width="0.261262" stroke-miterlimit="10"/>
</g>
<path d="M133.711 59.59L132.817 56.9152L131.813 55.5399C131.796 55.5148 131.772 55.4959 131.744 55.486C131.715 55.4762 131.684 55.476 131.656 55.4855C131.627 55.495 131.603 55.5137 131.586 55.5386C131.569 55.5635 131.561 55.5933 131.563 55.6232V59.5862L132.32 60.5826L133.711 59.59Z" fill="#0768F6"/>
<path opacity="0.5" d="M133.711 59.59L132.817 56.9152L131.813 55.5399C131.796 55.5148 131.772 55.4959 131.744 55.486C131.715 55.4762 131.684 55.476 131.656 55.4855C131.627 55.495 131.603 55.5137 131.586 55.5386C131.569 55.5635 131.561 55.5933 131.563 55.6232V59.5862L132.32 60.5826L133.711 59.59Z" fill="white"/>
<path d="M133.711 59.59L132.817 56.9152L131.813 55.5399C131.796 55.5148 131.772 55.4959 131.744 55.486C131.715 55.4762 131.684 55.476 131.656 55.4855C131.627 55.495 131.603 55.5137 131.586 55.5386C131.569 55.5635 131.561 55.5933 131.563 55.6232V59.5862L132.32 60.5826L133.711 59.59Z" stroke="#263238" stroke-width="0.348349" stroke-miterlimit="10"/>
<path d="M150.604 64.2274C150.244 64.6839 149.985 65.2123 149.846 65.7769C149.736 66.5043 149.911 69.3041 149.911 69.3041L146.008 69.7436C146.008 69.7436 146.304 66.8983 146.319 66.4248C146.444 65.8375 146.693 65.2836 147.049 64.8001C147.405 64.3166 147.86 63.9147 148.384 63.6212C149.725 62.9619 150.865 63.284 150.604 64.2274Z" fill="white"/>
<g style="mix-blend-mode:multiply" opacity="0.5">
<path d="M150.578 64.2583C149.869 64.065 149.009 63.8491 148.282 63.6748C147.782 63.9725 147.348 64.37 147.009 64.8426C146.669 65.3152 146.43 65.8527 146.308 66.4216C146.308 66.6034 146.255 67.1338 146.202 67.7173C146.581 67.6302 147.183 67.4975 147.63 67.418C147.984 67.3608 148.333 67.2734 148.672 67.1566L148.539 69.4298H148.626L149.899 69.2858C149.899 69.2858 149.725 66.486 149.835 65.7586C149.973 65.2115 150.227 64.7001 150.578 64.2583Z" fill="#0768F6"/>
</g>
<path d="M150.604 64.2274C150.244 64.6839 149.985 65.2123 149.846 65.7769C149.736 66.5043 149.911 69.3041 149.911 69.3041L146.008 69.7436C146.008 69.7436 146.304 66.8983 146.319 66.4248C146.444 65.8375 146.693 65.2836 147.049 64.8001C147.405 64.3166 147.86 63.9147 148.384 63.6212C149.725 62.9619 150.865 63.284 150.604 64.2274Z" stroke="#263238" stroke-width="0.349728" stroke-miterlimit="10"/>
<path d="M151.415 64.7086C154.651 60.435 146.85 55.9947 144.8 60.2418C144.515 60.7656 144.288 61.3196 144.126 61.8937C143.815 62.0831 142.989 62.5908 142.838 62.7309C142.686 62.8711 143.217 63.231 143.508 63.4091C142.951 64.7768 143.035 66.2165 143.194 66.5423C143.47 67.103 144.834 67.1106 145.732 66.9439C146.63 66.7772 146.986 65.9172 147.248 65.6823C147.509 65.4474 148.812 65.7467 149.271 65.8831C149.729 66.0195 150.786 65.5535 151.415 64.7086Z" fill="white"/>
<g style="mix-blend-mode:multiply" opacity="0.5">
<path d="M148.214 64.2998C148.214 64.2998 148.282 64.6218 147.63 64.8833C146.979 65.1447 146.85 64.9477 146.657 65.4023C146.575 65.7012 146.409 65.9704 146.178 66.1779C145.948 66.3854 145.663 66.5225 145.357 66.573C144.74 66.6902 144.116 66.7699 143.489 66.8117C144.005 67.0996 145.027 67.0769 145.762 66.9443C146.657 66.7814 147.016 65.9176 147.278 65.6827C147.539 65.4478 148.843 65.7471 149.301 65.8835C149.409 65.9049 149.519 65.9049 149.627 65.8835C149.798 65.5028 149.9 65.0949 149.93 64.6787L148.214 64.2998Z" fill="#0768F6"/>
</g>
<path d="M151.415 64.7086C154.651 60.435 146.85 55.9947 144.8 60.2418C144.515 60.7656 144.288 61.3196 144.126 61.8937C143.815 62.0831 142.989 62.5908 142.838 62.7309C142.686 62.8711 143.217 63.231 143.508 63.4091C142.951 64.7768 143.035 66.2165 143.194 66.5423C143.47 67.103 144.834 67.1106 145.732 66.9439C146.63 66.7772 146.986 65.9172 147.248 65.6823C147.509 65.4474 148.812 65.7467 149.271 65.8831C149.729 66.0195 150.786 65.5535 151.415 64.7086Z" stroke="#263238" stroke-width="0.348349" stroke-miterlimit="10"/>
<path d="M145.096 62.269C145.013 62.4508 144.872 62.5645 144.782 62.5228C144.691 62.4811 144.683 62.2993 144.782 62.1174C144.88 61.9356 145.005 61.8219 145.096 61.8636C145.187 61.9053 145.179 62.0871 145.096 62.269Z" fill="#263238"/>
<path d="M145.02 61.1017C145.02 61.1017 145.398 60.7872 145.474 61.5109" stroke="#263238" stroke-width="0.174174" stroke-linecap="round" stroke-linejoin="round"/>
<path d="M143.432 64.144C143.432 64.144 143.432 64.5229 144.114 64.5229" stroke="#263238" stroke-width="0.174174" stroke-linecap="round" stroke-linejoin="round"/>
<path d="M142.508 88.937L142.208 92.6423C142.208 92.6423 140.136 107.395 140.234 109.089C140.333 110.782 140.556 128.278 140.556 128.278L143.053 128.676L145.857 109.271L149.793 89.5508L142.508 88.937Z" fill="#0768F6" stroke="#263238" stroke-width="0.348349" stroke-miterlimit="10"/>
<path opacity="0.2" d="M142.508 88.937L142.208 92.6423C142.208 92.6423 140.136 107.395 140.234 109.089C140.333 110.782 140.556 128.278 140.556 128.278L143.053 128.676L145.857 109.271L149.793 89.5508L142.508 88.937Z" fill="#263238"/>
<path d="M145.667 102.413C145.667 102.413 144.709 108.054 143.985 110.82C143.262 113.586 143.265 116.344 143.265 119.345C143.265 122.345 142.186 127.877 142.186 127.877" stroke="#263238" stroke-width="0.261262" stroke-miterlimit="10"/>
<path d="M147.574 88.0275C149.218 87.1637 150.984 86.5916 151.488 87.7395C152.488 90.0355 151.291 93.5248 151.291 93.5248L152.204 109.619L153.875 129.036L151.378 128.634C151.378 128.634 147.544 112.248 146.945 111.248C146.346 110.248 145.403 96.2185 145.403 96.2185L143.509 94.4947" fill="#0768F6"/>
<path d="M147.574 88.0275C149.218 87.1637 150.984 86.5916 151.488 87.7395C152.488 90.0355 151.291 93.5248 151.291 93.5248L152.204 109.619L153.875 129.036L151.378 128.634C151.378 128.634 147.544 112.248 146.945 111.248C146.346 110.248 145.403 96.2185 145.403 96.2185L143.509 94.4947" stroke="#263238" stroke-width="0.348349" stroke-miterlimit="10"/>
<g opacity="0.2">
<path opacity="0.2" d="M147.574 88.0275C149.218 87.1637 150.984 86.5916 151.488 87.7395C152.488 90.0355 151.291 93.5248 151.291 93.5248L152.204 109.619L153.875 129.036L151.378 128.634C151.378 128.634 147.544 112.248 146.945 111.248C146.346 110.248 145.403 96.2185 145.403 96.2185L143.509 94.4947" fill="#263238"/>
</g>
<path d="M149.521 100.219C149.578 103.951 149.957 105.747 150.252 106.732C150.612 107.933 150.491 110.214 150.491 111.278C150.491 112.343 150.01 111.04 151.093 115.965C152.177 120.89 152.893 127.732 152.893 127.732" stroke="#263238" stroke-width="0.261262" stroke-miterlimit="10"/>
<path d="M149.521 92.086C149.521 92.086 149.638 91.8435 149.521 97.4886C149.521 97.7917 149.521 98.0834 149.521 98.3676" stroke="#263238" stroke-width="0.261262" stroke-miterlimit="10"/>
<path d="M143.979 91.0137L143.899 92.7034L143.509 93.8779L144.092 94.5598" stroke="#263238" stroke-width="0.261262" stroke-linecap="round" stroke-linejoin="round"/>
<path d="M143.213 92.021C143.213 92.021 144.19 92.9985 146.729 92.703" stroke="#263238" stroke-width="0.261262" stroke-linecap="round" stroke-linejoin="round"/>
<path d="M149.211 91.1763C151.105 90.7974 151.226 90.2746 151.882 89.8351C151.894 89.1187 151.765 88.4068 151.503 87.74C151.006 86.6034 149.229 87.1641 147.589 88.0279L146.793 89.2858L142.524 88.9372L142.387 90.6118C144.579 91.3639 146.925 91.5579 149.211 91.1763Z" fill="#263238"/>
<path d="M142.936 90.0962L142.895 90.763L143.978 91.013L144.061 90.1379L142.936 90.0962Z" fill="white" stroke="#263238" stroke-width="0.261262" stroke-miterlimit="10"/>
<path d="M150.498 91.0854L150.316 89.426L150.865 89.2441L151.142 90.7179" fill="#0768F6"/>
<path d="M150.498 91.0854L150.316 89.426L150.865 89.2441L151.142 90.7179" stroke="#263238" stroke-width="0.348349" stroke-miterlimit="10"/>
<path d="M146.263 91.6386L145.895 89.7026H146.816L147.183 91.3621" fill="#0768F6"/>
<path d="M146.263 91.6386L145.895 89.7026H146.816L147.183 91.3621" stroke="#263238" stroke-width="0.348349" stroke-miterlimit="10"/>
<g opacity="0.2">
<path opacity="0.2" d="M150.498 91.0849L150.316 89.4255L150.865 89.2437L151.142 90.7174" fill="#263238"/>
<path opacity="0.2" d="M146.263 91.6382L145.895 89.7021H146.816L147.183 91.3616" fill="#263238"/>
</g>
<path d="M142.019 74.2524C142.019 74.2524 141.705 76.3551 140.762 79.9354C139.818 83.5157 138.867 87.8082 138.867 87.8082L139.394 90.0132L140.966 87.7021L142.019 74.2524Z" fill="#263238" stroke="#263238" stroke-width="0.348349" stroke-miterlimit="10"/>
<path d="M144.646 71.2095C144.646 71.2095 142.441 71.7323 142.232 72.7818C142.12 73.2648 142.049 73.7566 142.02 74.2518L145.381 71.524L149.582 69.8418L144.646 71.2095Z" fill="#263238" stroke="#263238" stroke-width="0.348349" stroke-miterlimit="10"/>
<path d="M145.247 70.399C145.247 70.399 143.455 72.4259 142.743 73.2595C142.031 74.093 142.027 83.0379 142.027 84.3526C142.027 85.6673 141.315 89.2362 142.504 89.9522C143.694 90.6683 150.972 90.4296 151.688 89.2362C152.404 88.0427 152.878 73.7368 152.76 72.426C152.671 71.8378 152.439 71.2805 152.085 70.8024C151.731 70.3243 151.266 69.94 150.729 69.683C149.9 69.3003 145.247 70.399 145.247 70.399Z" fill="white"/>
<g style="mix-blend-mode:multiply" opacity="0.5">
<path d="M150.729 69.6834C150.63 69.6434 150.525 69.6204 150.419 69.6152L149.903 69.8842C150.771 70.5948 151.367 71.582 151.593 72.6802C151.833 74.2757 151.811 75.8996 151.529 77.488C151.271 79.2422 147.111 77.488 147.892 78.1397C148.672 78.7913 151.593 79.8938 151.726 80.4773C151.858 81.0607 150.279 82.0344 149.71 82.1026C149.142 82.1708 150.089 83.4665 150.684 84.569C151.279 85.6715 151.063 87.2211 149.71 88.2743C148.358 89.3276 145.217 89.8466 143.861 89.8996C143.421 89.8996 143.148 90.0133 143.065 90.1421C145.149 90.6081 151.048 90.305 151.688 89.2366C152.404 88.0432 152.878 73.7373 152.76 72.4264C152.671 71.8383 152.439 71.2809 152.085 70.8028C151.731 70.3248 151.266 69.9405 150.729 69.6834Z" fill="#0768F6"/>
</g>
<path d="M145.247 70.399C145.247 70.399 143.455 72.4259 142.743 73.2595C142.031 74.093 142.027 83.0379 142.027 84.3526C142.027 85.6673 141.315 89.2362 142.504 89.9522C143.694 90.6683 150.972 90.4296 151.688 89.2362C152.404 88.0427 152.878 73.7368 152.76 72.426C152.671 71.8378 152.439 71.2805 152.085 70.8024C151.731 70.3243 151.266 69.94 150.729 69.683C149.9 69.3003 145.247 70.399 145.247 70.399Z" stroke="#263238" stroke-width="0.348349" stroke-miterlimit="10"/>
<path d="M148.912 79.4729C146.991 78.8743 145.309 77.1997 145.309 77.1997C145.735 79.1896 146.892 80.9472 148.552 82.1249" fill="white"/>
<path d="M148.912 79.4729C146.991 78.8743 145.309 77.1997 145.309 77.1997C145.735 79.1896 146.892 80.9472 148.552 82.1249" stroke="#263238" stroke-width="0.261262" stroke-linecap="round" stroke-linejoin="round"/>
<path d="M150.373 68.3716L144.648 69.6824L144.292 71.3532L150.729 69.6824L150.373 68.3716Z" fill="white" stroke="#263238" stroke-width="0.348349" stroke-miterlimit="10"/>
<path d="M143.387 131.177L143.053 128.661L140.557 128.263L138.477 129.745L136.613 130.767V131.177H143.387Z" fill="#263238" stroke="#263238" stroke-width="0.348349" stroke-miterlimit="10"/>
<path d="M154.184 131.374L153.874 129.036L151.377 128.635L149.297 130.116L147.433 131.143V131.374H154.184Z" fill="#263238" stroke="#263238" stroke-width="0.348349" stroke-miterlimit="10"/>
<path d="M132.619 57.4082L131.081 56.5179C131.081 56.5179 130.483 56.4459 130.74 57.1127L132.278 58.2986" fill="white"/>
<path d="M132.619 57.4082L131.081 56.5179C131.081 56.5179 130.483 56.4459 130.74 57.1127L132.278 58.2986" stroke="#263238" stroke-width="0.348349" stroke-linecap="round" stroke-linejoin="round"/>
<path d="M132.392 59.723C132.32 59.5402 132.213 59.373 132.078 59.2305L131.79 58.9198L130.225 56.98C130.225 56.98 129.74 56.6542 129.846 57.3589L130.816 59.2532L129.092 57.6354C129.092 57.6354 128.767 57.3664 128.767 57.7453C128.767 58.1242 130.331 59.795 130.331 59.795L128.604 58.9842C128.604 58.9842 128.225 59.2532 128.498 59.5222C128.77 59.7912 130.222 60.3329 130.222 60.3329L128.93 60.2799C128.93 60.2799 128.551 60.6019 128.82 60.7118C129.089 60.8217 130.6 61.1399 130.6 61.1399C130.792 61.3032 131.012 61.4314 131.248 61.5188L131.627 62.2197L133.078 61.4885L132.392 59.723Z" fill="white" stroke="#263238" stroke-width="0.348349" stroke-linecap="round" stroke-linejoin="round"/>
<path d="M147.884 76.5411L139.239 78.568C138.796 78.646 138.34 78.5681 137.948 78.3478C137.557 78.1274 137.254 77.7782 137.09 77.3594L131.635 62.2048L133.086 61.4736L139.114 72.6388C139.25 72.8941 139.466 73.0987 139.728 73.2222C139.99 73.3457 140.284 73.3816 140.568 73.3245L147.18 71.4567" fill="white"/>
<path d="M147.884 76.5411L139.239 78.568C138.796 78.646 138.34 78.5681 137.948 78.3478C137.557 78.1274 137.254 77.7782 137.09 77.3594L131.635 62.2048L133.086 61.4736L139.114 72.6388C139.25 72.8941 139.466 73.0987 139.728 73.2222C139.99 73.3457 140.284 73.3816 140.568 73.3245L147.18 71.4567" stroke="#263238" stroke-width="0.348349" stroke-miterlimit="10"/>
<path d="M133.9 62.9014L132.218 63.7424" stroke="#263238" stroke-width="0.261262" stroke-miterlimit="10"/>
<path d="M146.808 60.2872C146.808 60.2872 145.887 61.2078 146.346 61.8974C146.617 62.2956 146.825 62.7341 146.96 63.1969C146.96 63.1969 146.581 64.1175 146.884 64.1175C147.187 64.1175 147.035 63.428 147.573 63.5833C148.111 63.7386 148.646 64.6555 148.187 64.9624C147.844 65.1541 147.481 65.3066 147.104 65.417C147.056 65.4317 147.013 65.4601 146.981 65.4987C146.949 65.5374 146.928 65.5846 146.923 65.6345C146.917 65.6844 146.926 65.7349 146.949 65.7797C146.972 65.8246 147.007 65.8618 147.051 65.8868C147.549 66.2235 148.123 66.4317 148.721 66.493C149.211 66.5034 149.699 66.4525 150.176 66.3414C150.176 66.3414 151.692 64.2728 152.783 63.7348C153.874 63.1969 153.396 60.7456 153.396 60.4387C153.396 60.1318 152.324 59.4423 152.324 59.4423C152.324 59.4423 152.631 58.7528 151.252 57.2222C149.873 55.6915 147.266 55.3809 147.191 55.9189C147.164 56.0613 147.179 56.2084 147.233 56.3427C147.288 56.477 147.379 56.5929 147.498 56.6766C147.498 56.6766 145.198 55.6802 144.126 56.7524C143.053 57.8246 146.808 60.2872 146.808 60.2872Z" fill="#263238" stroke="#263238" stroke-width="0.348349" stroke-miterlimit="10"/>
<path d="M146.808 60.2876C146.808 60.2876 148.672 62.5608 151.434 62.7805" stroke="white" stroke-width="0.174174" stroke-linecap="round" stroke-linejoin="round"/>
<path d="M146.149 60.9805C146.149 60.9805 147.017 63.5037 150.604 64.2236" stroke="white" stroke-width="0.174174" stroke-linecap="round" stroke-linejoin="round"/>
</svg>
