<svg width="32" height="28" viewBox="0 0 32 28" fill="none" xmlns="http://www.w3.org/2000/svg">
<path d="M30 6.5H31.5V21.5H30V26C30 26.3978 29.842 26.7794 29.5607 27.0607C29.2794 27.342 28.8978 27.5 28.5 27.5H1.5C1.10218 27.5 0.720644 27.342 0.43934 27.0607C0.158035 26.7794 0 26.3978 0 26V2C0 1.60218 0.158035 1.22064 0.43934 0.93934C0.720644 0.658035 1.10218 0.5 1.5 0.5H28.5C28.8978 0.5 29.2794 0.658035 29.5607 0.93934C29.842 1.22064 30 1.60218 30 2V6.5ZM27 21.5H18C16.0109 21.5 14.1032 20.7098 12.6967 19.3033C11.2902 17.8968 10.5 15.9891 10.5 14C10.5 12.0109 11.2902 10.1032 12.6967 8.6967C14.1032 7.29018 16.0109 6.5 18 6.5H27V3.5H3V24.5H27V21.5ZM28.5 18.5V9.5H18C16.8065 9.5 15.6619 9.9741 14.818 10.818C13.9741 11.6619 13.5 12.8065 13.5 14C13.5 15.1935 13.9741 16.3381 14.818 17.182C15.6619 18.0259 16.8065 18.5 18 18.5H28.5ZM18 12.5H22.5V15.5H18V12.5Z" fill="#0768F6"/>
</svg>
