<svg width="12" height="14" viewBox="0 0 12 14" fill="none" xmlns="http://www.w3.org/2000/svg">
<path d="M2.66667 3.00016V1.00016C2.66667 0.823352 2.7369 0.653782 2.86193 0.528758C2.98695 0.403734 3.15652 0.333496 3.33333 0.333496H11.3333C11.5101 0.333496 11.6797 0.403734 11.8047 0.528758C11.9298 0.653782 12 0.823352 12 1.00016V10.3335C12 10.5103 11.9298 10.6799 11.8047 10.8049C11.6797 10.9299 11.5101 11.0002 11.3333 11.0002H9.33333V13.0002C9.33333 13.3682 9.03333 13.6668 8.662 13.6668H0.671333C0.583418 13.6674 0.496265 13.6505 0.414882 13.6172C0.333498 13.584 0.259489 13.535 0.197106 13.473C0.134723 13.4111 0.0851953 13.3374 0.0513695 13.2563C0.0175437 13.1751 8.62495e-05 13.0881 0 13.0002L0.00200001 3.66683C0.00200001 3.29883 0.302 3.00016 0.673334 3.00016H2.66667ZM1.33533 4.3335L1.33333 12.3335H8V4.3335H1.33533ZM4 3.00016H9.33333V9.66683H10.6667V1.66683H4V3.00016Z" fill="#0768F6"/>
</svg>
