<svg width="122" height="91" viewBox="0 0 122 91" fill="none" xmlns="http://www.w3.org/2000/svg">
<path d="M122 79.8853H0V79.9463H122V79.8853Z" fill="#EBEBEB"/>
<path d="M109.776 83.8115H101.694V83.8725H109.776V83.8115Z" fill="#EBEBEB"/>
<path d="M80.8176 84.4756H78.6973V84.5366H80.8176V84.4756Z" fill="#EBEBEB"/>
<path d="M101.45 81.5469H96.7681V81.6079H101.45V81.5469Z" fill="#EBEBEB"/>
<path d="M23.3387 81.957H12.8003V82.018H23.3387V81.957Z" fill="#EBEBEB"/>
<path d="M27.0572 81.957H25.5127V82.018H27.0572V81.957Z" fill="#EBEBEB"/>
<path d="M54.936 82.9868H32.0781V83.0478H54.936V82.9868Z" fill="#EBEBEB"/>
<path d="M57.8285 69.0032H10.7145C10.3454 69.0025 9.99169 68.8555 9.73094 68.5943C9.47018 68.3331 9.32373 67.979 9.32373 67.61V1.38104C9.32694 1.01407 9.47481 0.663187 9.73522 0.404605C9.99563 0.146024 10.3475 0.000628639 10.7145 0H57.8285C58.198 0 58.5524 0.146787 58.8137 0.408071C59.075 0.669354 59.2217 1.02373 59.2217 1.39324V67.61C59.2217 67.9795 59.075 68.3338 58.8137 68.5951C58.5524 68.8564 58.198 69.0032 57.8285 69.0032ZM10.7145 0.0488002C10.3616 0.0494465 10.0234 0.190092 9.77407 0.439865C9.52476 0.689639 9.38473 1.02813 9.38473 1.38104V67.61C9.38473 67.9629 9.52476 68.3014 9.77407 68.5511C10.0234 68.8009 10.3616 68.9416 10.7145 68.9422H57.8285C58.1816 68.9416 58.5201 68.801 58.7698 68.5513C59.0195 68.3016 59.1601 67.9631 59.1607 67.61V1.38104C59.1601 1.02791 59.0195 0.68942 58.7698 0.439716C58.5201 0.190013 58.1816 0.0494452 57.8285 0.0488002H10.7145Z" fill="#EBEBEB"/>
<path d="M110.608 69.0032H63.4914C63.1221 69.0026 62.7681 68.8556 62.5069 68.5944C62.2458 68.3333 62.0988 67.9793 62.0981 67.61V1.38104C62.102 1.01385 62.2504 0.662967 62.5112 0.404453C62.772 0.145939 63.1242 0.000621783 63.4914 0H110.608C110.974 0.0012699 111.326 0.146949 111.586 0.405462C111.845 0.663974 111.993 1.01449 111.996 1.38104V67.61C111.996 67.9786 111.85 68.3323 111.59 68.5934C111.33 68.8546 110.976 69.0019 110.608 69.0032ZM63.4914 0.0488002C63.1382 0.0494452 62.7998 0.190013 62.5501 0.439716C62.3004 0.68942 62.1598 1.02791 62.1591 1.38104V67.61C62.1598 67.9631 62.3004 68.3016 62.5501 68.5513C62.7998 68.801 63.1382 68.9416 63.4914 68.9422H110.608C110.961 68.9416 111.299 68.801 111.549 68.5513C111.799 68.3016 111.939 67.9631 111.94 67.61V1.38104C111.939 1.02791 111.799 0.68942 111.549 0.439716C111.299 0.190013 110.961 0.0494452 110.608 0.0488002H63.4914Z" fill="#EBEBEB"/>
<path d="M24.0852 49.5514C24.6269 29.2652 41.2945 12.9319 61.7075 12.9319C82.1206 12.9319 98.7955 29.2652 99.3299 49.5514H107.399C106.855 24.8171 86.5687 4.86279 61.7075 4.86279C36.8464 4.86279 16.5676 24.8171 16.0161 49.5514H24.0852Z" fill="#F5F5F5"/>
<path d="M24.0854 49.5516C24.6271 29.2654 41.2947 12.9321 61.7077 12.9321C82.1208 12.9321 98.7957 29.2654 99.3301 49.5516H105.384C104.84 25.9299 85.4563 6.88086 61.7077 6.88086C37.9592 6.88086 18.5759 25.9299 18.0317 49.5516H24.0854Z" fill="#EBEBEB"/>
<path d="M24.0851 49.5518C24.6268 29.2656 41.2944 12.9322 61.7074 12.9322C82.1205 12.9322 98.7954 29.2656 99.3298 49.5518H103.366C102.821 27.0403 84.3458 8.89893 61.7074 8.89893C39.0691 8.89893 20.591 27.0403 20.0493 49.5518H24.0851Z" fill="#FAFAFA"/>
<path d="M24.0848 49.5515C24.6265 29.2654 41.2941 12.932 61.7071 12.932C82.1202 12.932 98.7951 29.2654 99.3295 49.5515H101.347C101.078 39.2165 96.7839 29.3952 89.379 22.1805C81.9741 14.9658 72.0444 10.9282 61.7059 10.9282C51.3674 10.9282 41.4377 14.9658 34.0328 22.1805C26.6279 29.3952 22.3334 39.2165 22.0645 49.5515H24.0848Z" fill="#E0E0E0"/>
<path d="M17.8432 76.1036C17.8432 76.1036 16.6964 72.2655 19.0144 71.5018C21.3324 70.738 22.7086 68.9422 22.6305 66.9121C22.5524 64.882 24.9924 62.9056 26.8224 64.8064C28.6524 66.7072 28.4084 63.3424 30.8484 62.5274C33.2884 61.7125 35.3576 63.6938 34.689 65.5067C34.0204 67.3196 36.4287 68.4542 39.325 66.9121C42.2213 65.37 45.3786 68.1736 44.7686 70.3696C44.1586 72.5656 44.6588 72.8096 46.4766 72.0776C48.2944 71.3456 51.564 73.4196 50.4197 76.1036C49.2753 78.7876 17.8432 76.1036 17.8432 76.1036Z" fill="#E0E0E0"/>
<path d="M79.1607 76.4694C77.9407 75.2494 79.0387 73.1754 80.2587 72.9314C81.4787 72.6874 82.6987 70.5426 82.7645 69.1738C82.8304 67.8049 85.0167 63.6057 88.4327 66.1994C91.8487 68.7931 90.8117 66.5825 93.2834 65.8529C95.7551 65.1234 97.3118 67.2218 96.2285 68.7956C96.2285 68.7956 98.7099 68.1734 99.7323 70.4914C100.755 72.8094 99.7323 74.249 99.7323 74.249C99.7323 74.249 104.402 74.1123 103.983 76.9988C103.563 79.8854 79.1607 76.4694 79.1607 76.4694Z" fill="#E0E0E0"/>
<path d="M108.092 76.5429V79.8857H13.9082V76.5429C13.901 76.4093 13.9207 76.2757 13.9663 76.1499C14.0118 76.0242 14.0823 75.9089 14.1734 75.811C14.2644 75.713 14.3743 75.6345 14.4965 75.5799C14.6186 75.5254 14.7505 75.4961 14.8842 75.4937H107.116C107.25 75.4961 107.382 75.5254 107.504 75.5799C107.626 75.6345 107.736 75.713 107.827 75.811C107.918 75.9089 107.989 76.0242 108.034 76.1499C108.08 76.2757 108.099 76.4093 108.092 76.5429Z" fill="#EBEBEB"/>
<path d="M25.1324 75.4937H19.2764V79.8857H25.1324V75.4937Z" fill="#F5F5F5"/>
<path d="M36.112 75.4937H30.5V79.8857H36.112V75.4937Z" fill="#F5F5F5"/>
<path d="M47.336 75.4937H41.48V79.8857H47.336V75.4937Z" fill="#F5F5F5"/>
<path d="M58.3161 75.4937H52.7041V79.8857H58.3161V75.4937Z" fill="#F5F5F5"/>
<path d="M69.2961 75.4937H63.6841V79.8857H69.2961V75.4937Z" fill="#F5F5F5"/>
<path d="M80.5206 75.4937H74.6646V79.8857H80.5206V75.4937Z" fill="#F5F5F5"/>
<path d="M91.4997 75.4937H85.8877V79.8857H91.4997V75.4937Z" fill="#F5F5F5"/>
<path d="M102.724 75.4937H96.8677V79.8857H102.724V75.4937Z" fill="#F5F5F5"/>
<path d="M29.653 47.8581C29.6542 47.5224 29.5765 47.1911 29.4263 46.8909C29.2761 46.5906 29.0574 46.3298 28.788 46.1295C28.5186 45.9292 28.206 45.7949 27.8752 45.7374C27.5444 45.68 27.2048 45.701 26.8836 45.7988C26.9888 45.0811 26.9212 44.3488 26.6863 43.6625C26.4514 42.9763 26.0561 42.3561 25.5332 41.8534C25.0103 41.3508 24.3749 40.9803 23.6799 40.7728C22.9849 40.5652 22.2504 40.5266 21.5375 40.6601C21.0889 39.921 20.412 39.348 19.609 39.0276C18.8059 38.7072 17.9204 38.6569 17.0863 38.8843C16.2521 39.1116 15.5146 39.6043 14.9852 40.2878C14.4558 40.9714 14.1632 41.8086 14.1517 42.6731H14.0858C13.1125 42.6731 12.1791 43.0598 11.4909 43.748C10.8027 44.4362 10.416 45.3696 10.416 46.3429C10.416 47.3162 10.8027 48.2496 11.4909 48.9378C12.1791 49.626 13.1125 50.0127 14.0858 50.0127H27.5717C28.1307 49.9949 28.6608 49.7599 29.0494 49.3576C29.438 48.9554 29.6545 48.4175 29.653 47.8581Z" fill="#E0E0E0"/>
<path d="M110.978 48.4782C110.98 48.1426 110.902 47.8113 110.753 47.511C110.603 47.2108 110.384 46.9499 110.115 46.7495C109.846 46.5491 109.533 46.4148 109.202 46.3574C108.872 46.2999 108.532 46.321 108.211 46.4189C108.241 46.1998 108.257 45.9788 108.258 45.7576C108.258 45.0883 108.11 44.4272 107.826 43.8213C107.541 43.2155 107.126 42.6797 106.611 42.2523C106.096 41.8248 105.493 41.5161 104.846 41.3481C104.198 41.1801 103.521 41.1569 102.863 41.2802C102.414 40.5423 101.737 39.9703 100.934 39.6507C100.132 39.3311 99.247 39.2812 98.4135 39.5084C97.5801 39.7356 96.8431 40.2277 96.3139 40.9104C95.7846 41.5931 95.4917 42.4295 95.4793 43.2932H95.4036C94.4304 43.2932 93.4969 43.6799 92.8087 44.3681C92.1205 45.0563 91.7339 45.9897 91.7339 46.963C91.7339 47.9363 92.1205 48.8697 92.8087 49.5579C93.4969 50.2461 94.4304 50.6328 95.4036 50.6328H108.882C109.444 50.6194 109.978 50.3862 110.37 49.9834C110.762 49.5806 110.98 49.0402 110.978 48.4782Z" fill="#E0E0E0"/>
<path d="M106.738 25.3957C106.738 25.0314 106.593 24.682 106.335 24.4244C106.078 24.1667 105.728 24.022 105.364 24.022C105.231 24.0218 105.099 24.0407 104.971 24.0781C104.991 23.9391 105 23.7989 105 23.6584C105.002 23.2757 104.927 22.8964 104.782 22.5424C104.636 22.1884 104.422 21.8666 104.152 21.5955C103.882 21.3244 103.561 21.1093 103.207 20.9625C102.854 20.8158 102.475 20.7402 102.092 20.7402C101.912 20.7404 101.732 20.7567 101.555 20.789C101.268 20.3178 100.836 19.9527 100.324 19.7487C99.8112 19.5447 99.2462 19.5128 98.7141 19.658C98.182 19.8031 97.7115 20.1174 97.3736 20.5534C97.0357 20.9893 96.8488 21.5234 96.841 22.0749H96.7995C96.191 22.0945 95.614 22.35 95.1905 22.7874C94.7671 23.2248 94.5303 23.8097 94.5303 24.4185C94.5303 25.0273 94.7671 25.6122 95.1905 26.0496C95.614 26.487 96.191 26.7425 96.7995 26.7621H105.408C105.763 26.7508 106.1 26.602 106.348 26.3472C106.596 26.0924 106.736 25.7513 106.738 25.3957Z" fill="#E0E0E0"/>
<path d="M76.0916 7.56377C76.0916 7.20138 75.9476 6.85383 75.6914 6.59758C75.4351 6.34133 75.0876 6.19737 74.7252 6.19737C74.592 6.19678 74.4596 6.21653 74.3324 6.25593C74.3528 6.11614 74.3634 5.97509 74.3641 5.83382C74.3608 5.06779 74.0543 4.33424 73.5115 3.79372C72.9687 3.25319 72.2338 2.94973 71.4678 2.94973C71.2886 2.9498 71.1097 2.96614 70.9334 2.99853C70.6481 2.52923 70.2178 2.1655 69.7076 1.96229C69.1973 1.75907 68.6348 1.7274 68.105 1.87205C67.5751 2.0167 67.1067 2.32982 66.7705 2.76413C66.4343 3.19844 66.2486 3.73035 66.2413 4.27953H66.1998C65.5812 4.27953 64.9879 4.52529 64.5504 4.96275C64.1129 5.4002 63.8672 5.99352 63.8672 6.61217C63.8672 7.23083 64.1129 7.82414 64.5504 8.2616C64.9879 8.69905 65.5812 8.94481 66.1998 8.94481H74.7642C75.1224 8.9346 75.4622 8.78413 75.7104 8.52583C75.9587 8.26752 76.0956 7.92203 76.0916 7.56377Z" fill="#E0E0E0"/>
<path d="M33.2498 19.7645C33.2498 19.4021 33.1058 19.0546 32.8496 18.7983C32.5933 18.5421 32.2458 18.3981 31.8834 18.3981C31.7504 18.3979 31.6181 18.4168 31.4906 18.4542C31.5103 18.3152 31.5201 18.175 31.5198 18.0345C31.5214 17.6535 31.4478 17.2759 31.3031 16.9234C31.1584 16.5709 30.9454 16.2504 30.6766 15.9804C30.4077 15.7104 30.0881 15.4961 29.7362 15.3499C29.3843 15.2037 29.007 15.1285 28.626 15.1285C28.4468 15.1286 28.2679 15.1449 28.0916 15.1773C27.8064 14.7082 27.3764 14.3445 26.8663 14.1412C26.3563 13.938 25.794 13.9061 25.2643 14.0504C24.7346 14.1948 24.2662 14.5075 23.9298 14.9414C23.5934 15.3753 23.4073 15.9069 23.3995 16.4559H23.358C22.7394 16.4559 22.1461 16.7016 21.7086 17.1391C21.2712 17.5765 21.0254 18.1698 21.0254 18.7885C21.0254 19.4072 21.2712 20.0005 21.7086 20.4379C22.1461 20.8754 22.7394 21.1211 23.358 21.1211H31.92C32.2741 21.111 32.6105 20.9641 32.8585 20.7111C33.1065 20.4581 33.2468 20.1188 33.2498 19.7645Z" fill="#E0E0E0"/>
<path d="M61.0006 90.905C87.1287 90.905 108.31 89.6684 108.31 88.1429C108.31 86.6175 87.1287 85.3809 61.0006 85.3809C34.8724 85.3809 13.6914 86.6175 13.6914 88.1429C13.6914 89.6684 34.8724 90.905 61.0006 90.905Z" fill="#F5F5F5"/>
<path d="M79.702 29.6994L78.8968 28.6014C78.921 28.4704 78.9132 28.3354 78.8741 28.208C78.835 28.0806 78.7658 27.9644 78.6723 27.8694C78.3503 27.5034 76.2592 27.6962 75.9371 27.7279C75.615 27.7596 75.0831 29.0431 75.3979 29.4164C75.7126 29.7897 77.7232 29.8531 77.9086 29.6921L78.543 30.5754L79.702 29.6994Z" fill="#9F5B53"/>
<path d="M91.814 26.9739C91.7506 26.0955 92.302 25.7539 93.0047 26.054C93.7074 26.3541 94.315 25.322 95.252 25.566C96.1889 25.81 95.901 26.7445 96.3841 26.9739C96.8672 27.2033 97.4114 26.9275 97.6212 28.1036C97.831 29.2797 97.06 28.6697 97.3992 29.6994C97.7383 30.729 98.7485 31.0194 97.8872 31.8954C97.0258 32.7713 96.4402 33.1154 97.1161 33.8474C97.792 34.5794 97.06 35.2821 96.7501 35.5236C96.4402 35.7652 98.0946 37.1633 97.6285 38.4175C97.1625 39.6716 93.2756 40.8306 90.877 39.9156C88.4785 39.0006 87.8124 37.6147 87.949 36.0385C88.0857 34.4622 89.2496 34.045 89.169 33.5521C89.0885 33.0592 88.3224 32.6274 88.7567 31.9027C89.191 31.178 90.3964 31.1146 90.0108 30.4216C89.6253 29.7286 89.6741 28.9576 90.1084 28.6184C90.5428 28.2793 90.9478 28.3744 90.8673 27.679C90.7868 26.9837 91.814 26.9739 91.814 26.9739Z" fill="#263238"/>
<path d="M89.7135 34.5769C89.7135 34.5769 84.2064 34.6257 83.1768 33.3569C82.1471 32.0881 79.5436 29.0625 79.5436 29.0625L78.0796 29.9751C78.0796 29.9751 80.6416 35.6969 82.2495 36.9535C83.8575 38.2101 88.6448 38.4687 88.6448 38.4687L89.7135 34.5769Z" fill="#407BFF"/>
<path opacity="0.3" d="M89.7135 34.5769C89.7135 34.5769 84.2064 34.6257 83.1768 33.3569C82.1471 32.0881 79.5436 29.0625 79.5436 29.0625L78.0796 29.9751C78.0796 29.9751 80.6416 35.6969 82.2495 36.9535C83.8575 38.2101 88.6448 38.4687 88.6448 38.4687L89.7135 34.5769Z" fill="white"/>
<path d="M80.3145 85.0635L81.7785 85.3222L82.3787 83.3262L82.9252 81.4962L81.2392 80.9058L80.7488 83.1066L80.3145 85.0635Z" fill="#E4897B"/>
<path d="M82.1078 85.2825C82.1322 85.119 80.129 84.897 80.129 84.897C80.129 84.897 78.6894 85.9218 77.4572 85.9901C76.225 86.0584 76.7593 86.888 78.0842 87.1223L81.3587 87.7005C82.2981 87.8665 81.8516 86.9612 82.1078 85.2825Z" fill="#407BFF"/>
<path d="M78.8309 85.14C78.8061 85.1094 78.7915 85.0716 78.7894 85.0322C78.7872 84.9928 78.7974 84.9537 78.8187 84.9204C78.8313 84.8935 78.8493 84.8694 78.8715 84.8497C78.8937 84.83 78.9198 84.815 78.9481 84.8058C79.0991 84.7728 79.2564 84.7829 79.4019 84.835C79.2555 84.7204 79.1335 84.591 79.1457 84.4861C79.1457 84.4178 79.2067 84.369 79.3043 84.3422C79.3477 84.3294 79.3933 84.3263 79.4379 84.3331C79.4826 84.3398 79.5253 84.3562 79.5629 84.3812C79.8069 84.5398 79.8972 85.0302 79.8997 85.0522C79.9021 85.0602 79.9021 85.0687 79.8997 85.0766V85.0888C79.8987 85.0919 79.8971 85.0948 79.8951 85.0974C79.893 85.0999 79.8904 85.1019 79.8875 85.1034H79.8704C79.6359 85.1706 79.3943 85.2099 79.1506 85.2206C79.0946 85.2294 79.0375 85.2268 78.9825 85.213C78.9276 85.1992 78.876 85.1743 78.8309 85.14ZM78.9847 84.896C78.9698 84.9004 78.956 84.9079 78.9442 84.918C78.9325 84.9281 78.9229 84.9406 78.9163 84.9546C78.8822 85.0278 78.9041 85.0546 78.9163 85.062C78.9944 85.1547 79.3775 85.1108 79.6923 85.0376C79.4727 84.9595 79.1408 84.8472 78.9847 84.9107V84.896ZM79.3336 84.4349C79.3043 84.4349 79.2531 84.4617 79.2506 84.4886C79.2506 84.5788 79.4946 84.7838 79.7703 84.9473C79.7367 84.7602 79.6434 84.589 79.5044 84.4593C79.4717 84.4381 79.4335 84.4271 79.3946 84.4276C79.3736 84.4308 79.3532 84.4365 79.3336 84.4446V84.4349Z" fill="#263238"/>
<path opacity="0.2" d="M80.7412 83.1525L82.3711 83.3672L82.9226 81.5153L81.2365 80.915L80.7412 83.1525Z" fill="black"/>
<path d="M90.082 85.6909H91.568L91.812 83.6218L92.0316 81.7235L90.2675 81.4355L90.1699 83.6877L90.082 85.6909Z" fill="#E4897B"/>
<path d="M91.8848 85.5953C91.8848 85.4318 89.8694 85.5587 89.8694 85.5587C89.8694 85.5587 88.6323 86.8177 87.4294 87.1007C86.2264 87.3838 86.8974 88.106 88.2419 88.106H91.5676C92.5216 88.106 91.9263 87.2911 91.8848 85.5953Z" fill="#407BFF"/>
<path d="M88.6325 86.0249C88.6039 85.9986 88.5839 85.9642 88.5752 85.9264C88.5665 85.8885 88.5694 85.8488 88.5837 85.8127C88.5911 85.7837 88.6044 85.7565 88.6229 85.733C88.6414 85.7095 88.6646 85.6901 88.691 85.676C88.834 85.618 88.9904 85.6011 89.1424 85.6272C88.9789 85.5394 88.8374 85.432 88.8301 85.3271C88.8301 85.2588 88.8716 85.2002 88.9619 85.1587C89.0027 85.1394 89.0473 85.1294 89.0924 85.1294C89.1376 85.1294 89.1821 85.1394 89.223 85.1587C89.4962 85.271 89.6646 85.7419 89.6719 85.7614C89.675 85.7679 89.6765 85.775 89.6765 85.7822C89.6765 85.7893 89.675 85.7964 89.6719 85.8029L89.6548 85.8175C89.3926 85.9457 89.1104 86.0283 88.8203 86.0615C88.7553 86.0731 88.6884 86.06 88.6325 86.0249ZM88.7447 85.7663C88.7169 85.7816 88.6959 85.8069 88.6861 85.8371C88.6666 85.9176 88.6861 85.9371 88.7008 85.9444C88.7959 86.0225 89.1644 85.9103 89.4596 85.7858C89.2278 85.713 88.9802 85.7063 88.7447 85.7663ZM89.0082 85.2539C88.9814 85.2661 88.935 85.2929 88.935 85.3198C88.935 85.4125 89.2303 85.5638 89.528 85.6809C89.4613 85.5038 89.3399 85.3525 89.1815 85.249C89.1562 85.2375 89.1287 85.2317 89.101 85.2319C89.0688 85.2322 89.0371 85.2397 89.0082 85.2539Z" fill="#263238"/>
<path opacity="0.2" d="M90.1694 83.7331L91.8116 83.6623L92.0312 81.742L90.267 81.4468L90.1694 83.7331Z" fill="black"/>
<path d="M80.6025 81.983L83.0084 82.4076C85.4337 76.3588 87.1564 71.3129 88.3764 67.1234C89.0327 64.864 89.5427 62.8559 89.938 61.0722L89.8282 67.6602V82.6125H92.2682C98.2071 54.2817 93.9981 47.8059 93.9981 47.8059L86.8904 46.5859C86.6095 47.898 86.4107 49.2263 86.2951 50.5631L85.9754 52.9153L83.2036 67.2649L80.6025 81.983Z" fill="#263238"/>
<path opacity="0.2" d="M80.6025 81.983L83.0084 82.4076C85.4337 76.3588 87.1564 71.3129 88.3764 67.1234C89.0327 64.864 89.5427 62.8559 89.938 61.0722L89.8282 67.6602V82.6125H92.2682C98.2071 54.2817 93.9981 47.8059 93.9981 47.8059L86.8904 46.5859C86.6095 47.898 86.4107 49.2263 86.2951 50.5631L85.9754 52.9153L83.2036 67.2649L80.6025 81.983Z" fill="white"/>
<path d="M83.3835 82.1176L80.4019 81.1294L80.4409 82.3958L82.9077 83.1839L83.3835 82.1176Z" fill="#263238"/>
<path d="M92.5925 82.2556L89.4839 81.8018L89.7425 83.0437L92.3094 83.3902L92.5925 82.2556Z" fill="#263238"/>
<path d="M94.0051 46.7452V47.8066L86.7559 47.2503V45.9961L94.0051 46.7452Z" fill="#263238"/>
<path d="M88.3281 47.4503L89.9126 47.5923L90.0204 46.3893L88.4359 46.2473L88.3281 47.4503Z" fill="white"/>
<path d="M91.4772 48.132L91.8379 48.1504L91.9312 46.3203L91.5706 46.3019L91.4772 48.132Z" fill="#263238"/>
<path opacity="0.2" d="M91.4772 48.132L91.8379 48.1504L91.9312 46.3203L91.5706 46.3019L91.4772 48.132Z" fill="white"/>
<path d="M87.0441 47.6471L87.4048 47.6655L87.4981 45.8355L87.1375 45.8171L87.0441 47.6471Z" fill="#263238"/>
<path opacity="0.2" d="M87.0441 47.6471L87.4048 47.6655L87.4981 45.8355L87.1375 45.8171L87.0441 47.6471Z" fill="white"/>
<path d="M97.6212 36.534C97.4016 36.9805 97.2015 37.4051 97.0161 37.8052C96.8575 38.142 96.7111 38.4616 96.572 38.7666L96.328 39.2839C96.2694 39.4156 96.2109 39.5474 96.1572 39.6743C95.9644 40.111 95.7936 40.5185 95.6399 40.8943C95.5496 41.1188 95.4667 41.3359 95.3959 41.5458L95.2885 41.8337C95.1226 42.2753 94.9835 42.6852 94.8615 43.0732C94.7566 43.4099 94.6639 43.732 94.5785 44.0492C94.4663 44.4762 94.3711 44.891 94.2833 45.3131C94.2149 45.6376 94.1515 45.967 94.0881 46.3086C94.0588 46.4526 94.0319 46.599 94.0051 46.7478L86.7559 45.9939C86.7803 45.5864 86.8071 45.1911 86.8364 44.8056C86.8608 44.464 86.8852 44.1322 86.912 43.8101C86.9511 43.3514 86.9901 42.9122 87.0291 42.49C87.0633 42.1484 87.0975 41.819 87.1316 41.5018C87.1804 41.0382 87.2317 40.6015 87.2829 40.1867C87.3244 39.8402 87.3683 39.5132 87.4098 39.2107C87.4757 38.7227 87.5415 38.2957 87.6025 37.9028C87.6635 37.51 87.7172 37.2148 87.7685 36.9268C87.8352 36.5657 87.8937 36.2656 87.9441 36.0265C88.2638 34.5625 88.498 34.5308 88.498 34.5308C88.498 34.5308 90.1279 34.5649 91.5261 34.7406H91.5627C92.5075 34.8867 93.4423 35.092 94.3613 35.3555C94.4809 35.3872 94.6053 35.4214 94.7151 35.458C95.7087 35.7455 96.68 36.1051 97.6212 36.534Z" fill="#407BFF"/>
<path opacity="0.6" d="M97.6212 36.534C97.4016 36.9805 97.2015 37.4051 97.0161 37.8052C96.8575 38.142 96.7111 38.4616 96.572 38.7666L96.328 39.2839C96.2694 39.4156 96.2109 39.5474 96.1572 39.6743C95.9644 40.111 95.7936 40.5185 95.6399 40.8943C95.5496 41.1188 95.4667 41.3359 95.3959 41.5458L95.2885 41.8337C95.1226 42.2753 94.9835 42.6852 94.8615 43.0732C94.7566 43.4099 94.6639 43.732 94.5785 44.0492C94.4663 44.4762 94.3711 44.891 94.2833 45.3131C94.2149 45.6376 94.1515 45.967 94.0881 46.3086C94.0588 46.4526 94.0319 46.599 94.0051 46.7478L86.7559 45.9939C86.7803 45.5864 86.8071 45.1911 86.8364 44.8056C86.8608 44.464 86.8852 44.1322 86.912 43.8101C86.9511 43.3514 86.9901 42.9122 87.0291 42.49C87.0633 42.1484 87.0975 41.819 87.1316 41.5018C87.1804 41.0382 87.2317 40.6015 87.2829 40.1867C87.3244 39.8402 87.3683 39.5132 87.4098 39.2107C87.4757 38.7227 87.5415 38.2957 87.6025 37.9028C87.6635 37.51 87.7172 37.2148 87.7685 36.9268C87.8352 36.5657 87.8937 36.2656 87.9441 36.0265C88.2638 34.5625 88.498 34.5308 88.498 34.5308C88.498 34.5308 90.1279 34.5649 91.5261 34.7406H91.5627C92.5075 34.8867 93.4423 35.092 94.3613 35.3555C94.4809 35.3872 94.6053 35.4214 94.7151 35.458C95.7087 35.7455 96.68 36.1051 97.6212 36.534Z" fill="white"/>
<path opacity="0.2" d="M88.3804 67.1311C89.0367 64.8716 89.5467 62.8635 89.942 61.0799C89.9075 58.9687 89.7535 56.8613 89.4808 54.7676C89.4808 54.7676 88.4414 62.9074 88.3804 67.1311Z" fill="black"/>
<path d="M92.1897 34.7087C91.3332 34.5843 90.8062 35.0723 91.2015 35.8921C91.5967 36.712 91.7285 36.834 93.0754 36.5924C94.4223 36.3508 95.9887 35.265 92.1897 34.7087Z" fill="#407BFF"/>
<path d="M96.572 38.766L96.328 39.2833C96.2694 39.4151 96.2109 39.5468 96.1572 39.6737C94.0051 39.1686 89.9718 38.2536 87.5928 37.8974C87.6513 37.5338 87.7075 37.2093 87.7587 36.9214C90.7314 37.3554 93.6747 37.9714 96.572 38.766Z" fill="#407BFF"/>
<path d="M95.647 40.9014C95.5568 41.1259 95.4738 41.343 95.403 41.5529L95.2957 41.8408C93.0997 41.3308 89.5153 40.5305 87.29 40.1889C87.3315 39.8424 87.3754 39.5155 87.4169 39.2129C90.1895 39.6226 92.9371 40.1863 95.647 40.9014Z" fill="#407BFF"/>
<path d="M94.8617 43.0797C94.7568 43.4164 94.6641 43.7385 94.5787 44.0557C92.4241 43.5677 89.1643 42.8357 87.0293 42.4965C87.0635 42.1549 87.0976 41.8255 87.1318 41.5083C89.7338 41.8985 92.3139 42.423 94.8617 43.0797Z" fill="#407BFF"/>
<path d="M94.2833 45.3151C94.215 45.6396 94.1515 45.969 94.0881 46.3106C92.0068 45.8226 88.9446 45.1516 86.8364 44.8075C86.8608 44.4659 86.8852 44.1341 86.9121 43.812C88.6933 44.0877 91.4553 44.5757 94.2833 45.3151Z" fill="#407BFF"/>
<g opacity="0.3">
<path opacity="0.3" d="M92.1901 34.7082C91.3337 34.5838 90.8067 35.0718 91.202 35.8916C91.5972 36.7115 91.729 36.8335 93.0759 36.5919C94.4227 36.3504 95.9892 35.2646 92.1901 34.7082Z" fill="white"/>
<path opacity="0.3" d="M96.5734 38.7655L96.3294 39.2828C96.2709 39.4146 96.2123 39.5463 96.1586 39.6732C94.0066 39.1681 89.9732 38.2531 87.5942 37.8969C87.6528 37.5333 87.7089 37.2088 87.7602 36.9209C90.7329 37.3549 93.6762 37.9709 96.5734 38.7655Z" fill="white"/>
<path opacity="0.3" d="M95.648 40.9009C95.5577 41.1254 95.4748 41.3425 95.404 41.5524L95.2967 41.8403C93.1007 41.3303 89.5163 40.53 87.291 40.1884C87.3325 39.8419 87.3764 39.515 87.4179 39.2124C90.1905 39.6222 92.9381 40.1859 95.648 40.9009Z" fill="white"/>
<path opacity="0.3" d="M94.8632 43.0797C94.7582 43.4164 94.6655 43.7385 94.5801 44.0557C92.4256 43.5677 89.1658 42.8357 87.0308 42.4965C87.0649 42.1549 87.0991 41.8255 87.1332 41.5083C89.7352 41.8985 92.3153 42.423 94.8632 43.0797Z" fill="white"/>
<path opacity="0.3" d="M94.2843 45.3151C94.216 45.6396 94.1525 45.969 94.0891 46.3106C92.0078 45.8226 88.9456 45.1516 86.8374 44.8075C86.8618 44.4659 86.8862 44.1341 86.913 43.812C88.6942 44.0877 91.4563 44.5757 94.2843 45.3151Z" fill="white"/>
</g>
<path d="M91.9332 36.3944C93.7339 36.3773 94.3561 35.6819 94.3561 35.6819C93.3557 34.4863 94.5098 32.7539 94.5098 32.7539L92.326 32.9003C92.3397 33.2038 92.3324 33.5079 92.3041 33.8104C92.165 35.1085 91.5721 35.0524 91.5721 35.0524C91.1207 35.7112 91.9332 36.3944 91.9332 36.3944Z" fill="#9F5B53"/>
<path opacity="0.2" d="M92.3271 32.9037C92.3408 33.2072 92.3335 33.5113 92.3052 33.8138C93.7472 33.9846 94.5012 32.7573 94.5012 32.7573L92.3271 32.9037Z" fill="black"/>
<path d="M94.2123 27.0842C92.3676 26.7646 91.6039 27.6479 91.1354 29.5242C90.5547 31.8715 90.7865 33.6503 93.1826 33.5453C96.4327 33.3892 97.2769 27.6064 94.2123 27.0842Z" fill="#9F5B53"/>
<path d="M92.3482 29.6157C92.1518 29.865 91.9265 30.0902 91.6772 30.2867C91.7181 30.3722 91.7815 30.4448 91.8606 30.4969C91.9397 30.5489 92.0316 30.5783 92.1262 30.582L92.3482 29.6157Z" fill="#892B29"/>
<path d="M93.5024 29.6626C93.4731 29.8138 93.5292 29.9505 93.6293 29.9724C93.7293 29.9944 93.8367 29.8846 93.8733 29.7284C93.9099 29.5723 93.8464 29.4405 93.7464 29.421C93.6463 29.4015 93.5317 29.5235 93.5024 29.6626Z" fill="#263238"/>
<path d="M93.7786 29.4403L93.4761 29.2476C93.4761 29.2476 93.5859 29.555 93.7786 29.4403Z" fill="#263238"/>
<path d="M91.6336 29.2603C91.6019 29.4092 91.6605 29.5482 91.7605 29.5678C91.8606 29.5873 91.9679 29.4824 92.0045 29.3238C92.0411 29.1652 91.9777 29.0358 91.8776 29.0139C91.7776 28.9919 91.6629 29.109 91.6336 29.2603Z" fill="#263238"/>
<path d="M91.909 29.036L91.6064 28.8408C91.6064 28.8408 91.7162 29.1531 91.909 29.036Z" fill="#263238"/>
<path d="M93.7417 28.3916C93.8907 28.3995 94.0359 28.4414 94.1662 28.5141C94.2965 28.5869 94.4084 28.6885 94.4932 28.8113" stroke="#263238" stroke-width="0.282362" stroke-linecap="round" stroke-linejoin="round"/>
<path d="M92.4175 28.0812C92.2968 28.0271 92.1654 28.001 92.0332 28.0048C91.9009 28.0086 91.7712 28.0422 91.6538 28.1031" stroke="#263238" stroke-width="0.282362" stroke-linecap="round" stroke-linejoin="round"/>
<path d="M92.27 31.3544C92.3209 31.5777 92.3552 31.8044 92.3725 32.0327H92.4945C93.0411 32.0718 93.307 31.9107 93.4363 31.718C93.5302 31.5665 93.5682 31.387 93.5437 31.2104C93.1956 31.3364 92.8243 31.3855 92.4555 31.3544C92.3408 31.3617 92.27 31.3544 92.27 31.3544Z" fill="#263238"/>
<path d="M92.4551 31.3637L92.4917 31.5638C93.0065 31.6004 93.3725 31.5638 93.5458 31.41C93.554 31.3469 93.554 31.2829 93.5458 31.2197C93.1969 31.346 92.8248 31.3952 92.4551 31.3637Z" fill="white"/>
<path d="M92.4946 32.042C93.0412 32.0811 93.3072 31.92 93.4365 31.7273C93.2287 31.7158 93.0205 31.7415 92.8216 31.8029C92.69 31.8458 92.5754 31.9296 92.4946 32.042Z" fill="#DE5753"/>
<path d="M95.6888 30.5316C95.6888 30.5316 95.0886 28.8675 95.4229 27.7183C95.4229 27.7183 92.0288 25.5906 91.2017 29.2677C91.2017 29.2677 91.4188 25.9127 94.603 26.3909C97.7872 26.8691 96.9649 31.5149 95.091 32.6031C95.0861 32.6031 96.0573 31.5735 95.6888 30.5316Z" fill="#263238"/>
<path d="M95.3181 30.8679C95.3732 30.6575 95.5094 30.4775 95.6969 30.3673C95.8844 30.2571 96.1079 30.2257 96.3185 30.2799C96.8797 30.4433 96.9481 31.6633 95.4767 31.6975C95.2645 31.7024 95.1839 31.4755 95.3181 30.8679Z" fill="#9F5B53"/>
<path d="M98.3629 43.0828L96.1669 42.4069C96.1669 42.4069 96.2157 41.9506 95.9692 41.8408C95.7228 41.731 92.5776 41.4089 92.4947 41.6993C92.4117 41.9897 92.5825 43.7977 93.0754 44.0515C93.5683 44.3052 95.7252 44.4028 95.7887 44.2955C95.8521 44.1881 95.9692 44.0515 95.9692 44.0515L98.2238 44.7469L98.3629 43.0828Z" fill="#9F5B53"/>
<path d="M97.6217 36.5337C99.3614 37.3243 103.158 44.2148 102.58 45.7886C102.002 47.3624 97.2386 44.8663 97.2386 44.8663L97.6217 42.5044L98.71 42.7777C98.71 42.7777 97.3484 40.5451 96.1675 39.674C96.1786 39.0673 96.3166 38.4697 96.5725 37.9196C96.8502 37.4073 97.204 36.94 97.6217 36.5337Z" fill="#407BFF"/>
<path opacity="0.3" d="M97.6217 36.5337C99.3614 37.3243 103.158 44.2148 102.58 45.7886C102.002 47.3624 97.2386 44.8663 97.2386 44.8663L97.6217 42.5044L98.71 42.7777C98.71 42.7777 97.3484 40.5451 96.1675 39.674C96.1786 39.0673 96.3166 38.4697 96.5725 37.9196C96.8502 37.4073 97.204 36.94 97.6217 36.5337Z" fill="white"/>
<path d="M44.9424 20.1767L45.9867 13.9084C45.4255 13.3521 46.7187 10.1703 46.7187 9.82627C46.7187 9.48223 48.6853 10.9511 48.7195 11.2659C48.7537 11.5806 48.2315 13.8205 47.6435 14.1426L47.336 20.8355C47.336 20.8355 46.0916 21.3626 44.9424 20.1767Z" fill="#E4897B"/>
<path d="M35.5088 25.1906C35.5088 25.1906 42.0016 24.9076 43.2485 24.0048C44.4953 23.102 45.3566 15.3574 45.3566 15.3574L48.5286 15.6697C48.5286 15.6697 47.6819 24.2512 46.0203 26.4057C44.3587 28.5603 37.8195 29.5924 37.8195 29.5924L35.5088 25.1906Z" fill="#263238"/>
<path opacity="0.2" d="M48.534 15.6697C48.534 15.6697 47.6873 24.2512 46.0257 26.4057C45.1985 27.4745 43.1538 28.2723 41.314 28.8018C40.1646 29.1287 38.9982 29.3926 37.82 29.5924L36.5609 27.189L35.5117 25.1906C35.5117 25.1906 42.0046 24.9076 43.2514 24.0048C44.4982 23.102 45.3596 15.3574 45.3596 15.3574L48.534 15.6697Z" fill="white"/>
<path opacity="0.2" d="M41.3142 28.792C40.1649 29.1222 38.9985 29.3894 37.8201 29.5924L36.561 27.189C37.8201 27.2988 40.4748 27.6599 41.3142 28.792Z" fill="black"/>
<path d="M20.7055 32.9405L17.3505 27.5335C17.658 26.8015 18.1069 24.32 17.963 24.0052C17.819 23.6905 15.4693 22.9902 15.3717 23.2854C15.0813 24.0711 15.2351 28.3118 15.9109 28.385L18.7535 34.4631C18.7535 34.4631 20.0931 34.4777 20.7055 32.9405Z" fill="#E4897B"/>
<path d="M36.6606 86.2886L38.6419 86.4984L39.0128 82.2284L37.034 82.0186L36.6606 86.2886Z" fill="#E4897B"/>
<path d="M26.7837 86.1434H28.7015L28.8601 81.7002H26.9399L26.7837 86.1434Z" fill="#E4897B"/>
<path d="M28.9676 85.9232H26.6374C26.5991 85.9229 26.5619 85.9359 26.5321 85.9599C26.5023 85.9839 26.4818 86.0175 26.4739 86.0549L26.0957 87.7629C26.0805 87.8364 26.0952 87.9128 26.1363 87.9755C26.1775 88.0382 26.2419 88.082 26.3153 88.0972C26.3355 88.0996 26.356 88.0996 26.3763 88.0972C27.1302 88.085 27.6792 88.0387 28.626 88.0387C29.2091 88.0387 30.9684 88.0997 31.7736 88.0997C32.5788 88.0997 32.6837 87.3042 32.3543 87.231C30.8756 86.9089 29.763 86.4624 29.2896 86.0379C29.2009 85.9598 29.0856 85.9187 28.9676 85.9232Z" fill="#263238"/>
<path d="M29.099 86.1885C29.09 86.1862 29.082 86.1812 29.0759 86.1742C29.0698 86.1673 29.066 86.1586 29.0648 86.1495C29.0637 86.1408 29.0652 86.132 29.0691 86.1242C29.073 86.1163 29.0792 86.1099 29.0868 86.1056C29.1551 86.0616 29.7749 85.681 29.9871 85.7908C30.0112 85.8019 30.0315 85.8198 30.0454 85.8424C30.0593 85.865 30.0662 85.8912 30.0652 85.9177C30.0723 85.9631 30.0672 86.0096 30.0504 86.0525C30.0337 86.0953 30.006 86.133 29.9701 86.1617C29.8619 86.2351 29.732 86.2695 29.6016 86.2593C29.432 86.2539 29.2635 86.2301 29.099 86.1885ZM29.2307 86.1251C29.4546 86.2007 29.6988 86.1885 29.9139 86.0909C29.9369 86.0709 29.9545 86.0455 29.9652 86.0169C29.9758 85.9884 29.9792 85.9576 29.9749 85.9274C29.9749 85.8908 29.9579 85.8738 29.9457 85.8738C29.928 85.8635 29.9074 85.8592 29.8871 85.8616C29.6529 85.9085 29.43 86.0005 29.2307 86.1324V86.1251Z" fill="#407BFF"/>
<path d="M29.0874 86.1984C29.0808 86.1936 29.0754 86.1873 29.0716 86.1801C29.0678 86.173 29.0657 86.165 29.0654 86.1569C29.0654 86.13 29.1142 85.5786 29.3363 85.398C29.3624 85.3751 29.3931 85.358 29.4263 85.3479C29.4596 85.3378 29.4946 85.335 29.529 85.3395C29.5637 85.3384 29.5977 85.3499 29.6246 85.3719C29.6515 85.3938 29.6696 85.4248 29.6754 85.459C29.7145 85.6616 29.3314 86.0837 29.1337 86.191H29.1118C29.1046 86.196 29.0961 86.1985 29.0874 86.1984ZM29.3948 85.4517C29.2606 85.6244 29.1815 85.8336 29.1679 86.052C29.3655 85.9031 29.6095 85.5835 29.5851 85.459C29.5851 85.4468 29.5851 85.4127 29.5193 85.4127H29.4973C29.4597 85.4135 29.4235 85.4273 29.3948 85.4517Z" fill="#407BFF"/>
<path d="M38.8494 85.8612H36.5192C36.4809 85.8609 36.4438 85.8739 36.414 85.8979C36.3842 85.9219 36.3636 85.9555 36.3557 85.9929L35.9775 87.7009C35.9624 87.7744 35.977 87.8508 36.0182 87.9135C36.0593 87.9762 36.1237 88.0199 36.1971 88.0352C36.2174 88.0376 36.2379 88.0376 36.2581 88.0352C37.0121 88.023 37.5611 87.9766 38.5078 87.9766C39.091 87.9766 40.8502 88.0376 41.6554 88.0376C42.4606 88.0376 42.5655 87.2422 42.2361 87.169C40.7575 86.8469 39.6448 86.4004 39.1715 85.9758C39.0828 85.8978 38.9675 85.8567 38.8494 85.8612Z" fill="#263238"/>
<path d="M38.9808 86.1329C38.9719 86.1305 38.9639 86.1255 38.9578 86.1186C38.9517 86.1116 38.9478 86.103 38.9467 86.0938C38.9455 86.0851 38.947 86.0763 38.9509 86.0685C38.9548 86.0607 38.961 86.0542 38.9686 86.0499C39.0369 86.006 39.6567 85.6253 39.869 85.7351C39.8931 85.7462 39.9133 85.7642 39.9272 85.7867C39.9411 85.8093 39.948 85.8355 39.9471 85.862C39.9541 85.9075 39.949 85.954 39.9323 85.9968C39.9156 86.0397 39.8878 86.0773 39.8519 86.106C39.7437 86.1794 39.6138 86.2138 39.4835 86.2036C39.3139 86.1982 39.1453 86.1745 38.9808 86.1329ZM39.1126 86.0694C39.3364 86.145 39.5806 86.1328 39.7958 86.0353C39.8188 86.0152 39.8364 85.9898 39.847 85.9613C39.8577 85.9327 39.861 85.9019 39.8568 85.8718C39.8568 85.8352 39.8397 85.8181 39.8275 85.8181C39.8098 85.8078 39.7893 85.8036 39.7689 85.8059C39.5356 85.8491 39.3127 85.937 39.1126 86.0645V86.0694Z" fill="#407BFF"/>
<path d="M38.9683 86.1324C38.9617 86.1276 38.9563 86.1214 38.9525 86.1142C38.9487 86.107 38.9466 86.0991 38.9463 86.091C38.9463 86.0641 38.9951 85.5127 39.2171 85.3321C39.2432 85.3092 39.2739 85.2921 39.3072 85.282C39.3404 85.2719 39.3754 85.269 39.4099 85.2736C39.4446 85.2725 39.4786 85.284 39.5055 85.3059C39.5324 85.3279 39.5504 85.3589 39.5563 85.3931C39.5953 85.5956 39.2122 86.0178 39.0146 86.1251H38.9926C38.9855 86.1301 38.977 86.1326 38.9683 86.1324ZM39.283 85.4004C39.1488 85.5732 39.0697 85.7823 39.0561 86.0007C39.2537 85.8518 39.4977 85.5322 39.4733 85.4078C39.4733 85.3956 39.4733 85.3614 39.4074 85.3614H39.3855C39.3479 85.3622 39.3117 85.376 39.283 85.4004Z" fill="#407BFF"/>
<path opacity="0.2" d="M37.0336 82.0186L39.0124 82.2284L38.8197 84.4293L36.8384 84.2219L37.0336 82.0186Z" fill="black"/>
<path opacity="0.2" d="M26.9399 81.7036H28.8602L28.7772 83.9948H26.8569L26.9399 81.7036Z" fill="black"/>
<path d="M27.733 42.7271H37.9127C38.8887 48.0121 41.9118 66.7196 39.7378 83.3848L36.2901 82.9602C36.2901 82.9602 36.6097 60.8343 33.567 52.6554C33.2181 57.0328 32.8009 61.6834 32.4397 64.1698C31.554 70.2698 29.6581 83.5995 29.6581 83.5995H26.1494C26.1494 83.5995 26.8668 70.8407 27.1986 64.8457C27.5719 58.3333 27.7183 44.0642 27.733 42.7271Z" fill="#407BFF"/>
<path d="M40.1304 84.1879L35.8652 83.5535L35.997 82.3726L40.4329 82.9557L40.1304 84.1879Z" fill="#407BFF"/>
<path d="M30.0801 83.6267H25.9419V82.3896L30.2363 82.3091L30.0801 83.6267Z" fill="#407BFF"/>
<path opacity="0.2" d="M33.5669 52.6532C34.0672 54.0831 34.4475 55.5521 34.7039 57.0452C34.9894 53.1412 33.8499 49.0176 33.8499 49.0176L33.5669 52.6532Z" fill="black"/>
<path d="M25.9683 26.0156C26.532 28.0862 26.9398 30.1962 27.1883 32.3278C27.2688 32.9818 27.3347 33.6235 27.3883 34.2457C27.4591 35.0362 27.5079 35.7975 27.5469 36.5198C27.5957 37.4348 27.6104 38.5157 27.6079 39.5795C27.6079 42.0195 27.5055 44.3741 27.5055 44.3741C29.4575 44.8621 35.0987 44.5376 38.1805 44.3131C38.5435 41.3664 38.6383 38.3929 38.4635 35.4291C38.3617 33.472 38.1466 31.5224 37.8193 29.5902C37.6538 28.5585 37.424 27.5383 37.1313 26.5353C37.0179 26.1798 36.8051 25.8642 36.518 25.6259C36.2308 25.3876 35.8814 25.2366 35.5111 25.1908C35.1378 25.1445 34.7059 25.0981 34.2521 25.0713C34.0764 25.0713 33.9007 25.0542 33.7226 25.0518C32.267 25.0683 30.8135 25.1694 29.3696 25.3543C29.0963 25.386 28.8182 25.4275 28.5498 25.4714C27.6803 25.6072 26.8186 25.7889 25.9683 26.0156Z" fill="#263238"/>
<path opacity="0.7" d="M38.181 44.3158C35.0993 44.5403 29.458 44.8648 27.506 44.3768C27.506 44.3768 27.6036 42.0271 27.6085 39.5822C27.6085 38.5184 27.5963 37.4374 27.5475 36.5224C27.5084 35.7904 27.4596 35.0389 27.3889 34.2484C27.3352 33.6262 27.2693 32.9844 27.1888 32.3305C27.1693 32.1548 27.1473 31.9767 27.1229 31.801C27.0521 31.2374 26.9667 30.6762 26.8789 30.1174V30.1028L27.8281 28.7364L29.7142 26.0182C29.7142 26.0182 32.852 27.287 34.155 25.4766C35.4494 26.4436 36.6283 27.5562 37.6686 28.7925C37.7198 29.0365 37.7686 29.3147 37.8174 29.5953C38.1455 31.5275 38.3614 33.477 38.464 35.4342C38.6386 38.3972 38.5439 41.3699 38.181 44.3158Z" fill="white"/>
<path d="M30.9368 29.2171C32.5926 29.1732 34.2496 29.2229 35.8998 29.366C36.0917 29.3882 36.2688 29.4803 36.397 29.6248C36.5253 29.7693 36.5959 29.956 36.5952 30.1492C36.5955 30.2528 36.5753 30.3554 36.5359 30.4512C36.4964 30.5469 36.4383 30.6339 36.3651 30.7072C36.2918 30.7804 36.2048 30.8385 36.1091 30.878C36.0133 30.9175 35.9107 30.9376 35.8071 30.9373H30.9588C30.7568 30.9376 30.5623 30.8603 30.4157 30.7213C30.269 30.5824 30.1813 30.3924 30.1707 30.1907V30.0467C30.1648 29.9415 30.1801 29.8362 30.2157 29.7371C30.2513 29.6379 30.3064 29.5469 30.3779 29.4695C30.4494 29.3921 30.5357 29.3299 30.6317 29.2865C30.7278 29.2432 30.8315 29.2196 30.9368 29.2171Z" fill="#263238"/>
<path opacity="0.2" d="M25.9683 26.0156C26.532 28.0862 26.9398 30.1962 27.1883 32.3278C27.2688 32.9818 27.3347 33.6235 27.3883 34.2457C27.4591 35.0362 27.5079 35.7975 27.5469 36.5198C27.5957 37.4348 27.6104 38.5157 27.6079 39.5795C27.6079 42.0195 27.5055 44.3741 27.5055 44.3741C29.4575 44.8621 35.0987 44.5376 38.1805 44.3131C38.5435 41.3664 38.6383 38.3929 38.4635 35.4291C38.3617 33.472 38.1466 31.5224 37.8193 29.5902C37.6538 28.5585 37.424 27.5383 37.1313 26.5353C37.0179 26.1798 36.8051 25.8642 36.518 25.6259C36.2308 25.3876 35.8814 25.2366 35.5111 25.1908C35.1378 25.1445 34.7059 25.0981 34.2521 25.0713C34.0764 25.0713 33.9007 25.0542 33.7226 25.0518C32.267 25.0683 30.8135 25.1694 29.3696 25.3543C29.0963 25.386 28.8182 25.4275 28.5498 25.4714C27.6803 25.6072 26.8186 25.7889 25.9683 26.0156Z" fill="white"/>
<path d="M34.5649 16.5662C34.5649 16.5662 35.1676 18.6817 33.9061 19.8699C32.6447 21.0582 32.0127 16.1782 32.0127 16.1782L34.5649 16.5662Z" fill="#263238"/>
<path d="M29.3652 25.3419C30.2998 26.191 32.5909 25.8762 32.5909 25.8762C32.5909 25.8762 34.0183 25.4858 33.7182 25.0393C32.8764 24.9002 32.4689 24.5074 32.3006 24.0048C32.2084 23.6932 32.1793 23.3663 32.2152 23.0434C32.2291 22.8633 32.2528 22.6841 32.2859 22.5066L29.4555 20.4106C29.8264 21.7941 30.2802 24.339 29.3652 25.3419Z" fill="#E4897B"/>
<path opacity="0.2" d="M30.1094 21.7437C30.2216 23.4517 31.6173 23.9104 32.3054 24.0055C32.2132 23.694 32.1841 23.3671 32.22 23.0442L30.1094 21.7437Z" fill="black"/>
<path d="M30.1382 22.4777C30.486 22.8714 30.9535 23.1401 31.4688 23.2423C31.9841 23.3446 32.5187 23.2749 32.9906 23.0438C33.6055 22.7561 34.0885 22.246 34.3423 21.6164C34.3765 21.531 34.4082 21.4407 34.435 21.348C34.923 19.6571 34.7644 16.8267 32.9344 15.9971C32.3087 15.7085 31.5939 15.6804 30.9473 15.9188C30.3008 16.1572 29.7754 16.6426 29.4867 17.2683C29.3124 17.6378 29.2287 18.0435 29.2427 18.4517C29.2793 20.3525 29.2159 21.4724 30.1382 22.4777Z" fill="#E4897B"/>
<path d="M32.1076 19.0985C32.0905 19.2522 32.1784 19.3816 32.2808 19.384C32.3833 19.3864 32.4687 19.2644 32.476 19.1107C32.4834 18.957 32.4028 18.8277 32.3028 18.8252C32.2028 18.8228 32.1149 18.9424 32.1076 19.0985Z" fill="#263238"/>
<path d="M33.8566 19.1665C33.8396 19.3202 33.9274 19.4495 34.0274 19.4544C34.1275 19.4593 34.2153 19.3348 34.2226 19.1811C34.23 19.0274 34.1494 18.8981 34.0494 18.8932C33.9494 18.8883 33.8615 19.0323 33.8566 19.1665Z" fill="#263238"/>
<path d="M33.2988 19.2227C33.4635 19.7029 33.6942 20.1578 33.9844 20.5744C33.8748 20.6454 33.751 20.6918 33.6217 20.7104C33.4924 20.7289 33.3605 20.7191 33.2354 20.6818L33.2988 19.2227Z" fill="#DE5753"/>
<path d="M31.5875 18.5104C31.6041 18.5141 31.6213 18.5131 31.6372 18.5074C31.6532 18.5018 31.6673 18.4919 31.6778 18.4786C31.748 18.389 31.8382 18.3169 31.9411 18.2682C32.044 18.2195 32.1569 18.1955 32.2707 18.198C32.2826 18.1994 32.2946 18.1984 32.3061 18.1951C32.3176 18.1917 32.3283 18.1862 32.3376 18.1787C32.3469 18.1712 32.3546 18.1619 32.3603 18.1514C32.366 18.1409 32.3696 18.1294 32.3708 18.1175C32.3729 18.0937 32.3657 18.07 32.3506 18.0513C32.3356 18.0327 32.314 18.0205 32.2903 18.0175C32.1464 18.0111 32.0032 18.0393 31.8725 18.0995C31.7417 18.1598 31.6273 18.2505 31.5387 18.364C31.5221 18.3809 31.5127 18.4037 31.5127 18.4274C31.5127 18.4512 31.5221 18.4739 31.5387 18.4908C31.5537 18.5002 31.5702 18.5069 31.5875 18.5104Z" fill="#263238"/>
<path d="M34.6302 18.5956C34.6476 18.6015 34.6665 18.6015 34.6839 18.5956C34.6949 18.5913 34.705 18.5848 34.7135 18.5765C34.722 18.5683 34.7287 18.5584 34.7333 18.5474C34.7378 18.5365 34.7401 18.5247 34.74 18.5129C34.7399 18.501 34.7374 18.4893 34.7327 18.4784C34.6781 18.3449 34.5922 18.2264 34.4822 18.133C34.3722 18.0395 34.2414 17.9739 34.1007 17.9416C34.0769 17.9387 34.0529 17.9449 34.0334 17.9589C34.014 17.9729 34.0005 17.9938 33.9958 18.0173C33.9929 18.0408 33.9992 18.0645 34.0132 18.0836C34.0273 18.1026 34.0481 18.1156 34.0714 18.1198C34.1809 18.1494 34.2819 18.2041 34.3666 18.2795C34.4513 18.3548 34.5173 18.4488 34.5594 18.5541C34.5671 18.5661 34.5775 18.5761 34.5898 18.5833C34.6021 18.5905 34.616 18.5947 34.6302 18.5956Z" fill="#263238"/>
<path d="M31.6269 15.0845C31.4 15.0845 31.1731 15.0845 30.9462 15.1016C30.2901 15.1262 29.6556 15.3425 29.1211 15.7238C27.9255 16.6583 28.4037 18.5932 28.7355 19.8449C29.1772 21.509 29.9555 22.1898 29.9555 22.1898C29.448 21.4358 29.3651 19.8474 29.6213 19.7717C29.8775 19.6961 29.897 20.0035 29.897 20.0035C30.4338 19.5619 30.8242 18.4663 30.5485 17.766C30.3386 17.2268 30.9071 16.7339 31.4659 16.9291L31.6343 16.9852L31.8953 17.0682L31.6269 15.0845Z" fill="#263238"/>
<path d="M28.3576 19.9768C28.5508 20.4145 28.9097 20.7576 29.3556 20.9309C29.9485 21.1554 30.3023 20.6405 30.1876 20.05C30.0803 19.5254 29.646 18.7617 29.0262 18.7934C28.4064 18.8252 28.1258 19.4352 28.3576 19.9768Z" fill="#E4897B"/>
<path d="M32.9683 21.0607C32.8485 21.2552 32.7433 21.4583 32.6536 21.6683C32.6121 21.6683 32.5731 21.6512 32.534 21.639C32.0045 21.4999 31.802 21.2608 31.7435 21.0388C31.7177 20.9288 31.7177 20.8144 31.7435 20.7045C31.7554 20.6414 31.7768 20.5806 31.8069 20.5239C32.0936 20.7545 32.4264 20.9209 32.7829 21.0119C32.8976 21.0436 32.9683 21.0607 32.9683 21.0607Z" fill="#263238"/>
<path d="M32.7885 21.009L32.6909 21.1871C32.2029 21.0554 31.8588 20.8968 31.7417 20.6991C31.7536 20.6361 31.775 20.5752 31.8051 20.5186C32.0938 20.7509 32.4292 20.9182 32.7885 21.009Z" fill="white"/>
<path d="M32.5352 21.6383C32.0057 21.4992 31.8032 21.2601 31.7446 21.0381C31.9454 21.0946 32.1346 21.1863 32.3034 21.3089C32.4141 21.3909 32.4954 21.5064 32.5352 21.6383Z" fill="#DE5753"/>
<path d="M28.4312 18.5057C28.4312 18.5057 28.131 17.3443 28.1872 16.6757C28.2433 16.0072 29.6731 14.5578 31.2323 14.4187C32.7914 14.2796 33.1843 14.4187 33.6723 14.9458C34.1603 15.4728 34.5068 16.8807 34.5068 16.8807C34.5068 16.8807 31.4494 16.1584 28.4312 18.5057Z" fill="#407BFF"/>
<path d="M28.4307 18.5052C28.4307 18.5052 31.2879 15.3723 34.1427 15.1283C36.9975 14.8843 37.405 15.7334 34.6893 17.3243C34.6893 17.3243 33.0081 15.9237 28.4307 18.5052Z" fill="#407BFF"/>
<path opacity="0.2" d="M28.4307 18.5052C28.4307 18.5052 31.2879 15.3723 34.1427 15.1283C36.9975 14.8843 37.405 15.7334 34.6893 17.3243C34.6893 17.3243 33.0081 15.9237 28.4307 18.5052Z" fill="black"/>
<path opacity="0.2" d="M27.1229 31.8015C27.0521 31.2379 26.9667 30.6767 26.8789 30.1179V30.1033C26.9619 29.9642 27.6426 28.8247 27.7109 28.0098C27.7683 28.2505 27.8075 28.4952 27.8281 28.7418C27.9013 29.525 27.8671 30.7792 27.1229 31.8015Z" fill="black"/>
<path d="M27.0014 30.9195C26.5402 32.5641 23.7903 36.0801 21.6041 36.3803C17.6586 36.9219 15.8262 29.9509 15.8262 29.9509L18.5614 28.1038C18.5614 28.1038 19.94 31.2197 20.6525 31.6979C21.5333 32.2908 24.4345 27.1912 25.9693 26.0151C25.9693 26.0151 28.2726 26.3982 27.0014 30.9195Z" fill="#263238"/>
<path opacity="0.2" d="M27.0014 30.9195C26.5402 32.5641 23.7903 36.0801 21.6041 36.3803C17.6586 36.9219 15.8262 29.9509 15.8262 29.9509L18.5614 28.1038C18.5614 28.1038 19.94 31.2197 20.6525 31.6979C21.5333 32.2908 24.4345 27.1912 25.9693 26.0151C25.9693 26.0151 28.2726 26.3982 27.0014 30.9195Z" fill="white"/>
<path d="M66.5425 28.5476L68.2334 27.3715C68.4221 27.0223 68.6488 26.695 68.9093 26.3955C69.246 26.0442 70.3074 25.4927 70.5978 25.5269C70.8881 25.5611 72.2252 26.5249 71.7006 27.0324C71.176 27.5399 69.895 28.1792 69.6803 28.1011L69.4656 28.023L67.3452 29.731L66.5425 28.5476Z" fill="#EEC1BB"/>
<path d="M68.9093 28.8429C68.9093 28.8429 64.2464 32.9397 62.4652 33.8303C61.5917 34.2695 59.5372 34.9771 57.6926 35.5773C55.7894 36.1946 54.0936 36.7021 54.0936 36.7021L53.7983 36.1531L52.1123 33.0177C52.1123 33.0177 60.9207 31.7977 61.6942 31.4732C62.4677 31.1487 67.7478 27.3667 67.7478 27.3667L68.9093 28.8429Z" fill="#263238"/>
<path opacity="0.2" d="M57.6994 35.5776C55.7962 36.1949 54.1004 36.7025 54.1004 36.7025L53.8052 36.1535V34.709C53.8052 34.709 56.5014 34.7944 57.6994 35.5776Z" fill="black"/>
<path d="M40.9246 49.7271L39.7631 51.4351C39.708 51.8264 39.6114 52.2109 39.4752 52.5819C39.2824 53.0308 38.487 53.9214 38.204 53.9922C37.9209 54.063 36.3252 53.636 36.6375 52.9772C36.9498 52.3184 37.9185 51.2692 38.1478 51.2692H38.3748L39.7534 48.9243L40.9246 49.7271Z" fill="#EEC1BB"/>
<path d="M49.0669 23.5724C50.3747 23.5553 53.0465 25.8562 53.0465 25.8562C53.0465 25.8562 53.8371 29.2722 54.5764 29.9725L54.0103 30.2165L53.537 29.4991L53.8054 30.5361C53.8054 30.5361 51.441 31.5926 49.4914 31.6951C47.5419 31.7976 46.6415 31.4048 46.6415 31.4048L46.8367 30.5361L46.4585 31.2828L45.6582 30.9436C46.0319 29.6317 46.2995 28.2919 46.4585 26.9371C46.6415 25.0315 49.0669 23.5724 49.0669 23.5724Z" fill="#263238"/>
<path d="M52.0605 76.7255C50.5843 78.5799 49.2594 80.261 48.1028 81.4884C46.9487 82.7303 46.3533 83.5014 46.3533 83.5014L45.209 82.845C45.209 82.845 46.2655 81.1736 47.6978 78.8678C48.9178 76.9158 50.4086 74.5002 51.7628 72.2627C53.5172 69.3738 55.0373 66.7825 55.4399 65.8553C55.7254 65.1965 54.9519 62.6662 54.093 60.2799C53.2219 57.8521 52.2655 55.5682 52.2655 55.5682L55.3887 50.2881C55.3887 50.2881 56.6575 53.8041 57.7847 57.5129C58.5167 59.9529 59.2024 62.4539 59.4293 64.1229C59.7441 66.4531 55.7205 72.1188 52.0605 76.7255Z" fill="#EEC1BB"/>
<path opacity="0.2" d="M52.0707 76.7259C50.6067 78.5803 49.1793 80.2615 48.1252 81.4888C47.974 80.7349 47.8227 79.8418 47.7007 78.8683C48.9207 76.9163 50.4115 74.5007 51.7657 72.2632C51.7363 73.7568 51.8383 75.2502 52.0707 76.7259Z" fill="black"/>
<path opacity="0.2" d="M57.78 57.5129L54.0932 60.2799C53.2221 57.8521 52.2656 55.5682 52.2656 55.5682L55.3888 50.2881C55.3888 50.2881 56.6527 53.8041 57.78 57.5129Z" fill="black"/>
<path d="M51.3409 86.1976L50.0209 86.3758C50.0209 86.3758 48.1128 76.9891 48.1714 69.2421C47.4638 66.6791 46.9113 64.0758 46.517 61.4463C46.0486 58.2743 45.8192 54.7412 46.4365 52.106L51.0603 54.1873L51.1555 61.1218L51.2336 66.9021L51.3409 86.1976Z" fill="#EEC1BB"/>
<path opacity="0.2" d="M51.1457 61.1169L46.5097 61.4414C46.0412 58.2694 45.8119 54.7363 46.4292 52.1011L51.053 54.1824L51.1457 61.1169Z" fill="black"/>
<path d="M45.2846 82.1155C45.4213 82.0155 46.5729 83.7406 46.5729 83.7406C46.5729 83.7406 46.3167 85.5388 46.8365 86.6978C47.3562 87.8568 46.3485 87.7568 45.5067 86.6588L43.4327 83.9358C42.8373 83.1623 43.8743 83.1428 45.2846 82.1155Z" fill="#263238"/>
<path d="M46.9631 85.0412C46.702 84.9802 46.5312 84.236 46.4995 84.0872V84.0652C46.4995 84.0652 46.4995 84.0652 46.4995 84.0481V84.0335H46.5166C46.541 84.0335 47.029 83.8724 47.2901 84.0335C47.3303 84.0561 47.3652 84.0873 47.3922 84.1248C47.4191 84.1623 47.4376 84.2053 47.4462 84.2507C47.4682 84.3531 47.4462 84.4239 47.3925 84.4629C47.3389 84.502 47.1241 84.4751 46.9509 84.3946C47.0681 84.5025 47.1526 84.6412 47.1949 84.7948C47.2003 84.8251 47.1992 84.8562 47.1916 84.8861C47.184 84.916 47.1702 84.9439 47.151 84.968C47.1323 84.9961 47.1074 85.0196 47.0782 85.0365C47.049 85.0534 47.0163 85.0634 46.9826 85.0656L46.9631 85.0412ZM46.9875 84.9363C46.9875 84.9363 47.0314 84.9363 47.0827 84.8802C47.0926 84.8676 47.0996 84.853 47.1034 84.8374C47.1072 84.8218 47.1076 84.8056 47.1046 84.7899C47.0827 84.6191 46.824 84.3678 46.6435 84.2165C46.724 84.5361 46.8655 84.9119 46.9875 84.9363ZM46.6874 84.0969C46.9655 84.2702 47.273 84.4068 47.3511 84.3409C47.373 84.3263 47.3657 84.2726 47.3511 84.2409C47.3451 84.2107 47.3326 84.1822 47.3144 84.1574C47.2963 84.1325 47.273 84.1119 47.2462 84.0969C47.1705 84.0592 47.0867 84.0407 47.0022 84.0432C46.8956 84.0496 46.79 84.0676 46.6874 84.0969Z" fill="#407BFF"/>
<path d="M49.5335 85.5241C49.5335 85.3558 51.605 85.4875 51.605 85.4875C51.605 85.4875 52.8787 86.7807 54.1158 87.0735C55.3529 87.3663 54.6599 88.1057 53.2789 88.1057H49.8629C48.8844 88.1057 49.4993 87.2687 49.5335 85.5241Z" fill="#263238"/>
<path d="M51.8431 85.7539C51.8365 85.7513 51.8306 85.7471 51.826 85.7417C51.8253 85.7369 51.8253 85.7319 51.826 85.7271C51.8249 85.7214 51.8249 85.7156 51.826 85.71C51.826 85.71 51.826 85.6929 51.826 85.688C51.826 85.6832 52.0065 85.183 52.2871 85.0658C52.3288 85.0466 52.3742 85.0366 52.4201 85.0366C52.4661 85.0366 52.5114 85.0466 52.5531 85.0658C52.6483 85.1122 52.6946 85.1708 52.6898 85.2415C52.6849 85.3123 52.536 85.4587 52.3677 85.549C52.5239 85.522 52.6846 85.5398 52.8313 85.6002C52.8588 85.6141 52.883 85.6337 52.9024 85.6577C52.9217 85.6816 52.9357 85.7095 52.9435 85.7393C52.9584 85.7767 52.9614 85.8179 52.9523 85.8571C52.9431 85.8964 52.9222 85.9319 52.8923 85.9589C52.8392 85.9969 52.7744 86.0151 52.7093 86.0101C52.4075 85.9772 52.1142 85.8904 51.8431 85.7539ZM52.031 85.7198C52.336 85.8491 52.7166 85.9638 52.8142 85.8832C52.8142 85.8832 52.8484 85.854 52.8264 85.7734C52.8219 85.758 52.8145 85.7436 52.8044 85.731C52.7944 85.7184 52.7819 85.708 52.7678 85.7002C52.6911 85.6664 52.6075 85.6513 52.5238 85.6563C52.3578 85.6609 52.1927 85.6821 52.031 85.7198ZM52.3189 85.1683C52.1552 85.2732 52.0308 85.4294 51.9651 85.6124C52.2701 85.4953 52.5653 85.3342 52.5726 85.2415C52.5726 85.2122 52.5263 85.1854 52.497 85.1732C52.4673 85.159 52.4348 85.1515 52.4018 85.1512C52.3733 85.151 52.345 85.1568 52.3189 85.1683Z" fill="#407BFF"/>
<path d="M53.1924 58.98L58.1968 56.3643C56.6255 51.5868 55.2078 48.876 55.2078 48.876C50.2937 49.7178 50.7426 53.6023 50.7426 53.6023C50.7426 53.6023 51.9944 56.1887 53.1924 58.98Z" fill="#407BFF"/>
<path opacity="0.2" d="M52.8785 58.2431C52.9858 58.4871 53.0907 58.7311 53.1981 58.9751L58.1977 56.3643C56.6263 51.5868 55.2087 48.876 55.2087 48.876C52.1757 49.3981 51.1851 51.072 50.8703 52.292C50.7549 52.721 50.7112 53.1662 50.741 53.6096C50.741 53.6096 51.7805 55.7495 52.8785 58.2431Z" fill="white"/>
<path opacity="0.2" d="M52.8785 58.2421C51.7805 55.7484 50.741 53.6061 50.741 53.6061C50.7112 53.1627 50.7549 52.7175 50.8703 52.2884C51.0268 52.186 51.2003 52.1124 51.3827 52.0713C51.3827 52.0713 52.7199 54.1673 52.8785 58.2421Z" fill="black"/>
<path d="M51.6506 60.0583L51.4847 52.0624L55.4473 50.9059C55.4473 50.9059 55.1374 47.2459 54.6738 45.4281C54.6738 45.4281 48.2371 43.825 47.2562 46.0088C47.2562 46.0088 47.2562 46.0429 47.2416 46.0551L47.2269 46.0747C47.2269 46.0747 45.3774 49.3272 45.9288 60.0583H51.6506Z" fill="#407BFF"/>
<path opacity="0.2" d="M51.6506 60.0583L51.4847 52.0624L55.4473 50.9059C55.4473 50.9059 55.1374 47.2459 54.6738 45.4281C54.6738 45.4281 48.2371 43.825 47.2562 46.0088C47.2562 46.0088 47.2562 46.0429 47.2416 46.0551L47.2269 46.0747C47.2269 46.0747 45.3774 49.3272 45.9288 60.0583H51.6506Z" fill="white"/>
<path d="M47.1777 44.9004V45.9911L54.5758 45.4202V44.1294L47.1777 44.9004Z" fill="#407BFF"/>
<path d="M49.6888 44.4376L49.3184 44.4565L49.4148 46.3402L49.7852 46.3212L49.6888 44.4376Z" fill="#407BFF"/>
<path d="M52.9159 44.393L51.2852 44.5391L51.3958 45.7736L53.0265 45.6275L52.9159 44.393Z" fill="white"/>
<path d="M54.2415 43.9395L53.8711 43.9585L53.9675 45.8421L54.3379 45.8232L54.2415 43.9395Z" fill="#407BFF"/>
<path opacity="0.2" d="M49.6888 44.4376L49.3184 44.4565L49.4148 46.3402L49.7852 46.3212L49.6888 44.4376Z" fill="white"/>
<path opacity="0.2" d="M54.2415 43.9395L53.8711 43.9585L53.9675 45.8421L54.3379 45.8232L54.2415 43.9395Z" fill="white"/>
<path d="M54.6569 44.2615L47.2125 44.8959C47.1573 43.7433 47.0375 42.5947 46.8538 41.4555C46.6361 40.2282 46.3452 39.015 45.9827 37.8224C45.7704 37.0904 45.5191 36.3047 45.219 35.3995C45.0775 34.9668 44.9221 34.5089 44.7529 34.0257C45.7646 33.7015 46.7987 33.452 47.8468 33.2791C48.9533 33.0869 50.072 32.9736 51.1945 32.9399C52.6439 32.9399 54.3104 33.0912 54.3104 33.0912C54.3104 33.0912 54.5544 33.1498 54.6959 34.6845C54.8326 36.1241 54.9668 39.0107 54.6569 44.2615Z" fill="#263238"/>
<path d="M45.4463 59.7314L51.9757 59.6729L51.861 60.6562L45.7342 60.5976L45.4463 59.7314Z" fill="#407BFF"/>
<path d="M52.7856 58.9212L58.2171 55.9736L58.5074 56.8398L53.2468 59.4409L52.7856 58.9212Z" fill="#407BFF"/>
<path d="M50.5802 34.5826C48.7428 34.3386 48.189 33.5603 48.189 33.5603C48.9405 32.8551 48.8038 31.8084 48.6135 31.1569C48.5551 30.9507 48.4792 30.7499 48.3866 30.5566L50.5997 30.969C50.5475 31.2771 50.5181 31.5887 50.5118 31.9011C50.5057 32.1313 50.527 32.3615 50.5753 32.5867C50.7266 33.248 51.1023 33.2553 51.1023 33.2553C51.4854 33.9824 50.5802 34.5826 50.5802 34.5826Z" fill="#EEC1BB"/>
<path opacity="0.2" d="M50.509 31.9011C50.5029 32.1313 50.5242 32.3615 50.5725 32.5867C49.6941 32.4696 49.028 31.7669 48.6205 31.1569C48.5621 30.9507 48.4862 30.7499 48.3936 30.5566L50.6066 30.969C50.5512 31.2769 50.5185 31.5884 50.509 31.9011Z" fill="black"/>
<path d="M50.1478 24.8435C52.0705 24.9143 52.6512 25.9683 52.7195 27.9569C52.8025 30.4408 52.1901 32.1806 49.8037 31.5608C46.5634 30.7214 46.9514 24.7264 50.1478 24.8435Z" fill="#EEC1BB"/>
<path d="M51.4849 27.8154C51.6283 28.1079 51.806 28.3823 52.0143 28.6328C51.9554 28.7105 51.8761 28.7704 51.7852 28.8057C51.6943 28.841 51.5954 28.8505 51.4995 28.8329L51.4849 27.8154Z" fill="#D4827D"/>
<path d="M50.3389 26.2707C50.1876 26.2467 50.0327 26.2577 49.8864 26.303C49.74 26.3482 49.606 26.4265 49.4946 26.5318" stroke="#263238" stroke-width="0.275848" stroke-linecap="round" stroke-linejoin="round"/>
<path d="M51.729 26.242C51.8619 26.214 51.9993 26.2164 52.1311 26.249C52.2629 26.2815 52.3857 26.3433 52.4903 26.4299" stroke="#263238" stroke-width="0.275848" stroke-linecap="round" stroke-linejoin="round"/>
<path d="M51.1878 29.5657C51.0902 29.7797 51.0086 30.0008 50.9438 30.2269L50.8218 30.2098C50.263 30.1318 50.0312 29.9122 49.941 29.6926C49.9002 29.5836 49.886 29.4665 49.8995 29.351C49.9049 29.2852 49.9188 29.2204 49.941 29.1582C50.2635 29.3609 50.6267 29.49 51.0048 29.5364C51.1122 29.5584 51.1878 29.5657 51.1878 29.5657Z" fill="#263238"/>
<path d="M50.9964 29.5364L50.9184 29.7292C50.3913 29.656 50.0326 29.534 49.8911 29.351C49.8965 29.2852 49.9104 29.2204 49.9326 29.1582C50.2551 29.3609 50.6184 29.49 50.9964 29.5364Z" fill="white"/>
<path d="M50.8139 30.2097C50.2552 30.1316 50.0234 29.912 49.9331 29.6924C50.1445 29.7261 50.3484 29.7962 50.5358 29.8998C50.6577 29.9726 50.7547 30.0806 50.8139 30.2097Z" fill="#DE5753"/>
<path d="M47.9249 28.0084C47.9249 28.0084 48.8838 26.4615 48.7911 25.2366C48.7911 25.2366 52.6609 23.819 52.6951 27.6961C52.6951 27.6961 53.1831 24.2801 49.8891 24.0752C46.5951 23.8702 46.4194 28.7112 48.0737 30.2191C48.0859 30.2191 47.3368 28.9771 47.9249 28.0084Z" fill="#263238"/>
<path d="M48.2228 28.4257C48.2181 28.3151 48.1916 28.2065 48.1449 28.1062C48.0982 28.0058 48.0321 27.9157 47.9505 27.8409C47.869 27.7661 47.7734 27.7081 47.6694 27.6703C47.5654 27.6325 47.4549 27.6155 47.3444 27.6205C46.7466 27.6644 46.4172 28.8771 47.8885 29.226C48.0983 29.2797 48.2276 29.0723 48.2228 28.4257Z" fill="#EEC1BB"/>
<path d="M49.0672 23.5725C50.1066 23.2846 52.8809 23.2456 53.5373 26.115L53.1518 26.3078C52.5 25.981 51.7952 25.7727 51.0704 25.6929C50.9164 25.4189 50.7358 25.1606 50.5312 24.9219C50.5523 25.1654 50.5523 25.4103 50.5312 25.6539C50.5312 25.6539 48.7207 25.9174 47.9106 26.6543C46.6394 27.8108 46.5638 28.5428 46.5638 28.5428C46.5638 28.5428 45.6805 24.5144 49.0672 23.5725Z" fill="#263238"/>
<path d="M48.9136 23.7848C48.9136 23.7848 52.6321 22.4941 53.7936 26.0199" stroke="#263238" stroke-width="0.190324" stroke-linecap="round" stroke-linejoin="round"/>
<path d="M49.7769 27.6033C49.7769 27.6033 50.2283 27.2203 50.4405 27.7351C50.234 27.6357 50.0057 27.5904 49.7769 27.6033Z" fill="#263238"/>
<path d="M51.9194 27.8883C51.9194 27.8883 52.1634 27.3662 52.5002 27.7346C52.2971 27.7388 52.098 27.7915 51.9194 27.8883Z" fill="#263238"/>
<path opacity="0.3" d="M52.6513 35.6631H53.7298C53.7689 35.6648 53.807 35.676 53.841 35.6956C53.8749 35.7152 53.9036 35.7426 53.9246 35.7757C53.9457 35.8087 53.9585 35.8463 53.962 35.8853C53.9654 35.9243 53.9594 35.9636 53.9445 35.9998L53.498 36.9612C53.4786 36.9976 53.4502 37.0286 53.4156 37.0511C53.3809 37.0736 53.3411 37.0869 53.2999 37.0899C53.2587 37.0928 53.2174 37.0852 53.1799 37.0678C53.1425 37.0504 53.11 37.0238 53.0856 36.9904L52.4512 36.0315C52.4296 35.9952 52.4179 35.9539 52.417 35.9116C52.4162 35.8693 52.4264 35.8276 52.4466 35.7905C52.4667 35.7533 52.4962 35.722 52.5321 35.6997C52.568 35.6774 52.6091 35.6648 52.6513 35.6631Z" fill="white"/>
<path opacity="0.2" d="M46.8486 41.4648C46.631 40.2374 46.3401 39.0242 45.9775 37.8316L46.3826 37.0996C46.891 38.495 47.051 39.9935 46.8486 41.4648Z" fill="black"/>
<path d="M44.7535 34.0352C44.0556 34.9184 43.7409 41.2502 42.3281 43.8171C40.9154 46.384 38.9292 49.8683 38.9292 49.8683L40.3786 51.1274C40.3786 51.1274 44.8413 45.9155 45.5538 43.9123C46.2663 41.909 46.459 39.247 46.459 39.247C46.8494 35.6626 44.7535 34.0352 44.7535 34.0352Z" fill="#263238"/>
<path opacity="0.6" d="M45.2846 82.1155C45.4213 82.0155 46.5729 83.7406 46.5729 83.7406C46.5729 83.7406 46.3167 85.5388 46.8365 86.6978C47.3562 87.8568 46.3485 87.7568 45.5067 86.6588L43.4327 83.9358C42.8373 83.1623 43.8743 83.1428 45.2846 82.1155Z" fill="white"/>
<path opacity="0.6" d="M49.5335 85.5241C49.5335 85.3558 51.605 85.4875 51.605 85.4875C51.605 85.4875 52.8787 86.7807 54.1158 87.0735C55.3529 87.3663 54.6599 88.1057 53.2789 88.1057H49.8629C48.8844 88.1057 49.4993 87.2687 49.5335 85.5241Z" fill="white"/>
<path d="M59.765 38.7306C61.0192 39.2356 62.0806 37.979 62.1294 36.4833C62.1294 36.4833 63.2737 35.7513 64.5694 34.9559C65.5461 34.3422 66.5535 33.7786 67.5876 33.2674C67.7568 33.1884 67.9035 33.0685 68.0146 32.9185C69.015 31.6204 68.5539 27.8799 68.5539 27.8799C66.2359 28.1385 61.6048 32.3378 59.5771 34.363C57.5495 36.3882 58.5108 38.223 59.765 38.7306Z" fill="#407BFF"/>
<path opacity="0.2" d="M64.5688 34.956C65.5456 34.3423 66.553 33.7787 67.5871 33.2675C67.7563 33.1885 67.903 33.0686 68.0141 32.9186L66.3891 31.4766C66.3891 31.4766 64.9422 33.3578 64.5688 34.956Z" fill="black"/>
<path d="M67.3976 86.2881L65.4187 86.4979L65.0454 82.2279L67.0267 82.0181L67.3976 86.2881Z" fill="#EBB376"/>
<path d="M77.2747 86.1444H75.3568L75.1982 81.7012H77.1185L77.2747 86.1444Z" fill="#EBB376"/>
<path d="M75.0905 85.9222H77.4207C77.4589 85.9219 77.4961 85.9349 77.5259 85.9589C77.5557 85.9829 77.5763 86.0165 77.5841 86.054L77.9623 87.762C77.9775 87.8354 77.9629 87.9119 77.9217 87.9745C77.8805 88.0372 77.8162 88.081 77.7427 88.0962C77.7225 88.0988 77.702 88.0988 77.6817 88.0962C76.9278 88.084 76.3788 88.0377 75.4321 88.0377C74.8489 88.0377 73.0897 88.0987 72.2845 88.0987C71.4793 88.0987 71.3743 87.3032 71.7037 87.23C73.1824 86.908 74.295 86.4614 74.7684 86.0369C74.8571 85.9588 74.9724 85.9178 75.0905 85.9222Z" fill="#263238"/>
<path d="M74.4556 86.2593C74.3253 86.2691 74.1955 86.2347 74.0871 86.1617C74.0516 86.1327 74.0241 86.095 74.0074 86.0522C73.9908 86.0094 73.9854 85.9631 73.992 85.9177C73.991 85.8912 73.9979 85.865 74.0118 85.8424C74.0257 85.8198 74.046 85.8019 74.0701 85.7908C74.2823 85.681 74.9021 86.0616 74.9704 86.1056C74.9783 86.1096 74.9846 86.116 74.9886 86.1239C74.9925 86.1318 74.9939 86.1408 74.9924 86.1495C74.9912 86.1586 74.9873 86.1673 74.9813 86.1742C74.9752 86.1812 74.9671 86.1862 74.9582 86.1885C74.7937 86.2303 74.6252 86.254 74.4556 86.2593ZM74.175 85.8616C74.1547 85.8594 74.1342 85.8637 74.1164 85.8738C74.1042 85.8738 74.0896 85.8908 74.0871 85.9274C74.0833 85.9576 74.0869 85.9882 74.0975 86.0167C74.1081 86.0452 74.1255 86.0706 74.1481 86.0909C74.3633 86.1885 74.6075 86.2007 74.8313 86.1251C74.6318 85.9954 74.4088 85.9059 74.175 85.8616Z" fill="#407BFF"/>
<path d="M74.9463 86.1905H74.9243C74.7267 86.0832 74.3436 85.6611 74.3827 85.4585C74.3894 85.4248 74.4077 85.3944 74.4344 85.3726C74.4611 85.3507 74.4946 85.3389 74.5291 85.339C74.5635 85.3345 74.5985 85.3374 74.6318 85.3475C74.665 85.3576 74.6957 85.3746 74.7218 85.3975C74.9439 85.5781 74.9902 86.1296 74.9927 86.1564C74.9928 86.1646 74.9908 86.1727 74.987 86.1799C74.9831 86.1872 74.9775 86.1934 74.9707 86.1979C74.962 86.198 74.9535 86.1955 74.9463 86.1905ZM74.5608 85.4122H74.5388C74.4803 85.4122 74.4754 85.4463 74.4729 85.4585C74.4485 85.583 74.6925 85.9026 74.8902 86.0515C74.8778 85.8329 74.7986 85.6233 74.6633 85.4512C74.6346 85.4268 74.5984 85.413 74.5608 85.4122Z" fill="#407BFF"/>
<path d="M65.2086 85.8607H67.5388C67.5771 85.8604 67.6143 85.8734 67.6441 85.8974C67.6738 85.9214 67.6944 85.955 67.7023 85.9924L68.0805 87.7004C68.0956 87.7739 68.081 87.8503 68.0399 87.913C67.9987 87.9757 67.9343 88.0195 67.8609 88.0347C67.8406 88.0373 67.8202 88.0373 67.7999 88.0347C67.0459 88.0225 66.4969 87.9762 65.5502 87.9762C64.9671 87.9762 63.2078 88.0372 62.4026 88.0372C61.5974 88.0372 61.4925 87.2417 61.8219 87.1685C63.3005 86.8464 64.4132 86.3999 64.8865 85.9754C64.9752 85.8973 65.0905 85.8562 65.2086 85.8607Z" fill="#263238"/>
<path d="M64.5737 86.1987C64.4434 86.2086 64.3136 86.1742 64.2053 86.1011C64.1697 86.0721 64.1423 86.0344 64.1256 85.9917C64.1089 85.9489 64.1036 85.9026 64.1101 85.8571C64.1092 85.8306 64.1161 85.8044 64.1299 85.7819C64.1438 85.7593 64.1641 85.7413 64.1882 85.7303C64.4005 85.6205 65.0203 86.0011 65.0886 86.045C65.0964 86.049 65.1028 86.0555 65.1068 86.0634C65.1107 86.0713 65.112 86.0802 65.1105 86.0889C65.1094 86.0981 65.1055 86.1067 65.0994 86.1137C65.0933 86.1206 65.0853 86.1256 65.0764 86.128C64.9119 86.1698 64.7434 86.1935 64.5737 86.1987ZM64.2883 85.801C64.2679 85.7988 64.2475 85.8031 64.2297 85.8132C64.2175 85.8132 64.2029 85.8303 64.2004 85.8669C64.1966 85.897 64.2002 85.9277 64.2108 85.9561C64.2214 85.9846 64.2388 86.0101 64.2614 86.0304C64.4766 86.1279 64.7208 86.1401 64.9446 86.0645C64.745 85.9348 64.5221 85.8453 64.2883 85.801Z" fill="#407BFF"/>
<path d="M65.0645 86.132H65.0425C64.8449 86.0246 64.4618 85.6025 64.5008 85.4C64.5076 85.3662 64.5259 85.3358 64.5526 85.314C64.5793 85.2921 64.6127 85.2803 64.6472 85.2804C64.6817 85.2759 64.7167 85.2788 64.7499 85.2889C64.7832 85.299 64.8139 85.316 64.84 85.339C65.062 85.5195 65.1084 86.071 65.1108 86.0978C65.1109 86.106 65.109 86.1141 65.1052 86.1214C65.1013 86.1286 65.0957 86.1348 65.0889 86.1393C65.0802 86.1395 65.0716 86.1369 65.0645 86.132ZM64.6789 85.3536H64.6594C64.6009 85.3536 64.596 85.3878 64.5935 85.4C64.5691 85.5244 64.8131 85.844 65.0108 85.9929C64.9984 85.7743 64.9192 85.5647 64.7839 85.3926C64.7549 85.3668 64.7177 85.3521 64.6789 85.3512V85.3536Z" fill="#407BFF"/>
<path opacity="0.2" d="M67.0267 82.0181L65.0454 82.2279L65.2406 84.4288L67.2195 84.2214L67.0267 82.0181Z" fill="black"/>
<path opacity="0.2" d="M77.1185 81.7041H75.1982L75.2812 83.9953H77.2015L77.1185 81.7041Z" fill="black"/>
<path d="M76.325 44.6792H66.1453C65.1693 49.9642 62.1485 66.7197 64.3201 83.3849L67.7679 82.9604C67.7679 82.9604 67.4482 62.7864 70.4909 54.6076C70.8423 58.9849 71.2571 61.6836 71.6182 64.1699C72.5039 70.2699 74.3998 83.5996 74.3998 83.5996H77.9085C77.9085 83.5996 77.1912 70.8409 76.8593 64.8458C76.4958 58.3334 76.3396 46.0163 76.325 44.6792Z" fill="#263238"/>
<path d="M63.9276 84.1879L68.1927 83.5535L68.0634 82.3726L63.625 82.9557L63.9276 84.1879Z" fill="#407BFF"/>
<path d="M73.9784 83.6267H78.1167V82.3896L73.8223 82.3091L73.9784 83.6267Z" fill="#407BFF"/>
<path opacity="0.2" d="M70.4915 54.6053C69.9912 56.0352 69.6109 57.5043 69.3545 58.9973C69.069 55.0933 70.2085 50.9697 70.2085 50.9697L70.4915 54.6053Z" fill="black"/>
<path d="M78.0789 28.6992C77.5152 30.7698 77.1074 32.8798 76.8589 35.0114C76.7784 35.6654 76.7125 36.3071 76.6588 36.9293C76.5881 37.7198 76.5393 38.4811 76.5002 39.2034C76.4514 40.1184 76.4368 41.1993 76.4392 42.2631C76.4392 44.7031 76.5417 46.3257 76.5417 46.3257C74.5897 46.8137 68.9484 46.4892 65.8667 46.2647C65.5043 43.5633 65.4095 40.8327 65.5837 38.1127C65.6863 36.1555 65.9022 34.2059 66.2303 32.2738C66.3958 31.2421 66.6256 30.2219 66.9183 29.2189C67.0317 28.8634 67.2445 28.5478 67.5316 28.3095C67.8188 28.0712 68.1682 27.9202 68.5385 27.8744C68.9118 27.8281 69.3437 27.7817 69.7975 27.7549C69.9732 27.7549 70.1489 27.7378 70.327 27.7354C71.7826 27.7519 73.2361 27.8529 74.68 28.0379C74.9533 28.0696 75.2314 28.1111 75.4998 28.155C76.3685 28.2909 77.2294 28.4726 78.0789 28.6992Z" fill="#407BFF"/>
<path d="M74.6932 28.0265C73.7587 28.8756 71.47 28.5608 71.47 28.5608C71.47 28.5608 70.0401 28.1704 70.3402 27.7239C71.182 27.5848 71.5895 27.192 71.7579 26.6893C71.8501 26.3778 71.8791 26.0509 71.8433 25.728C71.8293 25.5479 71.8057 25.3687 71.7725 25.1912L71.9457 25.0643L72.5362 24.6251L74.6029 23.0952C74.4104 23.8089 74.2741 24.5367 74.1954 25.2717C74.1027 25.9732 74.1483 26.6861 74.3296 27.3701C74.4034 27.612 74.5273 27.8356 74.6932 28.0265Z" fill="#EBB376"/>
<path opacity="0.2" d="M76.9346 34.4856C77.0054 33.922 77.0908 33.3608 77.1786 32.802V32.7874C77.0957 32.6483 76.4149 31.5088 76.3466 30.6938C76.2892 30.9346 76.2501 31.1793 76.2295 31.4258C76.1563 32.2091 76.1904 33.4632 76.9346 34.4856Z" fill="black"/>
<path d="M81.9958 40.4114L78.8116 46.7969C77.9381 46.9335 77.0109 50.6716 76.7961 50.9912C76.5814 51.3109 79.324 51.2645 79.5607 50.9912C79.7974 50.718 80.8099 48.356 80.4781 47.668L84.6041 41.3776C84.6041 41.3776 83.8185 40.0918 81.9958 40.4114Z" fill="#EBB376"/>
<path d="M78.0799 28.7C78.5021 28.6536 85.6781 35.0122 85.5805 38.46C85.4829 41.9077 84.5191 42.015 84.5191 42.015L81.8351 41.4587C81.8351 41.4587 82.4329 38.5112 81.7887 37.8475C81.1446 37.1838 77.0551 33.5922 77.0551 33.5922C77.0551 33.5922 75.657 28.9684 78.0799 28.7Z" fill="#407BFF"/>
<path opacity="0.6" d="M68.0097 31.3984C68.0097 31.3984 72.5481 31.6034 74.3878 32.0475C74.3878 32.0475 73.5924 38.5745 73.607 40.524C73.607 40.524 68.4415 40.2971 66.9775 40.2288C66.9775 40.2288 67.5461 33.2577 68.0097 31.3984Z" fill="white"/>
<path d="M60.6698 35.6636L66.9894 36.4102C67.5189 35.8246 70.7592 36.9617 71.1033 36.9592C71.4473 36.9568 70.0711 38.9771 69.7588 39.0259C69.4465 39.0747 67.1846 38.6672 66.8308 38.0841H60.1208C60.1208 38.0841 59.5352 36.8665 60.6698 35.6636Z" fill="#EBB376"/>
<path opacity="0.2" d="M74.3292 27.3695C72.853 27.5306 72.2015 25.9909 71.9453 25.0637L72.5358 24.6245C73.0994 24.812 73.6531 25.0278 74.195 25.2711C74.1022 25.9726 74.1478 26.6855 74.3292 27.3695Z" fill="black"/>
<path d="M76.8599 19.901C76.8599 19.901 77.1844 22.0774 75.7814 23.0925C74.3784 24.1075 74.3784 19.1885 74.3784 19.1885L76.8599 19.901Z" fill="#263238"/>
<path d="M71.7189 25.1928C72.013 25.628 72.4418 25.9546 72.9394 26.1225C73.4371 26.2905 73.9761 26.2904 74.4737 26.1224C75.1209 25.9163 75.6658 25.4725 75.9987 24.8804C76.0451 24.8013 76.0874 24.7198 76.1256 24.6364C76.8161 23.0212 77.0357 20.1956 75.3277 19.1367C74.9521 18.9008 74.5225 18.7649 74.0796 18.7418C73.6367 18.7187 73.1952 18.8093 72.7972 19.0049C72.3991 19.2005 72.0577 19.4946 71.8054 19.8593C71.553 20.2241 71.3981 20.6472 71.3554 21.0887C71.1455 22.9748 70.9333 24.0752 71.7189 25.1928Z" fill="#EBB376"/>
<path d="M74.1072 22.0973C74.0706 22.2462 74.1389 22.3852 74.2414 22.4023C74.3438 22.4194 74.4414 22.3096 74.4683 22.1583C74.4951 22.007 74.4341 21.868 74.3341 21.8509C74.234 21.8338 74.134 21.9436 74.1072 22.0973Z" fill="#263238"/>
<path d="M75.8295 22.3898C75.7954 22.5411 75.8661 22.6802 75.9637 22.6973C76.0613 22.7143 76.1662 22.6021 76.1931 22.4533C76.2199 22.3044 76.1565 22.1629 76.0589 22.1483C75.9613 22.1336 75.8564 22.2459 75.8295 22.3898Z" fill="#263238"/>
<path d="M75.2709 22.3721C75.3715 22.87 75.5415 23.3513 75.7759 23.8019C75.6576 23.8574 75.5285 23.8862 75.3977 23.8862C75.267 23.8862 75.1379 23.8574 75.0195 23.8019L75.2709 22.3721Z" fill="#D58745"/>
<path d="M73.6681 21.4474C73.6841 21.4525 73.7012 21.4531 73.7175 21.4493C73.7338 21.4454 73.7488 21.4372 73.7608 21.4254C73.8422 21.3458 73.9411 21.2863 74.0495 21.2515C74.1579 21.2168 74.273 21.2078 74.3855 21.2254C74.4088 21.2305 74.4331 21.2261 74.4532 21.2133C74.4734 21.2005 74.4876 21.1803 74.4928 21.1571C74.4957 21.1457 74.4963 21.1338 74.4946 21.1222C74.4928 21.1106 74.4887 21.0995 74.4826 21.0895C74.4764 21.0794 74.4683 21.0708 74.4588 21.0639C74.4492 21.0571 74.4384 21.0523 74.427 21.0497C74.2853 21.0244 74.1396 21.0334 74.0021 21.0758C73.8646 21.1182 73.7392 21.1929 73.6364 21.2937C73.6197 21.3106 73.6104 21.3334 73.6104 21.3571C73.6104 21.3809 73.6197 21.4037 73.6364 21.4206C73.6455 21.4311 73.6562 21.4401 73.6681 21.4474Z" fill="#263238"/>
<path d="M76.6742 21.9239C76.6898 21.9328 76.7076 21.937 76.7255 21.9361C76.7485 21.9292 76.7681 21.9137 76.7799 21.8928C76.7917 21.8718 76.795 21.8471 76.7889 21.8238C76.7513 21.6843 76.681 21.5558 76.5838 21.4489C76.4866 21.342 76.3654 21.2597 76.2302 21.2089C76.2188 21.2052 76.2068 21.2039 76.1949 21.205C76.183 21.206 76.1714 21.2095 76.1609 21.2152C76.1504 21.221 76.1411 21.2288 76.1338 21.2382C76.1264 21.2476 76.121 21.2584 76.1179 21.2699C76.1118 21.2929 76.1146 21.3174 76.126 21.3382C76.1374 21.3591 76.1563 21.3749 76.1789 21.3822C76.2846 21.424 76.3791 21.4899 76.4549 21.5746C76.5307 21.6593 76.5858 21.7605 76.6157 21.8702C76.621 21.8828 76.629 21.8942 76.6391 21.9034C76.6492 21.9127 76.6612 21.9197 76.6742 21.9239Z" fill="#263238"/>
<path d="M74.1467 18.0561C73.9222 18.0244 73.6977 17.9976 73.4708 17.9878C72.8171 17.9265 72.1597 18.058 71.5798 18.366C70.2744 19.1395 70.4989 21.1208 70.6673 22.4042C70.8917 24.1122 71.5627 24.8857 71.5627 24.8857C71.1553 24.0707 71.2773 22.4847 71.5408 22.4457C71.8043 22.4067 71.7848 22.7092 71.7848 22.7092C72.3753 22.3432 72.9047 21.3062 72.7217 20.5742C72.5802 20.013 73.2097 19.5982 73.7368 19.8617L73.8978 19.9398L74.1418 20.0569L74.1467 18.0561Z" fill="#263238"/>
<path d="M70.2715 22.4825C70.3378 22.7101 70.4485 22.9224 70.5972 23.107C70.7458 23.2917 70.9295 23.4452 71.1377 23.5586C71.6965 23.8587 72.1137 23.3926 72.0771 22.7924C72.0381 22.2605 71.7062 21.4455 71.0889 21.3992C70.4716 21.3528 70.1153 21.9164 70.2715 22.4825Z" fill="#EBB376"/>
<path d="M70.6816 19.613C70.6816 19.613 70.4376 17.6756 72.6921 17.3511C74.9467 17.0266 76.9011 16.5215 76.9011 16.5215C76.9011 16.5215 76.867 17.661 76.4522 17.9855C76.4522 17.9855 77.2622 18.0221 77.7454 17.7C77.7454 17.7 77.616 18.698 77.3257 19.0518L77.7454 18.7297C77.6986 19.1076 77.535 19.4615 77.2773 19.7419C77.0197 20.0223 76.6808 20.2153 76.3082 20.2937C74.9784 20.5963 72.4945 19.613 72.4945 19.613H70.6816Z" fill="#263238"/>
<path d="M74.9614 24.4488C74.817 24.627 74.6857 24.8153 74.5685 25.0125C74.5319 24.9978 74.4929 24.9856 74.4563 24.9685C73.9488 24.7636 73.7804 24.5001 73.7487 24.2707C73.7359 24.1584 73.7501 24.0446 73.7902 23.9389C73.8107 23.8783 73.8394 23.8208 73.8756 23.7681C74.1335 24.0333 74.4444 24.2412 74.7881 24.3781C74.8931 24.4244 74.9614 24.4488 74.9614 24.4488Z" fill="#263238"/>
<path d="M74.788 24.3781L74.6684 24.5391C74.1804 24.3463 73.8803 24.1438 73.79 23.9389C73.8106 23.8783 73.8393 23.8208 73.8754 23.7681C74.1333 24.0333 74.4443 24.2412 74.788 24.3781Z" fill="white"/>
<path d="M74.4566 24.9688C73.9491 24.7639 73.7807 24.5004 73.749 24.271C73.9411 24.3521 74.1171 24.467 74.2687 24.6102C74.3661 24.7081 74.4315 24.8331 74.4566 24.9688Z" fill="#DE5753"/>
</svg>
