<svg width="24" height="24" viewBox="0 0 24 24" fill="none" xmlns="http://www.w3.org/2000/svg">
<path d="M12 24C5.3724 24 0 18.6276 0 12C0 5.3724 5.3724 0 12 0C18.6276 0 24 5.3724 24 12C24 18.6276 18.6276 24 12 24ZM12 21.6C14.5461 21.6 16.9879 20.5886 18.7882 18.7882C20.5886 16.9879 21.6 14.5461 21.6 12C21.6 9.45392 20.5886 7.01212 18.7882 5.21178C16.9879 3.41143 14.5461 2.4 12 2.4C9.45392 2.4 7.01212 3.41143 5.21178 5.21178C3.41143 7.01212 2.4 9.45392 2.4 12C2.4 14.5461 3.41143 16.9879 5.21178 18.7882C7.01212 20.5886 9.45392 21.6 12 21.6ZM10.8 16.8H7.2V7.2H10.8V4.8H13.2V7.2H14.4C14.9571 7.2 15.5033 7.35514 15.9772 7.64805C16.4511 7.94095 16.8341 8.36004 17.0833 8.85836C17.3324 9.35668 17.4379 9.91453 17.3879 10.4694C17.3378 11.0243 17.1343 11.5543 16.8 12C17.1343 12.4457 17.3378 12.9757 17.3879 13.5306C17.4379 14.0855 17.3324 14.6433 17.0833 15.1416C16.8341 15.64 16.4511 16.059 15.9772 16.352C15.5033 16.6449 14.9571 16.8 14.4 16.8H13.2V19.2H10.8V16.8ZM9.6 13.2V14.4H14.4C14.5591 14.4 14.7117 14.3368 14.8243 14.2243C14.9368 14.1117 15 13.9591 15 13.8C15 13.6409 14.9368 13.4883 14.8243 13.3757C14.7117 13.2632 14.5591 13.2 14.4 13.2H9.6ZM9.6 9.6V10.8H14.4C14.5591 10.8 14.7117 10.7368 14.8243 10.6243C14.9368 10.5117 15 10.3591 15 10.2C15 10.0409 14.9368 9.88826 14.8243 9.77574C14.7117 9.66321 14.5591 9.6 14.4 9.6H9.6Z" fill="#F29E30"/>
</svg>
