<svg width="14" height="14" viewBox="0 0 14 14" fill="none" xmlns="http://www.w3.org/2000/svg">
<path d="M1.93799 8.68204L4.20599 6.41404L6.09132 8.30004L8.19599 6.19537L7.00066 5.00004H10.334V8.33337L9.13866 7.13804L6.09132 10.1854L4.20599 8.30004L2.55599 9.94937C3.30493 11.0766 4.45441 11.877 5.77148 12.1883C7.08855 12.4996 8.47471 12.2985 9.64907 11.6258C10.8234 10.9532 11.6981 9.85922 12.0959 8.56565C12.4938 7.27208 12.3849 5.87565 11.7915 4.65933C11.1981 3.44302 10.1644 2.49779 8.90002 2.0152C7.63562 1.53261 6.23505 1.54875 4.98211 2.06035C3.72918 2.57195 2.71759 3.54074 2.15234 4.77041C1.5871 6.00008 1.51047 7.39865 1.93799 8.68271V8.68204ZM0.912656 9.72071L0.90599 9.71404L0.908656 9.71137C0.528609 8.85805 0.332793 7.93417 0.33399 7.00004C0.33399 3.31804 3.31866 0.333374 7.00066 0.333374C10.6827 0.333374 13.6673 3.31804 13.6673 7.00004C13.6673 10.682 10.6827 13.6667 7.00066 13.6667C4.28732 13.6667 1.95399 12.0467 0.912656 9.72071Z" fill="#666666"/>
</svg>
