<svg width="20" height="20" viewBox="0 0 20 20" fill="none" xmlns="http://www.w3.org/2000/svg">
<path d="M11.3333 16.6667C6.73083 16.6667 3 12.9358 3 8.33333C3 3.73083 6.73083 0 11.3333 0C15.9358 0 19.6667 3.73083 19.6667 8.33333C19.6667 12.9358 15.9358 16.6667 11.3333 16.6667ZM11.3333 15C13.1014 15 14.7971 14.2976 16.0474 13.0474C17.2976 11.7971 18 10.1014 18 8.33333C18 6.56522 17.2976 4.86953 16.0474 3.61929C14.7971 2.36905 13.1014 1.66667 11.3333 1.66667C9.56522 1.66667 7.86953 2.36905 6.61929 3.61929C5.36905 4.86953 4.66667 6.56522 4.66667 8.33333C4.66667 10.1014 5.36905 11.7971 6.61929 13.0474C7.86953 14.2976 9.56522 15 11.3333 15ZM10.5 4.16667H12.1667V5.83333H10.5V4.16667ZM10.5 7.5H12.1667V12.5H10.5V7.5Z" fill="#666666"/>
</svg>
