<svg width="36" height="36" viewBox="0 0 36 36" fill="none" xmlns="http://www.w3.org/2000/svg">
<path d="M15.2291 8.33326C15.3055 8.48876 15.356 8.65528 15.3786 8.82647L15.7962 15.0364L16.0035 18.1576C16.0057 18.4786 16.0561 18.7975 16.153 19.104C16.4034 19.6988 17.0057 20.0768 17.6611 20.0505L27.647 19.3973C28.0794 19.3902 28.497 19.5519 28.8079 19.8469C29.0669 20.0927 29.2342 20.4143 29.2868 20.7602L29.3045 20.9702C28.8913 26.6923 24.6887 31.465 18.9785 32.697C13.2683 33.929 7.4128 31.3264 4.59106 26.3023C3.77758 24.8427 3.26948 23.2383 3.09657 21.5834C3.02434 21.0935 2.99254 20.5987 3.00147 20.1038C2.99255 13.9691 7.36121 8.6654 13.4765 7.38682C14.2125 7.27222 14.934 7.66185 15.2291 8.33326Z" fill="#0768F6"/>
<path opacity="0.4" d="M19.3049 3.00123C26.1447 3.17524 31.8933 8.09368 32.9998 14.7184L32.9893 14.7673L32.9591 14.8384L32.9633 15.0335C32.9476 15.2921 32.8478 15.5408 32.6758 15.7417C32.4966 15.951 32.2518 16.0935 31.9822 16.1489L31.8178 16.1714L20.2967 16.9179C19.9134 16.9557 19.5319 16.8321 19.2469 16.5779C19.0094 16.3661 18.8575 16.0801 18.8147 15.772L18.0413 4.26759C18.0279 4.22869 18.0279 4.18652 18.0413 4.14762C18.0519 3.83051 18.1915 3.53076 18.4289 3.31534C18.6663 3.09993 18.9818 2.9868 19.3049 3.00123Z" fill="#0768F6"/>
</svg>
