<svg width="18" height="19" viewBox="0 0 18 19" fill="none" xmlns="http://www.w3.org/2000/svg">
<path d="M9.00033 18.1298C4.39783 18.1298 0.666992 14.0922 0.666992 9.11129C0.666992 4.13036 4.39783 0.0927734 9.00033 0.0927734C13.6028 0.0927734 17.3337 4.13036 17.3337 9.11129C17.3337 14.0922 13.6028 18.1298 9.00033 18.1298ZM9.00033 16.3261C10.7684 16.3261 12.4641 15.566 13.7144 14.2129C14.9646 12.8599 15.667 11.0248 15.667 9.11129C15.667 7.1978 14.9646 5.36269 13.7144 4.00965C12.4641 2.65661 10.7684 1.89648 9.00033 1.89648C7.23222 1.89648 5.53652 2.65661 4.28628 4.00965C3.03604 5.36269 2.33366 7.1978 2.33366 9.11129C2.33366 11.0248 3.03604 12.8599 4.28628 14.2129C5.53652 15.566 7.23222 16.3261 9.00033 16.3261ZM8.16699 4.60203H9.83366V6.40574H8.16699V4.60203ZM8.16699 8.20944H9.83366V13.6206H8.16699V8.20944Z" fill="#666666"/>
</svg>
