<svg width="14" height="14" viewBox="0 0 14 14" fill="none" xmlns="http://www.w3.org/2000/svg">
<path d="M6.99998 0.333008C8.81131 0.333008 9.03731 0.339674 9.74798 0.373008C10.458 0.406341 10.9413 0.517675 11.3666 0.683008C11.8066 0.852341 12.1773 1.08167 12.548 1.45167C12.887 1.78494 13.1493 2.18807 13.3166 2.63301C13.4813 3.05767 13.5933 3.54167 13.6266 4.25167C13.658 4.96234 13.6666 5.18834 13.6666 6.99967C13.6666 8.81101 13.66 9.03701 13.6266 9.74767C13.5933 10.4577 13.4813 10.941 13.3166 11.3663C13.1498 11.8115 12.8874 12.2148 12.548 12.5477C12.2146 12.8866 11.8115 13.1488 11.3666 13.3163C10.942 13.481 10.458 13.593 9.74798 13.6263C9.03731 13.6577 8.81131 13.6663 6.99998 13.6663C5.18865 13.6663 4.96265 13.6597 4.25198 13.6263C3.54198 13.593 3.05865 13.481 2.63331 13.3163C2.1882 13.1493 1.785 12.887 1.45198 12.5477C1.11292 12.2145 0.850601 11.8113 0.683313 11.3663C0.51798 10.9417 0.406646 10.4577 0.373313 9.74767C0.34198 9.03701 0.333313 8.81101 0.333313 6.99967C0.333313 5.18834 0.33998 4.96234 0.373313 4.25167C0.406646 3.54101 0.51798 3.05834 0.683313 2.63301C0.850137 2.18779 1.11252 1.78456 1.45198 1.45167C1.78509 1.1125 2.18827 0.850161 2.63331 0.683008C3.05865 0.517675 3.54131 0.406341 4.25198 0.373008C4.96265 0.341674 5.18865 0.333008 6.99998 0.333008ZM6.99998 3.66634C6.11592 3.66634 5.26808 4.01753 4.64296 4.64265C4.01784 5.26777 3.66665 6.11562 3.66665 6.99967C3.66665 7.88373 4.01784 8.73158 4.64296 9.3567C5.26808 9.98182 6.11592 10.333 6.99998 10.333C7.88403 10.333 8.73188 9.98182 9.357 9.3567C9.98212 8.73158 10.3333 7.88373 10.3333 6.99967C10.3333 6.11562 9.98212 5.26777 9.357 4.64265C8.73188 4.01753 7.88403 3.66634 6.99998 3.66634ZM11.3333 3.49967C11.3333 3.27866 11.2455 3.0667 11.0892 2.91042C10.933 2.75414 10.721 2.66634 10.5 2.66634C10.279 2.66634 10.067 2.75414 9.91072 2.91042C9.75444 3.0667 9.66665 3.27866 9.66665 3.49967C9.66665 3.72069 9.75444 3.93265 9.91072 4.08893C10.067 4.24521 10.279 4.33301 10.5 4.33301C10.721 4.33301 10.933 4.24521 11.0892 4.08893C11.2455 3.93265 11.3333 3.72069 11.3333 3.49967ZM6.99998 4.99967C7.53041 4.99967 8.03912 5.21039 8.41419 5.58546C8.78927 5.96053 8.99998 6.46924 8.99998 6.99967C8.99998 7.53011 8.78927 8.03882 8.41419 8.41389C8.03912 8.78896 7.53041 8.99967 6.99998 8.99967C6.46955 8.99967 5.96084 8.78896 5.58577 8.41389C5.21069 8.03882 4.99998 7.53011 4.99998 6.99967C4.99998 6.46924 5.21069 5.96053 5.58577 5.58546C5.96084 5.21039 6.46955 4.99967 6.99998 4.99967Z" fill="#0768F6"/>
</svg>
