<svg width="32" height="32" viewBox="0 0 32 32" fill="none" xmlns="http://www.w3.org/2000/svg">
<path d="M31.9384 4.27155C31.798 3.86847 31.4475 3.58747 31.0231 3.53839L28.7265 3.2735L28.4614 0.977114C28.4125 0.552798 28.1318 0.201968 27.7285 0.0615867C27.3254 -0.0790383 26.8874 0.0213036 26.5854 0.323305L22.0456 4.8631C21.8061 5.1026 21.6909 5.43292 21.7297 5.76959L22.0581 8.61579L21.0468 9.62726C16.0495 5.3111 8.46698 5.52399 3.72479 10.2662C-1.2403 15.2313 -1.2403 23.3101 3.72479 28.2752C8.68988 33.2403 16.7687 33.2403 21.7338 28.2752C26.476 23.533 26.6889 15.9505 22.3727 10.9534L23.3842 9.94196L26.2304 10.2703C26.5668 10.3091 26.8974 10.1942 27.1369 9.95441L31.6767 5.41461C31.9787 5.11261 32.0788 4.67462 31.9384 4.27155ZM20.4077 26.9493C16.1738 31.1832 9.28461 31.1832 5.05072 26.9493C0.816834 22.7152 0.816834 15.8262 5.05072 11.5921C9.06146 7.58161 15.4545 7.37018 19.7165 10.9576L18.0019 12.6722C14.6887 10.0208 9.82611 10.2298 6.75726 13.2986C3.4643 16.5916 3.4643 21.9498 6.75726 25.2427C10.0502 28.5357 15.4084 28.5357 18.7014 25.2427C21.7702 22.1739 21.9792 17.3113 19.3278 13.9981L21.0424 12.2835C24.6298 16.5455 24.4184 22.9385 20.4077 26.9493ZM12.2341 19.7659C12.6003 20.1321 13.194 20.1321 13.5602 19.7659L14.8068 18.5191C15.0866 19.2982 14.915 20.2042 14.2919 20.8272C13.4321 21.6873 12.0327 21.6873 11.1728 20.8272C10.3127 19.9673 10.3127 18.5682 11.1728 17.7081C11.7956 17.085 12.7018 16.9134 13.4807 17.1932L12.2341 18.44C11.8679 18.806 11.8679 19.3997 12.2341 19.7659ZM14.8779 15.796C13.3049 14.8238 11.2097 15.0191 9.84662 16.3821C8.25556 17.9732 8.25556 20.5623 9.84662 22.1534C11.4377 23.7444 14.0268 23.7447 15.6179 22.1534C16.9809 20.7903 17.1762 18.6951 16.204 17.1221L17.9912 15.3348C19.9172 17.9066 19.7121 21.5799 17.3752 23.9168C14.8134 26.4786 10.645 26.4786 8.08319 23.9168C5.52142 21.355 5.52142 17.1866 8.08319 14.6248C10.4199 12.2879 14.0934 12.0826 16.665 14.0089L14.8779 15.796ZM26.0747 8.36456L23.8879 8.11212L23.6354 5.92536L26.7817 2.77912L26.9404 4.1529C26.9956 4.63117 27.3681 5.00421 27.8471 5.05988L29.2209 5.21833L26.0747 8.36456Z" fill="#2D715D"/>
</svg>
