<svg width="101" height="101" viewBox="0 0 101 101" fill="none" xmlns="http://www.w3.org/2000/svg">
<g clip-path="url(#clip0)">
<path d="M99.3167 47.1325C99.3167 46.6862 99.1391 46.258 98.8235 45.9424L85.3568 32.4757C84.6993 31.819 83.634 31.819 82.9765 32.4757L69.5098 45.9424C69.1942 46.258 69.0167 46.6862 69.0167 47.1325V97.6325H65.65V60.5992C65.65 60.1529 65.4725 59.7247 65.1568 59.409L51.6902 45.9424C51.0326 45.2856 49.9674 45.2856 49.3098 45.9424L35.8432 59.409C35.5275 59.7247 35.35 60.1529 35.35 60.5992V97.6325H31.9833V74.0659C31.9833 73.6196 31.8058 73.1913 31.4902 72.8757L18.0235 59.409C17.3659 58.7523 16.3007 58.7523 15.6432 59.409L2.1765 72.8757C1.86087 73.1913 1.68333 73.6196 1.68333 74.0659V97.6325H0V100.999H101V97.6325H99.3167V47.1325ZM15.15 97.6325V92.5825H18.5167V97.6325H15.15ZM21.8833 97.6325V90.8992C21.8833 89.9696 21.1296 89.2159 20.2 89.2159H13.4667C12.5371 89.2159 11.7833 89.9696 11.7833 90.8992V97.6325H5.05V74.7629L16.8333 62.9795L28.6167 74.7629V97.6325H21.8833ZM48.8167 97.6325V92.5825H52.1833V97.6325H48.8167ZM55.55 97.6325V90.8992C55.55 89.9696 54.7963 89.2159 53.8667 89.2159H47.1333C46.2037 89.2159 45.45 89.9696 45.45 90.8992V97.6325H38.7167V61.2962L50.5 49.5129L62.2833 61.2962V97.6325H55.55ZM82.4833 97.6325V92.5825H85.85V97.6325H82.4833ZM89.2167 97.6325V90.8992C89.2167 89.9696 88.4629 89.2159 87.5333 89.2159H80.8C79.8704 89.2159 79.1167 89.9696 79.1167 90.8992V97.6325H72.3833V47.8295L84.1667 36.0462L95.95 47.8295V97.6325H89.2167Z" fill="#121212"/>
<path d="M57.234 75.7493H43.7673C42.8377 75.7493 42.084 76.503 42.084 77.4326V84.1659C42.084 85.0964 42.8377 85.8493 43.7673 85.8493H57.234C58.1636 85.8493 58.9173 85.0964 58.9173 84.1659V77.4326C58.9173 76.503 58.1636 75.7493 57.234 75.7493ZM45.4507 79.1159H48.8173V82.4826H45.4507V79.1159ZM55.5507 82.4826H52.184V79.1159H55.5507V82.4826Z" fill="#121212"/>
<path d="M90.9 75.7493H77.4333C76.5037 75.7493 75.75 76.503 75.75 77.4326V84.1659C75.75 85.0964 76.5037 85.8493 77.4333 85.8493H90.9C91.8296 85.8493 92.5833 85.0964 92.5833 84.1659V77.4326C92.5833 76.503 91.8296 75.7493 90.9 75.7493ZM79.1167 79.1159H82.4833V82.4826H79.1167V79.1159ZM89.2167 82.4826H85.85V79.1159H89.2167V82.4826Z" fill="#121212"/>
<path d="M23.566 75.7493H10.0993C9.16973 75.7493 8.41602 76.503 8.41602 77.4326V84.1659C8.41602 85.0964 9.16973 85.8493 10.0993 85.8493H23.566C24.4956 85.8493 25.2493 85.0964 25.2493 84.1659V77.4326C25.2493 76.503 24.4956 75.7493 23.566 75.7493ZM11.7827 79.1159H15.1493V82.4826H11.7827V79.1159ZM21.8827 82.4826H18.516V79.1159H21.8827V82.4826Z" fill="#121212"/>
<path d="M90.9 62.2825H77.4333C76.5037 62.2825 75.75 63.0362 75.75 63.9658V70.6991C75.75 71.6296 76.5037 72.3825 77.4333 72.3825H90.9C91.8296 72.3825 92.5833 71.6296 92.5833 70.6991V63.9658C92.5833 63.0362 91.8296 62.2825 90.9 62.2825ZM79.1167 65.6491H82.4833V69.0158H79.1167V65.6491ZM89.2167 69.0158H85.85V65.6491H89.2167V69.0158Z" fill="#121212"/>
<path d="M90.9 48.8159H77.4333C76.5037 48.8159 75.75 49.5696 75.75 50.4993V57.2326C75.75 58.163 76.5037 58.9159 77.4333 58.9159H90.9C91.8296 58.9159 92.5833 58.163 92.5833 57.2326V50.4993C92.5833 49.5696 91.8296 48.8159 90.9 48.8159ZM79.1167 52.1826H82.4833V55.5493H79.1167V52.1826ZM89.2167 55.5493H85.85V52.1826H89.2167V55.5493Z" fill="#121212"/>
<path d="M57.234 62.2825H43.7673C42.8377 62.2825 42.084 63.0362 42.084 63.9658V70.6991C42.084 71.6296 42.8377 72.3825 43.7673 72.3825H57.234C58.1636 72.3825 58.9173 71.6296 58.9173 70.6991V63.9658C58.9173 63.0362 58.1636 62.2825 57.234 62.2825ZM45.4507 65.6491H48.8173V69.0158H45.4507V65.6491ZM55.5507 69.0158H52.184V65.6491H55.5507V69.0158Z" fill="#121212"/>
<path d="M98.9093 0.0502196L85.4426 3.41689L86.258 6.68245L94.4585 4.63418C71.0891 30.365 39.737 47.4778 5.45472 53.2149L1.41406 53.8881L1.96641 57.2079L6.00624 56.5348C41.3834 50.6119 73.6947 32.8349 97.6337 6.12353V15.1493H101V1.68259C101 1.16477 100.761 0.675716 100.353 0.356803C99.945 0.0378906 99.4123 -0.0755372 98.9093 0.0502196Z" fill="#121212"/>
</g>
<defs>
<clipPath id="clip0">
<rect width="101" height="101" fill="white"/>
</clipPath>
</defs>
</svg>
