<svg width="17" height="18" viewBox="0 0 17 18" fill="none" xmlns="http://www.w3.org/2000/svg">
<path d="M3.3335 14H5.00016V15.6667H15.0002V2.33332H5.00016V3.99999H3.3335V1.49999C3.3335 1.27898 3.42129 1.06701 3.57757 0.910734C3.73385 0.754454 3.94582 0.666656 4.16683 0.666656H15.8335C16.0545 0.666656 16.2665 0.754454 16.4228 0.910734C16.579 1.06701 16.6668 1.27898 16.6668 1.49999V16.5C16.6668 16.721 16.579 16.933 16.4228 17.0892C16.2665 17.2455 16.0545 17.3333 15.8335 17.3333H4.16683C3.94582 17.3333 3.73385 17.2455 3.57757 17.0892C3.42129 16.933 3.3335 16.721 3.3335 16.5V14ZM5.00016 8.16666H10.8335V9.83332H5.00016V12.3333L0.833496 8.99999L5.00016 5.66666V8.16666Z" fill="#DD0707"/>
</svg>
