<svg width="14" height="19" viewBox="0 0 14 19" fill="none" xmlns="http://www.w3.org/2000/svg">
<path d="M0.333496 18.3333C0.333496 16.5652 1.03588 14.8695 2.28612 13.6193C3.53636 12.3691 5.23205 11.6667 7.00016 11.6667C8.76827 11.6667 10.464 12.3691 11.7142 13.6193C12.9644 14.8695 13.6668 16.5652 13.6668 18.3333H12.0002C12.0002 17.0073 11.4734 15.7355 10.5357 14.7978C9.59801 13.8601 8.32624 13.3333 7.00016 13.3333C5.67408 13.3333 4.40231 13.8601 3.46463 14.7978C2.52695 15.7355 2.00016 17.0073 2.00016 18.3333H0.333496ZM7.00016 10.8333C4.23766 10.8333 2.00016 8.59584 2.00016 5.83334C2.00016 3.07084 4.23766 0.833344 7.00016 0.833344C9.76266 0.833344 12.0002 3.07084 12.0002 5.83334C12.0002 8.59584 9.76266 10.8333 7.00016 10.8333ZM7.00016 9.16668C8.84183 9.16668 10.3335 7.67501 10.3335 5.83334C10.3335 3.99168 8.84183 2.50001 7.00016 2.50001C5.1585 2.50001 3.66683 3.99168 3.66683 5.83334C3.66683 7.67501 5.1585 9.16668 7.00016 9.16668Z" fill="#666666"/>
</svg>
