<svg width="139" height="38" viewBox="0 0 139 38" fill="none" xmlns="http://www.w3.org/2000/svg">
<path fill-rule="evenodd" clip-rule="evenodd" d="M23.9155 10.898C23.9155 11.2191 23.9658 11.0218 23.9613 11.2741L23.9155 34.1709C23.9155 34.8222 24.0299 35.5469 23.1423 35.5469C22.0213 35.5469 22.3736 33.7123 22.3736 32.9967C22.3736 30.5199 22.488 15.1728 22.3004 14.5077C22.2501 14.3334 22.1357 14.0491 22.0716 13.8839C21.8782 13.4883 21.611 13.1333 21.2847 12.8382L20.8958 12.5355C20.2003 12.008 19.4499 12.0768 18.6081 12.0768C18.1848 12.1373 17.781 12.2942 17.4276 12.5355C17.0942 12.7623 16.8005 13.0428 16.5583 13.3656C15.9635 14.15 15.9086 14.7784 15.9086 16.1177V34.6479C15.9086 35.0745 15.936 35.0562 15.7027 35.2901C15.1399 35.8542 14.8746 35.4552 14.3621 35.1846V30.5979C14.3621 30.2676 14.3026 30.0933 14.2981 29.9007L14.3575 28.7449C14.3575 28.4421 14.3026 28.3917 14.3026 28.2036C14.3026 28.0156 14.3575 27.9697 14.3575 27.6624C14.3575 26.502 14.4216 25.6993 14.0693 24.626C13.3601 22.5115 10.4547 21.8144 8.69322 23.6399C8.37717 23.9849 8.13335 24.39 7.97617 24.8312C7.819 25.2724 7.75166 25.7407 7.77814 26.2084C7.77814 26.8184 7.96573 29.9466 7.59513 30.2814C7.43787 30.4204 7.23477 30.4959 7.02514 30.4934C6.81552 30.4908 6.61429 30.4104 6.46043 30.2676L5.67804 29.2586C5.54536 29.0659 5.43097 28.9237 5.32574 28.7586L3.20276 24.4563C3.17889 24.333 3.14523 24.2118 3.10211 24.0939C3.00822 23.8849 2.94207 23.6644 2.90537 23.438C2.85504 23.1628 2.7681 22.9794 2.71777 22.6996C2.66745 22.4198 2.68117 22.1813 2.62627 21.9428C2.26811 20.2264 2.24791 18.4564 2.56679 16.7323C2.7132 15.9663 2.99687 14.2096 3.3629 13.5216C3.42829 13.4219 3.47625 13.3118 3.50474 13.1959L3.79299 12.485C3.83604 12.3525 3.88959 12.2237 3.95313 12.0997L4.63943 10.7787C5.12677 9.94577 5.66622 9.14456 6.25454 8.3799C7.03242 7.48436 7.88835 6.66008 8.81218 5.91684L11.2371 4.32067C11.3652 4.26563 11.4156 4.23811 11.5483 4.16931C11.6809 4.10051 11.777 4.06382 11.9189 3.9996C12.4039 3.77027 12.779 3.57763 13.2915 3.37123C13.598 3.25197 13.7719 3.25656 14.0693 3.14648L15.6112 2.68781L18.3015 2.31628C19.4612 2.27514 20.6219 2.35508 21.7651 2.55479C22.0213 2.60525 22.4148 2.63277 22.6435 2.67863L24.9633 3.37123C25.2286 3.48589 25.4208 3.54552 25.6724 3.66936C25.9241 3.7932 26.0934 3.87118 26.3588 3.98126C26.6241 4.09134 26.7614 4.19225 27.0313 4.31609L27.4202 4.54542L27.4523 4.58211C28.3673 5.10959 29.8818 6.09573 30.5086 6.85253L31.0028 7.33414C31.6808 8.00346 32.2936 8.73606 32.8329 9.52199C33.2519 10.1241 33.6324 10.7522 33.9722 11.4025L34.1186 11.7144L34.384 12.2236C34.4057 12.2805 34.424 12.3387 34.4389 12.3979C34.471 12.532 34.5268 12.6594 34.6036 12.774C35.0344 13.759 35.3522 14.79 35.5507 15.8471C35.7429 17.6083 35.871 17.5487 35.871 19.6265C35.8572 21.1591 35.6056 22.6802 35.1252 24.1352C35.052 24.3554 35.0657 24.4104 35.0016 24.6306C34.7456 25.4373 34.4163 26.2188 34.0179 26.9652C33.5913 27.8404 33.0778 28.6702 32.4852 29.442C32.1512 29.809 31.5701 30.7263 30.957 30.4511C30.7939 30.3885 30.6567 30.2724 30.5678 30.1216C30.4789 29.9709 30.4435 29.7944 30.4674 29.6209C30.3897 24.8966 30.4674 19.7412 30.4674 14.9985C30.472 12.8382 30.9662 9.62749 29.2504 8.25148C28.7631 7.85877 28.1739 7.61387 27.5524 7.54561C26.9308 7.47735 26.3027 7.58858 25.7421 7.8662C25.1816 8.14382 24.7118 8.57626 24.3882 9.11258C24.0645 9.64891 23.9005 10.2668 23.9155 10.8934V10.898ZM0 17.5487V21.03L0.420935 23.4702C0.513732 23.7293 0.58265 23.9965 0.626827 24.2682C0.998503 25.7185 1.54711 27.1173 2.26024 28.433C2.38835 28.6715 2.50273 28.8045 2.60797 29.0155L3.77011 30.7905C3.91195 30.9832 4.02633 31.1254 4.17732 31.3088C4.32831 31.4923 4.45184 31.7125 4.60741 31.8822C4.94461 32.2493 5.3586 32.5371 5.81975 32.725C6.2809 32.9129 6.77779 32.9963 7.27485 32.9692C7.7623 32.9328 8.23524 32.7864 8.65832 32.5409C9.0814 32.2955 9.44369 31.9574 9.7181 31.5519C11.0541 29.3962 9.3658 25.0572 10.9535 25.0572C11.7999 25.0572 11.8685 25.5158 11.8685 26.291V34.1801C11.8685 35.4735 12.0424 36.2946 12.9254 37.1431C13.8954 38.0604 14.5314 37.8953 15.7988 37.8953C16.0052 37.8717 16.2054 37.8095 16.389 37.7119C16.9603 37.4781 17.4415 37.0665 17.7616 36.5377C18.3244 35.7029 18.3427 34.8406 18.3427 33.7856C18.3427 27.7037 18.4113 21.6171 18.3427 15.5306C18.3427 15.1361 18.2832 15.0719 18.4754 14.815C18.5397 14.7086 18.6294 14.62 18.7365 14.5571C18.8436 14.4942 18.9647 14.4592 19.0888 14.4551C19.2128 14.451 19.3359 14.478 19.4469 14.5336C19.5579 14.5893 19.6533 14.6718 19.7245 14.7738C19.9487 15.026 19.8983 14.9985 19.8937 15.4526C19.8663 18.5073 19.7839 34.4003 19.9624 35.3359C20.1086 36.1573 20.5681 36.8894 21.2435 37.377C22.1586 38.0329 22.9547 37.8862 24.0573 37.8862C24.5156 37.7548 24.9329 37.5085 25.2698 37.1706C25.653 36.8285 25.9516 36.4018 26.1421 35.9243C26.3327 35.4467 26.41 34.9312 26.3679 34.4186C26.3405 26.6854 26.432 18.9477 26.3679 11.2145C26.3679 10.7558 26.4503 9.98066 27.0634 9.98066C28.1615 9.98066 27.9784 10.8567 27.9784 11.9163V29.3916C27.9388 29.9615 28.0439 30.5322 28.284 31.0503C28.524 31.5685 28.8911 32.0172 29.3511 32.3546C29.7811 32.6711 30.9616 33.1252 31.5244 32.9463C31.7019 32.8776 31.8858 32.8269 32.0734 32.7949C32.285 32.7671 32.4863 32.6867 32.659 32.561C33.5238 32.1023 33.9173 31.5473 34.4618 30.8135L35.8847 28.6027C36.3068 27.8013 36.6886 26.9793 37.0285 26.1396C37.1161 25.9602 37.1866 25.7728 37.239 25.58C37.3717 25.1948 37.4678 24.8416 37.5776 24.4471C37.6233 24.2912 37.6691 24.0297 37.7057 23.8784C37.7835 23.5711 37.8201 23.6032 37.8887 23.2867L38.2639 20.7273V17.3974C38.2639 16.7782 37.9894 16.3195 37.9573 15.6177C37.9397 15.3164 37.8668 15.021 37.7423 14.7462C37.5669 13.8918 37.3189 13.054 37.0011 12.2419L35.9808 10.0128C35.506 9.08089 34.9372 8.20024 34.2833 7.38459C34.1186 7.1736 33.9768 6.97179 33.8258 6.78373C33.4552 6.36634 33.1806 6.05445 32.7872 5.65999C31.8995 4.75759 30.9333 3.93638 29.9001 3.2061C29.0434 2.58926 28.123 2.06644 27.1549 1.64663C27.0216 1.60613 26.8916 1.55553 26.766 1.49526C25.8672 1.07896 24.9312 0.748779 23.9704 0.509124C23.816 0.484769 23.6632 0.451071 23.5129 0.408216C23.0644 0.279436 22.6048 0.193435 22.1403 0.151361C21.8402 0.074305 21.534 0.0236589 21.2252 0H17.2904C16.6444 0.0417487 16.0013 0.119846 15.3641 0.233922C15.0753 0.285684 14.7908 0.359281 14.5131 0.454083C13.1471 0.792814 11.8217 1.27878 10.56 1.90348C10.0836 2.13035 9.62481 2.39252 9.18736 2.68781C8.29905 3.21295 7.46658 3.8277 6.70293 4.52249L5.00089 6.14159C3.76759 7.51826 2.73406 9.06235 1.93081 10.7283L1.59681 11.4759C1.52048 11.5867 1.45895 11.7069 1.41379 11.8337C1.37408 11.9693 1.32673 12.1025 1.27196 12.2327C0.954104 13.0448 0.70613 13.8826 0.530744 14.7371C0.408835 15.0111 0.336041 15.3046 0.315701 15.604C0.256221 16.3011 0 16.8424 0 17.5487Z" fill="#FD740E"/>
<path fill-rule="evenodd" clip-rule="evenodd" d="M11.1869 18.801C11.0821 18.8105 10.9764 18.7983 10.8764 18.7651C10.7765 18.732 10.6844 18.6786 10.6059 18.6083C10.5301 18.5465 10.4679 18.4697 10.423 18.3828C10.378 18.2959 10.3514 18.2006 10.3446 18.103C10.3379 18.0053 10.3512 17.9073 10.3838 17.815C10.4163 17.7227 10.4675 17.6381 10.534 17.5664C10.6005 17.4947 10.6809 17.4374 10.7704 17.3981C10.8599 17.3589 10.9564 17.3384 11.0541 17.3381C11.1517 17.3377 11.2484 17.3575 11.3382 17.3961C11.4279 17.4347 11.5088 17.4913 11.5758 17.5626C11.6666 17.6587 11.7301 17.7775 11.7597 17.9065C11.7893 18.0355 11.7841 18.1701 11.7444 18.2963C11.7047 18.4226 11.6322 18.536 11.5342 18.6247C11.4361 18.7134 11.3163 18.7743 11.1869 18.801ZM7.94757 18.1818C7.93621 18.614 8.03544 19.0419 8.23582 19.4248C8.65675 20.1311 8.97703 20.6311 9.77772 20.9751C10.2795 21.2027 10.8324 21.2933 11.3804 21.2377C11.9284 21.1821 12.452 20.9823 12.8981 20.6586C13.4887 20.2344 13.9063 19.6105 14.074 18.9019C14.1289 18.6909 14.1701 18.6267 14.2158 18.4432C14.2647 18.093 14.2381 17.7365 14.1381 17.3974C14.0365 16.8891 13.8083 16.4148 13.4747 16.0186C13.1411 15.6224 12.713 15.3173 12.2301 15.1316C11.8439 14.9636 11.4266 14.8792 11.0056 14.884C10.5845 14.8887 10.1693 14.9825 9.78687 15.1591C9.22066 15.4258 8.74475 15.8528 8.41789 16.3875C8.09102 16.9222 7.92752 17.5412 7.94757 18.168V18.1818Z" fill="#FD740E"/>
<path d="M67.1939 19.0344C67.1252 25.1943 63.3597 31.3497 55.0096 31.3497C46.6596 31.3497 42.7934 25.3273 42.7934 19.0665C42.7934 12.8057 46.7968 6.5127 55.0096 6.5127C63.2224 6.5127 67.2579 12.8102 67.1939 19.0344ZM47.204 19.1353C47.3047 23.0478 49.4094 27.2354 55.0096 27.2354C60.6099 27.2354 62.7146 23.0156 62.7878 19.1032C62.8564 15.0898 60.6145 10.5949 55.0096 10.5949C49.4048 10.5949 47.1262 15.1311 47.204 19.1353Z" fill="#0768F6"/>
<path d="M82.2974 30.9099H77.6442L67.7705 6.99023H72.8035L79.9639 25.5343L87.1564 6.99023H92.1893L82.2974 30.9099Z" fill="#0768F6"/>
<path d="M94.9527 23.9022C95.2226 25.9754 97.0253 27.4752 99.9399 27.4752C101.468 27.4752 103.472 26.8927 104.419 25.9066L107.064 28.5256C105.298 30.3602 102.415 31.2501 99.8712 31.2501C94.1017 31.2501 90.6701 27.677 90.6701 22.3014C90.6701 17.1964 94.1337 13.5225 99.5647 13.5225C105.165 13.5225 108.661 16.9946 108.015 23.9022H94.9527ZM104.049 20.4621C103.779 18.288 102.081 17.1964 99.7065 17.1964C97.4646 17.1964 95.6298 18.288 95.0213 20.4621H104.049Z" fill="#0768F6"/>
<path d="M122.135 18.4887C121.58 17.9745 120.927 17.5772 120.216 17.3203C119.505 17.0635 118.749 16.9523 117.994 16.9934C116.027 16.9934 114.942 17.6035 114.942 18.6584C114.942 19.7134 115.926 20.3601 118.063 20.4931C121.22 20.6949 125.223 21.4104 125.223 25.8687C125.223 28.8271 122.817 31.3728 118.031 31.3728C115.382 31.3728 112.737 30.9141 110.289 28.3822L112.33 25.4192C113.515 26.7494 116.233 27.7126 118.099 27.7676C119.66 27.8043 121.119 26.9879 121.119 25.7632C121.119 24.5386 120.168 24.1304 117.793 23.9928C114.636 23.7542 110.87 22.6167 110.87 18.7868C110.87 14.9065 114.874 13.5488 117.926 13.5488C120.543 13.5488 122.501 14.058 124.445 15.7596L122.135 18.4887Z" fill="#0768F6"/>
<path d="M133.706 9.30664V14.0676H138.323V17.6407H133.674V24.8877C133.674 26.4838 134.557 27.2682 135.848 27.2682C136.543 27.2471 137.226 27.0733 137.847 26.759L139 30.2954C137.913 30.75 136.75 30.9929 135.573 31.0109C131.945 31.1485 129.566 29.0707 129.566 24.8877V17.6407H126.445V14.0676H129.566V9.74696L133.706 9.30664Z" fill="#0768F6"/>
</svg>
