<svg width="80" height="80" viewBox="0 0 80 80" fill="none" xmlns="http://www.w3.org/2000/svg">
<path d="M40 0.000976562C17.9109 0.000976562 0 17.9084 0 39.9992C0 62.0901 17.9092 79.9975 40 79.9975C62.0926 79.9975 80 62.0901 80 39.9992C80 17.9084 62.0926 0.000976562 40 0.000976562ZM40 11.9609C47.3091 11.9609 53.232 17.8855 53.232 25.1912C53.232 32.4986 47.3091 38.4214 40 38.4214C32.6944 38.4214 26.7715 32.4986 26.7715 25.1912C26.7715 17.8855 32.6944 11.9609 40 11.9609ZM39.9912 69.5398C32.7014 69.5398 26.0248 66.8849 20.875 62.4907C19.6205 61.4206 18.8966 59.8516 18.8966 58.2053C18.8966 50.796 24.8933 44.8661 32.3043 44.8661H47.6992C55.112 44.8661 61.0858 50.796 61.0858 58.2053C61.0858 59.8534 60.3655 61.4189 59.1092 62.4889C53.9612 66.8849 47.2828 69.5398 39.9912 69.5398Z" fill="#E5E5E5"/>
<path d="M58 59.993C58.0018 59.7304 58.1069 59.479 58.2925 59.2932C58.4781 59.1074 58.7294 59.0021 58.992 59H77.008C77.556 59 78 59.445 78 59.993V76.007C77.9982 76.2696 77.8931 76.521 77.7075 76.7068C77.5219 76.8926 77.2706 76.9979 77.008 77H58.992C58.7288 76.9997 58.4765 76.895 58.2905 76.7088C58.1045 76.5226 58 76.2702 58 76.007V59.993ZM60 61V75H76V61H60ZM68 71C68.7956 71 69.5587 70.6839 70.1213 70.1213C70.6839 69.5587 71 68.7956 71 68C71 67.2044 70.6839 66.4413 70.1213 65.8787C69.5587 65.3161 68.7956 65 68 65C67.2044 65 66.4413 65.3161 65.8787 65.8787C65.3161 66.4413 65 67.2044 65 68C65 68.7956 65.3161 69.5587 65.8787 70.1213C66.4413 70.6839 67.2044 71 68 71ZM68 73C66.6739 73 65.4021 72.4732 64.4645 71.5355C63.5268 70.5979 63 69.3261 63 68C63 66.6739 63.5268 65.4021 64.4645 64.4645C65.4021 63.5268 66.6739 63 68 63C69.3261 63 70.5979 63.5268 71.5355 64.4645C72.4732 65.4021 73 66.6739 73 68C73 69.3261 72.4732 70.5979 71.5355 71.5355C70.5979 72.4732 69.3261 73 68 73ZM73 62H75V64H73V62Z" fill="#121212"/>
</svg>
