<svg width="19" height="16" viewBox="0 0 19 16" fill="none" xmlns="http://www.w3.org/2000/svg">
<path d="M8.41498e-07 10.4185C-0.000512321 9.49805 0.233685 8.59267 0.68046 7.78792C1.12724 6.98317 1.77183 6.30564 2.55333 5.81934C2.75959 4.21108 3.54483 2.73309 4.7621 1.66197C5.97937 0.590847 7.54524 0 9.16667 0C10.7881 0 12.354 0.590847 13.5712 1.66197C14.7885 2.73309 15.5737 4.21108 15.78 5.81934C16.7494 6.42241 17.5034 7.31634 17.9344 8.37349C18.3654 9.43064 18.4514 10.5969 18.1801 11.7059C17.9088 12.8148 17.294 13.8097 16.4236 14.5484C15.5532 15.2871 14.4716 15.7319 13.3333 15.8193L5 15.8352C2.20333 15.6068 8.41498e-07 13.2702 8.41498e-07 10.4185ZM13.2067 14.1577C13.9949 14.0971 14.7437 13.7889 15.3463 13.2773C15.9489 12.7656 16.3744 12.0766 16.5621 11.3087C16.7497 10.5408 16.6898 9.7332 16.391 9.00132C16.0922 8.26945 15.5698 7.65072 14.8983 7.23351L14.2258 6.81434L14.1258 6.02934C13.9701 4.82408 13.3807 3.71679 12.468 2.91441C11.5552 2.11204 10.3815 1.66949 9.16625 1.66949C7.95097 1.66949 6.77727 2.11204 5.86452 2.91441C4.95177 3.71679 4.36244 4.82408 4.20667 6.02934L4.10667 6.81434L3.43583 7.23351C2.76441 7.65067 2.24199 8.26933 1.94316 9.00113C1.64434 9.73293 1.58441 10.5404 1.77192 11.3083C1.95944 12.0762 2.38481 12.7653 2.98729 13.277C3.58977 13.7887 4.33854 14.0969 5.12667 14.1577L5.27083 14.1685H13.0625L13.2067 14.1577ZM10 9.1685V12.5018H8.33333V9.1685H5.83333L9.16667 5.00184L12.5 9.1685H10Z" fill="#666666"/>
</svg>
