<svg width="20" height="20" viewBox="0 0 20 20" fill="none" xmlns="http://www.w3.org/2000/svg">
<path d="M0 18H20V20H0V18ZM2 10H4V17H2V10ZM7 10H9V17H7V10ZM11 10H13V17H11V10ZM16 10H18V17H16V10ZM0 5L10 0L20 5V9H0V5ZM2 6.236V7H18V6.236L10 2.236L2 6.236ZM10 6C9.73479 6 9.48043 5.89464 9.29289 5.70711C9.10536 5.51957 9 5.26522 9 5C9 4.73478 9.10536 4.48043 9.29289 4.29289C9.48043 4.10536 9.73479 4 10 4C10.2652 4 10.5196 4.10536 10.7071 4.29289C10.8946 4.48043 11 4.73478 11 5C11 5.26522 10.8946 5.51957 10.7071 5.70711C10.5196 5.89464 10.2652 6 10 6Z" fill="#038830"/>
</svg>
