<svg width="14" height="12" viewBox="0 0 14 12" fill="none" xmlns="http://www.w3.org/2000/svg">
<path d="M13.7747 1.77062C13.2657 1.99575 12.726 2.1436 12.1734 2.20928C12.7559 1.86091 13.1918 1.31263 13.4 0.666618C12.8534 0.991951 12.254 1.21995 11.6294 1.34328C11.2098 0.894337 10.6536 0.596593 10.0473 0.496341C9.44107 0.396089 8.81866 0.498945 8.27688 0.78892C7.7351 1.07889 7.30429 1.53974 7.05144 2.09981C6.7986 2.65989 6.73787 3.28781 6.8787 3.88595C5.77011 3.83039 4.68559 3.5423 3.69556 3.04039C2.70553 2.53849 1.83212 1.83398 1.13204 0.972618C0.884228 1.39825 0.754005 1.8821 0.754702 2.37462C0.754702 3.34128 1.2467 4.19529 1.9947 4.69529C1.55204 4.68135 1.11912 4.56181 0.732035 4.34662V4.38128C0.732169 5.02509 0.954948 5.64903 1.3626 6.14733C1.77025 6.64562 2.33769 6.9876 2.9687 7.11529C2.55778 7.22664 2.12691 7.24306 1.7087 7.16329C1.88661 7.71744 2.23337 8.20209 2.70043 8.54936C3.16749 8.89663 3.73145 9.08915 4.31337 9.09995C3.73502 9.55417 3.07282 9.88994 2.36462 10.0881C1.65642 10.2862 0.91612 10.3428 0.186035 10.2546C1.4605 11.0742 2.9441 11.5094 4.45937 11.508C9.58803 11.508 12.3927 7.25929 12.3927 3.57462C12.3927 3.45462 12.3894 3.33329 12.384 3.21462C12.9299 2.82006 13.4011 2.3313 13.7754 1.77128L13.7747 1.77062Z" fill="#0768F6"/>
</svg>
