<svg width="30" height="28" viewBox="0 0 30 28" fill="none" xmlns="http://www.w3.org/2000/svg">
<path d="M0 1.9895C0.00274507 1.59557 0.16035 1.21853 0.438769 0.939826C0.717188 0.661127 1.09407 0.503142 1.488 0.5H28.512C29.334 0.5 30 1.1675 30 1.9895V26.0105C29.9973 26.4044 29.8396 26.7815 29.5612 27.0602C29.2828 27.3389 28.9059 27.4969 28.512 27.5H1.488C1.09322 27.4996 0.714745 27.3425 0.435734 27.0632C0.156723 26.7839 -2.00183e-07 26.4053 0 26.0105V1.9895ZM3 3.5V24.5H27V3.5H3ZM15 18.5C16.1935 18.5 17.3381 18.0259 18.182 17.182C19.0259 16.3381 19.5 15.1935 19.5 14C19.5 12.8065 19.0259 11.6619 18.182 10.818C17.3381 9.9741 16.1935 9.5 15 9.5C13.8065 9.5 12.6619 9.9741 11.818 10.818C10.9741 11.6619 10.5 12.8065 10.5 14C10.5 15.1935 10.9741 16.3381 11.818 17.182C12.6619 18.0259 13.8065 18.5 15 18.5ZM15 21.5C13.0109 21.5 11.1032 20.7098 9.6967 19.3033C8.29018 17.8968 7.5 15.9891 7.5 14C7.5 12.0109 8.29018 10.1032 9.6967 8.6967C11.1032 7.29018 13.0109 6.5 15 6.5C16.9891 6.5 18.8968 7.29018 20.3033 8.6967C21.7098 10.1032 22.5 12.0109 22.5 14C22.5 15.9891 21.7098 17.8968 20.3033 19.3033C18.8968 20.7098 16.9891 21.5 15 21.5ZM22.5 5H25.5V8H22.5V5Z" fill="#101924"/>
</svg>
