<svg width="30" height="33" viewBox="0 0 30 33" fill="none" xmlns="http://www.w3.org/2000/svg">
<path d="M27.1248 21.8L28.9278 22.8815C29.039 22.9481 29.1311 23.0424 29.195 23.1551C29.2589 23.2679 29.2925 23.3953 29.2925 23.525C29.2925 23.6546 29.2589 23.782 29.195 23.8948C29.1311 24.0076 29.039 24.1019 28.9278 24.1685L15.7728 32.0615C15.5395 32.2016 15.2724 32.2757 15.0003 32.2757C14.7281 32.2757 14.4611 32.2016 14.2278 32.0615L1.07277 24.1685C0.96154 24.1019 0.869469 24.0076 0.80554 23.8948C0.741611 23.782 0.708008 23.6546 0.708008 23.525C0.708008 23.3953 0.741611 23.2679 0.80554 23.1551C0.869469 23.0424 0.96154 22.9481 1.07277 22.8815L2.87577 21.8L15.0003 29.075L27.1248 21.8ZM27.1248 14.75L28.9278 15.8315C29.039 15.8981 29.1311 15.9924 29.195 16.1051C29.2589 16.2179 29.2925 16.3453 29.2925 16.475C29.2925 16.6046 29.2589 16.732 29.195 16.8448C29.1311 16.9576 29.039 17.0519 28.9278 17.1185L15.0003 25.475L1.07277 17.1185C0.96154 17.0519 0.869469 16.9576 0.80554 16.8448C0.741611 16.732 0.708008 16.6046 0.708008 16.475C0.708008 16.3453 0.741611 16.2179 0.80554 16.1051C0.869469 15.9924 0.96154 15.8981 1.07277 15.8315L2.87577 14.75L15.0003 22.025L27.1248 14.75ZM15.7713 0.963482L28.9278 8.85648C29.039 8.92307 29.1311 9.01736 29.195 9.13014C29.2589 9.24292 29.2925 9.37034 29.2925 9.49998C29.2925 9.62962 29.2589 9.75705 29.195 9.86983C29.1311 9.98261 29.039 10.0769 28.9278 10.1435L15.0003 18.5L1.07277 10.1435C0.96154 10.0769 0.869469 9.98261 0.80554 9.86983C0.741611 9.75705 0.708008 9.62962 0.708008 9.49998C0.708008 9.37034 0.741611 9.24292 0.80554 9.13014C0.869469 9.01736 0.96154 8.92307 1.07277 8.85648L14.2278 0.963482C14.4611 0.823317 14.7281 0.749268 15.0003 0.749268C15.2724 0.749268 15.5395 0.823317 15.7728 0.963482H15.7713ZM15.0003 3.99798L5.83077 9.49998L15.0003 15.002L24.1698 9.49998L15.0003 3.99798Z" fill="#0768F6"/>
</svg>
