<svg width="24" height="24" viewBox="0 0 24 24" fill="none" xmlns="http://www.w3.org/2000/svg">
<g clip-path="url(#clip0)">
<path d="M21.547 3.88625L12.3595 0.0717042C12.1293 -0.0238271 11.8706 -0.023874 11.6405 0.0717042L2.45302 3.88625C2.10309 4.03156 1.875 4.37319 1.875 4.75208V9.38919C1.875 15.7742 5.73417 21.5176 11.6457 23.9305C11.8728 24.0232 12.1272 24.0232 12.3543 23.9305C18.2657 21.5177 22.125 15.7742 22.125 9.38919V4.75208C22.125 4.37319 21.897 4.03156 21.547 3.88625ZM20.25 9.38919C20.25 14.8171 17.0625 19.8138 12 22.0442C7.07278 19.8734 3.75 14.9642 3.75 9.38919V5.37795L12 1.95261L20.25 5.37795V9.38919ZM10.9638 12.5492L14.9933 8.5197C15.3594 8.15361 15.953 8.15356 16.3192 8.5197C16.6853 8.88585 16.6852 9.47942 16.3191 9.84552L11.6267 14.5379C11.2605 14.9041 10.6669 14.904 10.3009 14.5379L7.68084 11.9179C7.3147 11.5518 7.3147 10.9582 7.68084 10.5921C8.04698 10.226 8.64056 10.226 9.00666 10.5921L10.9638 12.5492Z" fill="#DD0707"/>
</g>
<defs>
<clipPath id="clip0">
<rect width="24" height="24" fill="white"/>
</clipPath>
</defs>
</svg>
