<svg width="24" height="24" viewBox="0 0 24 24" fill="none" xmlns="http://www.w3.org/2000/svg">
<path d="M21.6 5.33333V2.66667H2.4V21.3333H21.6V18.6667H12C11.6817 18.6667 11.3765 18.5262 11.1515 18.2761C10.9264 18.0261 10.8 17.687 10.8 17.3333V6.66667C10.8 6.31304 10.9264 5.97391 11.1515 5.72386C11.3765 5.47381 11.6817 5.33333 12 5.33333H21.6ZM1.2 0H22.8C23.1183 0 23.4235 0.140476 23.6485 0.390524C23.8736 0.640573 24 0.979711 24 1.33333V22.6667C24 23.0203 23.8736 23.3594 23.6485 23.6095C23.4235 23.8595 23.1183 24 22.8 24H1.2C0.88174 24 0.576515 23.8595 0.351472 23.6095C0.126428 23.3594 0 23.0203 0 22.6667V1.33333C0 0.979711 0.126428 0.640573 0.351472 0.390524C0.576515 0.140476 0.88174 0 1.2 0ZM13.2 8V16H21.6V8H13.2ZM15.6 10.6667H19.2V13.3333H15.6V10.6667Z" fill="#5F53F2"/>
</svg>
