<svg width="18" height="18" viewBox="0 0 18 18" fill="none" xmlns="http://www.w3.org/2000/svg">
<path fill-rule="evenodd" clip-rule="evenodd" d="M5.1579 6.48661H4.3804C2.68457 6.48661 1.30957 7.86161 1.30957 9.55744L1.30957 13.6199C1.30957 15.3149 2.68457 16.6899 4.3804 16.6899H13.6554C15.3512 16.6899 16.7262 15.3149 16.7262 13.6199V9.54911C16.7262 7.85827 15.3554 6.48661 13.6646 6.48661H12.8787" fill="white"/>
<path d="M5.1579 6.48661H4.3804C2.68457 6.48661 1.30957 7.86161 1.30957 9.55744L1.30957 13.6199C1.30957 15.3149 2.68457 16.6899 4.3804 16.6899H13.6554C15.3512 16.6899 16.7262 15.3149 16.7262 13.6199V9.54911C16.7262 7.85827 15.3554 6.48661 13.6646 6.48661H12.8787" stroke="#0768F6" stroke-width="1.5" stroke-linecap="round" stroke-linejoin="round"/>
<path fill-rule="evenodd" clip-rule="evenodd" d="M9.01782 0.825371V10.8595Z" fill="white"/>
<path d="M9.01782 0.825371V10.8595" stroke="#0768F6" stroke-width="1.5" stroke-linecap="round" stroke-linejoin="round"/>
<path fill-rule="evenodd" clip-rule="evenodd" d="M6.58857 3.26559L9.01774 0.825594L11.4477 3.26559" fill="white"/>
<path d="M6.58857 3.26559L9.01774 0.825594L11.4477 3.26559" stroke="#0768F6" stroke-width="1.5" stroke-linecap="round" stroke-linejoin="round"/>
</svg>
