<svg width="256" height="229" viewBox="0 0 256 229" fill="none" xmlns="http://www.w3.org/2000/svg">
<path d="M128 228.267C198.692 228.267 256 196.266 256 156.791C256 117.315 198.692 85.3142 128 85.3142C57.3076 85.3142 0 117.315 0 156.791C0 196.266 57.3076 228.267 128 228.267Z" fill="#F5F5F5"/>
<path d="M50.91 183.865C65.9413 183.865 78.1266 176.829 78.1266 168.15C78.1266 159.472 65.9413 152.436 50.91 152.436C35.8787 152.436 23.6934 159.472 23.6934 168.15C23.6934 176.829 35.8787 183.865 50.91 183.865Z" fill="#E0E0E0"/>
<path d="M59.8214 152.185C59.7689 148.588 61.5126 127.054 61.5126 127.054L50.793 132.159C51.8434 145.205 52.731 151.429 52.6995 152.485C52.6463 152.655 52.6198 152.832 52.6207 153.01C52.5104 155.384 55.2468 156.818 57.3949 158.519C59.2046 160.018 61.1372 161.362 63.1723 162.537C64.7479 163.383 67.9832 163.63 68.4244 162.668C65.8404 160.568 62.8466 158.293 60.8246 155.956C59.8739 154.811 59.8634 154.685 59.8214 152.185Z" fill="#9E6767"/>
<path d="M72.8833 165.457C73.0198 165.457 73.1564 166.917 72.3581 167.49C71.4652 168.146 68.8811 169.17 65.5618 168.582C62.2424 167.994 60.4987 166.891 59.1962 165.778C57.8937 164.664 56.1132 163.041 54.6163 162.626C53.2298 162.253 51.7329 161.576 51.3022 161.135C50.8715 160.693 51.0291 158.866 51.0291 158.866L72.8833 165.457Z" fill="black"/>
<path d="M62.9929 156.88C62.7881 156.66 62.5885 156.439 62.3994 156.218C61.9022 155.62 61.5098 154.942 61.2387 154.212C61.0977 153.906 60.9732 153.592 60.8658 153.272C60.7502 152.831 60.6872 152.369 60.5979 151.922C60.5594 151.703 60.4996 151.489 60.4194 151.281C60.3701 151.143 60.2681 151.03 60.1357 150.966C60.0542 150.95 59.9704 150.95 59.8889 150.966C58.6376 151.007 57.4065 151.293 56.2649 151.807C55.9655 151.943 55.7397 152.106 55.7029 152.442C55.7308 152.831 55.6753 153.221 55.5401 153.587C55.5114 153.655 55.4641 153.713 55.4036 153.755C55.3593 153.78 55.3096 153.792 55.2591 153.792C55.2086 153.792 55.1589 153.78 55.1147 153.755C55.0244 153.705 54.9485 153.633 54.8941 153.545C54.5632 153.078 54.4844 152.453 54.1063 152.017C53.8964 151.788 53.6182 151.633 53.3132 151.576C53.1661 151.544 52.6672 151.534 52.6357 151.323L52.5411 150.352C52.5411 150.352 52.2418 150.21 52.0474 150.788C51.9107 151.388 51.8332 152 51.8163 152.615C51.7533 153.282 51.664 153.802 51.5485 154.464C51.4067 155.252 51.2754 156.04 51.1493 156.828C50.9655 157.583 50.893 158.362 50.934 159.139C50.9723 159.481 51.1394 159.797 51.4014 160.021C51.7982 160.419 52.2646 160.741 52.7775 160.972C53.4708 161.308 54.1956 161.581 54.9099 161.88C56.5863 162.681 58.135 163.725 59.5055 164.979C61.5189 166.534 63.9099 167.526 66.4331 167.852C69.7524 168.073 72.1474 167.138 72.8669 166.035C72.9825 165.268 73.0823 164.459 72.7619 163.892C71.7115 162.022 69.1747 161.266 67.1684 160.137C66.296 159.622 65.459 159.05 64.6631 158.424C64.0649 157.956 63.5063 157.44 62.9929 156.88Z" fill="#37474F"/>
<path d="M61.0704 161.734C61.1297 161.769 61.1991 161.784 61.2676 161.775C61.3361 161.766 61.3998 161.735 61.4486 161.686C62.8982 160.263 65.6503 159.417 66.5537 159.743C66.5537 159.743 66.4434 159.302 65.5032 159.034C65.5032 159.034 63.0925 158.803 60.708 161.067C60.6739 161.1 60.648 161.14 60.6321 161.185C60.6162 161.23 60.6108 161.278 60.6164 161.325C60.622 161.372 60.6384 161.418 60.6643 161.457C60.6902 161.497 60.7249 161.531 60.7658 161.555L61.0704 161.734Z" fill="#FAFAFA"/>
<path d="M64.2845 158.099C63.2866 157.721 60.8706 158.782 59.6784 159.943C59.6304 159.994 59.5652 160.025 59.4954 160.031C59.4255 160.037 59.356 160.017 59.3002 159.974L59.0009 159.748C58.968 159.722 58.9414 159.688 58.9232 159.65C58.905 159.612 58.8955 159.57 58.8955 159.528C58.8955 159.486 58.905 159.444 58.9232 159.406C58.9414 159.368 58.968 159.334 59.0009 159.307C59.6731 158.688 61.6269 157.107 63.4862 157.364C63.4652 157.364 64.211 157.732 64.2845 158.099Z" fill="#FAFAFA"/>
<path d="M62.3984 156.219C61.6788 156.056 59.7723 156.455 58.1966 157.695C58.1659 157.719 58.1305 157.735 58.0927 157.744C58.0548 157.753 58.0156 157.753 57.9776 157.745C57.9397 157.737 57.9039 157.721 57.8728 157.698C57.8417 157.675 57.816 157.645 57.7975 157.611L57.6609 157.338C57.6319 157.284 57.6229 157.222 57.6354 157.162C57.6479 157.103 57.6811 157.049 57.7292 157.012C58.2544 156.581 60.1189 155.274 61.8626 155.505C62.1012 155.691 62.2861 155.938 62.3984 156.219Z" fill="#FAFAFA"/>
<path d="M68.3963 160.746C64.2524 161.623 62.6557 164.275 61.8994 166.455C63.3175 167.176 64.8521 167.64 66.432 167.826C69.7514 168.046 72.1463 167.111 72.8659 166.009C72.9814 165.242 73.0812 164.433 72.7608 163.866C71.9258 162.364 70.1138 161.581 68.3963 160.746Z" fill="#FAFAFA"/>
<path d="M42.8728 136.902L32.8937 135.489C33.0513 140.741 32.7099 147.747 32.4788 153.645C32.199 154.931 32.1475 156.255 32.3265 157.558C32.5313 158.693 30.7509 166.786 31.2761 169.15C32.0324 172.7 37.5786 171.592 37.8097 169.449C38.0408 167.306 38.7026 163.015 39.4274 157.369C40.0104 152.537 42.8255 137.238 42.8728 136.902Z" fill="#9E6767"/>
<path d="M39.0798 170.793L35.7551 163.372C34.8255 162.846 33.7226 161.796 32.6879 162.374C32.3232 162.558 31.9856 162.791 31.6847 163.067C30.9127 163.834 30.8391 164.942 30.6343 165.94C30.4295 166.938 29.6942 167.852 29.5366 168.886C29.2372 170.835 29.1585 172.069 29.6784 173.86C30.1984 175.651 31.9421 176.665 33.6805 177.174C35.1354 177.6 36.9841 177.211 37.793 175.971C38.7961 174.412 39.0115 172.888 39.0798 170.793Z" fill="black"/>
<path d="M39.037 170.725C37.6977 168.918 31.227 168.272 29.415 169.895C29.415 169.659 29.4623 169.401 29.4938 169.134C29.6805 167.366 30.0556 165.622 30.6125 163.934C30.9617 162.879 31.2304 161.799 31.4161 160.704C31.5579 159.575 31.726 157.232 31.7995 156.434C31.8205 155.646 31.8942 154.859 32.0201 154.081C32.0779 153.85 32.1462 153.556 32.4508 153.645C32.4508 153.645 32.4508 154.034 32.4035 154.27C32.3562 154.506 32.3667 154.753 32.351 154.958C32.309 155.441 32.309 155.877 32.3037 156.366C32.2903 156.552 32.3117 156.739 32.3667 156.917C32.3821 156.958 32.4096 156.993 32.4455 157.017C32.5821 157.075 32.5716 156.754 32.5821 156.691L32.7974 155.489C32.8012 155.425 32.8251 155.364 32.8657 155.315C32.9014 155.28 32.9445 155.253 32.9917 155.236C34.0054 154.843 34.7565 154.506 35.8016 154.68C36.3838 154.766 36.9569 154.905 37.5138 155.095C37.9183 155.236 38.6378 155.462 38.8636 155.856C38.947 156.048 38.9655 156.262 38.9162 156.465C38.8584 156.991 38.7849 157.616 38.7061 158.225C38.6168 158.96 39.5517 156.497 39.7092 155.105C40.0979 155.194 40.0506 155.63 39.7092 157.28C39.3017 159.351 39.035 161.448 38.9109 163.556C38.8164 165.237 38.8164 166.922 38.9109 168.603C38.9844 169.349 39.0265 170.042 39.037 170.725Z" fill="#37474F"/>
<path d="M31.6072 166.649C33.6755 166.396 35.7744 166.613 37.7469 167.285C37.7736 167.296 37.8026 167.301 37.8315 167.298C37.8604 167.295 37.8881 167.285 37.9121 167.269C37.9361 167.253 37.9557 167.231 37.9691 167.205C37.9824 167.179 37.9891 167.151 37.9885 167.122V166.549C37.9883 166.517 37.9787 166.485 37.9611 166.458C37.9434 166.431 37.9182 166.41 37.8887 166.397C35.9167 165.558 33.7333 165.351 31.6387 165.803C31.6028 165.811 31.57 165.828 31.5447 165.855C31.5193 165.881 31.5026 165.914 31.4969 165.951L31.4181 166.476C31.4171 166.5 31.4215 166.524 31.4309 166.547C31.4403 166.57 31.4545 166.59 31.4725 166.606C31.4905 166.623 31.5118 166.635 31.5351 166.643C31.5584 166.65 31.583 166.652 31.6072 166.649Z" fill="#FAFAFA"/>
<path d="M32.2097 163.803C34.0707 163.538 35.9688 163.795 37.6929 164.544C37.718 164.555 37.7455 164.56 37.7729 164.558C37.8003 164.556 37.8268 164.547 37.8501 164.533C37.8734 164.518 37.8928 164.498 37.9066 164.475C37.9204 164.451 37.9282 164.424 37.9293 164.397V163.871C37.9283 163.841 37.9184 163.811 37.9006 163.785C37.8829 163.76 37.8582 163.741 37.8295 163.73C37.3358 163.509 35.5921 162.469 32.2359 163.031C32.2014 163.035 32.169 163.05 32.1435 163.073C32.1179 163.097 32.1007 163.128 32.0941 163.162L32.0206 163.624C32.0198 163.649 32.0242 163.674 32.0335 163.696C32.0428 163.719 32.0569 163.74 32.0748 163.756C32.0927 163.773 32.114 163.786 32.1372 163.794C32.1605 163.802 32.1852 163.805 32.2097 163.803Z" fill="#FAFAFA"/>
<path d="M32.7254 161.203C34.4664 160.934 36.2482 161.173 37.8568 161.891C37.881 161.902 37.9074 161.906 37.9337 161.904C37.96 161.901 37.9853 161.893 38.0072 161.878C38.0292 161.863 38.0471 161.843 38.0594 161.82C38.0716 161.797 38.0778 161.77 38.0774 161.744V161.219C38.0753 161.19 38.0654 161.162 38.0488 161.138C38.0322 161.114 38.0094 161.095 37.9828 161.082C37.5259 160.867 35.882 159.869 32.7307 160.436C32.6977 160.441 32.6672 160.457 32.6436 160.481C32.62 160.504 32.6045 160.535 32.5994 160.568L32.5311 161.014C32.5262 161.04 32.5278 161.068 32.5359 161.093C32.5441 161.119 32.5584 161.142 32.5776 161.161C32.5968 161.179 32.6204 161.193 32.6462 161.2C32.672 161.208 32.6992 161.209 32.7254 161.203Z" fill="#FAFAFA"/>
<path d="M29.4317 169.916C29.3739 171.676 29.5262 172.873 30.4506 174.186C31.627 175.867 35.9758 177.438 37.8508 174.948C38.7805 173.708 38.9958 172.259 39.0798 170.794C37.8456 168.934 31.2279 168.267 29.4317 169.916Z" fill="#FAFAFA"/>
<path d="M35.2896 79.9155C33.8872 91.2339 34.0606 104.858 33.6194 112.153C33.1782 119.448 32.3641 124.406 32.2748 129.958C32.1225 139.344 32.4114 149.559 32.4114 149.559C32.4114 149.559 36.361 151.812 40.8148 150.331C40.8148 150.331 44.5333 131.339 45.484 125.488C46.8443 117.153 48.6352 102.337 48.6352 102.337L50.2739 118.093C49.5463 121.999 49.3818 125.99 49.7855 129.942C50.1951 133.619 51.9441 147.069 51.9441 147.069C53.3218 147.613 54.802 147.848 56.2803 147.757C57.7586 147.667 59.199 147.252 60.4998 146.544C60.4998 146.544 62.8055 120.809 62.9946 117.411C63.273 112.626 63.5776 76.9691 63.5198 72.8882L35.2896 79.9155Z" fill="#455A64"/>
<path d="M48.6221 102.316L49.8773 93.9126C49.8773 93.9126 55.5391 92.337 57.9394 88.5239C56.3637 93.2141 51.1431 95.2939 51.1431 95.2939L49.3521 103.451L50.266 118.072L48.6221 102.316Z" fill="#37474F"/>
<path d="M56.6962 41.9475C61.1658 42.6513 62.6311 44.1902 64.2173 47.977C66.9169 54.4319 69.5377 60.7975 69.5377 60.7975L81.8855 65.7345L80.7983 73.6127C80.7983 73.6127 71.3129 71.6694 65.7351 70.1935C64.1595 69.7681 63.587 68.7597 62.8097 67.6147C62.1689 66.6799 56.0449 55.2775 56.0449 55.2775L56.6962 41.9475Z" fill="#263238"/>
<path d="M62.7511 52.2102C61.5956 46.2542 61.0599 43.6124 57.1891 42.2836C53.3182 40.9548 46.6848 41.0074 46.6848 41.0074C44.689 41.5326 38.4599 43.0242 35.7446 43.833C33.0292 44.6418 33.5912 50.9549 34.2214 54.9833C34.9845 59.584 35.4686 64.2266 35.671 68.8857C35.566 75.3039 34.9882 79.6369 34.7361 83.3081C40.5135 86.9846 57.4202 86.3334 63.5494 82.6411C63.6912 79.5896 63.7385 71.5381 63.686 67.5885C63.5862 60.1777 63.2343 54.7207 62.7511 52.2102Z" fill="#37474F"/>
<path d="M37.61 43.1345C35.3043 43.5337 32.3894 44.185 31.0816 46.2858C30.1362 47.8089 25.1204 59.5895 25.2465 64.3899C27.1688 69.8364 37.1006 59.8416 37.1006 59.8416C38.2455 53.3447 39.6531 46.5852 37.61 43.1345Z" fill="#263238"/>
<path d="M58.9642 17.8199C57.5023 16.2765 55.5808 15.2467 53.4862 14.8839C51.4071 14.4867 49.2635 14.5875 47.2309 15.178C44.8779 15.8713 42.3516 17.8934 42.1993 20.7768C41.0754 21.0342 40.2508 22.1844 39.9724 23.5447C39.5417 25.6456 40.2088 27.904 40.9756 29.8053C40.9756 29.8053 43.5124 34.3746 43.9851 35.3253C44.5103 36.4335 44.9252 37.3578 44.9252 37.3578L44.7834 33.8862C46.1614 33.8571 47.5284 33.6325 48.8433 33.2192C50.1479 32.7493 51.4126 32.175 52.6248 31.5017C55.0246 30.1364 57.2943 28.5542 59.4053 26.7748C60.6081 25.7926 60.8287 24.6739 60.8864 23.1561C60.9397 22.1832 60.797 21.2095 60.4668 20.2929C60.1366 19.3762 59.6256 18.5353 58.9642 17.8199Z" fill="#263238"/>
<path d="M47.7612 21.4858C47.436 22.9508 46.6411 24.2694 45.4975 25.2411C45.7496 26.6291 45.7638 28.0499 45.5395 29.4428C45.487 29.7415 45.3764 30.027 45.2139 30.2831C45.1291 30.409 45.0181 30.515 44.8885 30.5939C44.7588 30.6728 44.6136 30.7227 44.4628 30.74C44.0584 30.74 43.8956 30.5142 43.7748 30.2148C43.5988 29.8068 43.397 29.4103 43.1708 29.0278C43.0728 28.86 42.9546 28.7048 42.8189 28.5657C42.2097 27.9879 40.3872 27.2684 39.5153 29.2012C38.6435 31.134 40.1928 33.8913 41.6582 34.322C44.1897 35.0678 44.7622 33.3451 44.7622 33.3451L45.1246 42.4156C46.4849 43.8757 51.7265 46.0133 53.2024 47.7412C53.8957 46.591 55.4346 44.674 54.0585 42.1214V39.154C55.0643 39.2045 56.0725 39.1375 57.0627 38.9544C58.381 38.7181 59.6573 37.5311 60.277 35.5458C61.4798 31.6697 60.881 26.3282 60.4241 23.9228C60.1877 22.4629 59.5348 21.1024 58.5438 20.0047C58.497 19.9535 58.439 19.9139 58.3744 19.8888C58.3097 19.8637 58.2402 19.8538 58.1711 19.8599C58.1021 19.866 58.0353 19.8879 57.9761 19.9239C57.9168 19.96 57.8667 20.0092 57.8295 20.0677C57.496 20.5096 57.0747 20.8777 56.592 21.1489C56.1093 21.42 55.5758 21.5884 55.0249 21.6433C53.4492 21.8534 50.8915 21.4438 48.9639 20.8187C48.8413 20.7764 48.7111 20.7603 48.5819 20.7716C48.4527 20.7828 48.3273 20.8212 48.2138 20.8841C48.1004 20.947 48.0014 21.0331 47.9235 21.1368C47.8455 21.2404 47.7902 21.3593 47.7612 21.4858Z" fill="#9E6767"/>
<path d="M54.059 39.1386C51.7166 38.8917 49.2691 38.4925 47.9613 37.7835C47.1127 37.3447 46.4074 36.6722 45.9287 35.8455C45.9287 35.8455 46.0285 36.7803 47.268 38.0356C48.6651 39.4484 54.059 40.0314 54.059 40.0314V39.1386Z" fill="#874C4C"/>
<path d="M51.6574 28.2769C51.6533 28.4352 51.6027 28.5888 51.5121 28.7187C51.4214 28.8486 51.2946 28.949 51.1474 29.0074C51.0002 29.0659 50.8391 29.0798 50.684 29.0475C50.5289 29.0153 50.3868 28.9382 50.2751 28.8258C50.1635 28.7135 50.0873 28.5708 50.056 28.4155C50.0247 28.2603 50.0397 28.0992 50.0991 27.9524C50.1584 27.8056 50.2596 27.6794 50.3901 27.5896C50.5205 27.4997 50.6745 27.4502 50.8328 27.447C51.052 27.4484 51.2617 27.5365 51.4162 27.6919C51.5707 27.8474 51.6574 28.0577 51.6574 28.2769Z" fill="#263238"/>
<path d="M57.0635 24.0333C57.9063 24.1727 58.7049 24.5072 59.3954 25.0102C59.5204 24.6913 59.5169 24.3364 59.3857 24.0201C59.2544 23.7037 59.0057 23.4505 58.6916 23.3138C58.5378 23.2507 58.3729 23.2193 58.2066 23.2215C58.0404 23.2238 57.8764 23.2596 57.7243 23.3268C57.5722 23.394 57.4353 23.4912 57.3218 23.6126C57.2082 23.734 57.1204 23.8771 57.0635 24.0333Z" fill="#263238"/>
<path d="M51.6224 33.03L54.511 33.8546C54.4658 34.048 54.3821 34.2302 54.2648 34.3904C54.1475 34.5506 53.9991 34.6855 53.8284 34.787C53.6578 34.8885 53.4684 34.9546 53.2716 34.9812C53.0749 35.0077 52.8748 34.9944 52.6833 34.9418C52.2935 34.8223 51.9651 34.5564 51.7673 34.1999C51.5694 33.8434 51.5175 33.424 51.6224 33.03Z" fill="#874C4C"/>
<path d="M51.8997 33.6975C52.23 33.7229 52.5395 33.8683 52.7698 34.1064C53.0001 34.3444 53.1353 34.6586 53.1497 34.9895C52.9924 34.9972 52.8348 34.9813 52.6823 34.9423C52.4152 34.8531 52.1769 34.6941 51.9922 34.4816C51.8075 34.2692 51.683 34.0111 51.6318 33.7343C51.7197 33.7135 51.8094 33.7011 51.8997 33.6975Z" fill="#F28F8F"/>
<path d="M51.1971 26.0182C50.3643 26.1696 49.6093 26.6037 49.0595 27.2472C48.978 27.1101 48.9248 26.958 48.9029 26.8C48.881 26.6421 48.8909 26.4813 48.932 26.3272C48.9731 26.1731 49.0446 26.0287 49.1423 25.9026C49.2399 25.7765 49.3618 25.6711 49.5007 25.5928C49.7835 25.4304 50.1183 25.3841 50.4347 25.4634C50.751 25.5427 51.0243 25.7416 51.1971 26.0182Z" fill="#263238"/>
<path d="M58.8165 27.646C58.8134 27.8056 58.7634 27.9608 58.6727 28.0922C58.5821 28.2237 58.4548 28.3256 58.3067 28.3852C58.1586 28.4449 57.9963 28.4597 57.8398 28.4277C57.6834 28.3958 57.5398 28.3186 57.4269 28.2057C57.314 28.0928 57.2368 27.9492 57.2049 27.7928C57.173 27.6364 57.1878 27.474 57.2474 27.3259C57.3071 27.1778 57.409 27.0505 57.5404 26.9599C57.6718 26.8693 57.827 26.8193 57.9866 26.8162C58.2067 26.8162 58.4178 26.9036 58.5734 27.0592C58.7291 27.2148 58.8165 27.4259 58.8165 27.646Z" fill="#263238"/>
<path d="M53.9902 26.0979L54.5154 32.0748L57.4777 31.1662C56.684 29.2506 55.4957 27.5237 53.9902 26.0979Z" fill="#874C4C"/>
<path d="M53.202 47.7256C52.1516 47.0848 50.1137 45.5827 49.0948 46.8695C48.0759 48.1562 47.3249 49.6583 46.579 49.4325C45.8332 49.2067 43.3857 46.8695 42.4614 44.8526C41.9952 43.7487 41.7525 42.5635 41.7471 41.3652C41.7471 41.3652 42.6347 40.3883 43.37 39.632C44.1841 38.7917 44.3206 38.5816 44.9456 38.5291L45.0297 40.7665C45.0982 41.2104 45.2542 41.6363 45.4886 42.0195C45.723 42.4027 46.0312 42.7355 46.3952 42.9986C48.2335 44.3274 51.8942 44.8054 53.202 47.7256Z" fill="#263238"/>
<path d="M53.2021 47.7253C53.8219 47.1686 54.6885 45.6665 55.6864 45.9606C56.6843 46.2547 57.656 48.2295 57.6875 47.6938C57.719 47.1581 56.8314 44.3167 56.0015 42.7463C55.366 41.5383 54.7253 40.4721 54.0583 40.3513V42.1055C54.0583 42.1055 54.0583 43.6234 53.9847 44.532C53.9455 45.6388 53.6792 46.7258 53.2021 47.7253Z" fill="#263238"/>
<path d="M37.4932 47.3773C38.4934 46.1248 39.2343 44.6857 39.6728 43.144C40.1192 41.3478 41.5373 39.6934 42.0205 39.0158C42.5037 38.3383 43.5436 37.3352 44.3367 36.3898C45.1298 35.4444 45.3871 35.166 46.5058 34.9769C48.0815 34.7091 49.3052 34.4517 49.9197 34.6513C50.5342 34.8509 50.5132 35.2396 49.9828 35.7805C49.4523 36.3215 48.3231 36.458 47.9764 36.5631C47.6298 36.6681 46.863 37.0043 46.863 37.0043L45.4081 39.1419C46.406 39.312 47.3906 39.5524 48.3546 39.8614C48.8378 40.124 49.2527 41.3688 49.0374 42.0621C49.0374 42.0621 49.9407 42.6713 49.5626 43.5589C49.5626 43.5589 50.1141 44.2785 49.7359 44.872C49.3087 45.4668 48.8173 46.0128 48.2706 46.5001C47.9712 46.7575 46.7842 46.8205 46.7842 46.8205C46.2609 47.6178 45.6358 48.3434 44.9249 48.9792C44.0794 49.6042 43.5279 49.5621 42.6035 50.8752L37.4932 47.3773Z" fill="#9E6767"/>
<path d="M46.5166 39.3519C47.0996 39.0998 47.2309 38.7059 47.7824 38.916C48.3338 39.1261 48.1185 39.7511 48.1185 39.7511L46.5166 39.3519Z" fill="#874C4C"/>
<path d="M49.0235 42.1039C48.6592 41.7961 48.2567 41.5366 47.826 41.3318C47.4216 41.1323 46.5918 40.8381 46.5918 40.8381C47.1794 40.8877 47.7563 41.024 48.304 41.2426C48.5843 41.3511 48.8534 41.4865 49.1076 41.647C49.1059 41.7837 49.0865 41.9197 49.0498 42.0514L49.0235 42.1039Z" fill="#874C4C"/>
<path d="M49.101 42.9394C49.2962 43.0211 49.4857 43.1159 49.6682 43.223C49.6531 43.3594 49.6213 43.4934 49.5737 43.6222C49.1135 43.2044 48.579 42.8766 47.998 42.6558C48.3753 42.708 48.7453 42.8032 49.101 42.9394Z" fill="#874C4C"/>
<path d="M46.5918 47.141C46.9299 46.4597 47.3327 45.8125 47.7945 45.2082C47.9434 45.0407 48.1501 44.9357 48.3732 44.9142C48.5963 44.8928 48.8192 44.9566 48.9973 45.0927C49.1496 45.329 48.3513 45.2975 48.1202 45.4026C47.5232 45.8989 47.0075 46.4854 46.5918 47.141Z" fill="#874C4C"/>
<path d="M44.7354 39.0684C44.7354 39.0684 45.187 38.4329 45.9906 37.4192C46.7942 36.4056 46.7522 36.5526 47.5347 36.4003C48.3173 36.248 49.8037 35.9801 50.2028 35.5127C50.1359 35.6039 50.0622 35.69 49.9822 35.77C49.457 36.2953 48.3226 36.4476 47.9759 36.5526C47.6293 36.6577 46.8625 36.9938 46.8625 36.9938L45.3656 39.1944L44.7354 39.0684Z" fill="#874C4C"/>
<path d="M37.4933 47.3772C34.8619 50.5547 27.7663 58.1704 26.1066 61.2324C24.9722 63.3332 24.6885 68.223 25.844 69.9982C26.9995 71.7734 30.3136 71.0486 32.9974 68.6746C35.3084 66.6421 37.2412 61.7523 38.9218 58.2701C40.6025 54.788 42.5983 50.8646 42.5983 50.8646L37.4933 47.3772Z" fill="#9E6767"/>
<path d="M37.4932 47.3771C38.0958 46.5729 38.6232 45.7149 39.0688 44.8141C39.2827 44.3603 39.4583 43.8895 39.594 43.4065C39.7081 42.9146 39.8681 42.4346 40.072 41.9727C40.5142 41.0664 41.0531 40.2106 41.6791 39.4201C42.2753 38.6113 42.9264 37.8445 43.6277 37.1249C43.9691 36.7573 44.2894 36.3739 44.6098 35.9852C44.9146 35.5679 45.3344 35.2485 45.8178 35.0661C46.3067 34.9361 46.8031 34.8361 47.3042 34.7667C47.7979 34.6827 48.2916 34.5934 48.7958 34.5409C49.0483 34.5093 49.3031 34.4988 49.5573 34.5094C49.8259 34.5101 50.0878 34.5926 50.3084 34.7457C50.3674 34.7916 50.4134 34.852 50.442 34.9211C50.4705 34.9902 50.4806 35.0655 50.4712 35.1396C50.4483 35.2761 50.3944 35.4055 50.3136 35.5178C50.1639 35.7292 49.9727 35.9079 49.7517 36.043C49.3027 36.2874 48.8165 36.456 48.3126 36.5419C47.8292 36.6712 47.3596 36.8471 46.9103 37.0672L46.947 37.0409L45.4869 39.1733L45.4449 39.0682C46.3378 39.2468 47.2306 39.4149 48.1077 39.6827C48.2211 39.7159 48.3303 39.7617 48.4334 39.8193C48.5368 39.8851 48.626 39.9708 48.696 40.0714C48.8292 40.2635 48.9336 40.474 49.0059 40.6964C49.1736 41.1351 49.2119 41.6127 49.1162 42.0725V42.0094C49.3607 42.1831 49.5547 42.4188 49.6781 42.6922C49.7394 42.8311 49.7699 42.9816 49.7674 43.1334C49.7685 43.2845 49.74 43.4344 49.6834 43.5746V43.522C49.8259 43.6951 49.922 43.9018 49.9624 44.1223C50.0029 44.3429 49.9864 44.5701 49.9145 44.7826C49.6869 45.1507 49.4192 45.4924 49.1162 45.8015C48.9691 45.959 48.822 46.1113 48.6645 46.2637C48.5199 46.4301 48.3406 46.5627 48.1393 46.6523C47.7239 46.7729 47.2952 46.8417 46.863 46.8572H46.8945C46.618 47.2632 46.3199 47.6542 46.0016 48.0284C45.6982 48.4223 45.3451 48.7753 44.9512 49.0788C44.5468 49.3677 44.0899 49.5515 43.6907 49.8404C43.3029 50.1353 42.9643 50.4899 42.6875 50.8908C42.9377 50.469 43.2533 50.0896 43.6224 49.7668C44.0163 49.4727 44.4733 49.2784 44.8672 48.9843C45.2621 48.6819 45.6153 48.3287 45.9176 47.9338C46.2279 47.5548 46.5189 47.1604 46.7895 46.7521C47.2145 46.7304 47.6357 46.6599 48.0447 46.542C48.2345 46.4578 48.4019 46.33 48.5332 46.1691C48.6855 46.0221 48.8378 45.8697 48.9796 45.7122C49.2743 45.4088 49.5349 45.0742 49.7569 44.7143C49.819 44.5182 49.8308 44.3096 49.7914 44.1077C49.7519 43.9059 49.6624 43.7171 49.5311 43.5588V43.5325C49.5787 43.403 49.6036 43.2662 49.6046 43.1281C49.6029 42.9909 49.5744 42.8553 49.5206 42.729C49.4031 42.4755 49.2222 42.2566 48.9954 42.0935H48.9638V42.0514C49.0529 41.6157 49.0146 41.1635 48.8535 40.7489C48.7012 40.3392 48.4859 39.9033 48.029 39.8193C47.1624 39.5619 46.2642 39.3939 45.4029 39.2205H45.2979L45.3556 39.1312L46.8052 36.9936C47.2614 36.7727 47.7381 36.5967 48.2285 36.4684C48.7159 36.3842 49.1873 36.2248 49.6256 35.9957C49.838 35.8624 50.0175 35.6829 50.1508 35.4705C50.2926 35.2814 50.3609 35.0293 50.1508 34.8928C49.7181 34.673 49.2225 34.6099 48.7485 34.7142C48.2233 34.7667 47.7559 34.8455 47.2622 34.9295C46.7686 34.9979 46.2794 35.0944 45.7968 35.2184C45.3327 35.3914 44.9293 35.6963 44.6361 36.0955C44.3157 36.4789 43.9901 36.8676 43.6487 37.2352C42.9412 37.9465 42.2865 38.7083 41.6896 39.5147C41.0644 40.2963 40.5255 41.1434 40.0825 42.0409C39.8728 42.4967 39.7074 42.9716 39.5888 43.459C39.4536 43.9421 39.2779 44.413 39.0636 44.8666C38.6159 45.7485 38.0903 46.5887 37.4932 47.3771Z" fill="#874C4C"/>
<path d="M88.6175 55.2778L67.4881 63.072L62.0049 88.4294L62.4881 88.9283L82.567 81.0974L89.1007 55.7715L88.6175 55.2778Z" fill="#9FBFED"/>
<path opacity="0.25" d="M88.6175 55.2778L67.4881 63.072L62.0049 88.4294L62.4881 88.9283L82.567 81.0974L89.1007 55.7715L88.6175 55.2778Z" fill="white"/>
<path d="M67.9713 63.5705L62.4881 88.9278L62.0049 88.4289L67.4881 63.0715L67.9713 63.5705Z" fill="#9FBFED"/>
<path opacity="0.35" d="M67.9713 63.5705L62.4881 88.9278L62.0049 88.4289L67.4881 63.0715L67.9713 63.5705Z" fill="black"/>
<path d="M89.1019 55.7717L67.9725 63.5712L62.4893 88.9285L82.5682 81.0976L89.1019 55.7717Z" fill="#9FBFED"/>
<g opacity="0.2">
<path opacity="0.2" d="M79.3379 76.0295C79.5427 76.5232 81.1866 77.6051 83.5396 77.3635L83.9178 75.8982L79.3379 76.0295Z" fill="black"/>
</g>
<g opacity="0.1">
<path opacity="0.1" d="M82.7781 61.0389L82.9409 60.1933C83.0302 59.7206 81.7854 59.9832 80.1625 60.7815L76.3494 61.9947C74.7265 62.7931 73.1982 63.3866 73.0984 63.854L72.9355 64.7049L82.7781 61.0389Z" fill="black"/>
</g>
<path d="M83.9864 57.1889C84.0442 56.8947 83.5558 56.963 82.8835 57.1521L81.665 57.588C81.665 57.588 82.0747 56.1332 79.2648 57.1784C75.667 58.5124 76.0452 59.6784 76.0452 59.6784C75.5492 59.9005 75.0406 60.0934 74.5221 60.2561C73.4716 60.6133 73.3561 60.8233 73.2721 61.1227L73.125 61.6479L83.8814 57.6931C83.8814 57.6931 83.9287 57.483 83.9864 57.1889Z" fill="#37474F"/>
<path d="M82.8707 58.8329C81.8728 59.3003 81.4579 59.5314 81.2951 60.251C81.1323 61.0808 81.1008 61.4222 81.1008 61.4222L75.4967 63.7279C75.4967 63.7279 75.7856 62.5094 75.8539 62.105C75.9222 61.7006 75.1764 61.7058 74.21 62.1732L74.4253 61.1596L83.0808 58.0083L82.8707 58.8329Z" fill="#263238"/>
<path d="M83.0661 61.0494L83.229 60.2038C83.3182 59.7311 82.0787 59.9937 80.4558 60.792L76.6375 62.0052C75.0146 62.7983 73.4862 63.3971 73.3864 63.8645L73.2236 64.7154L83.0661 61.0494Z" fill="#263238"/>
<path d="M86.8628 64.4748C86.8628 64.4748 86.1485 67.2584 85.9594 67.9622C85.7703 68.666 82.3197 70.3204 80.5812 70.5883C77.2566 71.0505 76.9047 71.7805 77.724 74.1335C78.4908 76.3026 80.6757 77.0957 83.6747 76.6966C84.6184 76.5001 85.4928 76.056 86.2082 75.4099C86.9235 74.7638 87.454 73.939 87.7451 73.0201C88.68 70.2207 88.1128 67.2427 88.4752 65.6198C88.8376 63.9969 87.6926 63.4717 86.8628 64.4748Z" fill="#9E6767"/>
<path d="M94.7164 95.4606C94.9843 94.8304 95.6723 94.3734 96.7122 94.2474C97.8585 94.1696 99.0069 94.3647 100.063 94.8167C101.119 95.2686 102.054 95.9644 102.789 96.8472C103.419 97.6823 103.572 98.4963 103.314 99.1266L86.0084 144.358C85.6775 145.314 84.7006 146.002 83.1722 146.191C80.2625 146.543 76.4757 144.931 74.7162 142.588C73.7919 141.359 73.6185 140.172 74.0702 139.274L94.7164 95.4606Z" fill="#455A64"/>
<path d="M102.789 96.8476C104.049 98.523 103.382 100.088 101.302 100.34C100.162 100.415 99.0203 100.221 97.9692 99.7731C96.918 99.3251 95.9871 98.636 95.2518 97.7615C93.9913 96.086 94.6583 94.5209 96.7381 94.2688C97.8784 94.1928 99.0205 94.3867 100.072 94.8347C101.123 95.2828 102.054 95.9724 102.789 96.8476Z" fill="#37474F"/>
<path d="M103.214 82.3308C103.908 82.2839 104.603 82.4023 105.242 82.6762C105.881 82.9502 106.446 83.3718 106.891 83.9064C107.061 84.0871 107.179 84.3101 107.234 84.5521C107.288 84.7942 107.277 85.0464 107.201 85.2825L101.602 98.4128C101.485 98.6315 101.31 98.8147 101.098 98.9431C100.885 99.0715 100.642 99.1405 100.394 99.1429C99.7003 99.1902 99.0051 99.072 98.366 98.798C97.7268 98.5241 97.1618 98.1023 96.7176 97.5673C96.5475 97.3855 96.4292 97.1616 96.3747 96.9188C96.3202 96.6759 96.3316 96.4229 96.4077 96.1859L102.006 83.0556C102.126 82.8386 102.3 82.6571 102.512 82.5298C102.725 82.4024 102.967 82.3338 103.214 82.3308Z" fill="#9FBFED"/>
<path opacity="0.2" d="M103.214 82.3308C103.908 82.2839 104.603 82.4023 105.242 82.6762C105.881 82.9502 106.446 83.3718 106.891 83.9064C107.061 84.0871 107.179 84.3101 107.234 84.5521C107.288 84.7942 107.277 85.0464 107.201 85.2825L101.602 98.4128C101.485 98.6315 101.31 98.8147 101.098 98.9431C100.885 99.0715 100.642 99.1405 100.394 99.1429C99.7003 99.1902 99.0051 99.072 98.366 98.798C97.7268 98.5241 97.1618 98.1023 96.7176 97.5673C96.5475 97.3855 96.4292 97.1616 96.3747 96.9188C96.3202 96.6759 96.3316 96.4229 96.4077 96.1859L102.006 83.0556C102.126 82.8386 102.3 82.6571 102.512 82.5298C102.725 82.4024 102.967 82.3338 103.214 82.3308Z" fill="black"/>
<path opacity="0.2" d="M99.4268 89.1217L99.8154 89.3476L99.8732 89.3843L99.9467 89.4263L100.031 89.4684C100.277 89.6149 100.532 89.7481 100.792 89.8675C101.107 90.0266 101.429 90.1686 101.759 90.293C102.049 90.4187 102.345 90.5292 102.646 90.6238C102.799 90.679 102.955 90.7246 103.114 90.7604C103.284 90.8251 103.46 90.8761 103.639 90.9127C103.818 90.9652 103.98 91.0072 104.164 91.044C104.29 91.0803 104.418 91.1067 104.548 91.1228H104.679L107.184 85.2404C107.26 85.0043 107.272 84.752 107.217 84.51C107.163 84.268 107.044 84.045 106.874 83.8643C106.722 83.668 106.545 83.4915 106.349 83.3391C104.785 83.8181 103.167 84.0952 101.533 84.1637L99.4268 89.1217Z" fill="black"/>
<path opacity="0.15" d="M99.2382 100.187L81.0186 146.112C81.7283 146.231 82.4508 146.254 83.1667 146.18C84.6951 145.991 85.6719 145.303 86.0028 144.347L103.272 99.137C103.004 99.7725 102.316 100.219 101.276 100.345C100.593 100.408 99.9037 100.355 99.2382 100.187Z" fill="black"/>
<path d="M156.162 27.9504C156.162 27.5723 156.13 27.1994 156.099 26.8265C156.067 26.4536 156.057 26.0964 156.02 25.734C156.02 25.4872 155.973 25.2456 155.941 25.004C155.878 24.3737 155.789 23.7487 155.684 23.1552C155.636 22.8821 155.589 22.63 155.537 22.3359C155.484 22.0418 155.432 21.8107 155.374 21.5743C155.216 20.8863 155.048 20.214 154.849 19.568C154.749 19.2634 154.654 18.9588 154.549 18.6594C154.53 18.6137 154.516 18.5662 154.507 18.5176C154.397 18.2182 154.292 17.9346 154.176 17.6562C154.061 17.3779 153.919 16.9997 153.772 16.6951C153.625 16.3905 153.567 16.2382 153.446 16.0176C153.378 15.8505 153.298 15.6889 153.205 15.5344C153.11 15.34 153.01 15.1405 152.895 14.9514C152.873 14.9076 152.849 14.8655 152.821 14.8253C152.727 14.6573 152.627 14.4892 152.527 14.3001C152.427 14.111 152.385 14.0848 152.322 13.9797C151.845 13.2366 151.308 12.534 150.715 11.8789L150.421 11.5427C150.337 11.4482 150.253 11.3642 150.169 11.2801C150.085 11.1961 149.959 11.0648 149.843 10.9545C149.541 10.6447 149.218 10.3552 148.877 10.0879C148.719 9.95135 148.551 9.82004 148.383 9.69924C148.215 9.57845 148.047 9.44714 147.858 9.32634C147.585 9.13201 147.307 8.94819 147.028 8.80113L146.808 8.66457L146.76 8.62781L141.561 5.56581L141.487 5.52379C138.958 4.111 136.102 3.38659 133.205 3.42293C128.887 3.42293 124.013 4.83576 118.845 7.81373C101.103 18.0502 86.7178 42.9401 86.7178 63.4234C86.7178 73.6388 90.2945 80.829 96.0666 84.1957H96.1244L101.334 87.2472L101.392 87.2839L101.466 87.3259C101.497 87.3259 101.524 87.3575 101.55 87.368C101.796 87.5145 102.051 87.6477 102.311 87.7671C102.627 87.9247 102.952 88.0665 103.283 88.1925C103.57 88.3197 103.865 88.4285 104.165 88.5182C104.317 88.5775 104.474 88.6249 104.633 88.66C104.804 88.7247 104.979 88.7757 105.158 88.8123C105.337 88.8648 105.499 88.9068 105.683 88.9436C105.809 88.9774 105.937 89.0037 106.067 89.0224C106.293 89.0697 106.529 89.1169 106.765 89.1432C106.817 89.1643 106.872 89.175 106.928 89.1747C107.201 89.2167 107.485 89.2587 107.758 89.285C112.543 89.8102 118.105 88.4394 124.04 85.0045C141.787 74.7628 156.172 49.8414 156.172 29.3633C156.188 28.9221 156.177 28.4389 156.162 27.9504ZM97.6212 76.2702C96.8831 73.5307 96.5192 70.7039 96.5393 67.8667C96.5393 48.4338 110.72 23.8485 127.553 14.1426C130.011 12.6882 132.664 11.5917 135.431 10.8862C136.756 10.5522 138.115 10.3759 139.481 10.361C140.168 10.3578 140.855 10.4105 141.534 10.5186H141.592C145.032 14.589 145.537 21.1122 145.537 24.5943C145.537 44.0273 131.356 68.6125 114.549 78.3133C110.274 80.7818 106.145 82.0895 102.632 82.0895C101.9 82.0941 101.17 82.0005 100.463 81.8112C99.1492 80.1841 98.1823 78.3056 97.6212 76.2912V76.2702Z" fill="#37474F"/>
<path opacity="0.25" d="M151.565 28.0387C151.565 38.3486 147.557 50.1239 141.281 60.3551C140.987 60.8436 140.682 61.3215 140.372 61.7995C140.062 62.2774 139.847 62.6188 139.569 63.0285C138.975 63.9056 138.382 64.7669 137.757 65.6125C137.463 66.0187 137.163 66.4178 136.859 66.81C136.528 67.2459 136.192 67.6766 135.856 68.102C135.209 68.9161 134.537 69.7092 133.86 70.4813C133.413 71.0065 132.956 71.5054 132.499 71.9939C129.022 75.819 124.997 79.1076 120.556 81.7523C119.752 82.2198 118.98 82.64 118.172 83.0234C115.616 84.3274 112.845 85.1601 109.994 85.4814C109.545 85.527 109.095 85.5498 108.644 85.5497C108.408 85.5497 108.187 85.5497 107.961 85.5497C107.534 85.5333 107.107 85.4894 106.685 85.4184C106.48 85.3868 106.275 85.3553 106.081 85.3081C105.887 85.2608 105.687 85.224 105.493 85.1662C103.502 84.6591 101.733 83.5134 100.456 81.9047C101.162 82.0922 101.89 82.184 102.62 82.1778C106.149 82.1778 110.262 80.8805 114.542 78.412C131.349 68.7113 145.53 44.0997 145.53 24.6878C145.53 21.2004 145.005 14.7087 141.58 10.6121H141.528C145.913 11.3158 148.403 14.2886 149.81 17.7392C150.208 18.7156 150.527 19.7219 150.766 20.7487C150.766 20.8065 150.793 20.859 150.803 20.9168C150.85 21.1006 150.898 21.2897 150.929 21.4787C150.961 21.6678 151.003 21.8411 151.034 22.004C151.038 22.0512 151.038 22.0986 151.034 22.1458C151.071 22.3401 151.108 22.5344 151.139 22.7235C151.25 23.4431 151.339 24.1416 151.397 24.8244C151.397 25.0239 151.433 25.2078 151.444 25.3916C151.454 25.5754 151.444 25.6752 151.475 25.8118C151.475 25.8695 151.475 25.9273 151.475 25.9851C151.475 26.1374 151.475 26.2845 151.502 26.4315C151.504 26.4717 151.504 26.5121 151.502 26.5523C151.502 26.7414 151.502 26.9165 151.502 27.0775C151.565 27.3927 151.565 27.7078 151.565 28.0387Z" fill="black"/>
<path d="M100.888 87.0581L96.0666 84.2219C90.2892 80.8448 86.7178 73.6599 86.7178 63.4602C86.7178 54.3267 89.5802 44.3109 94.3176 35.0986L99.8114 38.2499C95.0844 47.4412 91.9332 57.3467 91.9332 66.4854C91.9227 76.496 95.326 83.5864 100.888 87.0581Z" fill="#263238"/>
<path d="M146.828 8.64802L146.781 8.61126L141.581 5.55451L141.508 5.50724C138.978 4.09376 136.122 3.36931 133.225 3.40638C128.908 3.40638 124.034 4.81921 118.866 7.79717C109.034 13.4747 100.236 23.6639 94.3486 35.1083L99.8161 38.3226L99.6953 38.5485C105.604 27.2354 114.359 17.0147 124.086 10.8644C132.889 5.31816 141.245 5.23938 147.08 8.76357L146.828 8.64802Z" fill="#455A64"/>
<path opacity="0.1" d="M148.772 26.3901C148.772 45.823 134.591 70.4083 117.758 80.1143C115.301 81.5709 112.648 82.6675 109.88 83.3706C108.556 83.7046 107.196 83.8809 105.831 83.8958C104.428 83.9127 103.035 83.6742 101.718 83.192C99.6174 81.4378 98.3674 78.9063 97.6111 76.3012C96.8729 73.5617 96.509 70.7349 96.5291 67.8978C96.5291 48.4649 110.71 23.8796 127.543 14.1736C130.001 12.7192 132.654 11.6227 135.421 10.9173C136.746 10.5833 138.105 10.407 139.471 10.3921C140.872 10.3741 142.266 10.6108 143.583 11.0906C145.684 12.8396 146.934 15.3816 147.69 17.9814C148.429 20.7226 148.793 23.5512 148.772 26.3901Z" fill="#9FBFED"/>
<path opacity="0.3" d="M105.84 83.9059C107.206 83.891 108.565 83.7147 109.89 83.3807C112.658 82.6775 115.311 81.5809 117.768 80.1243C134.575 70.4184 148.782 45.8121 148.782 26.4002C148.802 23.563 148.438 20.7362 147.7 17.9967C146.943 15.4022 145.688 12.8654 143.608 11.1164L143.409 11.0481C143.225 10.9799 143.041 10.9221 142.847 10.8643L142.516 10.775C142.327 10.7225 142.127 10.6857 141.933 10.6437L141.586 10.5754H141.549H141.586C145.032 14.6459 145.536 21.1638 145.536 24.6512C145.536 44.0841 131.355 68.6747 114.548 78.3754C110.268 80.8439 106.145 82.1412 102.626 82.1412C101.896 82.1474 101.168 82.0555 100.462 81.868L100.493 81.9101C100.878 82.3713 101.301 82.7983 101.759 83.1863C103.065 83.6701 104.448 83.9139 105.84 83.9059Z" fill="white"/>
<path d="M187.16 35.6549L163.425 49.3577C162.154 50.0877 161.125 49.3104 161.125 47.614V27.0256C161.125 25.3291 162.175 23.3491 163.425 22.6243L187.16 8.92669C188.431 8.19139 189.46 8.96871 189.46 10.6652V31.2588C189.45 32.9605 188.431 34.9196 187.16 35.6549Z" fill="#FAFAFA"/>
<path d="M162.512 49.8829C162.261 49.8852 162.014 49.8198 161.797 49.6939C161.209 49.3577 160.873 48.6014 160.873 47.593V27.0256C160.873 25.2504 161.965 23.181 163.3 22.409L187.034 8.70613C187.288 8.52872 187.585 8.42375 187.894 8.40247C188.203 8.38119 188.512 8.4444 188.788 8.58533C189.376 8.92671 189.713 9.68302 189.713 10.6862V31.2798C189.713 33.0498 188.625 35.1244 187.286 35.8965L163.557 49.5731C163.242 49.7665 162.881 49.8734 162.512 49.8829ZM188.074 8.91621C187.795 8.92543 187.523 9.00882 187.286 9.15781L163.557 22.8449C162.354 23.5382 161.377 25.4132 161.377 27.0466V47.635C161.377 48.4333 161.624 49.0321 162.05 49.2789C162.25 49.3725 162.471 49.4106 162.691 49.3894C162.911 49.3682 163.121 49.2883 163.3 49.1581L187.034 35.4553C188.231 34.762 189.208 32.8923 189.208 31.2798V10.6652C189.208 9.86685 188.962 9.26811 188.536 9.02125C188.395 8.94255 188.235 8.90268 188.074 8.90571V8.91621Z" fill="#E0E0E0"/>
<path d="M181.956 20.2236L177.113 37.6397L186.798 32.0462L181.956 20.2236Z" fill="#9FBFED"/>
<path opacity="0.3" d="M181.956 20.2236L177.113 37.6397L186.798 32.0462L181.956 20.2236Z" fill="white"/>
<path d="M175.295 19.0269L170.447 41.485L180.137 35.8915L175.295 19.0269Z" fill="#9FBFED"/>
<path d="M168.688 30.6445L163.846 45.298L173.531 39.7097L168.688 30.6445Z" fill="#9FBFED"/>
<path opacity="0.3" d="M168.688 30.6445L163.846 45.298L173.531 39.7097L168.688 30.6445Z" fill="black"/>
<path d="M164.765 25.944L164.003 26.3852C163.914 26.4325 163.846 26.3852 163.846 26.2644V25.0197C163.847 24.9609 163.861 24.9031 163.889 24.8511C163.916 24.799 163.955 24.7542 164.003 24.7203L164.765 24.2791C164.854 24.2266 164.922 24.2791 164.922 24.3999V25.6394C164.922 25.6989 164.907 25.7574 164.88 25.8103C164.852 25.8632 164.813 25.909 164.765 25.944Z" fill="#9FBFED"/>
<path opacity="0.3" d="M164.765 25.944L164.003 26.3852C163.914 26.4325 163.846 26.3852 163.846 26.2644V25.0197C163.847 24.9609 163.861 24.9031 163.889 24.8511C163.916 24.799 163.955 24.7542 164.003 24.7203L164.765 24.2791C164.854 24.2266 164.922 24.2791 164.922 24.3999V25.6394C164.922 25.6989 164.907 25.7574 164.88 25.8103C164.852 25.8632 164.813 25.909 164.765 25.944Z" fill="black"/>
<path d="M164.765 28.3384L164.003 28.7796C163.914 28.8321 163.846 28.7796 163.846 28.6588V27.4193C163.847 27.3598 163.861 27.3012 163.889 27.2484C163.916 27.1955 163.955 27.1497 164.003 27.1147L164.765 26.6577C164.854 26.6104 164.922 26.6577 164.922 26.7785V28.0233C164.924 28.0847 164.911 28.1456 164.883 28.2006C164.856 28.2556 164.815 28.3029 164.765 28.3384Z" fill="#9FBFED"/>
<path d="M164.765 30.7337L164.003 31.1749C163.914 31.2274 163.846 31.1749 163.846 31.0593V29.8093C163.846 29.7503 163.86 29.6923 163.887 29.6401C163.915 29.5879 163.955 29.5432 164.003 29.5099L164.765 29.0687C164.854 29.0162 164.922 29.0687 164.922 29.1843V30.4291C164.923 30.4889 164.909 30.548 164.882 30.6012C164.854 30.6543 164.814 30.6999 164.765 30.7337Z" fill="#9FBFED"/>
<path opacity="0.3" d="M164.765 30.7337L164.003 31.1749C163.914 31.2274 163.846 31.1749 163.846 31.0593V29.8093C163.846 29.7503 163.86 29.6923 163.887 29.6401C163.915 29.5879 163.955 29.5432 164.003 29.5099L164.765 29.0687C164.854 29.0162 164.922 29.0687 164.922 29.1843V30.4291C164.923 30.4889 164.909 30.548 164.882 30.6012C164.854 30.6543 164.814 30.6999 164.765 30.7337Z" fill="white"/>
<path d="M123.498 104.795C123.543 104.774 123.582 104.742 123.613 104.703C123.643 104.664 123.663 104.618 123.672 104.569C123.779 104.141 123.863 103.708 123.924 103.272C123.985 102.859 124.022 102.444 124.034 102.027C124.034 101.922 123.982 101.864 123.908 101.89L123.047 102.153C123.039 101.572 122.947 100.995 122.774 100.441L123.509 99.3905C123.54 99.3498 123.561 99.3027 123.571 99.2527C123.581 99.2026 123.58 99.151 123.567 99.1016C123.352 98.5585 123.014 98.0729 122.579 97.6835C122.527 97.6415 122.443 97.6835 122.38 97.7728L121.65 98.8232C121.299 98.5852 120.887 98.4539 120.463 98.4451L120.641 97.1951C120.641 97.0848 120.615 97.0112 120.547 97.0112C120.254 97.0341 119.965 97.0905 119.685 97.1793C119.377 97.2737 119.078 97.3968 118.793 97.547C118.751 97.5772 118.716 97.6157 118.69 97.6599C118.664 97.7042 118.647 97.7533 118.64 97.8043L118.462 99.0543C117.947 99.3817 117.477 99.7755 117.065 100.226L116.581 99.527C116.539 99.4692 116.455 99.485 116.387 99.5638C115.819 100.237 115.319 100.965 114.895 101.738C114.873 101.781 114.861 101.829 114.861 101.877C114.861 101.926 114.873 101.974 114.895 102.017L115.379 102.71C115.053 103.363 114.787 104.046 114.586 104.748L113.724 105.01C113.679 105.032 113.64 105.063 113.609 105.102C113.578 105.142 113.556 105.187 113.546 105.236C113.441 105.667 113.357 106.097 113.294 106.533C113.236 106.948 113.201 107.365 113.188 107.783C113.188 107.883 113.241 107.941 113.315 107.92L114.176 107.657C114.183 108.235 114.275 108.808 114.449 109.359L113.714 110.409C113.683 110.45 113.662 110.497 113.652 110.547C113.642 110.597 113.643 110.649 113.656 110.698C113.868 111.243 114.206 111.729 114.643 112.116C114.696 112.158 114.78 112.116 114.843 112.032L115.573 110.982C115.923 111.217 116.333 111.348 116.755 111.36L116.581 112.61C116.581 112.715 116.608 112.794 116.676 112.789C116.968 112.768 117.257 112.713 117.537 112.626C117.846 112.53 118.145 112.405 118.43 112.253C118.473 112.224 118.508 112.185 118.535 112.141C118.561 112.097 118.577 112.047 118.582 111.996L118.761 110.746C119.276 110.42 119.746 110.028 120.158 109.58L120.641 110.273C120.683 110.336 120.767 110.32 120.836 110.241C121.404 109.567 121.902 108.837 122.322 108.062C122.345 108.019 122.358 107.971 122.358 107.923C122.358 107.874 122.345 107.826 122.322 107.783L121.839 107.09C122.164 106.438 122.429 105.758 122.632 105.058L123.498 104.795ZM119.071 107.988C116.823 109.737 115.279 107.521 116.476 104.254C116.802 103.307 117.377 102.465 118.141 101.817C120.389 100.063 121.933 102.284 120.736 105.551C120.41 106.499 119.835 107.34 119.071 107.988Z" fill="#E6E6E6"/>
<path d="M130.059 105.062C130.076 105.042 130.088 105.018 130.095 104.993C130.103 104.968 130.104 104.941 130.101 104.915C130.082 104.664 130.047 104.415 129.996 104.169C129.947 103.947 129.879 103.729 129.791 103.518C129.791 103.481 129.733 103.481 129.696 103.518L129.113 104.043C128.982 103.774 128.785 103.543 128.541 103.371L128.846 102.504C128.846 102.447 128.846 102.389 128.846 102.373C128.523 102.203 128.158 102.13 127.795 102.163C127.758 102.163 127.716 102.21 127.695 102.268L127.391 103.135C127.058 103.194 126.74 103.319 126.456 103.502L126.303 102.814C126.302 102.805 126.298 102.797 126.292 102.79C126.286 102.783 126.279 102.778 126.27 102.775C126.262 102.772 126.253 102.771 126.244 102.772C126.235 102.774 126.227 102.777 126.219 102.783C126.008 102.933 125.806 103.096 125.615 103.271C125.411 103.463 125.218 103.666 125.038 103.88C125.019 103.901 125.005 103.925 124.997 103.951C124.989 103.978 124.987 104.005 124.99 104.033L125.143 104.721C124.854 105.093 124.603 105.492 124.392 105.913L123.866 105.813C123.835 105.813 123.788 105.813 123.767 105.892C123.5 106.458 123.293 107.049 123.147 107.657C123.147 107.715 123.147 107.762 123.184 107.767L123.709 107.872C123.617 108.307 123.573 108.751 123.578 109.196L123 109.721C122.979 109.74 122.962 109.763 122.951 109.79C122.94 109.816 122.935 109.845 122.937 109.873C122.952 110.124 122.987 110.373 123.042 110.619C123.09 110.842 123.159 111.06 123.247 111.27C123.247 111.307 123.305 111.307 123.341 111.27L123.924 110.745C124.052 111.016 124.25 111.248 124.497 111.417L124.192 112.289C124.192 112.342 124.192 112.399 124.192 112.415C124.515 112.585 124.879 112.658 125.243 112.625C125.279 112.625 125.321 112.578 125.342 112.52L125.642 111.659C125.976 111.595 126.295 111.468 126.582 111.286L126.734 111.974C126.734 111.984 126.737 111.994 126.742 112.002C126.748 112.01 126.755 112.017 126.765 112.02C126.774 112.024 126.784 112.024 126.794 112.021C126.803 112.019 126.812 112.013 126.818 112.006C127.031 111.857 127.233 111.694 127.422 111.517C127.627 111.327 127.819 111.126 128 110.913C128.035 110.868 128.052 110.812 128.047 110.756L127.895 110.073C128.182 109.698 128.434 109.297 128.646 108.875L129.171 108.98C129.203 108.98 129.25 108.949 129.271 108.896C129.534 108.329 129.742 107.738 129.891 107.132C129.891 107.074 129.891 107.027 129.854 107.021L129.329 106.916C129.42 106.481 129.465 106.037 129.46 105.593L130.059 105.062ZM127.433 108.781C126.23 110.451 124.744 110.115 124.843 108.161C124.899 107.387 125.168 106.643 125.621 106.013C126.829 104.348 128.31 104.684 128.215 106.638C128.161 107.412 127.89 108.154 127.433 108.781Z" fill="#E6E6E6"/>
<path d="M131.749 93.4024C131.771 93.3834 131.787 93.3599 131.798 93.3335C131.809 93.3071 131.814 93.2786 131.812 93.2501C131.797 92.9992 131.761 92.7498 131.707 92.5043C131.659 92.2815 131.59 92.0635 131.503 91.853C131.503 91.8163 131.445 91.8163 131.408 91.853L130.825 92.3782C130.694 92.1093 130.5 91.8766 130.258 91.7007L130.557 90.8394C130.557 90.7816 130.557 90.7238 130.557 90.7081C130.235 90.5379 129.87 90.465 129.507 90.498C129.47 90.498 129.428 90.5452 129.407 90.603L129.108 91.4644C128.774 91.5283 128.455 91.6549 128.167 91.8373L128.015 91.1492C128.013 91.1404 128.01 91.1321 128.004 91.1252C127.998 91.1183 127.99 91.113 127.982 91.1099C127.974 91.1067 127.964 91.1058 127.956 91.1071C127.947 91.1085 127.938 91.1122 127.931 91.1177C127.72 91.2677 127.518 91.4308 127.327 91.6062C127.124 91.7971 126.931 91.9988 126.749 92.2102C126.732 92.232 126.719 92.2573 126.712 92.2845C126.704 92.3116 126.703 92.34 126.707 92.3677L126.86 93.0558C126.568 93.4265 126.314 93.8259 126.103 94.248L125.578 94.143C125.547 94.143 125.505 94.1745 125.478 94.227C125.211 94.7914 125 95.3807 124.848 95.9865C124.848 96.0442 124.848 96.0915 124.885 96.0968L125.41 96.2018C125.318 96.6369 125.274 97.0807 125.279 97.5253L124.701 98.0506C124.68 98.0695 124.663 98.0931 124.652 98.1195C124.641 98.1459 124.636 98.1744 124.638 98.2029C124.653 98.4538 124.689 98.7032 124.743 98.9487C124.792 99.1715 124.86 99.3895 124.948 99.5999C124.948 99.6367 125.006 99.6367 125.042 99.5999L125.625 99.0747C125.757 99.3433 125.954 99.5745 126.198 99.747L125.893 100.619C125.893 100.671 125.893 100.729 125.893 100.745C126.216 100.915 126.581 100.988 126.944 100.955C126.98 100.955 127.022 100.908 127.043 100.85L127.348 99.9886C127.68 99.9221 127.997 99.7958 128.283 99.6157L128.435 100.304C128.437 100.313 128.441 100.321 128.447 100.328C128.453 100.335 128.46 100.34 128.468 100.343C128.477 100.346 128.486 100.347 128.495 100.346C128.504 100.344 128.512 100.341 128.519 100.335C128.733 100.188 128.935 100.025 129.123 99.8468C129.328 99.6571 129.521 99.4554 129.701 99.2428C129.72 99.2214 129.734 99.1963 129.742 99.1691C129.75 99.1419 129.752 99.1133 129.748 99.0852L129.596 98.4025C129.883 98.0277 130.135 97.6268 130.347 97.205L130.872 97.31C130.904 97.31 130.951 97.2785 130.977 97.226C131.239 96.659 131.445 96.068 131.592 95.4612C131.592 95.4035 131.592 95.3562 131.555 95.351L131.03 95.2459C131.122 94.8108 131.166 94.367 131.161 93.9224L131.749 93.4024ZM129.123 97.1209C127.915 98.7911 126.434 98.455 126.529 96.5012C126.584 95.7261 126.855 94.9819 127.311 94.353C128.514 92.6881 130 93.019 129.901 94.9781C129.846 95.7498 129.578 96.4913 129.129 97.1209H129.123Z" fill="#E6E6E6"/>
<path d="M72.491 34.457C72.4018 34.5043 72.3282 34.457 72.3282 34.2994V13.9999C72.3268 13.9335 72.3407 13.8676 72.369 13.8075C72.3972 13.7473 72.439 13.6945 72.491 13.6532C72.5803 13.6007 72.6539 13.6532 72.6539 13.8108V34.1103C72.6545 34.1766 72.6402 34.2422 72.612 34.3022C72.5838 34.3623 72.5425 34.4151 72.491 34.457Z" fill="#E0E0E0"/>
<path d="M93.6519 22.2402L70.5425 35.5754C70.4532 35.6279 70.3849 35.5754 70.3849 35.4178C70.3833 35.3526 70.3966 35.2879 70.4239 35.2288C70.4512 35.1696 70.4918 35.1174 70.5425 35.0764L93.6519 21.7412C93.7412 21.6887 93.8095 21.7412 93.8095 21.8935C93.8115 21.9595 93.7984 22.0251 93.7711 22.0852C93.7437 22.1453 93.703 22.1983 93.6519 22.2402Z" fill="#E0E0E0"/>
<path d="M76.4768 15.4863L73.6406 17.125V31.3793L76.4768 29.7406V15.4863Z" fill="#F5F5F5"/>
<path d="M80.5061 23.0491L77.6699 24.6877V29.0523L80.5061 27.4136V23.0491Z" fill="#EBEBEB"/>
<path d="M84.5334 7.44507L81.6973 9.08374V26.7257L84.5334 25.087V7.44507Z" fill="#F5F5F5"/>
<path d="M88.5627 12.1663L85.7266 13.8049V24.3985L88.5627 22.7598V12.1663Z" fill="#E0E0E0"/>
<path d="M92.5901 13.9475L89.7539 15.5862V22.0726L92.5901 20.4392V13.9475Z" fill="#F5F5F5"/>
<path d="M155.532 64.2786V70.7282L151.635 76.9835C150.254 75.2083 150.658 70.7807 152.817 67.2828C153.469 66.0789 154.4 65.0487 155.532 64.2786Z" fill="#E0E0E0"/>
<path d="M160.859 69.9666C160.082 73.8847 157.377 77.5296 154.714 78.1809C154.258 78.3209 153.773 78.3342 153.311 78.2195C152.848 78.1048 152.425 77.8663 152.088 77.5296L156.032 71.1535L160.859 69.9666Z" fill="#F0F0F0"/>
<path d="M160.957 69.2894L156.314 70.4239L158.941 63.5698C160.563 64.1948 161.367 66.3902 160.957 69.2894Z" fill="#E0E0E0"/>
<path d="M158.431 63.5173L156.078 69.7253V63.9479C156.781 63.5165 157.621 63.3629 158.431 63.5173Z" fill="#F0F0F0"/>
<path d="M189.765 192.846C184.696 192.846 179.633 191.732 175.778 189.505C171.923 187.278 169.906 184.4 169.906 181.28C169.906 178.161 172.007 175.246 175.778 173.061C183.488 168.607 196.036 168.607 203.751 173.061C207.533 175.246 209.618 178.166 209.618 181.28C209.618 184.395 207.517 187.32 203.751 189.505C199.891 191.732 194.828 192.846 189.765 192.846ZM189.765 170.225C184.791 170.225 179.817 171.317 176.03 173.502C172.412 175.603 170.416 178.355 170.416 181.28C170.416 184.206 172.412 186.974 176.03 189.064C183.604 193.434 195.92 193.434 203.494 189.064C207.112 186.963 209.108 184.211 209.108 181.28C209.108 178.35 207.112 175.592 203.494 173.502C199.712 171.317 194.733 170.225 189.765 170.225Z" fill="#9FBFED"/>
<path d="M190.282 177.147V180.445L187.025 171.616V168.323L190.282 177.147Z" fill="#263238"/>
<path d="M190.288 177.146V180.444L203.723 175.78V172.487L190.288 177.146Z" fill="#37474F"/>
<path d="M187.025 168.296L190.287 177.146L203.722 172.488C200.035 169.268 193.648 167.661 187.025 168.296Z" fill="#455A64"/>
<path d="M172.993 177.76C172.991 177.794 172.991 177.829 172.993 177.863V177.76Z" fill="#9FBFED"/>
<path d="M188.95 181.306L186.954 190.691C178.808 189.898 172.925 185.775 172.994 181.07V177.855C172.994 182.524 178.866 186.6 186.959 187.393L188.33 180.943L188.95 181.306Z" fill="#9FBFED"/>
<path opacity="0.4" d="M188.95 181.306L186.954 190.691C178.808 189.898 172.925 185.775 172.994 181.07V177.855C172.994 182.524 178.866 186.6 186.959 187.393L188.33 180.943L188.95 181.306Z" fill="black"/>
<path d="M188.481 187.503V190.801C191.835 191 195.195 190.549 198.376 189.472C202.216 188.138 204.926 186.022 206.008 183.516C206.337 182.791 206.516 182.007 206.533 181.211C206.533 180.901 206.533 177.807 206.533 177.807C206.533 177.807 205.603 177.734 204.516 176.573L202 177.445L190.498 181.415L188.481 187.503Z" fill="#9FBFED"/>
<path opacity="0.6" d="M188.481 187.503V190.801C191.835 191 195.195 190.549 198.376 189.472C202.216 188.138 204.926 186.022 206.008 183.516C206.337 182.791 206.516 182.007 206.533 181.211C206.533 180.901 206.533 177.807 206.533 177.807C206.533 177.807 205.603 177.734 204.516 176.573L202 177.445L190.498 181.415L188.481 187.503Z" fill="white"/>
<path d="M178.456 173.989L188.467 179.766V176.473L178.456 170.696V173.989Z" fill="#9FBFED"/>
<path opacity="0.1" d="M178.456 173.989L188.467 179.766V176.473L178.456 170.696V173.989Z" fill="black"/>
<path d="M173.114 176.668C172.016 181.821 178.177 186.537 186.953 187.398L188.949 178.013L177.368 171.327C174.947 172.84 173.555 174.594 173.114 176.668Z" fill="#9FBFED"/>
<path opacity="0.3" d="M173.114 176.668C172.016 181.821 178.177 186.537 186.953 187.398L188.949 178.013L177.368 171.327C174.947 172.84 173.555 174.594 173.114 176.668Z" fill="black"/>
<path d="M188.539 187.23L188.481 187.503C191.836 187.697 195.197 187.237 198.376 186.148C202.216 184.814 204.926 182.703 206.008 180.192C207.032 177.829 206.491 175.381 204.495 173.249L201.979 174.121L190.498 178.118L188.539 187.23Z" fill="#9FBFED"/>
<path opacity="0.75" d="M188.539 187.23L188.481 187.503C191.836 187.697 195.197 187.237 198.376 186.148C202.216 184.814 204.926 182.703 206.008 180.192C207.032 177.829 206.491 175.381 204.495 173.249L201.979 174.121L190.498 178.118L188.539 187.23Z" fill="white"/>
<path d="M178.456 170.697L188.467 176.474L185.52 168.465C183.05 168.774 180.656 169.53 178.456 170.697Z" fill="#9FBFED"/>
<path d="M188.95 181.306V178.013L186.954 187.398V190.691L188.95 181.306Z" fill="#9FBFED"/>
<path opacity="0.55" d="M188.95 181.306V178.013L186.954 187.398V190.691L188.95 181.306Z" fill="black"/>
<path d="M201.718 163.349L199.538 164.609L201.718 165.87L203.897 164.609L201.718 163.349Z" fill="#9FBFED"/>
<path opacity="0.3" d="M201.718 163.349L199.538 164.609L201.718 165.87L203.897 164.609L201.718 163.349Z" fill="black"/>
<path d="M203.897 164.609V165.87L201.718 167.13V165.87L203.897 164.609Z" fill="#9FBFED"/>
<path opacity="0.4" d="M203.897 164.609V165.87L201.718 167.13V165.87L203.897 164.609Z" fill="black"/>
<path d="M201.718 165.87V167.13L199.538 165.87V164.609L201.718 165.87Z" fill="#9FBFED"/>
<path opacity="0.55" d="M201.718 165.87V167.13L199.538 165.87V164.609L201.718 165.87Z" fill="black"/>
<path d="M205.047 162.372L213.125 157.708C213.385 157.571 213.673 157.497 213.967 157.491C214.261 157.486 214.552 157.549 214.816 157.676C215.268 157.939 215.247 158.375 214.764 158.653L206.686 163.317C206.427 163.455 206.138 163.53 205.844 163.536C205.55 163.541 205.259 163.477 204.995 163.349C204.538 163.091 204.564 162.65 205.047 162.372Z" fill="#E0E0E0"/>
<path d="M206.629 166.19L204.449 167.445L206.629 168.706L208.814 167.445L206.629 166.19Z" fill="#9FBFED"/>
<path opacity="0.88" d="M206.629 166.19L204.449 167.445L206.629 168.706L208.814 167.445L206.629 166.19Z" fill="white"/>
<path d="M208.813 167.446V168.706L206.628 169.967V168.706L208.813 167.446Z" fill="#9FBFED"/>
<path opacity="0.75" d="M208.813 167.446V168.706L206.628 169.967V168.706L208.813 167.446Z" fill="white"/>
<path d="M206.629 168.706V169.967L204.449 168.706V167.446L206.629 168.706Z" fill="#9FBFED"/>
<path opacity="0.6" d="M206.629 168.706V169.967L204.449 168.706V167.446L206.629 168.706Z" fill="white"/>
<path d="M209.958 165.214L218.036 160.544C218.297 160.407 218.586 160.333 218.881 160.328C219.175 160.322 219.467 160.386 219.733 160.513C220.184 160.776 220.158 161.211 219.675 161.49L211.597 166.159C211.337 166.296 211.049 166.37 210.755 166.375C210.461 166.379 210.17 166.314 209.906 166.185C209.454 165.928 209.475 165.487 209.958 165.214Z" fill="#E0E0E0"/>
<path d="M211.544 169.021L209.364 170.281L211.544 171.542L213.724 170.281L211.544 169.021Z" fill="#9FBFED"/>
<path opacity="0.3" d="M211.544 169.021L209.364 170.281L211.544 171.542L213.724 170.281L211.544 169.021Z" fill="white"/>
<path d="M213.724 170.281V171.542L211.544 172.803V171.542L213.724 170.281Z" fill="#9FBFED"/>
<path d="M211.544 171.542V172.803L209.364 171.542V170.281L211.544 171.542Z" fill="#9FBFED"/>
<path opacity="0.1" d="M211.544 171.542V172.803L209.364 171.542V170.281L211.544 171.542Z" fill="black"/>
<path d="M214.873 168.049L222.951 163.38C223.211 163.243 223.499 163.169 223.793 163.164C224.087 163.158 224.378 163.222 224.642 163.349C225.094 163.611 225.068 164.047 224.59 164.326L216.507 168.99C216.247 169.127 215.958 169.201 215.664 169.206C215.37 169.21 215.08 169.145 214.816 169.016C214.364 168.764 214.39 168.328 214.873 168.049Z" fill="#E0E0E0"/>
<path d="M216.454 171.857L214.274 173.118L216.454 174.378L218.634 173.118L216.454 171.857Z" fill="#455A64"/>
<path d="M218.634 173.118V174.378L216.454 175.639V174.378L218.634 173.118Z" fill="#37474F"/>
<path d="M216.454 174.378V175.639L214.274 174.378V173.118L216.454 174.378Z" fill="#263238"/>
<path d="M219.785 170.885L227.862 166.216C228.122 166.079 228.411 166.005 228.705 166C228.999 165.995 229.29 166.06 229.554 166.19C230.005 166.447 229.984 166.883 229.501 167.161L221.423 171.83C221.163 171.967 220.875 172.042 220.581 172.047C220.288 172.053 219.997 171.989 219.732 171.862C219.28 171.615 219.301 171.163 219.785 170.885Z" fill="#E0E0E0"/>
<g opacity="0.3">
<path opacity="0.3" d="M180.841 157.39C180.799 157.39 180.757 157.379 180.721 157.358L165.164 148.377C165.128 148.355 165.098 148.324 165.076 148.288C165.055 148.251 165.044 148.21 165.043 148.167C165.043 148.125 165.055 148.085 165.076 148.049C165.097 148.013 165.127 147.983 165.164 147.962L184.597 136.733C184.633 136.713 184.673 136.702 184.715 136.702C184.756 136.702 184.797 136.713 184.833 136.733L200.395 145.714C200.431 145.736 200.461 145.767 200.482 145.804C200.502 145.841 200.512 145.882 200.511 145.925C200.512 145.966 200.501 146.007 200.481 146.043C200.461 146.079 200.431 146.109 200.395 146.129L180.962 157.358C180.925 157.379 180.884 157.39 180.841 157.39ZM165.763 148.167L180.841 156.875L199.812 145.925L184.723 137.217L165.763 148.167Z" fill="#9FBFED"/>
</g>
<path d="M180.842 154.905V85.3508L169.172 78.6123V148.166L180.842 154.905Z" fill="#9FBFED"/>
<path opacity="0.2" d="M180.842 154.905V85.3508L169.172 78.6123V148.166L180.842 154.905Z" fill="black"/>
<path d="M180.842 154.905L196.399 145.924L196.404 76.3701L180.842 85.3513V154.905Z" fill="#9FBFED"/>
<path d="M196.404 76.3703L184.734 69.6318L169.172 78.613L180.842 85.3515L196.404 76.3703Z" fill="#9FBFED"/>
<path opacity="0.25" d="M196.404 76.3703L184.734 69.6318L169.172 78.613L180.842 85.3515L196.404 76.3703Z" fill="white"/>
<path opacity="0.3" d="M196.404 76.3701L180.685 85.0362L175.579 82.1842L169.172 78.6128L175.474 82.3838L180.637 85.4616C180.511 87.2158 180.48 147.789 180.501 149.538C180.514 151.332 180.63 153.124 180.847 154.905C181.063 153.124 181.177 151.332 181.189 149.538C181.189 147.841 181.189 87.3261 181.063 85.6296L196.404 76.3701Z" fill="white"/>
<g opacity="0.3">
<path opacity="0.3" d="M151.666 174.244C151.623 174.243 151.582 174.233 151.545 174.212L135.988 165.231C135.952 165.209 135.922 165.178 135.901 165.142C135.88 165.105 135.868 165.064 135.867 165.021C135.867 164.979 135.879 164.938 135.9 164.902C135.921 164.866 135.952 164.837 135.988 164.816L155.421 153.587C155.458 153.567 155.499 153.556 155.542 153.556C155.584 153.556 155.626 153.567 155.663 153.587L171.219 162.568C171.257 162.589 171.288 162.619 171.309 162.655C171.331 162.692 171.342 162.733 171.342 162.776C171.342 162.818 171.331 162.86 171.309 162.896C171.288 162.933 171.257 162.963 171.219 162.983L151.786 174.212C151.75 174.233 151.708 174.244 151.666 174.244ZM136.587 165.021L151.666 173.719L170.636 162.768L155.557 154.06L136.587 165.021Z" fill="#9FBFED"/>
</g>
<path d="M151.666 171.749V122.342L139.996 115.604V165.01L151.666 171.749Z" fill="#9FBFED"/>
<path opacity="0.1" d="M151.666 171.749V122.342L139.996 115.604V165.01L151.666 171.749Z" fill="white"/>
<path d="M151.666 171.749L167.228 162.763V113.361L151.666 122.342V171.749Z" fill="#9FBFED"/>
<path opacity="0.3" d="M151.666 171.749L167.228 162.763V113.361L151.666 122.342V171.749Z" fill="white"/>
<path d="M167.228 113.361L155.558 106.622L139.996 115.603L151.666 122.342L167.228 113.361Z" fill="#9FBFED"/>
<path opacity="0.55" d="M167.228 113.361L155.558 106.622L139.996 115.603L151.666 122.342L167.228 113.361Z" fill="white"/>
<path opacity="0.3" d="M151.871 122.626L167.228 113.361L151.509 122.027C149.812 121.066 148.111 120.121 146.409 119.175L139.996 115.604L146.299 119.37C148.021 120.42 149.739 121.439 151.467 122.453C151.414 124.27 151.356 137.526 151.341 139.344C151.325 141.161 151.314 158.777 151.341 160.625C151.367 162.474 151.383 164.333 151.441 166.187C151.498 168.041 151.567 169.895 151.682 171.749C151.803 169.895 151.876 168.041 151.924 166.187C151.971 164.333 152.013 162.479 152.024 160.625C152.034 158.771 152.024 141.192 152.024 139.344C151.981 137.584 151.924 124.386 151.871 122.626Z" fill="white"/>
<g opacity="0.3">
<path opacity="0.3" d="M122.496 191.078C122.453 191.078 122.412 191.067 122.375 191.046L106.813 182.065C106.777 182.043 106.748 182.012 106.728 181.975C106.708 181.938 106.697 181.897 106.697 181.855C106.696 181.813 106.707 181.773 106.727 181.737C106.747 181.701 106.777 181.671 106.813 181.65L126.246 170.421C126.282 170.4 126.322 170.389 126.364 170.389C126.405 170.389 126.446 170.4 126.482 170.421L142.044 179.402C142.08 179.424 142.11 179.454 142.131 179.491C142.151 179.528 142.161 179.57 142.16 179.612C142.161 179.653 142.15 179.694 142.13 179.73C142.11 179.766 142.08 179.796 142.044 179.817L122.611 191.046C122.576 191.067 122.536 191.078 122.496 191.078ZM107.412 181.855L122.496 190.563L141.467 179.612L126.382 170.904L107.412 181.855Z" fill="#9FBFED"/>
</g>
<path d="M122.496 188.592L122.491 154.905L110.82 148.167L110.826 181.854L122.496 188.592Z" fill="#9FBFED"/>
<path opacity="0.45" d="M122.496 188.592L122.491 154.905L110.82 148.167L110.826 181.854L122.496 188.592Z" fill="black"/>
<path d="M122.495 188.593L138.052 179.606L138.058 145.924L122.49 154.905L122.495 188.593Z" fill="#9FBFED"/>
<path opacity="0.3" d="M122.495 188.593L138.052 179.606L138.058 145.924L122.49 154.905L122.495 188.593Z" fill="black"/>
<path d="M138.058 145.924L126.388 139.185L110.82 148.166L122.491 154.905L138.058 145.924Z" fill="#9FBFED"/>
<path opacity="0.15" d="M138.058 145.924L126.388 139.185L110.82 148.166L122.491 154.905L138.058 145.924Z" fill="black"/>
<path opacity="0.3" d="M138.058 145.924L122.338 154.585L117.233 151.738L110.82 148.167L117.123 151.933L122.286 155.016C122.165 156.066 122.133 184.218 122.154 185.284C122.166 186.395 122.282 187.503 122.501 188.593C122.716 187.503 122.83 186.395 122.842 185.284C122.842 184.27 122.842 156.192 122.727 155.179L138.058 145.924Z" fill="white"/>
<g opacity="0.3">
<path opacity="0.3" d="M210.011 140.547C209.971 140.546 209.931 140.535 209.896 140.515L194.334 131.534C194.297 131.512 194.267 131.482 194.246 131.445C194.225 131.408 194.213 131.366 194.213 131.324C194.213 131.282 194.224 131.241 194.246 131.205C194.267 131.169 194.297 131.139 194.334 131.119L213.767 119.89C213.804 119.869 213.845 119.858 213.887 119.858C213.93 119.858 213.971 119.869 214.008 119.89L229.565 128.871C229.602 128.891 229.633 128.921 229.655 128.958C229.677 128.994 229.688 129.036 229.688 129.079C229.688 129.121 229.677 129.163 229.655 129.199C229.633 129.236 229.602 129.266 229.565 129.286L210.132 140.515C210.095 140.536 210.054 140.547 210.011 140.547ZM194.932 131.324L210.011 140.032L228.982 129.076L213.903 120.368L194.932 131.324Z" fill="#9FBFED"/>
</g>
<path d="M210.012 138.061V36.8576L198.342 30.1191L198.347 131.323L210.012 138.061Z" fill="#9FBFED"/>
<path opacity="0.3" d="M210.012 138.061V36.8576L198.342 30.1191L198.347 131.323L210.012 138.061Z" fill="white"/>
<path d="M210.012 138.062L225.574 129.081V27.877L210.012 36.8581V138.062Z" fill="#9FBFED"/>
<path opacity="0.55" d="M210.012 138.062L225.574 129.081V27.877L210.012 36.8581V138.062Z" fill="white"/>
<path d="M225.574 27.8772L213.904 21.1387L198.342 30.1198L210.012 36.8583L225.574 27.8772Z" fill="#9FBFED"/>
<path opacity="0.75" d="M225.574 27.8772L213.904 21.1387L198.342 30.1198L210.012 36.8583L225.574 27.8772Z" fill="white"/>
<path opacity="0.3" d="M210.217 37.1621L225.574 27.8921L209.855 36.5581C208.163 35.597 206.456 34.6516 204.755 33.7062L198.342 30.1348L204.644 33.9058C206.367 34.9562 208.085 35.9699 209.818 36.9836C209.76 39.0424 209.702 41.1012 209.686 43.1601C209.671 45.2189 209.686 123.408 209.686 125.503C209.686 127.599 209.728 129.705 209.791 131.806C209.855 133.907 209.912 136.007 210.033 138.108C210.149 136.007 210.222 133.907 210.269 131.806C210.317 129.705 210.364 127.604 210.374 125.503C210.385 123.402 210.374 45.2557 210.374 43.1601C210.327 41.1485 210.275 39.1474 210.217 37.1621Z" fill="white"/>
<path d="M183.472 48.9482L170.399 56.4955C170.037 56.7315 169.736 57.0494 169.52 57.4235C169.303 57.7977 169.178 58.2174 169.154 58.6489V69.253C169.154 70.046 169.711 70.3664 170.399 69.9725L175.215 67.1836L176.507 69.4158C176.564 69.5164 176.648 69.5984 176.75 69.6519C176.852 69.7053 176.968 69.7278 177.083 69.7167C177.197 69.7055 177.306 69.6612 177.396 69.5891C177.486 69.517 177.553 69.4203 177.589 69.3107L179.107 64.9409L183.472 62.4252C183.835 62.1897 184.137 61.8721 184.354 61.4979C184.571 61.1238 184.697 60.7037 184.722 60.2718V49.6677C184.722 48.8746 184.16 48.5543 183.472 48.9482Z" fill="#FAFAFA"/>
<path d="M169.842 70.4247C169.679 70.4259 169.519 70.3822 169.38 70.2987C169.204 70.1886 169.062 70.0324 168.97 69.8471C168.877 69.6618 168.837 69.4546 168.854 69.2482V58.6494C168.878 58.1692 169.015 57.7014 169.256 57.2849C169.496 56.8684 169.832 56.5151 170.236 56.2544L183.329 48.7176C183.498 48.6013 183.694 48.5318 183.898 48.5161C184.102 48.5004 184.306 48.5391 184.49 48.6283C184.664 48.7397 184.805 48.8961 184.898 49.0811C184.99 49.266 185.031 49.4725 185.015 49.6787V60.2723C184.992 60.7532 184.854 61.2216 184.613 61.6383C184.372 62.055 184.034 62.4078 183.629 62.6673L179.359 65.1306L177.878 69.4058C177.822 69.5655 177.722 69.7059 177.588 69.8102C177.455 69.9145 177.295 69.9783 177.127 69.994C176.959 70.0078 176.791 69.9743 176.641 69.8972C176.492 69.8202 176.367 69.7027 176.281 69.5581L175.136 67.5675L170.561 70.1936C170.346 70.3334 170.098 70.4132 169.842 70.4247ZM184.023 49.059C183.876 49.0681 183.733 49.1132 183.608 49.1903L170.54 56.7376C170.221 56.9495 169.955 57.2322 169.763 57.5638C169.57 57.8954 169.457 58.2669 169.432 58.6494V69.2535C169.42 69.3586 169.434 69.4652 169.473 69.5634C169.513 69.6616 169.576 69.7483 169.658 69.8155C169.757 69.8537 169.864 69.8661 169.968 69.8514C170.073 69.8367 170.172 69.7954 170.257 69.7314L175.32 66.806L176.748 69.2797C176.779 69.3326 176.823 69.3756 176.877 69.4036C176.932 69.4316 176.993 69.4433 177.053 69.4373C177.115 69.4315 177.173 69.4081 177.221 69.3699C177.27 69.3317 177.306 69.2803 177.326 69.222L178.876 64.7471L183.329 62.1841C183.648 61.972 183.914 61.6891 184.105 61.3574C184.296 61.0258 184.408 60.6544 184.432 60.2723V49.6682C184.446 49.5636 184.433 49.4571 184.394 49.3588C184.356 49.2606 184.293 49.1737 184.212 49.1063C184.154 49.0735 184.089 49.0572 184.023 49.059Z" fill="#E0E0E0"/>
<path d="M172.074 65.8754C172.032 65.8755 171.99 65.8644 171.953 65.8432C171.916 65.822 171.885 65.7914 171.864 65.7546C171.848 65.7274 171.838 65.6974 171.834 65.6662C171.83 65.635 171.832 65.6033 171.84 65.573C171.849 65.5427 171.863 65.5143 171.882 65.4896C171.902 65.4648 171.926 65.4442 171.954 65.429L181.675 59.8144C181.703 59.7941 181.734 59.7798 181.767 59.7724C181.8 59.765 181.835 59.7647 181.868 59.7715C181.901 59.7783 181.933 59.7921 181.96 59.8119C181.988 59.8318 182.011 59.8572 182.028 59.8866C182.045 59.916 182.056 59.9487 182.06 59.9825C182.063 60.0164 182.06 60.0506 182.049 60.0829C182.039 60.1153 182.021 60.145 181.999 60.1703C181.976 60.1955 181.948 60.2156 181.917 60.2293L172.19 65.8439C172.155 65.8639 172.115 65.8747 172.074 65.8754Z" fill="#E0E0E0"/>
<path d="M172.074 63.6278C172.032 63.6279 171.99 63.6168 171.953 63.5956C171.916 63.5744 171.885 63.5438 171.864 63.507C171.848 63.4798 171.838 63.4498 171.834 63.4186C171.83 63.3874 171.832 63.3557 171.84 63.3254C171.849 63.2951 171.863 63.2667 171.882 63.242C171.902 63.2172 171.926 63.1966 171.954 63.1813L181.675 57.5668C181.731 57.5359 181.797 57.528 181.859 57.5447C181.92 57.5613 181.973 57.6013 182.006 57.6561C182.037 57.7113 182.044 57.7762 182.028 57.8371C182.011 57.8979 181.971 57.9498 181.917 57.9817L172.19 63.5963C172.155 63.6163 172.115 63.6271 172.074 63.6278Z" fill="#E0E0E0"/>
<path d="M172.074 61.3856C172.032 61.3858 171.99 61.3747 171.953 61.3535C171.916 61.3323 171.885 61.3017 171.864 61.2648C171.848 61.2377 171.838 61.2076 171.834 61.1765C171.83 61.1453 171.832 61.1136 171.84 61.0833C171.849 61.0529 171.863 61.0246 171.882 60.9998C171.902 60.9751 171.926 60.9545 171.954 60.9392L181.675 55.3247C181.703 55.3043 181.734 55.29 181.767 55.2826C181.8 55.2752 181.835 55.2749 181.868 55.2818C181.901 55.2886 181.933 55.3024 181.96 55.3222C181.988 55.342 182.011 55.3675 182.028 55.3969C182.045 55.4263 182.056 55.459 182.06 55.4928C182.063 55.5266 182.06 55.5608 182.049 55.5932C182.039 55.6255 182.021 55.6553 181.999 55.6805C181.976 55.7058 181.948 55.7259 181.917 55.7396L172.19 61.3541C172.155 61.3742 172.115 61.385 172.074 61.3856Z" fill="#E0E0E0"/>
<path d="M172.075 59.137C172.033 59.1372 171.991 59.1267 171.955 59.1065C171.918 59.0863 171.887 59.057 171.865 59.0215C171.849 58.9939 171.838 58.9635 171.834 58.9319C171.83 58.9003 171.832 58.8682 171.84 58.8375C171.849 58.8067 171.863 58.7779 171.882 58.7527C171.902 58.7275 171.926 58.7064 171.954 58.6906L181.676 53.0761C181.732 53.0452 181.797 53.0373 181.859 53.0539C181.921 53.0706 181.974 53.1105 182.006 53.1654C182.037 53.2205 182.045 53.2855 182.028 53.3464C182.011 53.4072 181.972 53.4591 181.917 53.491L172.19 59.1055C172.155 59.1256 172.115 59.1364 172.075 59.137Z" fill="#9FBFED"/>
<path d="M154.311 85.934L141.239 93.4813C140.876 93.7167 140.575 94.0345 140.358 94.4087C140.142 94.7829 140.017 95.203 139.994 95.6347V106.234C139.994 107.027 140.551 107.352 141.239 106.953L146.055 104.169L147.347 106.402C147.405 106.5 147.49 106.58 147.592 106.632C147.693 106.684 147.808 106.706 147.922 106.695C148.035 106.684 148.144 106.641 148.234 106.57C148.324 106.499 148.391 106.404 148.429 106.297L149.947 101.921L154.311 99.4057C154.674 99.1703 154.976 98.8525 155.192 98.4783C155.408 98.1041 155.533 97.684 155.556 97.2523V86.6483C155.556 85.8552 155 85.5348 154.311 85.934Z" fill="#FAFAFA"/>
<path d="M140.683 107.405C140.521 107.405 140.362 107.364 140.221 107.284C140.047 107.173 139.906 107.016 139.813 106.831C139.721 106.646 139.68 106.44 139.696 106.234V95.6349C139.719 95.154 139.856 94.6855 140.097 94.2681C140.337 93.8508 140.673 93.4965 141.077 93.2347L154.149 85.6874C154.314 85.567 154.51 85.497 154.713 85.4859C154.917 85.4749 155.119 85.5232 155.295 85.6251C155.472 85.7269 155.615 85.8779 155.707 86.0596C155.799 86.2414 155.836 86.446 155.814 86.6485V97.2526C155.792 97.7336 155.654 98.2022 155.413 98.6189C155.171 99.0356 154.834 99.3884 154.428 99.6476L150.158 102.111L148.677 106.386C148.622 106.546 148.522 106.688 148.389 106.792C148.255 106.896 148.095 106.96 147.926 106.974C147.758 106.992 147.588 106.96 147.438 106.883C147.287 106.805 147.163 106.686 147.08 106.538L145.935 104.548L141.361 107.174C141.159 107.309 140.925 107.389 140.683 107.405ZM154.449 86.1758L141.382 93.7231C141.061 93.9341 140.794 94.2166 140.602 94.5484C140.41 94.8802 140.297 95.2522 140.273 95.6349V106.234C140.24 106.34 140.244 106.454 140.284 106.557C140.324 106.66 140.398 106.747 140.494 106.803C140.59 106.858 140.702 106.88 140.812 106.863C140.922 106.846 141.023 106.793 141.098 106.712L146.161 103.786L147.59 106.26C147.618 106.314 147.663 106.359 147.717 106.387C147.772 106.415 147.833 106.426 147.894 106.418C147.956 106.414 148.016 106.391 148.064 106.353C148.113 106.314 148.149 106.262 148.167 106.202L149.743 101.733L154.197 99.1644C154.516 98.9525 154.781 98.6697 154.973 98.338C155.164 98.0063 155.276 97.6348 155.3 97.2526V86.6485C155.313 86.5439 155.3 86.4376 155.261 86.3394C155.223 86.2412 155.16 86.1543 155.079 86.0865C154.979 86.048 154.871 86.036 154.765 86.0516C154.66 86.0673 154.56 86.1101 154.475 86.1758H154.449Z" fill="#E0E0E0"/>
<path d="M142.914 102.856C142.872 102.856 142.83 102.845 142.793 102.824C142.756 102.802 142.725 102.772 142.704 102.735C142.688 102.708 142.678 102.678 142.674 102.647C142.67 102.615 142.672 102.584 142.68 102.553C142.689 102.523 142.703 102.495 142.722 102.47C142.742 102.445 142.766 102.425 142.793 102.409L152.515 96.7949C152.542 96.7746 152.574 96.7602 152.607 96.7528C152.64 96.7455 152.674 96.7452 152.708 96.752C152.741 96.7588 152.773 96.7726 152.8 96.7924C152.828 96.8122 152.851 96.8377 152.868 96.8671C152.885 96.8965 152.896 96.9292 152.9 96.963C152.903 96.9968 152.9 97.031 152.889 97.0634C152.879 97.0957 152.861 97.1255 152.839 97.1507C152.816 97.176 152.788 97.1961 152.757 97.2098L143.03 102.814C142.995 102.838 142.956 102.852 142.914 102.856Z" fill="#9FBFED"/>
<path d="M142.914 100.614C142.872 100.614 142.83 100.603 142.793 100.582C142.756 100.56 142.725 100.53 142.704 100.493C142.688 100.466 142.678 100.436 142.674 100.404C142.67 100.373 142.672 100.342 142.68 100.311C142.689 100.281 142.703 100.253 142.722 100.228C142.742 100.203 142.766 100.183 142.793 100.167L152.515 94.5527C152.542 94.5324 152.574 94.5181 152.607 94.5107C152.64 94.5033 152.674 94.503 152.708 94.5098C152.741 94.5166 152.773 94.5304 152.8 94.5502C152.828 94.5701 152.851 94.5955 152.868 94.6249C152.885 94.6543 152.896 94.687 152.9 94.7208C152.903 94.7546 152.9 94.7889 152.889 94.8212C152.879 94.8536 152.861 94.8833 152.839 94.9086C152.816 94.9338 152.788 94.9539 152.757 94.9676L143.03 100.582C142.994 100.602 142.955 100.613 142.914 100.614Z" fill="#E0E0E0"/>
<path d="M142.914 98.3661C142.872 98.3662 142.83 98.3551 142.793 98.3339C142.756 98.3127 142.725 98.2821 142.704 98.2453C142.688 98.2181 142.678 98.1881 142.674 98.1569C142.67 98.1257 142.672 98.094 142.68 98.0637C142.689 98.0334 142.703 98.005 142.722 97.9803C142.742 97.9555 142.766 97.9349 142.793 97.9196L152.515 92.3104C152.543 92.2944 152.573 92.284 152.605 92.2799C152.636 92.2757 152.668 92.2779 152.699 92.2862C152.73 92.2945 152.759 92.3088 152.784 92.3282C152.809 92.3477 152.83 92.372 152.846 92.3996C152.877 92.4548 152.884 92.5198 152.868 92.5807C152.851 92.6415 152.811 92.6934 152.757 92.7253L143.03 98.3398C142.994 98.358 142.954 98.3671 142.914 98.3661Z" fill="#E0E0E0"/>
<path d="M142.914 96.1229C142.872 96.1231 142.83 96.112 142.793 96.0908C142.756 96.0696 142.725 96.039 142.704 96.0021C142.688 95.975 142.678 95.9449 142.674 95.9138C142.67 95.8826 142.672 95.8509 142.68 95.8206C142.689 95.7902 142.703 95.7619 142.722 95.7371C142.742 95.7124 142.766 95.6918 142.793 95.6765L152.515 90.062C152.542 90.0417 152.574 90.0273 152.607 90.0199C152.64 90.0125 152.674 90.0122 152.708 90.0191C152.741 90.0259 152.773 90.0397 152.8 90.0595C152.828 90.0793 152.851 90.1048 152.868 90.1342C152.885 90.1636 152.896 90.1963 152.9 90.2301C152.903 90.2639 152.9 90.2981 152.889 90.3305C152.879 90.3628 152.861 90.3926 152.839 90.4178C152.816 90.4431 152.788 90.4632 152.757 90.4769L143.03 96.0914C142.994 96.1115 142.955 96.1223 142.914 96.1229Z" fill="#E0E0E0"/>
<path d="M125.146 118.492L112.074 126.039C111.711 126.275 111.41 126.593 111.193 126.967C110.977 127.341 110.852 127.761 110.829 128.193V138.792C110.829 139.585 111.386 139.91 112.074 139.511L116.89 136.728L118.182 138.96C118.241 139.058 118.326 139.138 118.428 139.189C118.53 139.241 118.645 139.263 118.759 139.252C118.873 139.241 118.981 139.197 119.072 139.127C119.162 139.057 119.231 138.962 119.269 138.855L120.782 134.48L125.146 131.964C125.509 131.728 125.811 131.411 126.027 131.036C126.243 130.662 126.368 130.242 126.391 129.81V119.206C126.391 118.413 125.834 118.093 125.146 118.492Z" fill="#FAFAFA"/>
<path d="M111.517 139.963C111.355 139.962 111.196 139.921 111.055 139.842C110.881 139.73 110.74 139.574 110.647 139.389C110.555 139.204 110.514 138.998 110.53 138.791V128.193C110.553 127.711 110.691 127.242 110.932 126.824C111.173 126.407 111.51 126.053 111.916 125.792L124.983 118.245C125.148 118.125 125.344 118.055 125.547 118.044C125.751 118.032 125.953 118.081 126.129 118.183C126.306 118.285 126.449 118.436 126.541 118.617C126.633 118.799 126.67 119.004 126.648 119.206V129.81C126.626 130.291 126.489 130.759 126.248 131.175C126.008 131.592 125.672 131.945 125.267 132.205L120.992 134.668L119.511 138.944C119.454 139.099 119.355 139.236 119.224 139.337C119.093 139.438 118.936 139.501 118.771 139.517C118.606 139.533 118.44 139.502 118.292 139.427C118.144 139.353 118.02 139.238 117.935 139.096L116.785 137.105L112.21 139.732C112.004 139.869 111.765 139.949 111.517 139.963ZM125.288 118.733L112.242 126.281C111.922 126.492 111.656 126.775 111.465 127.107C111.273 127.438 111.162 127.81 111.139 128.193V138.791C111.125 138.897 111.138 139.004 111.177 139.103C111.215 139.202 111.278 139.29 111.359 139.359C111.46 139.394 111.567 139.405 111.673 139.389C111.778 139.374 111.878 139.332 111.963 139.269L117.021 136.344L118.45 138.818C118.481 138.87 118.526 138.912 118.581 138.94C118.635 138.967 118.696 138.979 118.757 138.973C118.818 138.967 118.875 138.943 118.923 138.906C118.971 138.868 119.007 138.817 119.028 138.76L120.577 134.29L125.004 131.701C125.324 131.489 125.591 131.207 125.783 130.875C125.975 130.543 126.088 130.172 126.113 129.789V119.206C126.125 119.101 126.111 118.994 126.072 118.896C126.032 118.798 125.969 118.711 125.887 118.644C125.788 118.606 125.681 118.594 125.576 118.609C125.471 118.625 125.371 118.668 125.288 118.733Z" fill="#E0E0E0"/>
<path d="M113.749 135.414C113.694 135.417 113.641 135.402 113.597 135.37C113.553 135.338 113.521 135.292 113.507 135.24C113.493 135.188 113.497 135.132 113.519 135.083C113.541 135.033 113.58 134.993 113.628 134.968L123.355 129.353C123.41 129.322 123.475 129.314 123.536 129.331C123.566 129.339 123.595 129.353 123.619 129.372C123.644 129.391 123.665 129.415 123.68 129.443C123.696 129.47 123.706 129.5 123.71 129.531C123.714 129.562 123.712 129.594 123.703 129.624C123.695 129.654 123.681 129.682 123.662 129.707C123.642 129.732 123.618 129.753 123.591 129.768L113.869 135.378C113.833 135.4 113.791 135.412 113.749 135.414Z" fill="#E0E0E0"/>
<path d="M113.749 133.171C113.707 133.171 113.665 133.16 113.628 133.139C113.591 133.118 113.56 133.087 113.539 133.05C113.508 132.995 113.501 132.93 113.517 132.869C113.534 132.808 113.574 132.757 113.628 132.725L123.355 127.11C123.382 127.094 123.412 127.084 123.443 127.079C123.474 127.075 123.505 127.076 123.536 127.084C123.566 127.092 123.594 127.106 123.619 127.125C123.644 127.144 123.665 127.167 123.681 127.194C123.712 127.25 123.72 127.316 123.703 127.378C123.686 127.439 123.647 127.492 123.592 127.525L113.87 133.14C113.833 133.16 113.791 133.171 113.749 133.171Z" fill="#E0E0E0"/>
<path d="M113.749 130.924C113.694 130.927 113.641 130.911 113.597 130.88C113.553 130.848 113.521 130.802 113.507 130.75C113.493 130.697 113.497 130.642 113.519 130.592C113.541 130.543 113.58 130.502 113.628 130.478L123.355 124.874C123.382 124.858 123.412 124.848 123.443 124.844C123.474 124.84 123.506 124.842 123.536 124.851C123.566 124.859 123.595 124.873 123.619 124.892C123.644 124.912 123.665 124.936 123.68 124.963C123.696 124.99 123.706 125.02 123.71 125.051C123.714 125.082 123.712 125.114 123.703 125.144C123.695 125.174 123.681 125.203 123.662 125.227C123.642 125.252 123.618 125.273 123.591 125.289L113.869 130.893C113.832 130.913 113.791 130.924 113.749 130.924Z" fill="#9FBFED"/>
<path d="M113.749 128.68C113.707 128.68 113.665 128.669 113.628 128.648C113.591 128.627 113.56 128.596 113.539 128.559C113.508 128.504 113.501 128.439 113.517 128.378C113.534 128.318 113.574 128.266 113.628 128.234L123.355 122.619C123.41 122.588 123.474 122.58 123.535 122.595C123.596 122.611 123.648 122.65 123.681 122.703C123.712 122.759 123.72 122.825 123.703 122.887C123.686 122.948 123.647 123.001 123.592 123.034L113.87 128.649C113.833 128.669 113.791 128.68 113.749 128.68Z" fill="#E0E0E0"/>
<path d="M212.659 0.449193L199.587 7.99653C199.224 8.23192 198.922 8.5497 198.706 8.92393C198.49 9.29817 198.365 9.71826 198.342 10.1499V20.754C198.342 21.5471 198.899 21.8674 199.587 21.4683L204.403 18.6846L205.695 20.9168C205.752 21.017 205.837 21.0986 205.939 21.1516C206.042 21.2047 206.158 21.227 206.272 21.2159C206.387 21.2048 206.496 21.1608 206.587 21.0891C206.677 21.0174 206.745 20.9211 206.782 20.8118L208.295 16.4367L212.659 13.9209C213.022 13.6856 213.323 13.3678 213.54 12.9935C213.756 12.6193 213.881 12.1992 213.904 11.7676V1.16874C213.904 0.396673 213.347 0.0500303 212.659 0.449193Z" fill="#FAFAFA"/>
<path d="M199.029 21.9311C198.867 21.9308 198.708 21.8892 198.567 21.8103C198.392 21.6994 198.251 21.543 198.158 21.3579C198.066 21.1729 198.025 20.9661 198.042 20.7599V10.1505C198.063 9.66862 198.201 9.19901 198.442 8.78128C198.683 8.36356 199.022 8.00997 199.428 7.75031L212.495 0.202982C212.66 0.0825918 212.856 0.0126056 213.059 0.00154834C213.263 -0.00950889 213.465 0.03884 213.641 0.140706C213.818 0.242572 213.961 0.393557 214.053 0.575268C214.145 0.756979 214.182 0.961572 214.16 1.16412V11.7682C214.137 12.2492 214 12.7177 213.759 13.135C213.519 13.5523 213.183 13.9066 212.779 14.1684L208.504 16.6264L207.044 20.8807C206.99 21.0407 206.891 21.1816 206.759 21.2861C206.626 21.3906 206.466 21.4541 206.298 21.4689C206.13 21.488 205.959 21.4568 205.809 21.3792C205.658 21.3016 205.534 21.1811 205.452 21.033L204.302 19.0477L199.727 21.6737C199.522 21.8216 199.281 21.9106 199.029 21.9311ZM212.8 0.701936L199.727 8.23876C199.408 8.45059 199.143 8.73344 198.951 9.06513C198.76 9.39682 198.648 9.76834 198.625 10.1505V20.7546C198.593 20.86 198.599 20.9729 198.64 21.0749C198.681 21.1769 198.755 21.2621 198.85 21.3168C198.945 21.3715 199.056 21.3924 199.165 21.3761C199.274 21.3599 199.374 21.3075 199.449 21.2273L204.507 18.3019L205.936 20.7756C205.964 20.8299 206.009 20.8742 206.063 20.9024C206.117 20.9305 206.179 20.9413 206.24 20.9332C206.302 20.9298 206.36 20.908 206.409 20.8705C206.458 20.833 206.494 20.7816 206.513 20.7231L208.063 16.2483L212.516 13.68C212.833 13.4667 213.097 13.1833 213.286 12.8517C213.476 12.5202 213.586 12.1494 213.609 11.7682V1.16938C213.642 1.06355 213.638 0.949562 213.598 0.846178C213.558 0.742795 213.484 0.656167 213.388 0.600545C213.292 0.544922 213.18 0.523618 213.07 0.540136C212.96 0.556655 212.86 0.610012 212.784 0.691431L212.8 0.701936Z" fill="#E0E0E0"/>
<path d="M205.338 15.1034C205.338 14.7857 205.411 14.4722 205.55 14.1865C205.689 13.9009 205.892 13.6505 206.141 13.4543C206.567 13.2127 206.908 13.5698 206.908 14.1948C206.917 14.5149 206.852 14.8327 206.72 15.124C206.587 15.4153 206.389 15.6723 206.141 15.8755C205.69 16.1539 205.338 15.7757 205.338 15.1034ZM205.432 6.98364L206.856 6.1748L206.572 12.2568L205.716 12.7505L205.432 6.98364Z" fill="#9FBFED"/>
</svg>
