<svg width="28" height="32" viewBox="0 0 28 32" fill="none" xmlns="http://www.w3.org/2000/svg">
<path d="M1.4135 0.721008L16.688 16L1.415 31.279C1.14341 31.1648 0.911644 30.9729 0.748839 30.7274C0.586033 30.4818 0.499459 30.1936 0.500003 29.899V2.10101C0.500118 1.80674 0.586785 1.51901 0.749214 1.27363C0.911644 1.02825 1.14266 0.836067 1.4135 0.721008ZM17.7485 17.0605L21.2015 20.5135L4.796 30.013L17.7485 17.0605ZM22.547 12.2635L26.7575 14.7025C26.9848 14.8344 27.1735 15.0236 27.3046 15.2513C27.4358 15.4791 27.5048 15.7372 27.5048 16C27.5048 16.2628 27.4358 16.521 27.3046 16.7487C27.1735 16.9764 26.9848 17.1656 26.7575 17.2975L22.5455 19.7365L18.809 16L22.547 12.2635ZM4.796 1.98701L21.203 11.485L17.7485 14.9395L4.796 1.98701Z" fill="white"/>
</svg>
