<svg width="30" height="30" viewBox="0 0 30 30" fill="none" xmlns="http://www.w3.org/2000/svg">
<path d="M0 27.0001H30V30.0001H0V27.0001ZM3 15.0001H6V25.5001H3V15.0001ZM10.5 15.0001H13.5V25.5001H10.5V15.0001ZM16.5 15.0001H19.5V25.5001H16.5V15.0001ZM24 15.0001H27V25.5001H24V15.0001ZM0 7.50008L15 7.62939e-05L30 7.50008V13.5001H0V7.50008ZM3 9.35408V10.5001H27V9.35408L15 3.35408L3 9.35408ZM15 9.00008C14.6022 9.00008 14.2206 8.84204 13.9393 8.56074C13.658 8.27943 13.5 7.8979 13.5 7.50008C13.5 7.10225 13.658 6.72072 13.9393 6.43942C14.2206 6.15811 14.6022 6.00008 15 6.00008C15.3978 6.00008 15.7794 6.15811 16.0607 6.43942C16.342 6.72072 16.5 7.10225 16.5 7.50008C16.5 7.8979 16.342 8.27943 16.0607 8.56074C15.7794 8.84204 15.3978 9.00008 15 9.00008Z" fill="#038830"/>
</svg>
