<svg width="12" height="14" viewBox="0 0 12 14" fill="none" xmlns="http://www.w3.org/2000/svg">
<path d="M10.6667 5.66665H11.3333C11.5101 5.66665 11.6797 5.73689 11.8047 5.86191C11.9298 5.98693 12 6.1565 12 6.33331V13C12 13.1768 11.9298 13.3464 11.8047 13.4714C11.6797 13.5964 11.5101 13.6666 11.3333 13.6666H0.666667C0.489856 13.6666 0.320286 13.5964 0.195262 13.4714C0.0702379 13.3464 0 13.1768 0 13V6.33331C0 6.1565 0.0702379 5.98693 0.195262 5.86191C0.320286 5.73689 0.489856 5.66665 0.666667 5.66665H1.33333V4.99998C1.33333 4.38714 1.45404 3.78031 1.68856 3.21412C1.92308 2.64794 2.26683 2.13349 2.70017 1.70015C3.13351 1.26681 3.64796 0.923064 4.21414 0.688542C4.78033 0.45402 5.38716 0.333313 6 0.333313C6.61284 0.333313 7.21967 0.45402 7.78586 0.688542C8.35204 0.923064 8.86649 1.26681 9.29983 1.70015C9.73317 2.13349 10.0769 2.64794 10.3114 3.21412C10.546 3.78031 10.6667 4.38714 10.6667 4.99998V5.66665ZM1.33333 6.99998V12.3333H10.6667V6.99998H1.33333ZM5.33333 8.33331H6.66667V11H5.33333V8.33331ZM9.33333 5.66665V4.99998C9.33333 4.11593 8.98214 3.26808 8.35702 2.64296C7.7319 2.01784 6.88406 1.66665 6 1.66665C5.11595 1.66665 4.2681 2.01784 3.64298 2.64296C3.01786 3.26808 2.66667 4.11593 2.66667 4.99998V5.66665H9.33333Z" fill="#FD740E"/>
</svg>
