<svg width="43" height="39" viewBox="0 0 43 39" fill="none" xmlns="http://www.w3.org/2000/svg">
<path fill-rule="evenodd" clip-rule="evenodd" d="M26.3691 11.0548C26.3691 11.3805 26.4246 11.1804 26.4196 11.4363L26.3691 34.6626C26.3691 35.3233 26.4953 36.0584 25.5166 36.0584C24.2806 36.0584 24.6691 34.1973 24.6691 33.4715C24.6691 30.959 24.7952 15.3911 24.5883 14.7165C24.5328 14.5397 24.4067 14.2512 24.3361 14.0837C24.1228 13.6824 23.8283 13.3223 23.4684 13.0229L23.0396 12.7158C22.2728 12.1808 21.4454 12.2506 20.5172 12.2506C20.0505 12.312 19.6053 12.4711 19.2156 12.7158C18.848 12.946 18.5242 13.2305 18.2571 13.558C17.6013 14.3536 17.5408 14.991 17.5408 16.3496V35.1465C17.5408 35.5792 17.571 35.5606 17.3137 35.7978C16.6932 36.3701 16.4006 35.9653 15.8356 35.6908V31.0381C15.8356 30.7031 15.77 30.5263 15.765 30.3309L15.8306 29.1585C15.8306 28.8514 15.77 28.8002 15.77 28.6094C15.77 28.4187 15.8306 28.3721 15.8306 28.0604C15.8306 26.8833 15.9012 26.0691 15.5127 24.9803C14.7308 22.8354 11.5274 22.1282 9.58511 23.98C9.23664 24.33 8.9678 24.741 8.7945 25.1885C8.6212 25.636 8.54695 26.1111 8.57615 26.5855C8.57615 27.2043 8.78299 30.3775 8.37436 30.7171C8.20097 30.8581 7.97703 30.9347 7.74589 30.9321C7.51476 30.9295 7.29289 30.8479 7.12325 30.7031L6.26059 29.6796C6.11429 29.4841 5.98817 29.3399 5.87214 29.1724L3.53136 24.8082C3.50504 24.6831 3.46792 24.5602 3.42037 24.4406C3.31685 24.2285 3.24392 24.0048 3.20345 23.7753C3.14795 23.4961 3.0521 23.31 2.99661 23.0262C2.94112 22.7424 2.95625 22.5004 2.89571 22.2585C2.50082 20.5174 2.47854 18.722 2.83013 16.973C2.99156 16.196 3.30434 14.4141 3.70792 13.7161C3.78002 13.615 3.8329 13.5033 3.86431 13.3858L4.18214 12.6646C4.2296 12.5302 4.28865 12.3995 4.3587 12.2738L5.11542 10.9338C5.65276 10.0889 6.24755 9.27613 6.89624 8.50048C7.75392 7.59204 8.69766 6.7559 9.71628 6.00198L12.39 4.38284C12.5313 4.32701 12.5868 4.29909 12.7331 4.2293C12.8794 4.15951 12.9853 4.12229 13.1417 4.05715C13.6764 3.82452 14.0901 3.6291 14.6551 3.41973C14.9931 3.29876 15.1848 3.30341 15.5127 3.19175L17.2128 2.72648L20.1792 2.34961C21.4578 2.30788 22.7377 2.38896 23.9981 2.59155C24.2806 2.64273 24.7145 2.67065 24.9667 2.71717L27.5244 3.41973C27.817 3.53605 28.0289 3.59653 28.3064 3.72216C28.5838 3.84778 28.7705 3.92688 29.0631 4.03854C29.3557 4.15021 29.507 4.25256 29.8047 4.37819L30.2335 4.61082L30.2688 4.64804C31.2777 5.1831 32.9476 6.18343 33.6387 6.95113L34.1835 7.43966C34.9311 8.11861 35.6068 8.86175 36.2015 9.659C36.6634 10.2698 37.083 10.9069 37.4576 11.5666L37.619 11.883L37.9116 12.3994C37.9356 12.4572 37.9558 12.5163 37.9722 12.5762C38.0076 12.7124 38.0691 12.8416 38.1538 12.9578C38.6288 13.957 38.9792 15.0028 39.1981 16.0751C39.4099 17.8617 39.5512 17.8012 39.5512 19.9089C39.5361 21.4635 39.2586 23.0065 38.7289 24.4825C38.6482 24.7058 38.6633 24.7617 38.5927 24.985C38.3103 25.8033 37.9473 26.596 37.5081 27.3532C37.0377 28.2409 36.4715 29.0827 35.8181 29.8657C35.4498 30.2379 34.8091 31.1684 34.1331 30.8893C33.9532 30.8258 33.8019 30.708 33.7039 30.555C33.6059 30.4021 33.5669 30.2231 33.5933 30.0471C33.5075 25.2548 33.5933 20.0252 33.5933 15.2143C33.5983 13.0229 34.1432 9.76601 32.2514 8.3702C31.714 7.97185 31.0644 7.72342 30.3791 7.65418C29.6938 7.58493 29.0013 7.69777 28.3832 7.97938C27.7651 8.26099 27.2471 8.69965 26.8903 9.2437C26.5335 9.78774 26.3526 10.4145 26.3691 11.0502V11.0548ZM0 17.8012V21.3326L0.464121 23.8078C0.566439 24.0707 0.642428 24.3417 0.691137 24.6174C1.10095 26.0885 1.70584 27.5075 2.49213 28.8421C2.63338 29.084 2.7595 29.2189 2.87553 29.433L4.15691 31.2336C4.3133 31.429 4.43942 31.5732 4.6059 31.7593C4.77238 31.9454 4.90859 32.1687 5.08011 32.3409C5.4519 32.7133 5.90837 33.0052 6.41683 33.1959C6.92529 33.3865 7.47317 33.4711 8.02122 33.4436C8.55869 33.4066 9.08015 33.2581 9.54663 33.0092C10.0131 32.7602 10.4126 32.4172 10.7151 32.0059C12.1882 29.8191 10.3267 25.4177 12.0772 25.4177C13.0105 25.4177 13.0862 25.883 13.0862 26.6693V34.6719C13.0862 35.984 13.2779 36.8168 14.2515 37.6775C15.321 38.6081 16.0223 38.4406 17.4197 38.4406C17.6473 38.4166 17.8681 38.3535 18.0705 38.2545C18.7003 38.0173 19.2309 37.5998 19.5839 37.0634C20.2044 36.2166 20.2246 35.3419 20.2246 34.2718C20.2246 28.1023 20.3003 21.9282 20.2246 15.754C20.2246 15.3539 20.159 15.2888 20.3709 15.0282C20.4418 14.9202 20.5407 14.8303 20.6588 14.7665C20.7769 14.7028 20.9104 14.6672 21.0472 14.663C21.184 14.6589 21.3197 14.6863 21.4421 14.7427C21.5645 14.7992 21.6697 14.8829 21.7481 14.9863C21.9953 15.2422 21.9398 15.2143 21.9348 15.6749C21.9045 18.7736 21.8137 34.8952 22.0104 35.8444C22.1717 36.6776 22.6783 37.4202 23.423 37.9148C24.4319 38.5802 25.3097 38.4313 26.5255 38.4313C27.0308 38.298 27.4909 38.0482 27.8624 37.7055C28.2849 37.3584 28.6141 36.9256 28.8242 36.4411C29.0343 35.9567 29.1196 35.4338 29.0732 34.9138C29.0429 27.0694 29.1438 19.2203 29.0732 11.3758C29.0732 10.9106 29.164 10.1243 29.84 10.1243C31.0507 10.1243 30.8489 11.0129 30.8489 12.0877V29.8145C30.8053 30.3926 30.9212 30.9715 31.1858 31.4971C31.4505 32.0227 31.8553 32.4779 32.3624 32.8201C32.8366 33.1412 34.1381 33.6018 34.7586 33.4203C34.9544 33.3506 35.1572 33.2992 35.364 33.2668C35.5973 33.2385 35.8193 33.157 36.0098 33.0295C36.9632 32.5642 37.3971 32.0012 37.9974 31.2568L39.5663 29.0142C40.0318 28.2014 40.4527 27.3675 40.8275 26.5157C40.9241 26.3337 41.0018 26.1436 41.0596 25.9481C41.2059 25.5573 41.3118 25.199 41.4329 24.7989C41.4834 24.6407 41.5338 24.3755 41.5742 24.2219C41.6599 23.9102 41.7003 23.9428 41.776 23.6217L42.1896 21.0255V17.6477C42.1896 17.0196 41.8869 16.5543 41.8516 15.8424C41.8322 15.5368 41.7518 15.2371 41.6145 14.9584C41.4211 14.0917 41.1477 13.2418 40.7973 12.418L39.6723 10.1568C39.1488 9.21155 38.5216 8.31822 37.8007 7.49084C37.619 7.27682 37.4627 7.0721 37.2962 6.88134C36.8875 6.45794 36.5849 6.14156 36.151 5.74143C35.1723 4.82605 34.107 3.99301 32.9677 3.25223C32.0231 2.62651 31.0083 2.09617 29.9409 1.67032C29.7939 1.62924 29.6506 1.57792 29.5121 1.51678C28.5211 1.09449 27.489 0.759553 26.4297 0.516449C26.2594 0.491744 26.091 0.457561 25.9252 0.41409C25.4308 0.283457 24.924 0.196219 24.4118 0.153539C24.0809 0.0753741 23.7433 0.0239993 23.4028 0H19.0643C18.3521 0.0423494 17.643 0.12157 16.9404 0.237288C16.622 0.289794 16.3083 0.36445 16.0021 0.460617C14.4959 0.804222 13.0345 1.29718 11.6434 1.93087C11.1182 2.161 10.6123 2.42694 10.13 2.72648C9.1505 3.25918 8.23263 3.88277 7.39063 4.58756L5.51396 6.22996C4.15413 7.62643 3.01456 9.19275 2.1289 10.8827L1.76063 11.641C1.67648 11.7534 1.60863 11.8754 1.55884 12.004C1.51506 12.1415 1.46285 12.2767 1.40245 12.4087C1.05199 13.2325 0.778576 14.0824 0.585196 14.9491C0.45078 15.2271 0.370518 15.5248 0.348091 15.8285C0.282509 16.5357 0 17.0847 0 17.8012Z" fill="#FD740E"/>
</svg>
