<svg width="36" height="44" viewBox="0 0 36 44" fill="none" xmlns="http://www.w3.org/2000/svg">
<path d="M1.566 3.652L18 0L34.434 3.652C34.8781 3.75073 35.2753 3.99793 35.56 4.35281C35.8447 4.70769 35.9999 5.14903 36 5.604V25.578C35.9999 27.5535 35.512 29.4984 34.5798 31.24C33.6475 32.9817 32.2997 34.4663 30.656 35.562L18 44L5.344 35.562C3.70055 34.4665 2.35292 32.9822 1.4207 31.2409C0.488471 29.4996 0.000472713 27.5551 0 25.58V5.604C7.80756e-05 5.14903 0.155276 4.70769 0.439979 4.35281C0.724682 3.99793 1.12187 3.75073 1.566 3.652ZM18 25L23.878 28.09L22.756 21.546L27.51 16.91L20.938 15.954L18 10L15.06 15.954L8.49 16.91L13.244 21.546L12.124 28.09L18 25Z" fill="#FD740E"/>
</svg>
