<svg width="30" height="30" viewBox="0 0 30 30" fill="none" xmlns="http://www.w3.org/2000/svg">
<path fill-rule="evenodd" clip-rule="evenodd" d="M19.8642 4.10634C19.8642 7.43783 22.5689 10.1385 25.9052 10.1385C26.2726 10.1367 26.639 10.1015 27 10.0332V21.9922C27 27.0234 24.0322 30 18.9936 30H8.01954C2.96776 30 0 27.0234 0 21.9922V11.0341C0 6.00293 2.96776 3 8.01954 3H19.9697C19.8988 3.36451 19.8635 3.73502 19.8642 4.10634ZM16.725 19.3449L21.0117 13.8132V13.7868C21.3787 13.2937 21.2851 12.5983 20.8007 12.2195C20.5662 12.0385 20.2683 11.9602 19.975 12.0024C19.6817 12.0446 19.418 12.2037 19.2443 12.4434L15.6302 17.0927L11.5149 13.8527C11.2799 13.6696 10.9811 13.5888 10.6857 13.6285C10.3904 13.6681 10.1235 13.8249 9.94528 14.0634L5.51343 19.7795C5.35765 19.9737 5.27378 20.2156 5.27601 20.4644C5.25029 20.9672 5.5678 21.424 6.04856 21.5757C6.52931 21.7275 7.05206 21.536 7.32046 21.1098L11.0269 16.3156L15.1422 19.5424C15.3762 19.7311 15.6771 19.8167 15.9756 19.7794C16.2741 19.7422 16.5446 19.5853 16.725 19.3449Z" fill="#05503A"/>
<circle opacity="0.4" cx="26.25" cy="3.75" r="3.75" fill="#05503A"/>
</svg>
