<svg width="85" height="75" viewBox="0 0 85 75" fill="none" xmlns="http://www.w3.org/2000/svg">
<path d="M0 4C0 1.79086 1.79086 0 4 0H81C83.2091 0 85 1.79086 85 4V71C85 73.2091 83.2091 75 81 75H0V4Z" fill="#0768F6"/>
<path d="M59.6666 46.3366C59.6658 48.6159 58.8868 50.8266 57.4583 52.6027C56.0298 54.3788 54.0377 55.6138 51.8116 56.1033L50.7483 52.9133C51.722 52.7529 52.648 52.3786 53.4596 51.8171C54.2712 51.2557 54.9481 50.5212 55.4416 49.6666H51.3333C50.4492 49.6666 49.6014 49.3155 48.9762 48.6903C48.3511 48.0652 47.9999 47.2174 47.9999 46.3333V39.6666C47.9999 38.7826 48.3511 37.9347 48.9762 37.3096C49.6014 36.6845 50.4492 36.3333 51.3333 36.3333H56.2299C55.8232 33.1115 54.2548 30.1488 51.819 28.0011C49.3831 25.8534 46.2473 24.6684 42.9999 24.6684C39.7525 24.6684 36.6167 25.8534 34.1809 28.0011C31.7451 30.1488 30.1766 33.1115 29.7699 36.3333H34.6666C35.5506 36.3333 36.3985 36.6845 37.0236 37.3096C37.6487 37.9347 37.9999 38.7826 37.9999 39.6666V46.3333C37.9999 47.2174 37.6487 48.0652 37.0236 48.6903C36.3985 49.3155 35.5506 49.6666 34.6666 49.6666H29.6666C28.7825 49.6666 27.9347 49.3155 27.3096 48.6903C26.6844 48.0652 26.3333 47.2174 26.3333 46.3333V38C26.3333 28.795 33.7949 21.3333 42.9999 21.3333C52.2049 21.3333 59.6666 28.795 59.6666 38V46.3366ZM56.3333 46.3333V39.6666H51.3333V46.3333H56.3333ZM29.6666 39.6666V46.3333H34.6666V39.6666H29.6666Z" fill="white"/>
</svg>
