<svg width="40" height="40" viewBox="0 0 40 40" fill="none" xmlns="http://www.w3.org/2000/svg">
<circle cx="20" cy="20" r="20" fill="#0768F6"/>
<path d="M22 22.252V24.342C21.0949 24.022 20.1263 23.9239 19.1754 24.0558C18.2245 24.1877 17.3192 24.5459 16.5354 25.1002C15.7517 25.6545 15.1123 26.3888 14.6712 27.2414C14.23 28.094 13.9998 29.04 14 30L12 29.999C11.9997 28.7779 12.2789 27.5729 12.8163 26.4764C13.3537 25.3799 14.1349 24.4209 15.1002 23.673C16.0655 22.9251 17.1892 22.4081 18.3852 22.1616C19.5811 21.9152 20.8177 21.9457 22 22.251V22.252ZM20 21C16.685 21 14 18.315 14 15C14 11.685 16.685 9 20 9C23.315 9 26 11.685 26 15C26 18.315 23.315 21 20 21ZM20 19C22.21 19 24 17.21 24 15C24 12.79 22.21 11 20 11C17.79 11 16 12.79 16 15C16 17.21 17.79 19 20 19ZM26.586 25L24.757 23.172L26.172 21.757L30.414 26L26.172 30.243L24.757 28.828L26.586 27H23V25H26.586Z" fill="white"/>
</svg>
