<svg width="30" height="30" viewBox="0 0 30 30" fill="none" xmlns="http://www.w3.org/2000/svg">
<path d="M3.60901 18.7845L8.71201 13.6815L12.954 17.925L17.6895 13.1895L15 10.5H22.5V18L19.8105 15.3105L12.954 22.167L8.71201 17.925L4.99951 21.636C6.68463 24.1723 9.27095 25.9731 12.2344 26.6735C15.1978 27.3739 18.3166 26.9215 20.9589 25.4081C23.6012 23.8946 25.5693 21.4332 26.4644 18.5226C27.3595 15.6121 27.1146 12.4701 25.7794 9.7334C24.4442 6.99669 22.1185 4.86994 19.2736 3.78412C16.4287 2.69829 13.2774 2.73461 10.4583 3.8857C7.63918 5.0368 5.36311 7.21658 4.09131 9.98333C2.81951 12.7501 2.64709 15.8969 3.60901 18.786V18.7845ZM1.30201 21.1215L1.28701 21.1065L1.29301 21.1005C0.437905 19.1805 -0.00268155 17.1018 1.22787e-05 15C1.22787e-05 6.7155 6.71551 0 15 0C23.2845 0 30 6.7155 30 15C30 23.2845 23.2845 30 15 30C8.89501 30 3.64501 26.355 1.30201 21.1215Z" fill="#0768F6"/>
</svg>
