<svg width="28" height="30" viewBox="0 0 28 30" fill="none" xmlns="http://www.w3.org/2000/svg">
<path d="M6.5 6.00012V1.50012C6.5 1.1023 6.65804 0.720766 6.93934 0.439462C7.22064 0.158157 7.60218 0.00012207 8 0.00012207H26C26.3978 0.00012207 26.7794 0.158157 27.0607 0.439462C27.342 0.720766 27.5 1.1023 27.5 1.50012V22.5001C27.5 22.8979 27.342 23.2795 27.0607 23.5608C26.7794 23.8421 26.3978 24.0001 26 24.0001H21.5V28.5001C21.5 29.3281 20.825 30.0001 19.9895 30.0001H2.0105C1.81269 30.0013 1.6166 29.9634 1.43348 29.8886C1.25037 29.8137 1.08385 29.7035 0.943488 29.5641C0.803126 29.4247 0.691689 29.2589 0.615581 29.0763C0.539473 28.8938 0.500194 28.6979 0.5 28.5001L0.5045 7.50012C0.5045 6.67212 1.1795 6.00012 2.015 6.00012H6.5ZM3.5045 9.00012L3.5 27.0001H18.5V9.00012H3.5045ZM9.5 6.00012H21.5V21.0001H24.5V3.00012H9.5V6.00012Z" fill="#0768F6"/>
</svg>
