<svg width="36" height="36" viewBox="0 0 36 36" fill="none" xmlns="http://www.w3.org/2000/svg">
<path d="M18 36C8.0586 36 0 27.9414 0 18C0 8.0586 8.0586 0 18 0C27.9414 0 36 8.0586 36 18C36 27.9414 27.9414 36 18 36ZM18 32.4C21.8191 32.4 25.4818 30.8829 28.1823 28.1823C30.8829 25.4818 32.4 21.8191 32.4 18C32.4 14.1809 30.8829 10.5182 28.1823 7.81766C25.4818 5.11714 21.8191 3.6 18 3.6C14.1809 3.6 10.5182 5.11714 7.81766 7.81766C5.11714 10.5182 3.6 14.1809 3.6 18C3.6 21.8191 5.11714 25.4818 7.81766 28.1823C10.5182 30.8829 14.1809 32.4 18 32.4ZM16.2 25.2H10.8V10.8H16.2V7.2H19.8V10.8H21.6C22.4357 10.8 23.2549 11.0327 23.9658 11.4721C24.6767 11.9114 25.2512 12.5401 25.6249 13.2875C25.9987 14.035 26.1569 14.8718 26.0818 15.7041C26.0068 16.5365 25.7014 17.3314 25.2 18C25.7014 18.6686 26.0068 19.4635 26.0818 20.2959C26.1569 21.1282 25.9987 21.965 25.6249 22.7125C25.2512 23.4599 24.6767 24.0886 23.9658 24.5279C23.2549 24.9673 22.4357 25.2 21.6 25.2H19.8V28.8H16.2V25.2ZM14.4 19.8V21.6H21.6C21.8387 21.6 22.0676 21.5052 22.2364 21.3364C22.4052 21.1676 22.5 20.9387 22.5 20.7C22.5 20.4613 22.4052 20.2324 22.2364 20.0636C22.0676 19.8948 21.8387 19.8 21.6 19.8H14.4ZM14.4 14.4V16.2H21.6C21.8387 16.2 22.0676 16.1052 22.2364 15.9364C22.4052 15.7676 22.5 15.5387 22.5 15.3C22.5 15.0613 22.4052 14.8324 22.2364 14.6636C22.0676 14.4948 21.8387 14.4 21.6 14.4H14.4Z" fill="#002163"/>
</svg>
