<svg width="28" height="34" viewBox="0 0 28 34" fill="none" xmlns="http://www.w3.org/2000/svg">
<path d="M14.4358 9.83301C13.1218 9.83301 11.0878 8.33901 8.94585 8.39301C6.11985 8.42901 3.52785 10.031 2.06985 12.569C-0.864152 17.663 1.31385 25.187 4.17585 29.327C5.57985 31.343 7.23585 33.611 9.43185 33.539C11.5378 33.449 12.3298 32.171 14.8858 32.171C17.4238 32.171 18.1438 33.539 20.3758 33.485C22.6438 33.449 24.0838 31.433 25.4698 29.399C27.0718 27.059 27.7378 24.791 27.7738 24.665C27.7198 24.647 23.3638 22.973 23.3098 17.933C23.2738 13.721 26.7478 11.705 26.9098 11.615C24.9298 8.71701 21.8878 8.39301 20.8258 8.32101C18.0538 8.10501 15.7318 9.83301 14.4358 9.83301ZM19.1158 5.58501C20.2858 4.18101 21.0598 2.21901 20.8438 0.275009C19.1698 0.347009 17.1538 1.39101 15.9478 2.79501C14.8678 4.03701 13.9318 6.03501 14.1838 7.94301C16.0378 8.08701 17.9458 6.98901 19.1158 5.58501Z" fill="white"/>
</svg>
