<svg width="80" height="80" viewBox="0 0 80 80" fill="none" xmlns="http://www.w3.org/2000/svg">
<circle cx="40" cy="40" r="40" fill="#C3D7F4"/>
<path d="M52 30H58C58.5304 30 59.0391 30.2107 59.4142 30.5858C59.7893 30.9609 60 31.4696 60 32V56C60 56.5304 59.7893 57.0391 59.4142 57.4142C59.0391 57.7893 58.5304 58 58 58H22C21.4696 58 20.9609 57.7893 20.5858 57.4142C20.2107 57.0391 20 56.5304 20 56V24C20 23.4696 20.2107 22.9609 20.5858 22.5858C20.9609 22.2107 21.4696 22 22 22H52V30ZM24 34V54H56V34H24ZM24 26V30H48V26H24ZM46 42H52V46H46V42Z" fill="#0768F6"/>
</svg>
