<svg width="40" height="40" viewBox="0 0 40 40" fill="none" xmlns="http://www.w3.org/2000/svg">
<circle cx="20" cy="20" r="20" fill="#0768F6"/>
<path d="M10 28.0001H30V30.0001H10V28.0001ZM12 20.0001H14V27.0001H12V20.0001ZM17 20.0001H19V27.0001H17V20.0001ZM21 20.0001H23V27.0001H21V20.0001ZM26 20.0001H28V27.0001H26V20.0001ZM10 15.0001L20 10L30 15.0001V19.0001H10V15.0001ZM12 16.2361V17.0001H28V16.2361L20 12.2361L12 16.2361ZM20 16.0001C19.7348 16.0001 19.4804 15.8947 19.2929 15.7072C19.1054 15.5196 19 15.2653 19 15.0001C19 14.7348 19.1054 14.4805 19.2929 14.2929C19.4804 14.1054 19.7348 14.0001 20 14.0001C20.2652 14.0001 20.5196 14.1054 20.7071 14.2929C20.8946 14.4805 21 14.7348 21 15.0001C21 15.2653 20.8946 15.5196 20.7071 15.7072C20.5196 15.8947 20.2652 16.0001 20 16.0001Z" fill="white"/>
</svg>
