<svg width="81" height="22" viewBox="0 0 81 22" fill="none" xmlns="http://www.w3.org/2000/svg">
<path fill-rule="evenodd" clip-rule="evenodd" d="M13.8798 6.32487C13.8798 6.5112 13.909 6.39674 13.9064 6.54315L13.8798 19.8318C13.8798 20.2098 13.9462 20.6304 13.4311 20.6304C12.7805 20.6304 12.985 19.5656 12.985 19.1503C12.985 17.7128 13.0513 8.80583 12.9425 8.41984C12.9133 8.31869 12.8469 8.15365 12.8097 8.05782C12.6974 7.82818 12.5424 7.62218 12.353 7.45088L12.1273 7.27519C11.7236 6.96907 11.2881 7.009 10.7996 7.009C10.5539 7.04413 10.3196 7.13519 10.1145 7.27519C9.92097 7.40687 9.7505 7.56966 9.60993 7.75701C9.26472 8.21221 9.23286 8.5769 9.23286 9.3542V20.1086C9.23286 20.3562 9.24879 20.3455 9.11337 20.4813C8.78675 20.8087 8.63274 20.5771 8.33533 20.4201V17.7581C8.33533 17.5664 8.30081 17.4653 8.29815 17.3535L8.33267 16.6826C8.33267 16.5069 8.30081 16.4777 8.30081 16.3685C8.30081 16.2594 8.33267 16.2328 8.33267 16.0544C8.33267 15.3809 8.36985 14.9151 8.16538 14.2922C7.7538 13.065 6.06761 12.6604 5.04528 13.7198C4.86185 13.9201 4.72035 14.1552 4.62913 14.4113C4.53791 14.6673 4.49883 14.9391 4.5142 15.2106C4.5142 15.5646 4.62307 17.3801 4.40798 17.5744C4.31671 17.6551 4.19884 17.6989 4.07718 17.6974C3.95552 17.6959 3.83873 17.6493 3.74944 17.5664L3.29536 16.9808C3.21836 16.869 3.15197 16.7865 3.0909 16.6906L1.85879 14.1937C1.84493 14.1221 1.8254 14.0518 1.80037 13.9834C1.74588 13.862 1.70749 13.7341 1.68619 13.6027C1.65698 13.443 1.60652 13.3365 1.57731 13.1741C1.5481 13.0118 1.55607 12.8733 1.52421 12.7349C1.31634 11.7388 1.30462 10.7115 1.48968 9.71091C1.57466 9.26636 1.73929 8.24682 1.95173 7.84752C1.98967 7.78966 2.01751 7.72575 2.03404 7.65852L2.20133 7.24591C2.22632 7.16901 2.2574 7.09424 2.29427 7.02231L2.69259 6.25565C2.97542 5.77222 3.2885 5.30722 3.62994 4.86344C4.0814 4.34369 4.57815 3.8653 5.11432 3.43395L6.52169 2.50759C6.59604 2.47564 6.62525 2.45967 6.70225 2.41974C6.77926 2.37981 6.83502 2.35851 6.91734 2.32125C7.19882 2.18815 7.41656 2.07634 7.71396 1.95656C7.89188 1.88734 7.99278 1.89001 8.16538 1.82612L9.06026 1.55992L10.6216 1.3443C11.2947 1.32042 11.9683 1.36681 12.6318 1.48272C12.7805 1.512 13.0089 1.52798 13.1416 1.5546L14.4879 1.95656C14.6419 2.02311 14.7535 2.05771 14.8995 2.12958C15.0456 2.20146 15.1438 2.24671 15.2978 2.3106C15.4518 2.37449 15.5315 2.43305 15.6882 2.50492L15.9139 2.63802L15.9325 2.65932C16.4635 2.96545 17.3425 3.53777 17.7063 3.977L17.9931 4.25651C18.3866 4.64496 18.7422 5.07014 19.0552 5.52627C19.2984 5.87573 19.5192 6.24026 19.7164 6.61768L19.8014 6.7987L19.9554 7.09418C19.968 7.12724 19.9786 7.16102 19.9873 7.19533C20.0059 7.27321 20.0383 7.34713 20.0829 7.41362C20.3329 7.98532 20.5173 8.58367 20.6325 9.19714C20.7441 10.2193 20.8184 10.1847 20.8184 11.3906C20.8104 12.2801 20.6644 13.1629 20.3856 14.0073C20.3431 14.1351 20.3511 14.1671 20.3139 14.2948C20.1653 14.763 19.9742 15.2166 19.743 15.6498C19.4954 16.1577 19.1974 16.6393 18.8534 17.0873C18.6596 17.3002 18.3223 17.8326 17.9665 17.6729C17.8718 17.6366 17.7922 17.5692 17.7406 17.4817C17.689 17.3942 17.6685 17.2917 17.6824 17.1911C17.6372 14.4492 17.6824 11.4572 17.6824 8.70468C17.685 7.45088 17.9718 5.5875 16.976 4.7889C16.6932 4.56099 16.3513 4.41885 15.9905 4.37924C15.6298 4.33962 15.2653 4.40418 14.94 4.5653C14.6146 4.72642 14.342 4.9774 14.1541 5.28866C13.9663 5.59993 13.8711 5.95852 13.8798 6.3222V6.32487ZM0 10.1847V12.2052L0.244298 13.6214C0.298154 13.7718 0.338152 13.9268 0.363791 14.0845C0.5795 14.9262 0.897896 15.738 1.31177 16.5016C1.38612 16.64 1.45251 16.7172 1.51358 16.8397L2.18806 17.8699C2.27038 17.9817 2.33676 18.0642 2.42439 18.1707C2.51202 18.2772 2.58371 18.4049 2.674 18.5034C2.8697 18.7165 3.10997 18.8835 3.3776 18.9926C3.64524 19.1017 3.93362 19.1501 4.2221 19.1343C4.505 19.1132 4.77948 19.0282 5.02502 18.8858C5.27057 18.7433 5.48083 18.5471 5.64009 18.3118C6.41547 17.0606 5.43562 14.5424 6.35705 14.5424C6.8483 14.5424 6.88813 14.8086 6.88813 15.2585V19.8371C6.88813 20.5878 6.98904 21.0643 7.50153 21.5567C8.06448 22.0891 8.43358 21.9933 9.16913 21.9933C9.28895 21.9796 9.40514 21.9435 9.51168 21.8868C9.84323 21.7511 10.1225 21.5122 10.3083 21.2053C10.6349 20.7209 10.6455 20.2204 10.6455 19.6081C10.6455 16.0784 10.6854 12.5459 10.6455 9.01347C10.6455 8.78454 10.611 8.74727 10.7225 8.5982C10.7599 8.53643 10.812 8.48497 10.8741 8.44849C10.9363 8.412 11.0065 8.39165 11.0785 8.38927C11.1505 8.38689 11.222 8.40256 11.2864 8.43486C11.3508 8.46716 11.4062 8.51507 11.4475 8.57424C11.5776 8.72065 11.5484 8.70468 11.5457 8.96821C11.5298 10.7411 11.482 19.9649 11.5856 20.5079C11.6704 20.9846 11.9371 21.4095 12.3291 21.6925C12.8601 22.0731 13.3222 21.988 13.9621 21.988C14.2281 21.9117 14.4703 21.7688 14.6658 21.5727C14.8882 21.3741 15.0615 21.1265 15.1721 20.8493C15.2827 20.5722 15.3275 20.273 15.3031 19.9755C15.2872 15.4874 15.3403 10.9966 15.3031 6.50854C15.3031 6.24234 15.3509 5.79247 15.7067 5.79247C16.344 5.79247 16.2378 6.30091 16.2378 6.91583V17.058C16.2148 17.3887 16.2758 17.7199 16.4152 18.0207C16.5545 18.3214 16.7675 18.5818 17.0345 18.7776C17.2841 18.9613 17.9692 19.2248 18.2958 19.121C18.3988 19.0811 18.5055 19.0517 18.6144 19.0332C18.7372 19.017 18.8541 18.9703 18.9543 18.8974C19.4562 18.6312 19.6846 18.3091 20.0005 17.8832L20.8264 16.6001C21.0714 16.135 21.2929 15.658 21.4902 15.1706C21.5411 15.0665 21.582 14.9577 21.6124 14.8459C21.6894 14.6223 21.7451 14.4173 21.8089 14.1884C21.8354 14.0979 21.862 13.9461 21.8832 13.8583C21.9284 13.6799 21.9496 13.6986 21.9894 13.5149L22.2072 12.0295V10.0969C22.2072 9.73752 22.0479 9.47133 22.0293 9.06404C22.0191 8.88919 21.9767 8.71773 21.9045 8.55827C21.8027 8.06238 21.6588 7.57612 21.4743 7.10483L20.8821 5.8111C20.6066 5.27027 20.2765 4.75916 19.897 4.28579C19.8014 4.16334 19.7191 4.04621 19.6314 3.93707C19.4164 3.69483 19.257 3.51381 19.0287 3.28488C18.5135 2.76116 17.9528 2.28455 17.3531 1.86072C16.8559 1.50273 16.3217 1.1993 15.7599 0.955651C15.6825 0.932151 15.6071 0.902784 15.5341 0.867806C15.0125 0.626197 14.4693 0.434569 13.9117 0.29548C13.8221 0.281345 13.7334 0.261788 13.6461 0.236916C13.3859 0.162176 13.1192 0.112264 12.8495 0.0878454C12.6754 0.0431243 12.4977 0.0137309 12.3184 0H10.0348C9.65991 0.0242297 9.28668 0.0695548 8.91687 0.135761C8.74925 0.165802 8.58414 0.208516 8.42296 0.263536C7.63017 0.460125 6.86093 0.742163 6.12869 1.10472C5.85222 1.23639 5.58594 1.38854 5.33206 1.55992C4.81651 1.8647 4.33337 2.22148 3.89017 2.62471L2.90236 3.56439C2.18659 4.36337 1.58676 5.25951 1.12058 6.22637L0.926738 6.66028C0.88244 6.72454 0.846731 6.79435 0.820522 6.86791C0.797477 6.94661 0.769993 7.02393 0.738204 7.0995C0.553733 7.5708 0.409816 8.05705 0.308028 8.55294C0.237275 8.712 0.195028 8.88231 0.183223 9.05606C0.148703 9.46068 0 9.77479 0 10.1847Z" fill="#FD740E"/>
<path fill-rule="evenodd" clip-rule="evenodd" d="M6.49231 10.9116C6.43146 10.9171 6.37013 10.91 6.31212 10.8908C6.2541 10.8715 6.20065 10.8406 6.15508 10.7998C6.11113 10.7639 6.075 10.7193 6.04892 10.6689C6.02285 10.6184 6.00737 10.5632 6.00346 10.5065C5.99955 10.4498 6.00728 10.3929 6.02619 10.3393C6.04509 10.2858 6.07476 10.2367 6.11335 10.1951C6.15195 10.1534 6.19865 10.1202 6.25057 10.0974C6.3025 10.0746 6.35853 10.0628 6.41521 10.0626C6.47189 10.0624 6.52801 10.0738 6.58009 10.0962C6.63218 10.1186 6.67912 10.1515 6.71802 10.1928C6.77069 10.2487 6.80753 10.3176 6.82473 10.3924C6.84193 10.4673 6.83886 10.5454 6.81585 10.6187C6.79283 10.692 6.75071 10.7578 6.69383 10.8093C6.63695 10.8608 6.56738 10.8961 6.49231 10.9116ZM4.61228 10.5522C4.60569 10.8031 4.66328 11.0514 4.77957 11.2736C5.02387 11.6836 5.20975 11.9737 5.67445 12.1734C5.96568 12.3054 6.28656 12.358 6.60459 12.3258C6.92262 12.2935 7.2265 12.1776 7.48544 11.9897C7.82817 11.7435 8.07055 11.3814 8.16788 10.9701C8.19974 10.8477 8.22364 10.8104 8.25019 10.7039C8.27853 10.5007 8.26314 10.2938 8.20505 10.097C8.14612 9.80198 8.01368 9.52669 7.82008 9.29677C7.62647 9.06684 7.37798 8.88976 7.09775 8.782C6.87357 8.6845 6.6314 8.63553 6.38705 8.63828C6.1427 8.64103 5.90169 8.69545 5.67976 8.79797C5.35115 8.95273 5.07494 9.20057 4.88524 9.5109C4.69554 9.82122 4.60065 10.1805 4.61228 10.5442V10.5522Z" fill="#FD740E"/>
<path d="M38.9972 11.0473C38.9574 14.6224 36.772 18.1947 31.9259 18.1947C27.0798 18.1947 24.8359 14.6996 24.8359 11.0659C24.8359 7.43234 27.1594 3.78011 31.9259 3.78011C36.6923 3.78011 39.0344 7.43501 38.9972 11.0473ZM27.3958 11.1059C27.4542 13.3765 28.6757 15.8069 31.9259 15.8069C35.1761 15.8069 36.3976 13.3579 36.4401 11.0872C36.4799 8.75801 35.1788 6.14927 31.9259 6.14927C28.673 6.14927 27.3506 8.78197 27.3958 11.1059Z" fill="#0768F6"/>
<path d="M47.7639 17.9392H45.0634L39.333 4.05698H42.254L46.4097 14.8194L50.584 4.05698H53.5049L47.7639 17.9392Z" fill="#0768F6"/>
<path d="M55.1085 13.8717C55.2652 15.0749 56.3114 15.9454 58.0029 15.9454C58.8898 15.9454 60.0529 15.6073 60.6026 15.035L62.1374 16.5549C61.1124 17.6197 59.4395 18.1362 57.9631 18.1362C54.6146 18.1362 52.623 16.0625 52.623 12.9426C52.623 9.97986 54.6332 7.84761 57.7852 7.84761C61.0354 7.84761 63.0641 9.86273 62.6897 13.8717H55.1085ZM60.3875 11.8752C60.2308 10.6134 59.2456 9.97986 57.8675 9.97986C56.5663 9.97986 55.5015 10.6134 55.1483 11.8752H60.3875Z" fill="#0768F6"/>
<path d="M70.8836 10.7305C70.5614 10.4321 70.1826 10.2015 69.7698 10.0524C69.357 9.90337 68.9186 9.83886 68.4805 9.86272C67.3387 9.86272 66.7093 10.2168 66.7093 10.829C66.7093 11.4413 67.2803 11.8166 68.5203 11.8938C70.3526 12.0109 72.676 12.4262 72.676 15.0137C72.676 16.7306 71.2793 18.208 68.5017 18.208C66.9643 18.208 65.4294 17.9418 64.0088 16.4724L65.1931 14.7528C65.8809 15.5248 67.4582 16.0838 68.5416 16.1157C69.4471 16.137 70.2941 15.6632 70.2941 14.9524C70.2941 14.2417 69.7418 14.0048 68.3637 13.9249C66.5314 13.7865 64.346 13.1263 64.346 10.9036C64.346 8.65152 66.6695 7.86357 68.4407 7.86357C69.9596 7.86357 71.0961 8.15905 72.2246 9.14665L70.8836 10.7305Z" fill="#0768F6"/>
<path d="M77.5999 5.40126V8.1644H80.2792V10.2381H77.5813V14.444C77.5813 15.3704 78.0938 15.8256 78.8426 15.8256C79.2463 15.8133 79.6424 15.7125 80.003 15.5301L80.6722 17.5825C80.0416 17.8463 79.3666 17.9873 78.6833 17.9978C76.5775 18.0776 75.1967 16.8717 75.1967 14.444V10.2381H73.3857V8.1644H75.1967V5.65681L77.5999 5.40126Z" fill="#0768F6"/>
</svg>
