<svg width="30" height="28" viewBox="0 0 30 28" fill="none" xmlns="http://www.w3.org/2000/svg">
<path d="M1.5 0.5H28.5C28.8978 0.5 29.2794 0.658035 29.5607 0.93934C29.842 1.22064 30 1.60218 30 2V26C30 26.3978 29.842 26.7794 29.5607 27.0607C29.2794 27.342 28.8978 27.5 28.5 27.5H1.5C1.10218 27.5 0.720644 27.342 0.43934 27.0607C0.158035 26.7794 0 26.3978 0 26V2C0 1.60218 0.158035 1.22064 0.43934 0.93934C0.720644 0.658035 1.10218 0.5 1.5 0.5ZM27 12.5H3V24.5H27V12.5ZM27 9.5V3.5H3V9.5H27ZM18 18.5H24V21.5H18V18.5Z" fill="#002163"/>
</svg>
