<svg width="40" height="40" viewBox="0 0 40 40" fill="none" xmlns="http://www.w3.org/2000/svg">
<circle cx="20" cy="20" r="20" fill="#0768F6"/>
<path fill-rule="evenodd" clip-rule="evenodd" d="M29.5232 17.7528C28.8841 13.8194 25.5431 10.8932 21.5598 10.778C21.3704 10.7706 21.1858 10.8387 21.0467 10.9675C20.9077 11.0963 20.8255 11.2751 20.8184 11.4645V11.4645V11.5286L21.2669 18.2379C21.2963 18.6896 21.6846 19.0329 22.1364 19.0068L28.8641 18.5583C29.0537 18.5443 29.2298 18.4553 29.3535 18.3109C29.4773 18.1666 29.5383 17.9789 29.5232 17.7894V17.7528Z" stroke="white" stroke-width="1.5" stroke-linecap="round" stroke-linejoin="round"/>
<path d="M16.901 14.7688C17.329 14.6698 17.7669 14.8888 17.9445 15.2906C17.991 15.385 18.019 15.4876 18.0269 15.5926C18.1184 16.8924 18.3106 19.7391 18.4205 21.2768C18.4392 21.5538 18.5676 21.8119 18.7772 21.994C18.9868 22.1761 19.2603 22.2672 19.5372 22.2471V22.2471L25.1848 21.8993C25.4369 21.8841 25.6841 21.9738 25.8678 22.1471C26.0515 22.3205 26.1555 22.562 26.155 22.8146V22.8146C25.9262 26.225 23.4759 29.076 20.1387 29.815C16.8015 30.554 13.3767 29.004 11.7294 26.0091C11.2376 25.1471 10.9262 24.1942 10.8141 23.2082C10.7661 22.9056 10.7477 22.599 10.7591 22.2928C10.7689 18.6508 13.3267 15.5128 16.8919 14.7688" stroke="white" stroke-width="1.5" stroke-linecap="round" stroke-linejoin="round"/>
</svg>
