<svg width="60" height="60" viewBox="0 0 60 60" fill="none" xmlns="http://www.w3.org/2000/svg">
<ellipse cx="29.6596" cy="30" rx="29.6596" ry="30" fill="#0768F6"/>
<path d="M29.6582 43.358C35.2576 43.358 39.3357 40.1491 39.3229 35.7259C39.3357 32.4531 37.2903 30.1009 33.6212 29.5767V29.3722C36.4593 28.7585 38.3641 26.6491 38.3513 23.7088C38.3641 19.7202 34.9636 16.4602 29.7349 16.4602C24.6468 16.4602 20.7093 19.4901 20.607 23.875H25.1709C25.2476 21.6761 27.2931 20.3082 29.7093 20.3082C32.1511 20.3082 33.7746 21.7912 33.7619 23.9901C33.7746 26.2784 31.8826 27.7997 29.1724 27.7997H26.8584V31.456H29.1724C32.4834 31.456 34.4522 33.1179 34.4394 35.483C34.4522 37.7969 32.4451 39.3821 29.6454 39.3821C27.0119 39.3821 24.9792 38.0142 24.8641 35.8793H20.0573C20.1851 40.3026 24.1354 43.358 29.6582 43.358Z" fill="white"/>
</svg>
