<svg width="48" height="55" viewBox="0 0 48 55" fill="none" xmlns="http://www.w3.org/2000/svg">
<path d="M39.5 18.6667H44.6667C45.3518 18.6667 46.0089 18.9388 46.4934 19.4233C46.9778 19.9078 47.25 20.5649 47.25 21.25V52.25C47.25 52.9351 46.9778 53.5922 46.4934 54.0767C46.0089 54.5612 45.3518 54.8333 44.6667 54.8333H3.33333C2.64819 54.8333 1.99111 54.5612 1.50664 54.0767C1.02217 53.5922 0.75 52.9351 0.75 52.25V21.25C0.75 20.5649 1.02217 19.9078 1.50664 19.4233C1.99111 18.9388 2.64819 18.6667 3.33333 18.6667H8.5V16.0833C8.5 11.9725 10.133 8.02999 13.0398 5.12317C15.9467 2.21636 19.8891 0.583328 24 0.583328C28.1109 0.583328 32.0533 2.21636 34.9602 5.12317C37.867 8.02999 39.5 11.9725 39.5 16.0833V18.6667ZM5.91667 23.8333V49.6667H42.0833V23.8333H5.91667ZM21.4167 34.1667H26.5833V39.3333H21.4167V34.1667ZM11.0833 34.1667H16.25V39.3333H11.0833V34.1667ZM31.75 34.1667H36.9167V39.3333H31.75V34.1667ZM34.3333 18.6667V16.0833C34.3333 13.3428 33.2446 10.7144 31.3068 8.77656C29.3689 6.83868 26.7406 5.75 24 5.75C21.2594 5.75 18.6311 6.83868 16.6932 8.77656C14.7554 10.7144 13.6667 13.3428 13.6667 16.0833V18.6667H34.3333Z" fill="#0768F6"/>
</svg>
