<svg width="44" height="39" viewBox="0 0 44 39" fill="none" xmlns="http://www.w3.org/2000/svg">
<path d="M26.2419 15.96C25.8669 15.585 25.3582 15.3744 24.8279 15.3744C24.2976 15.3744 23.789 15.585 23.4139 15.96L21.9999 17.372C21.6309 17.754 21.1896 18.0587 20.7015 18.2684C20.2135 18.478 19.6886 18.5884 19.1575 18.593C18.6264 18.5976 18.0997 18.4964 17.6081 18.2953C17.1165 18.0941 16.6699 17.7971 16.2943 17.4216C15.9188 17.046 15.6218 16.5994 15.4206 16.1078C15.2195 15.6162 15.1183 15.0895 15.1229 14.5584C15.1275 14.0273 15.2379 13.5024 15.4475 13.0144C15.6571 12.5263 15.9619 12.085 16.3439 11.716L27.6039 0.451977C30.2698 -0.15437 33.0589 0.0951737 35.5748 1.16513C38.0907 2.23508 40.2052 4.07097 41.6177 6.41176C43.0302 8.75255 43.6687 11.4791 43.4426 14.2036C43.2164 16.9282 42.137 19.5121 40.3579 21.588L36.1419 25.858L26.2419 15.958V15.96ZM4.32192 3.93598C6.39144 1.86673 9.09836 0.555935 12.005 0.215509C14.9117 -0.124916 17.8483 0.524927 20.3399 2.05998L13.5139 8.88798C12.0355 10.3634 11.1928 12.3586 11.1658 14.4471C11.1388 16.5356 11.9297 18.5519 13.3695 20.065C14.8093 21.5782 16.7837 22.4683 18.871 22.5451C20.9583 22.6219 22.9928 21.8793 24.5399 20.476L24.8279 20.202L33.3139 28.686L24.8279 37.172C24.0778 37.9219 23.0606 38.3431 21.9999 38.3431C20.9393 38.3431 19.922 37.9219 19.1719 37.172L4.31992 22.32C1.88218 19.882 0.512695 16.5756 0.512695 13.128C0.512695 9.68035 1.88218 6.37392 4.31992 3.93598H4.32192Z" fill="#FD740E"/>
</svg>
