<svg width="100" height="100" viewBox="0 0 100 100" fill="none" xmlns="http://www.w3.org/2000/svg">
<circle cx="50" cy="50" r="49.5" fill="#F4F8FD" stroke="#64A0F7"/>
<path d="M50.6705 73.6364C59.6932 73.6364 66.3977 67.9773 66.3977 60.3636C66.3977 54.4545 62.8977 50.1591 57.0341 49.1818V48.8182C61.7386 47.3864 64.6705 43.5227 64.6705 38.2727C64.6705 31.6818 59.4659 25.8182 50.8523 25.8182C42.8068 25.8182 36.125 30.7727 35.8523 38.0909H41.3068C41.5114 33.4545 45.9205 30.7273 50.7614 30.7273C55.8977 30.7273 59.2159 33.8409 59.2159 38.5455C59.2159 43.4545 55.375 46.6364 49.8523 46.6364H46.125V51.6364H49.8523C56.9205 51.6364 60.8523 55.2273 60.8523 60.3636C60.8523 65.2955 56.5568 68.6364 50.5795 68.6364C45.1932 68.6364 40.9205 65.8636 40.5795 61.3636H34.8523C35.1932 68.6818 41.6477 73.6364 50.6705 73.6364Z" fill="#0768F6"/>
</svg>
