<svg width="85" height="75" viewBox="0 0 85 75" fill="none" xmlns="http://www.w3.org/2000/svg">
<path d="M0 4C0 1.79086 1.79086 0 4 0H81C83.2091 0 85 1.79086 85 4V71C85 73.2091 83.2091 75 81 75H0V4Z" fill="#038830"/>
<path d="M41.3333 21.3333L53.4967 25.1333C53.8359 25.2392 54.1324 25.4508 54.3429 25.7371C54.5534 26.0235 54.6668 26.3696 54.6667 26.725V29.6666H58C58.442 29.6666 58.866 29.8422 59.1785 30.1548C59.4911 30.4674 59.6667 30.8913 59.6667 31.3333V44.6666C59.6667 45.1087 59.4911 45.5326 59.1785 45.8452C58.866 46.1577 58.442 46.3333 58 46.3333L52.6333 46.335C51.9883 47.185 51.205 47.935 50.3 48.5516L41.3333 54.6666L32.3667 48.5533C31.0209 47.6357 29.9196 46.4033 29.1586 44.9632C28.3975 43.523 27.9998 41.9188 28 40.29V26.725C28.0002 26.3699 28.1138 26.0241 28.3243 25.7381C28.5347 25.4521 28.831 25.2408 29.17 25.135L41.3333 21.3333ZM41.3333 24.8233L31.3333 27.95V40.29C31.3331 41.3104 31.5671 42.3172 32.0173 43.2329C32.4675 44.1486 33.1218 44.9487 33.93 45.5716L34.245 45.7983L41.3333 50.6333L47.6367 46.3333H39.6667C39.2246 46.3333 38.8007 46.1577 38.4882 45.8452C38.1756 45.5326 38 45.1087 38 44.6666V31.3333C38 30.8913 38.1756 30.4674 38.4882 30.1548C38.8007 29.8422 39.2246 29.6666 39.6667 29.6666H51.3333V27.95L41.3333 24.8233ZM41.3333 38V43H56.3333V38H41.3333ZM41.3333 34.6666H56.3333V33H41.3333V34.6666Z" fill="white"/>
</svg>
