<svg width="50" height="50" viewBox="0 0 50 50" fill="none" xmlns="http://www.w3.org/2000/svg">
<circle cx="25" cy="25" r="25" fill="#FBFAF8"/>
<path d="M37.7977 17.1741L39.2527 15.7193C39.4944 15.4774 39.5741 15.1171 39.4566 14.796C39.3392 14.4746 39.046 14.2508 38.705 14.222L36.0058 13.9942L35.778 11.295C35.7494 10.9542 35.5254 10.661 35.2042 10.5436C34.8831 10.4259 34.5229 10.5056 34.2809 10.7475L32.8259 12.2023C30.473 10.7597 27.7827 10 25 10C20.9934 10 17.2265 11.5603 14.3934 14.3934C11.5603 17.2265 10 20.9934 10 25C10 29.0066 11.5603 32.7735 14.3934 35.6066C17.2265 38.4397 20.9934 40 25 40C29.0066 40 32.7735 38.4397 35.6066 35.6066C38.4397 32.7735 40 29.0066 40 25C40 22.2173 39.2403 19.5272 37.7977 17.1741ZM34.3164 14.8816C34.3526 15.3087 34.6913 15.6474 35.1184 15.6836L36.6714 15.8145L34.5693 17.9166L32.2768 17.7232L32.0834 15.4307L34.1855 13.3286L34.3164 14.8816ZM27.9883 25C27.9883 26.6477 26.6477 27.9883 25 27.9883C23.3523 27.9883 22.0117 26.6477 22.0117 25C22.0117 23.3523 23.3523 22.0117 25 22.0117C25.5047 22.0117 25.9801 22.1378 26.3973 22.3596L24.3786 24.3786C24.0353 24.7217 24.0353 25.2781 24.3786 25.6214C24.55 25.7931 24.775 25.8789 25 25.8789C25.225 25.8789 25.45 25.7931 25.6214 25.6214L27.6404 23.6027C27.8622 24.0199 27.9883 24.4953 27.9883 25ZM27.6749 21.082C26.9128 20.5602 25.9915 20.2539 25 20.2539C22.383 20.2539 20.2539 22.383 20.2539 25C20.2539 27.617 22.383 29.7461 25 29.7461C27.617 29.7461 29.7461 27.617 29.7461 25C29.7461 24.0085 29.4398 23.0872 28.918 22.3251L31.4275 19.8156C32.5739 21.2342 33.2617 23.0383 33.2617 25C33.2617 29.5554 29.5554 33.2617 25 33.2617C20.4446 33.2617 16.7383 29.5554 16.7383 25C16.7383 20.4446 20.4446 16.7383 25 16.7383C26.9617 16.7383 28.7658 17.4261 30.1844 18.5725L27.6749 21.082ZM34.3636 34.3636C31.8626 36.8648 28.5371 38.2422 25 38.2422C21.4629 38.2422 18.1374 36.8648 15.6364 34.3636C13.1352 31.8626 11.7578 28.5371 11.7578 25C11.7578 21.4629 13.1352 18.1374 15.6364 15.6364C18.1374 13.1352 21.4629 11.7578 25 11.7578C27.314 11.7578 29.5554 12.3522 31.5433 13.485L30.552 14.4762C30.3918 14.6365 30.3004 14.8512 30.2947 15.0752C30.294 15.1073 30.295 15.1393 30.2975 15.1716L30.4158 16.5739C28.8532 15.5659 26.9938 14.9805 25 14.9805C19.4753 14.9805 14.9805 19.4753 14.9805 25C14.9805 30.5247 19.4753 35.0195 25 35.0195C30.5247 35.0195 35.0195 30.5247 35.0195 25C35.0195 23.0062 34.4341 21.1468 33.4261 19.5842L34.8284 19.7025C34.8531 19.7044 34.8779 19.7055 34.9023 19.7055C34.9065 19.7055 34.9108 19.705 34.9149 19.7048C34.9266 19.7048 34.938 19.7039 34.9497 19.7032C34.9687 19.7021 34.9879 19.7009 35.0067 19.6986C35.0184 19.697 35.0301 19.6952 35.0417 19.6934C35.0603 19.6904 35.0786 19.687 35.0969 19.6828C35.1086 19.6801 35.12 19.6771 35.1315 19.6741C35.1493 19.6693 35.1669 19.6638 35.1846 19.6579C35.196 19.654 35.2072 19.6501 35.2184 19.6458C35.2356 19.6391 35.2525 19.6318 35.2695 19.6238C35.2802 19.619 35.291 19.6142 35.3017 19.6087C35.3187 19.6 35.3352 19.5904 35.3514 19.5808C35.3613 19.5748 35.3711 19.5693 35.3807 19.5634C35.3981 19.5519 35.4148 19.5396 35.4315 19.527C35.4393 19.521 35.4473 19.5158 35.4549 19.5096C35.4787 19.4904 35.5018 19.47 35.5238 19.448L36.515 18.4567C37.6478 20.4446 38.2422 22.686 38.2422 25C38.2422 28.5371 36.8648 31.8626 34.3636 34.3636Z" fill="#E9B040"/>
</svg>
