<svg width="34" height="30" viewBox="0 0 34 30" fill="none" xmlns="http://www.w3.org/2000/svg">
<path d="M0.500002 19.75C0.499078 18.0932 0.920633 16.4635 1.72483 15.0149C2.52902 13.5664 3.6893 12.3468 5.096 11.4715C5.46727 8.57663 6.8807 5.91625 9.07178 3.98823C11.2629 2.06021 14.0814 0.996689 17 0.996689C19.9186 0.996689 22.7371 2.06021 24.9282 3.98823C27.1193 5.91625 28.5327 8.57663 28.904 11.4715C30.6488 12.557 32.0061 14.1661 32.7819 16.069C33.5578 17.9718 33.7126 20.0712 33.2242 22.0673C32.7358 24.0633 31.6293 25.8541 30.0625 27.1838C28.4958 28.5135 26.5489 29.3142 24.5 29.4715L9.5 29.5C4.466 29.089 0.500002 24.883 0.500002 19.75ZM24.272 26.4805C25.6907 26.3714 27.0387 25.8168 28.1234 24.8958C29.2081 23.9748 29.974 22.7346 30.3117 21.3524C30.6494 19.9701 30.5417 18.5164 30.0038 17.1991C29.466 15.8817 28.5256 14.768 27.317 14.017L26.1065 13.2625L25.9265 11.8495C25.6461 9.68003 24.5853 7.6869 22.9424 6.24263C21.2994 4.79836 19.1868 4.00178 16.9993 4.00178C14.8117 4.00178 12.6991 4.79836 11.0561 6.24263C9.41319 7.6869 8.35239 9.68003 8.072 11.8495L7.892 13.2625L6.6845 14.017C5.47595 14.7679 4.53558 15.8815 3.9977 17.1987C3.45982 18.516 3.35194 19.9695 3.68946 21.3517C4.02699 22.7339 4.79266 23.9741 5.87713 24.8952C6.96159 25.8163 8.30938 26.3711 9.728 26.4805L9.9875 26.5H24.0125L24.272 26.4805ZM18.5 17.5V23.5H15.5V17.5H11L17 10L23 17.5H18.5Z" fill="#0768F6"/>
</svg>
