<svg width="31" height="31" viewBox="0 0 31 31" fill="none" xmlns="http://www.w3.org/2000/svg">
<path fill-rule="evenodd" clip-rule="evenodd" d="M19.098 8.70272C19.098 8.95912 19.1382 8.80162 19.1345 9.00307L19.098 27.2876C19.098 27.8077 19.1893 28.3864 18.4805 28.3864C17.5854 28.3864 17.8667 26.9213 17.8667 26.3499C17.8667 24.372 17.958 12.1164 17.8082 11.5853C17.768 11.4461 17.6767 11.219 17.6255 11.0872C17.471 10.7712 17.2577 10.4878 16.9971 10.2521L16.6865 10.0103C16.1312 9.58911 15.532 9.64405 14.8597 9.64405C14.5217 9.6924 14.1992 9.81769 13.917 10.0103C13.6508 10.1915 13.4162 10.4155 13.2228 10.6733C12.7478 11.2996 12.704 11.8014 12.704 12.8709V27.6685C12.704 28.0091 12.7259 27.9945 12.5396 28.1813C12.0902 28.6318 11.8782 28.3131 11.469 28.097V24.4343C11.469 24.1706 11.4215 24.0314 11.4179 23.8775L11.4654 22.9545C11.4654 22.7128 11.4215 22.6725 11.4215 22.5223C11.4215 22.3721 11.4654 22.3355 11.4654 22.0901C11.4654 21.1634 11.5165 20.5225 11.2352 19.6654C10.6689 17.9768 8.34875 17.4201 6.94207 18.8779C6.68968 19.1534 6.49498 19.4769 6.36946 19.8293C6.24395 20.1816 6.19018 20.5555 6.21132 20.929C6.21132 21.4162 6.36113 23.9142 6.06518 24.1815C5.9396 24.2925 5.7774 24.3528 5.61 24.3508C5.44261 24.3488 5.28192 24.2846 5.15905 24.1706L4.53427 23.3648C4.42831 23.2109 4.33697 23.0974 4.25293 22.9655L2.5576 19.5298C2.53854 19.4314 2.51166 19.3346 2.47722 19.2405C2.40225 19.0735 2.34943 18.8974 2.32011 18.7167C2.27992 18.4969 2.2105 18.3504 2.17031 18.127C2.13012 17.9036 2.14108 17.7131 2.09723 17.5227C1.81123 16.152 1.79509 14.7386 2.04974 13.3618C2.16666 12.7501 2.39319 11.3472 2.68548 10.7978C2.7377 10.7182 2.776 10.6303 2.79875 10.5378L3.02893 9.97004C3.06331 9.86423 3.10608 9.76134 3.15681 9.66236L3.70487 8.60749C4.09404 7.94231 4.52482 7.30249 4.99464 6.69187C5.61581 5.97672 6.29933 5.31848 7.03706 4.72496L8.97354 3.45032C9.07584 3.40637 9.11603 3.38439 9.22199 3.32945C9.32795 3.27451 9.40467 3.24521 9.51794 3.19393C9.90523 3.01079 10.2048 2.85695 10.6141 2.69213C10.8589 2.5969 10.9977 2.60056 11.2352 2.51265L12.4665 2.14638L14.6149 1.84969C15.5409 1.81684 16.4679 1.88067 17.3807 2.04016C17.5854 2.08045 17.8996 2.10242 18.0823 2.13905L19.9347 2.69213C20.1466 2.7837 20.3001 2.83131 20.501 2.93021C20.702 3.0291 20.8372 3.09137 21.0491 3.17928C21.261 3.26718 21.3706 3.34776 21.5862 3.44666L21.8967 3.6298L21.9223 3.6591C22.6531 4.08032 23.8624 4.86781 24.363 5.47217L24.7576 5.85676C25.2991 6.39125 25.7884 6.97627 26.2191 7.60389C26.5537 8.08473 26.8575 8.58631 27.1289 9.10563L27.2458 9.35469L27.4577 9.76126C27.475 9.80676 27.4897 9.85323 27.5015 9.90044C27.5272 10.0076 27.5718 10.1093 27.6331 10.2008C27.9771 10.9874 28.2309 11.8107 28.3894 12.6548C28.5429 14.0613 28.6452 14.0137 28.6452 15.673C28.6342 16.8968 28.4333 18.1115 28.0496 19.2735C27.9911 19.4493 28.0021 19.4932 27.951 19.669C27.7465 20.3132 27.4835 20.9373 27.1654 21.5334C26.8247 22.2322 26.4147 22.8949 25.9414 23.5113C25.6747 23.8043 25.2107 24.5368 24.7211 24.3171C24.5908 24.2671 24.4812 24.1743 24.4102 24.054C24.3392 23.9336 24.311 23.7926 24.3301 23.6541C24.268 19.8815 24.3301 15.7645 24.3301 11.9772C24.3338 10.2521 24.7284 7.68814 23.3582 6.58931C22.9691 6.27571 22.4986 6.08014 22.0022 6.02563C21.5059 5.97112 21.0044 6.05994 20.5567 6.28164C20.109 6.50333 19.7339 6.84866 19.4754 7.27695C19.217 7.70524 19.086 8.19865 19.098 8.69906V8.70272ZM0 14.0137V16.7938L0.336142 18.7424C0.410246 18.9493 0.465282 19.1626 0.50056 19.3797C0.797365 20.5378 1.23546 21.6548 1.80494 22.7055C1.90724 22.8959 1.99858 23.0021 2.08262 23.1706L3.01066 24.5881C3.12393 24.742 3.21527 24.8555 3.33585 25.002C3.45642 25.1485 3.55507 25.3243 3.6793 25.4599C3.94857 25.753 4.27917 25.9828 4.64743 26.1329C5.01568 26.283 5.41248 26.3496 5.80941 26.3279C6.19868 26.2988 6.57634 26.1819 6.9142 25.9859C7.25205 25.7899 7.54136 25.52 7.7605 25.1961C8.82739 23.4746 7.47916 20.0097 8.74701 20.0097C9.42294 20.0097 9.47775 20.3759 9.47775 20.9949V27.2949C9.47775 28.3278 9.61659 28.9834 10.3218 29.661C11.0963 30.3936 11.6042 30.2617 12.6163 30.2617C12.7812 30.2429 12.941 30.1932 13.0876 30.1152C13.5438 29.9285 13.9281 29.5998 14.1837 29.1776C14.6331 28.5109 14.6478 27.8223 14.6478 26.9799C14.6478 22.1231 14.7026 17.2626 14.6478 12.4021C14.6478 12.0871 14.6003 12.0358 14.7537 11.8307C14.8051 11.7457 14.8767 11.6749 14.9623 11.6247C15.0478 11.5745 15.1445 11.5465 15.2435 11.5432C15.3426 11.54 15.4409 11.5615 15.5296 11.606C15.6182 11.6504 15.6944 11.7163 15.7512 11.7978C15.9302 11.9992 15.89 11.9772 15.8864 12.3398C15.8645 14.7792 15.7987 27.4707 15.9412 28.2179C16.058 28.8738 16.4249 29.4584 16.9642 29.8478C17.695 30.3716 18.3307 30.2544 19.2113 30.2544C19.5772 30.1495 19.9104 29.9529 20.1795 29.683C20.4855 29.4098 20.7239 29.0691 20.8761 28.6877C21.0283 28.3063 21.09 27.8947 21.0564 27.4854C21.0345 21.3099 21.1075 15.1309 21.0564 8.95545C21.0564 8.58918 21.1222 7.97017 21.6118 7.97017C22.4886 7.97017 22.3425 8.66976 22.3425 9.51585V23.471C22.3109 23.9261 22.3948 24.3818 22.5865 24.7956C22.7782 25.2094 23.0713 25.5677 23.4386 25.8371C23.7821 26.0898 24.7247 26.4525 25.1741 26.3096C25.3159 26.2548 25.4628 26.2143 25.6126 26.1887C25.7816 26.1665 25.9423 26.1023 26.0802 26.0019C26.7708 25.6357 27.085 25.1925 27.5198 24.6064L28.6561 22.841C28.9932 22.2011 29.2981 21.5446 29.5696 20.8741C29.6395 20.7308 29.6958 20.5812 29.7376 20.4272C29.8436 20.1195 29.9203 19.8375 30.008 19.5225C30.0445 19.398 30.0811 19.1892 30.1103 19.0683C30.1724 18.8229 30.2016 18.8486 30.2565 18.5958L30.5561 16.552V13.8929C30.5561 13.3984 30.3368 13.0321 30.3113 12.4717C30.2972 12.2311 30.239 11.9952 30.1395 11.7758C29.9995 11.0935 29.8015 10.4244 29.5476 9.77591L28.7329 7.99581C28.3537 7.25165 27.8995 6.54839 27.3773 5.89705C27.2458 5.72856 27.1325 5.5674 27.0119 5.41722C26.716 5.08391 26.4968 4.83485 26.1826 4.51985C25.4737 3.79923 24.7022 3.14344 23.8771 2.56027C23.1929 2.06768 22.4579 1.65017 21.6848 1.31493C21.5784 1.2826 21.4746 1.24219 21.3743 1.19406C20.6565 0.861617 19.9091 0.597946 19.1418 0.406567C19.0185 0.387117 18.8965 0.360208 18.7765 0.325986C18.4184 0.223147 18.0514 0.15447 17.6803 0.120871C17.4407 0.059337 17.1962 0.0188931 16.9496 0H13.8074C13.2916 0.0333389 12.778 0.0957041 12.2692 0.186801C12.0386 0.228136 11.8114 0.286908 11.5896 0.362613C10.4988 0.633111 9.44032 1.02118 8.43279 1.52005C8.05239 1.70121 7.686 1.91057 7.33667 2.14638C6.6273 2.56573 5.96252 3.05665 5.3527 3.61148L3.99352 4.90444C3.00865 6.00379 2.18331 7.23684 1.54187 8.5672L1.27515 9.16423C1.2142 9.25266 1.16506 9.3487 1.129 9.44992C1.09729 9.55821 1.05947 9.6646 1.01573 9.76859C0.76191 10.4171 0.563888 11.0861 0.423831 11.7685C0.32648 11.9873 0.26835 12.2216 0.252107 12.4607C0.204608 13.0175 0 13.4497 0 14.0137Z" fill="#FD740E"/>
</svg>
